%TF.GenerationSoftware,KiCad,Pcbnew,9.0.2*%
%TF.CreationDate,2025-08-07T13:19:16-06:00*%
%TF.ProjectId,macro devboard ESP32,6d616372-6f20-4646-9576-626f61726420,rev?*%
%TF.SameCoordinates,Original*%
%TF.FileFunction,Soldermask,Bot*%
%TF.FilePolarity,Negative*%
%FSLAX46Y46*%
G04 Gerber Fmt 4.6, Leading zero omitted, Abs format (unit mm)*
G04 Created by KiCad (PCBNEW 9.0.2) date 2025-08-07 13:19:16*
%MOMM*%
%LPD*%
G01*
G04 APERTURE LIST*
G04 Aperture macros list*
%AMRoundRect*
0 Rectangle with rounded corners*
0 $1 Rounding radius*
0 $2 $3 $4 $5 $6 $7 $8 $9 X,Y pos of 4 corners*
0 Add a 4 corners polygon primitive as box body*
4,1,4,$2,$3,$4,$5,$6,$7,$8,$9,$2,$3,0*
0 Add four circle primitives for the rounded corners*
1,1,$1+$1,$2,$3*
1,1,$1+$1,$4,$5*
1,1,$1+$1,$6,$7*
1,1,$1+$1,$8,$9*
0 Add four rect primitives between the rounded corners*
20,1,$1+$1,$2,$3,$4,$5,0*
20,1,$1+$1,$4,$5,$6,$7,0*
20,1,$1+$1,$6,$7,$8,$9,0*
20,1,$1+$1,$8,$9,$2,$3,0*%
%AMFreePoly0*
4,1,23,0.500000,-0.750000,0.000000,-0.750000,0.000000,-0.745722,-0.065263,-0.745722,-0.191342,-0.711940,-0.304381,-0.646677,-0.396677,-0.554381,-0.461940,-0.441342,-0.495722,-0.315263,-0.495722,-0.250000,-0.500000,-0.250000,-0.500000,0.250000,-0.495722,0.250000,-0.495722,0.315263,-0.461940,0.441342,-0.396677,0.554381,-0.304381,0.646677,-0.191342,0.711940,-0.065263,0.745722,0.000000,0.745722,
0.000000,0.750000,0.500000,0.750000,0.500000,-0.750000,0.500000,-0.750000,$1*%
%AMFreePoly1*
4,1,23,0.000000,0.745722,0.065263,0.745722,0.191342,0.711940,0.304381,0.646677,0.396677,0.554381,0.461940,0.441342,0.495722,0.315263,0.495722,0.250000,0.500000,0.250000,0.500000,-0.250000,0.495722,-0.250000,0.495722,-0.315263,0.461940,-0.441342,0.396677,-0.554381,0.304381,-0.646677,0.191342,-0.711940,0.065263,-0.745722,0.000000,-0.745722,0.000000,-0.750000,-0.500000,-0.750000,
-0.500000,0.750000,0.000000,0.750000,0.000000,0.745722,0.000000,0.745722,$1*%
G04 Aperture macros list end*
%ADD10C,1.701800*%
%ADD11C,3.000000*%
%ADD12C,3.987800*%
%ADD13R,2.550000X2.500000*%
%ADD14C,2.286000*%
%ADD15RoundRect,0.102000X-0.900000X0.900000X-0.900000X-0.900000X0.900000X-0.900000X0.900000X0.900000X0*%
%ADD16C,2.004000*%
%ADD17O,6.204000X3.204000*%
%ADD18C,2.700000*%
%ADD19C,4.700000*%
%ADD20C,0.650000*%
%ADD21O,2.304000X1.254000*%
%ADD22O,2.004000X1.104000*%
%ADD23C,1.320800*%
%ADD24C,1.498600*%
%ADD25RoundRect,0.125000X0.125000X-0.125000X0.125000X0.125000X-0.125000X0.125000X-0.125000X-0.125000X0*%
%ADD26FreePoly0,270.000000*%
%ADD27FreePoly1,270.000000*%
%ADD28C,2.000000*%
%ADD29R,1.700000X1.700000*%
%ADD30C,1.700000*%
%ADD31RoundRect,0.125000X-0.125000X0.125000X-0.125000X-0.125000X0.125000X-0.125000X0.125000X0.125000X0*%
%ADD32RoundRect,0.250000X0.625000X-0.350000X0.625000X0.350000X-0.625000X0.350000X-0.625000X-0.350000X0*%
%ADD33O,1.750000X1.200000*%
G04 APERTURE END LIST*
%TO.C,LED1*%
G36*
X198560000Y-55660000D02*
G01*
X200060000Y-55660000D01*
X200060000Y-55960000D01*
X198560000Y-55960000D01*
X198560000Y-55660000D01*
G37*
%TO.C,LED0*%
G36*
X195970000Y-55660000D02*
G01*
X197470000Y-55660000D01*
X197470000Y-55960000D01*
X195970000Y-55960000D01*
X195970000Y-55660000D01*
G37*
%TD*%
D10*
%TO.C,SW6*%
X240010000Y-87620000D03*
D11*
X242550000Y-92700000D03*
D12*
X245090000Y-87620000D03*
D11*
X248900000Y-90160000D03*
D10*
X250170000Y-87620000D03*
D13*
X238800000Y-92700000D03*
D14*
X247630000Y-82540000D03*
X241280000Y-85080000D03*
D13*
X252650000Y-90160000D03*
%TD*%
D15*
%TO.C,S1*%
X233040000Y-47020000D03*
D16*
X233040000Y-52020000D03*
X218540000Y-47020000D03*
X218540000Y-52020000D03*
X218540000Y-49520000D03*
D17*
X226040000Y-43920000D03*
X226040000Y-55120000D03*
%TD*%
D10*
%TO.C,SW9*%
X220960000Y-68570000D03*
D11*
X223500000Y-73650000D03*
D12*
X226040000Y-68570000D03*
D11*
X229850000Y-71110000D03*
D10*
X231120000Y-68570000D03*
D13*
X219750000Y-73650000D03*
D14*
X228580000Y-63490000D03*
X222230000Y-66030000D03*
D13*
X233600000Y-71110000D03*
%TD*%
D18*
%TO.C,H1*%
X202640000Y-94320000D03*
D19*
X202640000Y-94320000D03*
%TD*%
D20*
%TO.C,J1*%
X194640000Y-43420000D03*
X194640000Y-49200000D03*
D21*
X195140000Y-41990000D03*
X195140000Y-50630000D03*
D22*
X190960000Y-41990000D03*
X190960000Y-50630000D03*
%TD*%
D18*
%TO.C,H2*%
X215860000Y-43120000D03*
D19*
X215860000Y-43120000D03*
%TD*%
D10*
%TO.C,SW7*%
X240010000Y-68570000D03*
D11*
X242550000Y-73650000D03*
D12*
X245090000Y-68570000D03*
D11*
X248900000Y-71110000D03*
D10*
X250170000Y-68570000D03*
D13*
X238800000Y-73650000D03*
D14*
X247630000Y-63490000D03*
X241280000Y-66030000D03*
D13*
X252650000Y-71110000D03*
%TD*%
D10*
%TO.C,SW8*%
X220960000Y-87620000D03*
D11*
X223500000Y-92700000D03*
D12*
X226040000Y-87620000D03*
D11*
X229850000Y-90160000D03*
D10*
X231120000Y-87620000D03*
D13*
X219750000Y-92700000D03*
D14*
X228580000Y-82540000D03*
X222230000Y-85080000D03*
D13*
X233600000Y-90160000D03*
%TD*%
D10*
%TO.C,SW1*%
X240010000Y-49520000D03*
D11*
X242550000Y-54600000D03*
D12*
X245090000Y-49520000D03*
D11*
X248900000Y-52060000D03*
D10*
X250170000Y-49520000D03*
D13*
X238800000Y-54600000D03*
D14*
X247630000Y-44440000D03*
X241280000Y-46980000D03*
D13*
X252650000Y-52060000D03*
%TD*%
D23*
%TO.C,SW2*%
X209940000Y-95000000D03*
X211940000Y-95000000D03*
X213940001Y-95000000D03*
D24*
X207940000Y-95000000D03*
X215940000Y-95000000D03*
%TD*%
D25*
%TO.C,D4*%
X251950000Y-76977499D03*
X251950000Y-74777501D03*
%TD*%
%TO.C,D6*%
X233560000Y-76099998D03*
X233560000Y-73900000D03*
%TD*%
D26*
%TO.C,LED1*%
X199310000Y-55160000D03*
D27*
X199310000Y-56460000D03*
%TD*%
D28*
%TO.C,TP4*%
X216970000Y-57720000D03*
%TD*%
D29*
%TO.C,J3*%
X211300000Y-64670000D03*
D30*
X213840000Y-64670000D03*
X211300000Y-67210000D03*
X213840000Y-67210000D03*
X211300000Y-69750000D03*
X213840000Y-69750000D03*
X211300000Y-72290000D03*
X213840000Y-72290000D03*
%TD*%
D28*
%TO.C,TP5*%
X217000000Y-61120000D03*
%TD*%
D31*
%TO.C,D3*%
X251940000Y-84052501D03*
X251940000Y-86252499D03*
%TD*%
D28*
%TO.C,TP6*%
X200240000Y-89550000D03*
%TD*%
%TO.C,TP2*%
X213230000Y-49520000D03*
%TD*%
%TO.C,TP3*%
X192860000Y-92720000D03*
%TD*%
D25*
%TO.C,D7*%
X235590000Y-49190000D03*
X235590000Y-46990000D03*
%TD*%
D26*
%TO.C,LED0*%
X196720000Y-55160000D03*
D27*
X196720000Y-56460000D03*
%TD*%
D25*
%TO.C,D2*%
X251950000Y-58292498D03*
X251950000Y-56092500D03*
%TD*%
D32*
%TO.C,J4*%
X216090000Y-86810000D03*
D33*
X216090000Y-84810000D03*
%TD*%
D31*
%TO.C,D5*%
X233580000Y-84032501D03*
X233580000Y-86232499D03*
%TD*%
D28*
%TO.C,TP1*%
X215440000Y-90870000D03*
%TD*%
M02*
