M48
; DRILL file {KiCad 9.0.2} date 2025-08-07T13:19:15-0600
; FORMAT={-:-/ absolute / metric / decimal}
; #@! TF.CreationDate,2025-08-07T13:19:15-06:00
; #@! TF.GenerationSoftware,Kicad,Pcbnew,9.0.2
; #@! TF.FileFunction,Plated,1,4,PTH
FMAT,2
METRIC
; #@! TA.AperFunction,Plated,PTH,ViaDrill
T1C0.300
; #@! TA.AperFunction,Plated,PTH,ComponentDrill
T2C0.600
; #@! TA.AperFunction,Plated,PTH,ComponentDrill
T3C0.750
; #@! TA.AperFunction,Plated,PTH,ComponentDrill
T4C0.813
; #@! TA.AperFunction,Plated,PTH,ComponentDrill
T5C0.991
; #@! TA.AperFunction,Plated,PTH,ComponentDrill
T6C1.000
; #@! TA.AperFunction,Plated,PTH,ComponentDrill
T7C1.200
; #@! TA.AperFunction,Plated,PTH,ComponentDrill
T8C1.499
; #@! TA.AperFunction,Plated,PTH,ComponentDrill
T9C2.000
%
G90
G05
T1
X190.51Y-45.35
X190.51Y-47.89
X190.8Y-91.59
X191.0Y-86.62
X191.89Y-90.25
X191.89Y-95.65
X193.05Y-42.81
X193.05Y-50.43
X194.33Y-44.39
X194.34Y-45.26
X194.34Y-47.84
X194.345Y-46.56
X194.6Y-87.35
X195.59Y-91.07
X195.59Y-93.61
X196.03Y-61.55
X196.03Y-75.27
X196.312Y-58.3
X196.72Y-53.85
X197.29Y-95.6
X197.83Y-58.31
X197.83Y-78.62
X198.0Y-53.9
X198.13Y-63.13
X198.13Y-65.67
X198.13Y-68.21
X198.13Y-70.75
X198.13Y-73.29
X199.32Y-58.32
X199.327Y-78.61
X199.33Y-52.37
X199.35Y-53.87
X199.76Y-91.49
X199.77Y-95.62
X200.46Y-44.96
X200.67Y-70.75
X200.67Y-73.29
X200.73Y-82.26
X200.822Y-58.325
X200.827Y-78.61
X201.1Y-55.74
X201.14Y-90.87
X201.5Y-66.39
X201.5Y-67.47
X201.5Y-68.47
X201.61Y-49.082
X202.327Y-78.61
X202.52Y-66.38
X202.52Y-67.46
X202.52Y-68.46
X203.21Y-70.75
X203.21Y-73.29
X203.59Y-66.37
X203.59Y-67.45
X203.59Y-68.45
X203.827Y-78.61
X204.13Y-61.43
X204.22Y-53.12
X204.64Y-49.82
X205.317Y-78.62
X205.75Y-70.75
X205.75Y-73.29
X206.817Y-78.62
X207.38Y-84.23
X208.29Y-63.13
X208.29Y-73.29
X208.3Y-88.24
X208.77Y-65.98
X208.77Y-91.49
X209.03Y-84.23
X209.93Y-60.63
X209.93Y-75.24
X210.66Y-84.22
X212.35Y-41.73
X217.1Y-90.89
X218.59Y-57.72
X219.76Y-95.55
X220.99Y-42.81
X220.99Y-45.35
X221.74Y-51.85
X222.3Y-89.25
X222.35Y-60.24
X222.63Y-69.99
X223.53Y-47.89
X223.53Y-50.43
X223.53Y-58.05
X223.53Y-63.13
X223.53Y-77.87
X226.07Y-47.89
X226.07Y-50.43
X226.07Y-58.05
X226.07Y-63.13
X226.07Y-75.83
X226.07Y-77.87
X226.07Y-91.07
X226.09Y-73.24
X226.09Y-93.39
X228.61Y-47.89
X228.61Y-50.43
X228.61Y-75.84
X228.61Y-77.87
X229.27Y-67.8
X229.28Y-86.89
X229.74Y-93.42
X231.15Y-42.81
X231.15Y-45.35
X231.15Y-47.89
X231.15Y-50.43
X231.15Y-52.97
X231.15Y-60.59
X232.074Y-82.526
X232.72Y-75.0
X233.62Y-93.38
X233.69Y-42.81
X233.69Y-58.05
X233.69Y-60.59
X233.69Y-81.17
X233.81Y-65.63
X235.58Y-50.44
X235.6Y-74.57
X236.23Y-42.81
X236.23Y-45.35
X236.23Y-78.37
X236.23Y-85.99
X236.23Y-88.53
X236.23Y-91.07
X236.25Y-81.18
X236.25Y-83.59
X237.24Y-66.54
X237.24Y-68.22
X237.24Y-70.76
X238.27Y-63.15
X238.76Y-81.2
X238.77Y-42.81
X238.77Y-58.05
X238.77Y-60.59
X238.77Y-75.83
X238.77Y-78.37
X238.93Y-51.39
X241.27Y-69.99
X241.29Y-95.57
X241.31Y-58.05
X241.31Y-60.59
X241.31Y-78.37
X241.33Y-81.17
X241.491Y-89.24
X241.97Y-50.43
X243.83Y-95.57
X243.84Y-81.17
X243.85Y-58.05
X243.85Y-60.59
X243.85Y-78.37
X246.36Y-73.27
X246.39Y-52.97
X246.39Y-55.51
X246.39Y-58.05
X246.39Y-60.59
X246.39Y-75.83
X246.39Y-78.37
X246.39Y-91.07
X246.39Y-93.61
X248.36Y-48.7
X248.38Y-67.82
X248.39Y-86.91
X248.93Y-55.51
X248.93Y-58.05
X248.93Y-60.59
X248.93Y-75.83
X248.93Y-78.37
X248.93Y-93.61
X250.19Y-83.49
X251.11Y-75.91
X251.46Y-78.38
X251.47Y-42.79
X251.47Y-45.34
X251.47Y-60.59
X251.47Y-63.13
X251.47Y-81.17
X251.47Y-93.61
X252.65Y-59.42
T3
X216.09Y-84.81
X216.09Y-86.81
T4
X209.94Y-95.0
X211.94Y-95.0
X213.94Y-95.0
T5
X207.94Y-95.0
X215.94Y-95.0
T6
X211.3Y-64.67
X211.3Y-67.21
X211.3Y-69.75
X211.3Y-72.29
X213.84Y-64.67
X213.84Y-67.21
X213.84Y-69.75
X213.84Y-72.29
T7
X218.54Y-47.02
X218.54Y-49.52
X218.54Y-52.02
X233.04Y-47.02
X233.04Y-52.02
T8
X222.23Y-66.03
X222.23Y-85.08
X228.58Y-63.49
X228.58Y-82.54
X241.28Y-46.98
X241.28Y-66.03
X241.28Y-85.08
X247.63Y-44.44
X247.63Y-63.49
X247.63Y-82.54
T2
X191.36Y-41.99G85X190.56Y-41.99
G05
X191.36Y-50.63G85X190.56Y-50.63
G05
X195.69Y-41.99G85X194.59Y-41.99
G05
X195.69Y-50.63G85X194.59Y-50.63
G05
T9
X226.19Y-43.92G85X225.89Y-43.92
G05
X226.19Y-55.12G85X225.89Y-55.12
G05
M30
