%TF.GenerationSoftware,KiCad,Pcbnew,9.0.2*%
%TF.CreationDate,2025-07-23T19:01:54-06:00*%
%TF.ProjectId,macro devboard ESP32,6d616372-6f20-4646-9576-626f61726420,rev?*%
%TF.SameCoordinates,Original*%
%TF.FileFunction,Soldermask,Bot*%
%TF.FilePolarity,Negative*%
%FSLAX46Y46*%
G04 Gerber Fmt 4.6, Leading zero omitted, Abs format (unit mm)*
G04 Created by KiCad (PCBNEW 9.0.2) date 2025-07-23 19:01:54*
%MOMM*%
%LPD*%
G01*
G04 APERTURE LIST*
G04 Aperture macros list*
%AMRoundRect*
0 Rectangle with rounded corners*
0 $1 Rounding radius*
0 $2 $3 $4 $5 $6 $7 $8 $9 X,Y pos of 4 corners*
0 Add a 4 corners polygon primitive as box body*
4,1,4,$2,$3,$4,$5,$6,$7,$8,$9,$2,$3,0*
0 Add four circle primitives for the rounded corners*
1,1,$1+$1,$2,$3*
1,1,$1+$1,$4,$5*
1,1,$1+$1,$6,$7*
1,1,$1+$1,$8,$9*
0 Add four rect primitives between the rounded corners*
20,1,$1+$1,$2,$3,$4,$5,0*
20,1,$1+$1,$4,$5,$6,$7,0*
20,1,$1+$1,$6,$7,$8,$9,0*
20,1,$1+$1,$8,$9,$2,$3,0*%
%AMFreePoly0*
4,1,23,0.500000,-0.750000,0.000000,-0.750000,0.000000,-0.745722,-0.065263,-0.745722,-0.191342,-0.711940,-0.304381,-0.646677,-0.396677,-0.554381,-0.461940,-0.441342,-0.495722,-0.315263,-0.495722,-0.250000,-0.500000,-0.250000,-0.500000,0.250000,-0.495722,0.250000,-0.495722,0.315263,-0.461940,0.441342,-0.396677,0.554381,-0.304381,0.646677,-0.191342,0.711940,-0.065263,0.745722,0.000000,0.745722,
0.000000,0.750000,0.500000,0.750000,0.500000,-0.750000,0.500000,-0.750000,$1*%
%AMFreePoly1*
4,1,23,0.000000,0.745722,0.065263,0.745722,0.191342,0.711940,0.304381,0.646677,0.396677,0.554381,0.461940,0.441342,0.495722,0.315263,0.495722,0.250000,0.500000,0.250000,0.500000,-0.250000,0.495722,-0.250000,0.495722,-0.315263,0.461940,-0.441342,0.396677,-0.554381,0.304381,-0.646677,0.191342,-0.711940,0.065263,-0.745722,0.000000,-0.745722,0.000000,-0.750000,-0.500000,-0.750000,
-0.500000,0.750000,0.000000,0.750000,0.000000,0.745722,0.000000,0.745722,$1*%
G04 Aperture macros list end*
%ADD10C,1.701800*%
%ADD11C,3.000000*%
%ADD12C,3.987800*%
%ADD13R,2.550000X2.500000*%
%ADD14RoundRect,0.102000X-0.900000X0.900000X-0.900000X-0.900000X0.900000X-0.900000X0.900000X0.900000X0*%
%ADD15C,2.004000*%
%ADD16O,6.204000X3.204000*%
%ADD17C,2.700000*%
%ADD18C,0.650000*%
%ADD19O,2.304000X1.254000*%
%ADD20O,2.004000X1.104000*%
%ADD21RoundRect,0.125000X0.000000X-0.176777X0.176777X0.000000X0.000000X0.176777X-0.176777X0.000000X0*%
%ADD22FreePoly0,270.000000*%
%ADD23FreePoly1,270.000000*%
%ADD24RoundRect,0.250000X0.750000X-0.600000X0.750000X0.600000X-0.750000X0.600000X-0.750000X-0.600000X0*%
%ADD25O,2.000000X1.700000*%
%ADD26R,1.700000X1.700000*%
%ADD27C,1.700000*%
%ADD28RoundRect,0.125000X-0.176777X0.000000X0.000000X-0.176777X0.176777X0.000000X0.000000X0.176777X0*%
%ADD29RoundRect,0.125000X0.125000X-0.125000X0.125000X0.125000X-0.125000X0.125000X-0.125000X-0.125000X0*%
G04 APERTURE END LIST*
%TO.C,JP10*%
G36*
X198410000Y-55670000D02*
G01*
X199910000Y-55670000D01*
X199910000Y-55970000D01*
X198410000Y-55970000D01*
X198410000Y-55670000D01*
G37*
%TO.C,JP11*%
G36*
X195880000Y-55660000D02*
G01*
X197380000Y-55660000D01*
X197380000Y-55960000D01*
X195880000Y-55960000D01*
X195880000Y-55660000D01*
G37*
%TD*%
D10*
%TO.C,SW6*%
X250170000Y-86985000D03*
D11*
X248900000Y-89525000D03*
D12*
X245090000Y-86985000D03*
D11*
X242550000Y-92065000D03*
D10*
X240010000Y-86985000D03*
D13*
X238800000Y-92065000D03*
X252650000Y-89525000D03*
%TD*%
D14*
%TO.C,S1*%
X233040000Y-47020000D03*
D15*
X233040000Y-52020000D03*
X218540000Y-47020000D03*
X218540000Y-52020000D03*
X218540000Y-49520000D03*
D16*
X226040000Y-43920000D03*
X226040000Y-55120000D03*
%TD*%
D10*
%TO.C,SW9*%
X231120000Y-68570000D03*
D11*
X229850000Y-71110000D03*
D12*
X226040000Y-68570000D03*
D11*
X223500000Y-73650000D03*
D10*
X220960000Y-68570000D03*
D13*
X219750000Y-73650000D03*
X233600000Y-71110000D03*
%TD*%
D17*
%TO.C,H1*%
X215440000Y-93650000D03*
%TD*%
D18*
%TO.C,J1*%
X194640000Y-43420000D03*
X194640000Y-49200000D03*
D19*
X195140000Y-41990000D03*
X195140000Y-50630000D03*
D20*
X190960000Y-41990000D03*
X190960000Y-50630000D03*
%TD*%
D17*
%TO.C,H2*%
X215440000Y-43490000D03*
%TD*%
D10*
%TO.C,SW7*%
X250170000Y-68570000D03*
D11*
X248900000Y-71110000D03*
D12*
X245090000Y-68570000D03*
D11*
X242550000Y-73650000D03*
D10*
X240010000Y-68570000D03*
D13*
X238800000Y-73650000D03*
X252650000Y-71110000D03*
%TD*%
D10*
%TO.C,SW8*%
X231120000Y-86985000D03*
D11*
X229850000Y-89525000D03*
D12*
X226040000Y-86985000D03*
D11*
X223500000Y-92065000D03*
D10*
X220960000Y-86985000D03*
D13*
X219750000Y-92065000D03*
X233600000Y-89525000D03*
%TD*%
D10*
%TO.C,SW1*%
X250170000Y-49520000D03*
D11*
X248900000Y-52060000D03*
D12*
X245090000Y-49520000D03*
D11*
X242550000Y-54600000D03*
D10*
X240010000Y-49520000D03*
D13*
X238800000Y-54600000D03*
X252650000Y-52060000D03*
%TD*%
D21*
%TO.C,D4*%
X251094366Y-76465634D03*
X252650000Y-74910000D03*
%TD*%
%TO.C,D6*%
X232034366Y-76485634D03*
X233590000Y-74930000D03*
%TD*%
D22*
%TO.C,JP10*%
X199160000Y-55170000D03*
D23*
X199160000Y-56470000D03*
%TD*%
D24*
%TO.C,J2*%
X214260000Y-75240000D03*
D25*
X214260000Y-72740000D03*
%TD*%
D26*
%TO.C,J3*%
X212440000Y-60390000D03*
D27*
X214980000Y-60390000D03*
X212440000Y-62930000D03*
X214980000Y-62930000D03*
X212440000Y-65470000D03*
X214980000Y-65470000D03*
X212440000Y-68010000D03*
X214980000Y-68010000D03*
%TD*%
D28*
%TO.C,D3*%
X251114366Y-83474366D03*
X252670000Y-85030000D03*
%TD*%
D29*
%TO.C,D7*%
X235590000Y-49190000D03*
X235590000Y-46990000D03*
%TD*%
D22*
%TO.C,JP11*%
X196630000Y-55160000D03*
D23*
X196630000Y-56460000D03*
%TD*%
D21*
%TO.C,D2*%
X251074366Y-57545634D03*
X252630000Y-55990000D03*
%TD*%
D28*
%TO.C,D5*%
X232024366Y-83434366D03*
X233580000Y-84990000D03*
%TD*%
M02*
