%TF.GenerationSoftware,KiCad,Pcbnew,9.0.2*%
%TF.CreationDate,2025-08-07T13:19:16-06:00*%
%TF.ProjectId,macro devboard ESP32,6d616372-6f20-4646-9576-626f61726420,rev?*%
%TF.SameCoordinates,Original*%
%TF.FileFunction,Legend,Top*%
%TF.FilePolarity,Positive*%
%FSLAX46Y46*%
G04 Gerber Fmt 4.6, Leading zero omitted, Abs format (unit mm)*
G04 Created by KiCad (PCBNEW 9.0.2) date 2025-08-07 13:19:16*
%MOMM*%
%LPD*%
G01*
G04 APERTURE LIST*
%ADD10C,0.200000*%
%ADD11C,0.120000*%
%ADD12C,0.150000*%
%ADD13C,0.152400*%
%ADD14C,0.100000*%
%ADD15C,0.127000*%
G04 APERTURE END LIST*
D10*
X215527219Y-65061101D02*
X215527219Y-64442054D01*
X215527219Y-64442054D02*
X215908171Y-64775387D01*
X215908171Y-64775387D02*
X215908171Y-64632530D01*
X215908171Y-64632530D02*
X215955790Y-64537292D01*
X215955790Y-64537292D02*
X216003409Y-64489673D01*
X216003409Y-64489673D02*
X216098647Y-64442054D01*
X216098647Y-64442054D02*
X216336742Y-64442054D01*
X216336742Y-64442054D02*
X216431980Y-64489673D01*
X216431980Y-64489673D02*
X216479600Y-64537292D01*
X216479600Y-64537292D02*
X216527219Y-64632530D01*
X216527219Y-64632530D02*
X216527219Y-64918244D01*
X216527219Y-64918244D02*
X216479600Y-65013482D01*
X216479600Y-65013482D02*
X216431980Y-65061101D01*
X216557219Y-71912054D02*
X216557219Y-72483482D01*
X216557219Y-72197768D02*
X215557219Y-72197768D01*
X215557219Y-72197768D02*
X215700076Y-72293006D01*
X215700076Y-72293006D02*
X215795314Y-72388244D01*
X215795314Y-72388244D02*
X215842933Y-72483482D01*
X215632457Y-67483482D02*
X215584838Y-67435863D01*
X215584838Y-67435863D02*
X215537219Y-67340625D01*
X215537219Y-67340625D02*
X215537219Y-67102530D01*
X215537219Y-67102530D02*
X215584838Y-67007292D01*
X215584838Y-67007292D02*
X215632457Y-66959673D01*
X215632457Y-66959673D02*
X215727695Y-66912054D01*
X215727695Y-66912054D02*
X215822933Y-66912054D01*
X215822933Y-66912054D02*
X215965790Y-66959673D01*
X215965790Y-66959673D02*
X216537219Y-67531101D01*
X216537219Y-67531101D02*
X216537219Y-66912054D01*
X215547219Y-69825387D02*
X215547219Y-69730149D01*
X215547219Y-69730149D02*
X215594838Y-69634911D01*
X215594838Y-69634911D02*
X215642457Y-69587292D01*
X215642457Y-69587292D02*
X215737695Y-69539673D01*
X215737695Y-69539673D02*
X215928171Y-69492054D01*
X215928171Y-69492054D02*
X216166266Y-69492054D01*
X216166266Y-69492054D02*
X216356742Y-69539673D01*
X216356742Y-69539673D02*
X216451980Y-69587292D01*
X216451980Y-69587292D02*
X216499600Y-69634911D01*
X216499600Y-69634911D02*
X216547219Y-69730149D01*
X216547219Y-69730149D02*
X216547219Y-69825387D01*
X216547219Y-69825387D02*
X216499600Y-69920625D01*
X216499600Y-69920625D02*
X216451980Y-69968244D01*
X216451980Y-69968244D02*
X216356742Y-70015863D01*
X216356742Y-70015863D02*
X216166266Y-70063482D01*
X216166266Y-70063482D02*
X215928171Y-70063482D01*
X215928171Y-70063482D02*
X215737695Y-70015863D01*
X215737695Y-70015863D02*
X215642457Y-69968244D01*
X215642457Y-69968244D02*
X215594838Y-69920625D01*
X215594838Y-69920625D02*
X215547219Y-69825387D01*
X213392457Y-63272054D02*
X213344838Y-63224435D01*
X213344838Y-63224435D02*
X213297219Y-63129197D01*
X213297219Y-63129197D02*
X213297219Y-62891102D01*
X213297219Y-62891102D02*
X213344838Y-62795864D01*
X213344838Y-62795864D02*
X213392457Y-62748245D01*
X213392457Y-62748245D02*
X213487695Y-62700626D01*
X213487695Y-62700626D02*
X213582933Y-62700626D01*
X213582933Y-62700626D02*
X213725790Y-62748245D01*
X213725790Y-62748245D02*
X214297219Y-63319673D01*
X214297219Y-63319673D02*
X214297219Y-62700626D01*
X214297219Y-61748245D02*
X214297219Y-62319673D01*
X214297219Y-62033959D02*
X213297219Y-62033959D01*
X213297219Y-62033959D02*
X213440076Y-62129197D01*
X213440076Y-62129197D02*
X213535314Y-62224435D01*
X213535314Y-62224435D02*
X213582933Y-62319673D01*
X213297219Y-60700625D02*
X213297219Y-60129197D01*
X214297219Y-60414911D02*
X213297219Y-60414911D01*
X213297219Y-59891101D02*
X214297219Y-59224435D01*
X213297219Y-59224435D02*
X214297219Y-59891101D01*
X210812457Y-63260149D02*
X210764838Y-63212530D01*
X210764838Y-63212530D02*
X210717219Y-63117292D01*
X210717219Y-63117292D02*
X210717219Y-62879197D01*
X210717219Y-62879197D02*
X210764838Y-62783959D01*
X210764838Y-62783959D02*
X210812457Y-62736340D01*
X210812457Y-62736340D02*
X210907695Y-62688721D01*
X210907695Y-62688721D02*
X211002933Y-62688721D01*
X211002933Y-62688721D02*
X211145790Y-62736340D01*
X211145790Y-62736340D02*
X211717219Y-63307768D01*
X211717219Y-63307768D02*
X211717219Y-62688721D01*
X210717219Y-62069673D02*
X210717219Y-61974435D01*
X210717219Y-61974435D02*
X210764838Y-61879197D01*
X210764838Y-61879197D02*
X210812457Y-61831578D01*
X210812457Y-61831578D02*
X210907695Y-61783959D01*
X210907695Y-61783959D02*
X211098171Y-61736340D01*
X211098171Y-61736340D02*
X211336266Y-61736340D01*
X211336266Y-61736340D02*
X211526742Y-61783959D01*
X211526742Y-61783959D02*
X211621980Y-61831578D01*
X211621980Y-61831578D02*
X211669600Y-61879197D01*
X211669600Y-61879197D02*
X211717219Y-61974435D01*
X211717219Y-61974435D02*
X211717219Y-62069673D01*
X211717219Y-62069673D02*
X211669600Y-62164911D01*
X211669600Y-62164911D02*
X211621980Y-62212530D01*
X211621980Y-62212530D02*
X211526742Y-62260149D01*
X211526742Y-62260149D02*
X211336266Y-62307768D01*
X211336266Y-62307768D02*
X211098171Y-62307768D01*
X211098171Y-62307768D02*
X210907695Y-62260149D01*
X210907695Y-62260149D02*
X210812457Y-62212530D01*
X210812457Y-62212530D02*
X210764838Y-62164911D01*
X210764838Y-62164911D02*
X210717219Y-62069673D01*
X211717219Y-59974435D02*
X211241028Y-60307768D01*
X211717219Y-60545863D02*
X210717219Y-60545863D01*
X210717219Y-60545863D02*
X210717219Y-60164911D01*
X210717219Y-60164911D02*
X210764838Y-60069673D01*
X210764838Y-60069673D02*
X210812457Y-60022054D01*
X210812457Y-60022054D02*
X210907695Y-59974435D01*
X210907695Y-59974435D02*
X211050552Y-59974435D01*
X211050552Y-59974435D02*
X211145790Y-60022054D01*
X211145790Y-60022054D02*
X211193409Y-60069673D01*
X211193409Y-60069673D02*
X211241028Y-60164911D01*
X211241028Y-60164911D02*
X211241028Y-60545863D01*
X210717219Y-59641101D02*
X211717219Y-58974435D01*
X210717219Y-58974435D02*
X211717219Y-59641101D01*
X213307219Y-76313482D02*
X214307219Y-75980149D01*
X214307219Y-75980149D02*
X213307219Y-75646816D01*
X214307219Y-75313482D02*
X213307219Y-75313482D01*
X213307219Y-75313482D02*
X213307219Y-75075387D01*
X213307219Y-75075387D02*
X213354838Y-74932530D01*
X213354838Y-74932530D02*
X213450076Y-74837292D01*
X213450076Y-74837292D02*
X213545314Y-74789673D01*
X213545314Y-74789673D02*
X213735790Y-74742054D01*
X213735790Y-74742054D02*
X213878647Y-74742054D01*
X213878647Y-74742054D02*
X214069123Y-74789673D01*
X214069123Y-74789673D02*
X214164361Y-74837292D01*
X214164361Y-74837292D02*
X214259600Y-74932530D01*
X214259600Y-74932530D02*
X214307219Y-75075387D01*
X214307219Y-75075387D02*
X214307219Y-75313482D01*
X214307219Y-74313482D02*
X213307219Y-74313482D01*
X213307219Y-74313482D02*
X213307219Y-74075387D01*
X213307219Y-74075387D02*
X213354838Y-73932530D01*
X213354838Y-73932530D02*
X213450076Y-73837292D01*
X213450076Y-73837292D02*
X213545314Y-73789673D01*
X213545314Y-73789673D02*
X213735790Y-73742054D01*
X213735790Y-73742054D02*
X213878647Y-73742054D01*
X213878647Y-73742054D02*
X214069123Y-73789673D01*
X214069123Y-73789673D02*
X214164361Y-73837292D01*
X214164361Y-73837292D02*
X214259600Y-73932530D01*
X214259600Y-73932530D02*
X214307219Y-74075387D01*
X214307219Y-74075387D02*
X214307219Y-74313482D01*
X217618720Y-86834600D02*
X218761578Y-86834600D01*
X218190149Y-87406028D02*
X218190149Y-86263171D01*
X210774838Y-75857292D02*
X210727219Y-75952530D01*
X210727219Y-75952530D02*
X210727219Y-76095387D01*
X210727219Y-76095387D02*
X210774838Y-76238244D01*
X210774838Y-76238244D02*
X210870076Y-76333482D01*
X210870076Y-76333482D02*
X210965314Y-76381101D01*
X210965314Y-76381101D02*
X211155790Y-76428720D01*
X211155790Y-76428720D02*
X211298647Y-76428720D01*
X211298647Y-76428720D02*
X211489123Y-76381101D01*
X211489123Y-76381101D02*
X211584361Y-76333482D01*
X211584361Y-76333482D02*
X211679600Y-76238244D01*
X211679600Y-76238244D02*
X211727219Y-76095387D01*
X211727219Y-76095387D02*
X211727219Y-76000149D01*
X211727219Y-76000149D02*
X211679600Y-75857292D01*
X211679600Y-75857292D02*
X211631980Y-75809673D01*
X211631980Y-75809673D02*
X211298647Y-75809673D01*
X211298647Y-75809673D02*
X211298647Y-76000149D01*
X211727219Y-75381101D02*
X210727219Y-75381101D01*
X210727219Y-75381101D02*
X211727219Y-74809673D01*
X211727219Y-74809673D02*
X210727219Y-74809673D01*
X211727219Y-74333482D02*
X210727219Y-74333482D01*
X210727219Y-74333482D02*
X210727219Y-74095387D01*
X210727219Y-74095387D02*
X210774838Y-73952530D01*
X210774838Y-73952530D02*
X210870076Y-73857292D01*
X210870076Y-73857292D02*
X210965314Y-73809673D01*
X210965314Y-73809673D02*
X211155790Y-73762054D01*
X211155790Y-73762054D02*
X211298647Y-73762054D01*
X211298647Y-73762054D02*
X211489123Y-73809673D01*
X211489123Y-73809673D02*
X211584361Y-73857292D01*
X211584361Y-73857292D02*
X211679600Y-73952530D01*
X211679600Y-73952530D02*
X211727219Y-74095387D01*
X211727219Y-74095387D02*
X211727219Y-74333482D01*
X193311101Y-96077219D02*
X192977768Y-95601028D01*
X192739673Y-96077219D02*
X192739673Y-95077219D01*
X192739673Y-95077219D02*
X193120625Y-95077219D01*
X193120625Y-95077219D02*
X193215863Y-95124838D01*
X193215863Y-95124838D02*
X193263482Y-95172457D01*
X193263482Y-95172457D02*
X193311101Y-95267695D01*
X193311101Y-95267695D02*
X193311101Y-95410552D01*
X193311101Y-95410552D02*
X193263482Y-95505790D01*
X193263482Y-95505790D02*
X193215863Y-95553409D01*
X193215863Y-95553409D02*
X193120625Y-95601028D01*
X193120625Y-95601028D02*
X192739673Y-95601028D01*
X194120625Y-96029600D02*
X194025387Y-96077219D01*
X194025387Y-96077219D02*
X193834911Y-96077219D01*
X193834911Y-96077219D02*
X193739673Y-96029600D01*
X193739673Y-96029600D02*
X193692054Y-95934361D01*
X193692054Y-95934361D02*
X193692054Y-95553409D01*
X193692054Y-95553409D02*
X193739673Y-95458171D01*
X193739673Y-95458171D02*
X193834911Y-95410552D01*
X193834911Y-95410552D02*
X194025387Y-95410552D01*
X194025387Y-95410552D02*
X194120625Y-95458171D01*
X194120625Y-95458171D02*
X194168244Y-95553409D01*
X194168244Y-95553409D02*
X194168244Y-95648647D01*
X194168244Y-95648647D02*
X193692054Y-95743885D01*
X194549197Y-96029600D02*
X194644435Y-96077219D01*
X194644435Y-96077219D02*
X194834911Y-96077219D01*
X194834911Y-96077219D02*
X194930149Y-96029600D01*
X194930149Y-96029600D02*
X194977768Y-95934361D01*
X194977768Y-95934361D02*
X194977768Y-95886742D01*
X194977768Y-95886742D02*
X194930149Y-95791504D01*
X194930149Y-95791504D02*
X194834911Y-95743885D01*
X194834911Y-95743885D02*
X194692054Y-95743885D01*
X194692054Y-95743885D02*
X194596816Y-95696266D01*
X194596816Y-95696266D02*
X194549197Y-95601028D01*
X194549197Y-95601028D02*
X194549197Y-95553409D01*
X194549197Y-95553409D02*
X194596816Y-95458171D01*
X194596816Y-95458171D02*
X194692054Y-95410552D01*
X194692054Y-95410552D02*
X194834911Y-95410552D01*
X194834911Y-95410552D02*
X194930149Y-95458171D01*
X195787292Y-96029600D02*
X195692054Y-96077219D01*
X195692054Y-96077219D02*
X195501578Y-96077219D01*
X195501578Y-96077219D02*
X195406340Y-96029600D01*
X195406340Y-96029600D02*
X195358721Y-95934361D01*
X195358721Y-95934361D02*
X195358721Y-95553409D01*
X195358721Y-95553409D02*
X195406340Y-95458171D01*
X195406340Y-95458171D02*
X195501578Y-95410552D01*
X195501578Y-95410552D02*
X195692054Y-95410552D01*
X195692054Y-95410552D02*
X195787292Y-95458171D01*
X195787292Y-95458171D02*
X195834911Y-95553409D01*
X195834911Y-95553409D02*
X195834911Y-95648647D01*
X195834911Y-95648647D02*
X195358721Y-95743885D01*
X196120626Y-95410552D02*
X196501578Y-95410552D01*
X196263483Y-95077219D02*
X196263483Y-95934361D01*
X196263483Y-95934361D02*
X196311102Y-96029600D01*
X196311102Y-96029600D02*
X196406340Y-96077219D01*
X196406340Y-96077219D02*
X196501578Y-96077219D01*
D11*
X190793855Y-85444285D02*
X190412902Y-85710952D01*
X190793855Y-85901428D02*
X189993855Y-85901428D01*
X189993855Y-85901428D02*
X189993855Y-85596666D01*
X189993855Y-85596666D02*
X190031950Y-85520476D01*
X190031950Y-85520476D02*
X190070045Y-85482381D01*
X190070045Y-85482381D02*
X190146236Y-85444285D01*
X190146236Y-85444285D02*
X190260521Y-85444285D01*
X190260521Y-85444285D02*
X190336712Y-85482381D01*
X190336712Y-85482381D02*
X190374807Y-85520476D01*
X190374807Y-85520476D02*
X190412902Y-85596666D01*
X190412902Y-85596666D02*
X190412902Y-85901428D01*
X190793855Y-84682381D02*
X190793855Y-85139524D01*
X190793855Y-84910952D02*
X189993855Y-84910952D01*
X189993855Y-84910952D02*
X190108140Y-84987143D01*
X190108140Y-84987143D02*
X190184331Y-85063333D01*
X190184331Y-85063333D02*
X190222426Y-85139524D01*
X190070045Y-84377619D02*
X190031950Y-84339523D01*
X190031950Y-84339523D02*
X189993855Y-84263333D01*
X189993855Y-84263333D02*
X189993855Y-84072857D01*
X189993855Y-84072857D02*
X190031950Y-83996666D01*
X190031950Y-83996666D02*
X190070045Y-83958571D01*
X190070045Y-83958571D02*
X190146236Y-83920476D01*
X190146236Y-83920476D02*
X190222426Y-83920476D01*
X190222426Y-83920476D02*
X190336712Y-83958571D01*
X190336712Y-83958571D02*
X190793855Y-84415714D01*
X190793855Y-84415714D02*
X190793855Y-83920476D01*
X193966667Y-83057664D02*
X193928571Y-83095760D01*
X193928571Y-83095760D02*
X193814286Y-83133855D01*
X193814286Y-83133855D02*
X193738095Y-83133855D01*
X193738095Y-83133855D02*
X193623809Y-83095760D01*
X193623809Y-83095760D02*
X193547619Y-83019569D01*
X193547619Y-83019569D02*
X193509524Y-82943379D01*
X193509524Y-82943379D02*
X193471428Y-82790998D01*
X193471428Y-82790998D02*
X193471428Y-82676712D01*
X193471428Y-82676712D02*
X193509524Y-82524331D01*
X193509524Y-82524331D02*
X193547619Y-82448140D01*
X193547619Y-82448140D02*
X193623809Y-82371950D01*
X193623809Y-82371950D02*
X193738095Y-82333855D01*
X193738095Y-82333855D02*
X193814286Y-82333855D01*
X193814286Y-82333855D02*
X193928571Y-82371950D01*
X193928571Y-82371950D02*
X193966667Y-82410045D01*
X194690476Y-82333855D02*
X194309524Y-82333855D01*
X194309524Y-82333855D02*
X194271428Y-82714807D01*
X194271428Y-82714807D02*
X194309524Y-82676712D01*
X194309524Y-82676712D02*
X194385714Y-82638617D01*
X194385714Y-82638617D02*
X194576190Y-82638617D01*
X194576190Y-82638617D02*
X194652381Y-82676712D01*
X194652381Y-82676712D02*
X194690476Y-82714807D01*
X194690476Y-82714807D02*
X194728571Y-82790998D01*
X194728571Y-82790998D02*
X194728571Y-82981474D01*
X194728571Y-82981474D02*
X194690476Y-83057664D01*
X194690476Y-83057664D02*
X194652381Y-83095760D01*
X194652381Y-83095760D02*
X194576190Y-83133855D01*
X194576190Y-83133855D02*
X194385714Y-83133855D01*
X194385714Y-83133855D02*
X194309524Y-83095760D01*
X194309524Y-83095760D02*
X194271428Y-83057664D01*
X212223855Y-88869523D02*
X212871474Y-88869523D01*
X212871474Y-88869523D02*
X212947664Y-88831428D01*
X212947664Y-88831428D02*
X212985760Y-88793333D01*
X212985760Y-88793333D02*
X213023855Y-88717142D01*
X213023855Y-88717142D02*
X213023855Y-88564761D01*
X213023855Y-88564761D02*
X212985760Y-88488571D01*
X212985760Y-88488571D02*
X212947664Y-88450476D01*
X212947664Y-88450476D02*
X212871474Y-88412380D01*
X212871474Y-88412380D02*
X212223855Y-88412380D01*
X212300045Y-88069524D02*
X212261950Y-88031428D01*
X212261950Y-88031428D02*
X212223855Y-87955238D01*
X212223855Y-87955238D02*
X212223855Y-87764762D01*
X212223855Y-87764762D02*
X212261950Y-87688571D01*
X212261950Y-87688571D02*
X212300045Y-87650476D01*
X212300045Y-87650476D02*
X212376236Y-87612381D01*
X212376236Y-87612381D02*
X212452426Y-87612381D01*
X212452426Y-87612381D02*
X212566712Y-87650476D01*
X212566712Y-87650476D02*
X213023855Y-88107619D01*
X213023855Y-88107619D02*
X213023855Y-87612381D01*
X194376667Y-88287664D02*
X194338571Y-88325760D01*
X194338571Y-88325760D02*
X194224286Y-88363855D01*
X194224286Y-88363855D02*
X194148095Y-88363855D01*
X194148095Y-88363855D02*
X194033809Y-88325760D01*
X194033809Y-88325760D02*
X193957619Y-88249569D01*
X193957619Y-88249569D02*
X193919524Y-88173379D01*
X193919524Y-88173379D02*
X193881428Y-88020998D01*
X193881428Y-88020998D02*
X193881428Y-87906712D01*
X193881428Y-87906712D02*
X193919524Y-87754331D01*
X193919524Y-87754331D02*
X193957619Y-87678140D01*
X193957619Y-87678140D02*
X194033809Y-87601950D01*
X194033809Y-87601950D02*
X194148095Y-87563855D01*
X194148095Y-87563855D02*
X194224286Y-87563855D01*
X194224286Y-87563855D02*
X194338571Y-87601950D01*
X194338571Y-87601950D02*
X194376667Y-87640045D01*
X195062381Y-87830521D02*
X195062381Y-88363855D01*
X194871905Y-87525760D02*
X194681428Y-88097188D01*
X194681428Y-88097188D02*
X195176667Y-88097188D01*
X194613855Y-58939523D02*
X195261474Y-58939523D01*
X195261474Y-58939523D02*
X195337664Y-58901428D01*
X195337664Y-58901428D02*
X195375760Y-58863333D01*
X195375760Y-58863333D02*
X195413855Y-58787142D01*
X195413855Y-58787142D02*
X195413855Y-58634761D01*
X195413855Y-58634761D02*
X195375760Y-58558571D01*
X195375760Y-58558571D02*
X195337664Y-58520476D01*
X195337664Y-58520476D02*
X195261474Y-58482380D01*
X195261474Y-58482380D02*
X194613855Y-58482380D01*
X195413855Y-57682381D02*
X195413855Y-58139524D01*
X195413855Y-57910952D02*
X194613855Y-57910952D01*
X194613855Y-57910952D02*
X194728140Y-57987143D01*
X194728140Y-57987143D02*
X194804331Y-58063333D01*
X194804331Y-58063333D02*
X194842426Y-58139524D01*
X207436667Y-91777664D02*
X207398571Y-91815760D01*
X207398571Y-91815760D02*
X207284286Y-91853855D01*
X207284286Y-91853855D02*
X207208095Y-91853855D01*
X207208095Y-91853855D02*
X207093809Y-91815760D01*
X207093809Y-91815760D02*
X207017619Y-91739569D01*
X207017619Y-91739569D02*
X206979524Y-91663379D01*
X206979524Y-91663379D02*
X206941428Y-91510998D01*
X206941428Y-91510998D02*
X206941428Y-91396712D01*
X206941428Y-91396712D02*
X206979524Y-91244331D01*
X206979524Y-91244331D02*
X207017619Y-91168140D01*
X207017619Y-91168140D02*
X207093809Y-91091950D01*
X207093809Y-91091950D02*
X207208095Y-91053855D01*
X207208095Y-91053855D02*
X207284286Y-91053855D01*
X207284286Y-91053855D02*
X207398571Y-91091950D01*
X207398571Y-91091950D02*
X207436667Y-91130045D01*
X207893809Y-91396712D02*
X207817619Y-91358617D01*
X207817619Y-91358617D02*
X207779524Y-91320521D01*
X207779524Y-91320521D02*
X207741428Y-91244331D01*
X207741428Y-91244331D02*
X207741428Y-91206236D01*
X207741428Y-91206236D02*
X207779524Y-91130045D01*
X207779524Y-91130045D02*
X207817619Y-91091950D01*
X207817619Y-91091950D02*
X207893809Y-91053855D01*
X207893809Y-91053855D02*
X208046190Y-91053855D01*
X208046190Y-91053855D02*
X208122381Y-91091950D01*
X208122381Y-91091950D02*
X208160476Y-91130045D01*
X208160476Y-91130045D02*
X208198571Y-91206236D01*
X208198571Y-91206236D02*
X208198571Y-91244331D01*
X208198571Y-91244331D02*
X208160476Y-91320521D01*
X208160476Y-91320521D02*
X208122381Y-91358617D01*
X208122381Y-91358617D02*
X208046190Y-91396712D01*
X208046190Y-91396712D02*
X207893809Y-91396712D01*
X207893809Y-91396712D02*
X207817619Y-91434807D01*
X207817619Y-91434807D02*
X207779524Y-91472902D01*
X207779524Y-91472902D02*
X207741428Y-91549093D01*
X207741428Y-91549093D02*
X207741428Y-91701474D01*
X207741428Y-91701474D02*
X207779524Y-91777664D01*
X207779524Y-91777664D02*
X207817619Y-91815760D01*
X207817619Y-91815760D02*
X207893809Y-91853855D01*
X207893809Y-91853855D02*
X208046190Y-91853855D01*
X208046190Y-91853855D02*
X208122381Y-91815760D01*
X208122381Y-91815760D02*
X208160476Y-91777664D01*
X208160476Y-91777664D02*
X208198571Y-91701474D01*
X208198571Y-91701474D02*
X208198571Y-91549093D01*
X208198571Y-91549093D02*
X208160476Y-91472902D01*
X208160476Y-91472902D02*
X208122381Y-91434807D01*
X208122381Y-91434807D02*
X208046190Y-91396712D01*
X205203855Y-87100475D02*
X204403855Y-87100475D01*
X204403855Y-87100475D02*
X204403855Y-86909999D01*
X204403855Y-86909999D02*
X204441950Y-86795713D01*
X204441950Y-86795713D02*
X204518140Y-86719523D01*
X204518140Y-86719523D02*
X204594331Y-86681428D01*
X204594331Y-86681428D02*
X204746712Y-86643332D01*
X204746712Y-86643332D02*
X204860998Y-86643332D01*
X204860998Y-86643332D02*
X205013379Y-86681428D01*
X205013379Y-86681428D02*
X205089569Y-86719523D01*
X205089569Y-86719523D02*
X205165760Y-86795713D01*
X205165760Y-86795713D02*
X205203855Y-86909999D01*
X205203855Y-86909999D02*
X205203855Y-87100475D01*
X204746712Y-86186190D02*
X204708617Y-86262380D01*
X204708617Y-86262380D02*
X204670521Y-86300475D01*
X204670521Y-86300475D02*
X204594331Y-86338571D01*
X204594331Y-86338571D02*
X204556236Y-86338571D01*
X204556236Y-86338571D02*
X204480045Y-86300475D01*
X204480045Y-86300475D02*
X204441950Y-86262380D01*
X204441950Y-86262380D02*
X204403855Y-86186190D01*
X204403855Y-86186190D02*
X204403855Y-86033809D01*
X204403855Y-86033809D02*
X204441950Y-85957618D01*
X204441950Y-85957618D02*
X204480045Y-85919523D01*
X204480045Y-85919523D02*
X204556236Y-85881428D01*
X204556236Y-85881428D02*
X204594331Y-85881428D01*
X204594331Y-85881428D02*
X204670521Y-85919523D01*
X204670521Y-85919523D02*
X204708617Y-85957618D01*
X204708617Y-85957618D02*
X204746712Y-86033809D01*
X204746712Y-86033809D02*
X204746712Y-86186190D01*
X204746712Y-86186190D02*
X204784807Y-86262380D01*
X204784807Y-86262380D02*
X204822902Y-86300475D01*
X204822902Y-86300475D02*
X204899093Y-86338571D01*
X204899093Y-86338571D02*
X205051474Y-86338571D01*
X205051474Y-86338571D02*
X205127664Y-86300475D01*
X205127664Y-86300475D02*
X205165760Y-86262380D01*
X205165760Y-86262380D02*
X205203855Y-86186190D01*
X205203855Y-86186190D02*
X205203855Y-86033809D01*
X205203855Y-86033809D02*
X205165760Y-85957618D01*
X205165760Y-85957618D02*
X205127664Y-85919523D01*
X205127664Y-85919523D02*
X205051474Y-85881428D01*
X205051474Y-85881428D02*
X204899093Y-85881428D01*
X204899093Y-85881428D02*
X204822902Y-85919523D01*
X204822902Y-85919523D02*
X204784807Y-85957618D01*
X204784807Y-85957618D02*
X204746712Y-86033809D01*
X203557664Y-81298332D02*
X203595760Y-81336428D01*
X203595760Y-81336428D02*
X203633855Y-81450713D01*
X203633855Y-81450713D02*
X203633855Y-81526904D01*
X203633855Y-81526904D02*
X203595760Y-81641190D01*
X203595760Y-81641190D02*
X203519569Y-81717380D01*
X203519569Y-81717380D02*
X203443379Y-81755475D01*
X203443379Y-81755475D02*
X203290998Y-81793571D01*
X203290998Y-81793571D02*
X203176712Y-81793571D01*
X203176712Y-81793571D02*
X203024331Y-81755475D01*
X203024331Y-81755475D02*
X202948140Y-81717380D01*
X202948140Y-81717380D02*
X202871950Y-81641190D01*
X202871950Y-81641190D02*
X202833855Y-81526904D01*
X202833855Y-81526904D02*
X202833855Y-81450713D01*
X202833855Y-81450713D02*
X202871950Y-81336428D01*
X202871950Y-81336428D02*
X202910045Y-81298332D01*
X202833855Y-80612618D02*
X202833855Y-80764999D01*
X202833855Y-80764999D02*
X202871950Y-80841190D01*
X202871950Y-80841190D02*
X202910045Y-80879285D01*
X202910045Y-80879285D02*
X203024331Y-80955475D01*
X203024331Y-80955475D02*
X203176712Y-80993571D01*
X203176712Y-80993571D02*
X203481474Y-80993571D01*
X203481474Y-80993571D02*
X203557664Y-80955475D01*
X203557664Y-80955475D02*
X203595760Y-80917380D01*
X203595760Y-80917380D02*
X203633855Y-80841190D01*
X203633855Y-80841190D02*
X203633855Y-80688809D01*
X203633855Y-80688809D02*
X203595760Y-80612618D01*
X203595760Y-80612618D02*
X203557664Y-80574523D01*
X203557664Y-80574523D02*
X203481474Y-80536428D01*
X203481474Y-80536428D02*
X203290998Y-80536428D01*
X203290998Y-80536428D02*
X203214807Y-80574523D01*
X203214807Y-80574523D02*
X203176712Y-80612618D01*
X203176712Y-80612618D02*
X203138617Y-80688809D01*
X203138617Y-80688809D02*
X203138617Y-80841190D01*
X203138617Y-80841190D02*
X203176712Y-80917380D01*
X203176712Y-80917380D02*
X203214807Y-80955475D01*
X203214807Y-80955475D02*
X203290998Y-80993571D01*
X194396667Y-89807664D02*
X194358571Y-89845760D01*
X194358571Y-89845760D02*
X194244286Y-89883855D01*
X194244286Y-89883855D02*
X194168095Y-89883855D01*
X194168095Y-89883855D02*
X194053809Y-89845760D01*
X194053809Y-89845760D02*
X193977619Y-89769569D01*
X193977619Y-89769569D02*
X193939524Y-89693379D01*
X193939524Y-89693379D02*
X193901428Y-89540998D01*
X193901428Y-89540998D02*
X193901428Y-89426712D01*
X193901428Y-89426712D02*
X193939524Y-89274331D01*
X193939524Y-89274331D02*
X193977619Y-89198140D01*
X193977619Y-89198140D02*
X194053809Y-89121950D01*
X194053809Y-89121950D02*
X194168095Y-89083855D01*
X194168095Y-89083855D02*
X194244286Y-89083855D01*
X194244286Y-89083855D02*
X194358571Y-89121950D01*
X194358571Y-89121950D02*
X194396667Y-89160045D01*
X194663333Y-89083855D02*
X195158571Y-89083855D01*
X195158571Y-89083855D02*
X194891905Y-89388617D01*
X194891905Y-89388617D02*
X195006190Y-89388617D01*
X195006190Y-89388617D02*
X195082381Y-89426712D01*
X195082381Y-89426712D02*
X195120476Y-89464807D01*
X195120476Y-89464807D02*
X195158571Y-89540998D01*
X195158571Y-89540998D02*
X195158571Y-89731474D01*
X195158571Y-89731474D02*
X195120476Y-89807664D01*
X195120476Y-89807664D02*
X195082381Y-89845760D01*
X195082381Y-89845760D02*
X195006190Y-89883855D01*
X195006190Y-89883855D02*
X194777619Y-89883855D01*
X194777619Y-89883855D02*
X194701428Y-89845760D01*
X194701428Y-89845760D02*
X194663333Y-89807664D01*
X198441667Y-42733855D02*
X198175000Y-42352902D01*
X197984524Y-42733855D02*
X197984524Y-41933855D01*
X197984524Y-41933855D02*
X198289286Y-41933855D01*
X198289286Y-41933855D02*
X198365476Y-41971950D01*
X198365476Y-41971950D02*
X198403571Y-42010045D01*
X198403571Y-42010045D02*
X198441667Y-42086236D01*
X198441667Y-42086236D02*
X198441667Y-42200521D01*
X198441667Y-42200521D02*
X198403571Y-42276712D01*
X198403571Y-42276712D02*
X198365476Y-42314807D01*
X198365476Y-42314807D02*
X198289286Y-42352902D01*
X198289286Y-42352902D02*
X197984524Y-42352902D01*
X198746428Y-42010045D02*
X198784524Y-41971950D01*
X198784524Y-41971950D02*
X198860714Y-41933855D01*
X198860714Y-41933855D02*
X199051190Y-41933855D01*
X199051190Y-41933855D02*
X199127381Y-41971950D01*
X199127381Y-41971950D02*
X199165476Y-42010045D01*
X199165476Y-42010045D02*
X199203571Y-42086236D01*
X199203571Y-42086236D02*
X199203571Y-42162426D01*
X199203571Y-42162426D02*
X199165476Y-42276712D01*
X199165476Y-42276712D02*
X198708333Y-42733855D01*
X198708333Y-42733855D02*
X199203571Y-42733855D01*
X201463855Y-56471428D02*
X200663855Y-56471428D01*
X200663855Y-56471428D02*
X200663855Y-56280952D01*
X200663855Y-56280952D02*
X200701950Y-56166666D01*
X200701950Y-56166666D02*
X200778140Y-56090476D01*
X200778140Y-56090476D02*
X200854331Y-56052381D01*
X200854331Y-56052381D02*
X201006712Y-56014285D01*
X201006712Y-56014285D02*
X201120998Y-56014285D01*
X201120998Y-56014285D02*
X201273379Y-56052381D01*
X201273379Y-56052381D02*
X201349569Y-56090476D01*
X201349569Y-56090476D02*
X201425760Y-56166666D01*
X201425760Y-56166666D02*
X201463855Y-56280952D01*
X201463855Y-56280952D02*
X201463855Y-56471428D01*
X201463855Y-55252381D02*
X201463855Y-55709524D01*
X201463855Y-55480952D02*
X200663855Y-55480952D01*
X200663855Y-55480952D02*
X200778140Y-55557143D01*
X200778140Y-55557143D02*
X200854331Y-55633333D01*
X200854331Y-55633333D02*
X200892426Y-55709524D01*
X200663855Y-54757142D02*
X200663855Y-54680952D01*
X200663855Y-54680952D02*
X200701950Y-54604761D01*
X200701950Y-54604761D02*
X200740045Y-54566666D01*
X200740045Y-54566666D02*
X200816236Y-54528571D01*
X200816236Y-54528571D02*
X200968617Y-54490476D01*
X200968617Y-54490476D02*
X201159093Y-54490476D01*
X201159093Y-54490476D02*
X201311474Y-54528571D01*
X201311474Y-54528571D02*
X201387664Y-54566666D01*
X201387664Y-54566666D02*
X201425760Y-54604761D01*
X201425760Y-54604761D02*
X201463855Y-54680952D01*
X201463855Y-54680952D02*
X201463855Y-54757142D01*
X201463855Y-54757142D02*
X201425760Y-54833333D01*
X201425760Y-54833333D02*
X201387664Y-54871428D01*
X201387664Y-54871428D02*
X201311474Y-54909523D01*
X201311474Y-54909523D02*
X201159093Y-54947619D01*
X201159093Y-54947619D02*
X200968617Y-54947619D01*
X200968617Y-54947619D02*
X200816236Y-54909523D01*
X200816236Y-54909523D02*
X200740045Y-54871428D01*
X200740045Y-54871428D02*
X200701950Y-54833333D01*
X200701950Y-54833333D02*
X200663855Y-54757142D01*
X207115714Y-43943855D02*
X206849047Y-43562902D01*
X206658571Y-43943855D02*
X206658571Y-43143855D01*
X206658571Y-43143855D02*
X206963333Y-43143855D01*
X206963333Y-43143855D02*
X207039523Y-43181950D01*
X207039523Y-43181950D02*
X207077618Y-43220045D01*
X207077618Y-43220045D02*
X207115714Y-43296236D01*
X207115714Y-43296236D02*
X207115714Y-43410521D01*
X207115714Y-43410521D02*
X207077618Y-43486712D01*
X207077618Y-43486712D02*
X207039523Y-43524807D01*
X207039523Y-43524807D02*
X206963333Y-43562902D01*
X206963333Y-43562902D02*
X206658571Y-43562902D01*
X207877618Y-43943855D02*
X207420475Y-43943855D01*
X207649047Y-43943855D02*
X207649047Y-43143855D01*
X207649047Y-43143855D02*
X207572856Y-43258140D01*
X207572856Y-43258140D02*
X207496666Y-43334331D01*
X207496666Y-43334331D02*
X207420475Y-43372426D01*
X208639523Y-43943855D02*
X208182380Y-43943855D01*
X208410952Y-43943855D02*
X208410952Y-43143855D01*
X208410952Y-43143855D02*
X208334761Y-43258140D01*
X208334761Y-43258140D02*
X208258571Y-43334331D01*
X208258571Y-43334331D02*
X208182380Y-43372426D01*
X202096667Y-43427664D02*
X202058571Y-43465760D01*
X202058571Y-43465760D02*
X201944286Y-43503855D01*
X201944286Y-43503855D02*
X201868095Y-43503855D01*
X201868095Y-43503855D02*
X201753809Y-43465760D01*
X201753809Y-43465760D02*
X201677619Y-43389569D01*
X201677619Y-43389569D02*
X201639524Y-43313379D01*
X201639524Y-43313379D02*
X201601428Y-43160998D01*
X201601428Y-43160998D02*
X201601428Y-43046712D01*
X201601428Y-43046712D02*
X201639524Y-42894331D01*
X201639524Y-42894331D02*
X201677619Y-42818140D01*
X201677619Y-42818140D02*
X201753809Y-42741950D01*
X201753809Y-42741950D02*
X201868095Y-42703855D01*
X201868095Y-42703855D02*
X201944286Y-42703855D01*
X201944286Y-42703855D02*
X202058571Y-42741950D01*
X202058571Y-42741950D02*
X202096667Y-42780045D01*
X202858571Y-43503855D02*
X202401428Y-43503855D01*
X202630000Y-43503855D02*
X202630000Y-42703855D01*
X202630000Y-42703855D02*
X202553809Y-42818140D01*
X202553809Y-42818140D02*
X202477619Y-42894331D01*
X202477619Y-42894331D02*
X202401428Y-42932426D01*
X198434167Y-43793855D02*
X198167500Y-43412902D01*
X197977024Y-43793855D02*
X197977024Y-42993855D01*
X197977024Y-42993855D02*
X198281786Y-42993855D01*
X198281786Y-42993855D02*
X198357976Y-43031950D01*
X198357976Y-43031950D02*
X198396071Y-43070045D01*
X198396071Y-43070045D02*
X198434167Y-43146236D01*
X198434167Y-43146236D02*
X198434167Y-43260521D01*
X198434167Y-43260521D02*
X198396071Y-43336712D01*
X198396071Y-43336712D02*
X198357976Y-43374807D01*
X198357976Y-43374807D02*
X198281786Y-43412902D01*
X198281786Y-43412902D02*
X197977024Y-43412902D01*
X199157976Y-42993855D02*
X198777024Y-42993855D01*
X198777024Y-42993855D02*
X198738928Y-43374807D01*
X198738928Y-43374807D02*
X198777024Y-43336712D01*
X198777024Y-43336712D02*
X198853214Y-43298617D01*
X198853214Y-43298617D02*
X199043690Y-43298617D01*
X199043690Y-43298617D02*
X199119881Y-43336712D01*
X199119881Y-43336712D02*
X199157976Y-43374807D01*
X199157976Y-43374807D02*
X199196071Y-43450998D01*
X199196071Y-43450998D02*
X199196071Y-43641474D01*
X199196071Y-43641474D02*
X199157976Y-43717664D01*
X199157976Y-43717664D02*
X199119881Y-43755760D01*
X199119881Y-43755760D02*
X199043690Y-43793855D01*
X199043690Y-43793855D02*
X198853214Y-43793855D01*
X198853214Y-43793855D02*
X198777024Y-43755760D01*
X198777024Y-43755760D02*
X198738928Y-43717664D01*
X198426667Y-50653855D02*
X198160000Y-50272902D01*
X197969524Y-50653855D02*
X197969524Y-49853855D01*
X197969524Y-49853855D02*
X198274286Y-49853855D01*
X198274286Y-49853855D02*
X198350476Y-49891950D01*
X198350476Y-49891950D02*
X198388571Y-49930045D01*
X198388571Y-49930045D02*
X198426667Y-50006236D01*
X198426667Y-50006236D02*
X198426667Y-50120521D01*
X198426667Y-50120521D02*
X198388571Y-50196712D01*
X198388571Y-50196712D02*
X198350476Y-50234807D01*
X198350476Y-50234807D02*
X198274286Y-50272902D01*
X198274286Y-50272902D02*
X197969524Y-50272902D01*
X199112381Y-50120521D02*
X199112381Y-50653855D01*
X198921905Y-49815760D02*
X198731428Y-50387188D01*
X198731428Y-50387188D02*
X199226667Y-50387188D01*
X198414167Y-51713855D02*
X198147500Y-51332902D01*
X197957024Y-51713855D02*
X197957024Y-50913855D01*
X197957024Y-50913855D02*
X198261786Y-50913855D01*
X198261786Y-50913855D02*
X198337976Y-50951950D01*
X198337976Y-50951950D02*
X198376071Y-50990045D01*
X198376071Y-50990045D02*
X198414167Y-51066236D01*
X198414167Y-51066236D02*
X198414167Y-51180521D01*
X198414167Y-51180521D02*
X198376071Y-51256712D01*
X198376071Y-51256712D02*
X198337976Y-51294807D01*
X198337976Y-51294807D02*
X198261786Y-51332902D01*
X198261786Y-51332902D02*
X197957024Y-51332902D01*
X199176071Y-51713855D02*
X198718928Y-51713855D01*
X198947500Y-51713855D02*
X198947500Y-50913855D01*
X198947500Y-50913855D02*
X198871309Y-51028140D01*
X198871309Y-51028140D02*
X198795119Y-51104331D01*
X198795119Y-51104331D02*
X198718928Y-51142426D01*
X191125760Y-96106667D02*
X191163855Y-95992381D01*
X191163855Y-95992381D02*
X191163855Y-95801905D01*
X191163855Y-95801905D02*
X191125760Y-95725714D01*
X191125760Y-95725714D02*
X191087664Y-95687619D01*
X191087664Y-95687619D02*
X191011474Y-95649524D01*
X191011474Y-95649524D02*
X190935283Y-95649524D01*
X190935283Y-95649524D02*
X190859093Y-95687619D01*
X190859093Y-95687619D02*
X190820998Y-95725714D01*
X190820998Y-95725714D02*
X190782902Y-95801905D01*
X190782902Y-95801905D02*
X190744807Y-95954286D01*
X190744807Y-95954286D02*
X190706712Y-96030476D01*
X190706712Y-96030476D02*
X190668617Y-96068571D01*
X190668617Y-96068571D02*
X190592426Y-96106667D01*
X190592426Y-96106667D02*
X190516236Y-96106667D01*
X190516236Y-96106667D02*
X190440045Y-96068571D01*
X190440045Y-96068571D02*
X190401950Y-96030476D01*
X190401950Y-96030476D02*
X190363855Y-95954286D01*
X190363855Y-95954286D02*
X190363855Y-95763809D01*
X190363855Y-95763809D02*
X190401950Y-95649524D01*
X190363855Y-95382857D02*
X191163855Y-95192381D01*
X191163855Y-95192381D02*
X190592426Y-95040000D01*
X190592426Y-95040000D02*
X191163855Y-94887619D01*
X191163855Y-94887619D02*
X190363855Y-94697143D01*
X190363855Y-94468571D02*
X190363855Y-93973333D01*
X190363855Y-93973333D02*
X190668617Y-94239999D01*
X190668617Y-94239999D02*
X190668617Y-94125714D01*
X190668617Y-94125714D02*
X190706712Y-94049523D01*
X190706712Y-94049523D02*
X190744807Y-94011428D01*
X190744807Y-94011428D02*
X190820998Y-93973333D01*
X190820998Y-93973333D02*
X191011474Y-93973333D01*
X191011474Y-93973333D02*
X191087664Y-94011428D01*
X191087664Y-94011428D02*
X191125760Y-94049523D01*
X191125760Y-94049523D02*
X191163855Y-94125714D01*
X191163855Y-94125714D02*
X191163855Y-94354285D01*
X191163855Y-94354285D02*
X191125760Y-94430476D01*
X191125760Y-94430476D02*
X191087664Y-94468571D01*
X204085714Y-89973855D02*
X203819047Y-89592902D01*
X203628571Y-89973855D02*
X203628571Y-89173855D01*
X203628571Y-89173855D02*
X203933333Y-89173855D01*
X203933333Y-89173855D02*
X204009523Y-89211950D01*
X204009523Y-89211950D02*
X204047618Y-89250045D01*
X204047618Y-89250045D02*
X204085714Y-89326236D01*
X204085714Y-89326236D02*
X204085714Y-89440521D01*
X204085714Y-89440521D02*
X204047618Y-89516712D01*
X204047618Y-89516712D02*
X204009523Y-89554807D01*
X204009523Y-89554807D02*
X203933333Y-89592902D01*
X203933333Y-89592902D02*
X203628571Y-89592902D01*
X204847618Y-89973855D02*
X204390475Y-89973855D01*
X204619047Y-89973855D02*
X204619047Y-89173855D01*
X204619047Y-89173855D02*
X204542856Y-89288140D01*
X204542856Y-89288140D02*
X204466666Y-89364331D01*
X204466666Y-89364331D02*
X204390475Y-89402426D01*
X205114285Y-89173855D02*
X205609523Y-89173855D01*
X205609523Y-89173855D02*
X205342857Y-89478617D01*
X205342857Y-89478617D02*
X205457142Y-89478617D01*
X205457142Y-89478617D02*
X205533333Y-89516712D01*
X205533333Y-89516712D02*
X205571428Y-89554807D01*
X205571428Y-89554807D02*
X205609523Y-89630998D01*
X205609523Y-89630998D02*
X205609523Y-89821474D01*
X205609523Y-89821474D02*
X205571428Y-89897664D01*
X205571428Y-89897664D02*
X205533333Y-89935760D01*
X205533333Y-89935760D02*
X205457142Y-89973855D01*
X205457142Y-89973855D02*
X205228571Y-89973855D01*
X205228571Y-89973855D02*
X205152380Y-89935760D01*
X205152380Y-89935760D02*
X205114285Y-89897664D01*
X210656667Y-83817664D02*
X210618571Y-83855760D01*
X210618571Y-83855760D02*
X210504286Y-83893855D01*
X210504286Y-83893855D02*
X210428095Y-83893855D01*
X210428095Y-83893855D02*
X210313809Y-83855760D01*
X210313809Y-83855760D02*
X210237619Y-83779569D01*
X210237619Y-83779569D02*
X210199524Y-83703379D01*
X210199524Y-83703379D02*
X210161428Y-83550998D01*
X210161428Y-83550998D02*
X210161428Y-83436712D01*
X210161428Y-83436712D02*
X210199524Y-83284331D01*
X210199524Y-83284331D02*
X210237619Y-83208140D01*
X210237619Y-83208140D02*
X210313809Y-83131950D01*
X210313809Y-83131950D02*
X210428095Y-83093855D01*
X210428095Y-83093855D02*
X210504286Y-83093855D01*
X210504286Y-83093855D02*
X210618571Y-83131950D01*
X210618571Y-83131950D02*
X210656667Y-83170045D01*
X211037619Y-83893855D02*
X211190000Y-83893855D01*
X211190000Y-83893855D02*
X211266190Y-83855760D01*
X211266190Y-83855760D02*
X211304286Y-83817664D01*
X211304286Y-83817664D02*
X211380476Y-83703379D01*
X211380476Y-83703379D02*
X211418571Y-83550998D01*
X211418571Y-83550998D02*
X211418571Y-83246236D01*
X211418571Y-83246236D02*
X211380476Y-83170045D01*
X211380476Y-83170045D02*
X211342381Y-83131950D01*
X211342381Y-83131950D02*
X211266190Y-83093855D01*
X211266190Y-83093855D02*
X211113809Y-83093855D01*
X211113809Y-83093855D02*
X211037619Y-83131950D01*
X211037619Y-83131950D02*
X210999524Y-83170045D01*
X210999524Y-83170045D02*
X210961428Y-83246236D01*
X210961428Y-83246236D02*
X210961428Y-83436712D01*
X210961428Y-83436712D02*
X210999524Y-83512902D01*
X210999524Y-83512902D02*
X211037619Y-83550998D01*
X211037619Y-83550998D02*
X211113809Y-83589093D01*
X211113809Y-83589093D02*
X211266190Y-83589093D01*
X211266190Y-83589093D02*
X211342381Y-83550998D01*
X211342381Y-83550998D02*
X211380476Y-83512902D01*
X211380476Y-83512902D02*
X211418571Y-83436712D01*
X202313809Y-91260045D02*
X202237619Y-91221950D01*
X202237619Y-91221950D02*
X202161428Y-91145760D01*
X202161428Y-91145760D02*
X202047142Y-91031474D01*
X202047142Y-91031474D02*
X201970952Y-90993379D01*
X201970952Y-90993379D02*
X201894761Y-90993379D01*
X201932857Y-91183855D02*
X201856666Y-91145760D01*
X201856666Y-91145760D02*
X201780476Y-91069569D01*
X201780476Y-91069569D02*
X201742380Y-90917188D01*
X201742380Y-90917188D02*
X201742380Y-90650521D01*
X201742380Y-90650521D02*
X201780476Y-90498140D01*
X201780476Y-90498140D02*
X201856666Y-90421950D01*
X201856666Y-90421950D02*
X201932857Y-90383855D01*
X201932857Y-90383855D02*
X202085238Y-90383855D01*
X202085238Y-90383855D02*
X202161428Y-90421950D01*
X202161428Y-90421950D02*
X202237619Y-90498140D01*
X202237619Y-90498140D02*
X202275714Y-90650521D01*
X202275714Y-90650521D02*
X202275714Y-90917188D01*
X202275714Y-90917188D02*
X202237619Y-91069569D01*
X202237619Y-91069569D02*
X202161428Y-91145760D01*
X202161428Y-91145760D02*
X202085238Y-91183855D01*
X202085238Y-91183855D02*
X201932857Y-91183855D01*
X203037618Y-91183855D02*
X202580475Y-91183855D01*
X202809047Y-91183855D02*
X202809047Y-90383855D01*
X202809047Y-90383855D02*
X202732856Y-90498140D01*
X202732856Y-90498140D02*
X202656666Y-90574331D01*
X202656666Y-90574331D02*
X202580475Y-90612426D01*
X207705714Y-83883855D02*
X207439047Y-83502902D01*
X207248571Y-83883855D02*
X207248571Y-83083855D01*
X207248571Y-83083855D02*
X207553333Y-83083855D01*
X207553333Y-83083855D02*
X207629523Y-83121950D01*
X207629523Y-83121950D02*
X207667618Y-83160045D01*
X207667618Y-83160045D02*
X207705714Y-83236236D01*
X207705714Y-83236236D02*
X207705714Y-83350521D01*
X207705714Y-83350521D02*
X207667618Y-83426712D01*
X207667618Y-83426712D02*
X207629523Y-83464807D01*
X207629523Y-83464807D02*
X207553333Y-83502902D01*
X207553333Y-83502902D02*
X207248571Y-83502902D01*
X208467618Y-83883855D02*
X208010475Y-83883855D01*
X208239047Y-83883855D02*
X208239047Y-83083855D01*
X208239047Y-83083855D02*
X208162856Y-83198140D01*
X208162856Y-83198140D02*
X208086666Y-83274331D01*
X208086666Y-83274331D02*
X208010475Y-83312426D01*
X209153333Y-83350521D02*
X209153333Y-83883855D01*
X208962857Y-83045760D02*
X208772380Y-83617188D01*
X208772380Y-83617188D02*
X209267619Y-83617188D01*
X203303855Y-55973332D02*
X202922902Y-56239999D01*
X203303855Y-56430475D02*
X202503855Y-56430475D01*
X202503855Y-56430475D02*
X202503855Y-56125713D01*
X202503855Y-56125713D02*
X202541950Y-56049523D01*
X202541950Y-56049523D02*
X202580045Y-56011428D01*
X202580045Y-56011428D02*
X202656236Y-55973332D01*
X202656236Y-55973332D02*
X202770521Y-55973332D01*
X202770521Y-55973332D02*
X202846712Y-56011428D01*
X202846712Y-56011428D02*
X202884807Y-56049523D01*
X202884807Y-56049523D02*
X202922902Y-56125713D01*
X202922902Y-56125713D02*
X202922902Y-56430475D01*
X202503855Y-55287618D02*
X202503855Y-55439999D01*
X202503855Y-55439999D02*
X202541950Y-55516190D01*
X202541950Y-55516190D02*
X202580045Y-55554285D01*
X202580045Y-55554285D02*
X202694331Y-55630475D01*
X202694331Y-55630475D02*
X202846712Y-55668571D01*
X202846712Y-55668571D02*
X203151474Y-55668571D01*
X203151474Y-55668571D02*
X203227664Y-55630475D01*
X203227664Y-55630475D02*
X203265760Y-55592380D01*
X203265760Y-55592380D02*
X203303855Y-55516190D01*
X203303855Y-55516190D02*
X203303855Y-55363809D01*
X203303855Y-55363809D02*
X203265760Y-55287618D01*
X203265760Y-55287618D02*
X203227664Y-55249523D01*
X203227664Y-55249523D02*
X203151474Y-55211428D01*
X203151474Y-55211428D02*
X202960998Y-55211428D01*
X202960998Y-55211428D02*
X202884807Y-55249523D01*
X202884807Y-55249523D02*
X202846712Y-55287618D01*
X202846712Y-55287618D02*
X202808617Y-55363809D01*
X202808617Y-55363809D02*
X202808617Y-55516190D01*
X202808617Y-55516190D02*
X202846712Y-55592380D01*
X202846712Y-55592380D02*
X202884807Y-55630475D01*
X202884807Y-55630475D02*
X202960998Y-55668571D01*
X202123855Y-81299285D02*
X201742902Y-81565952D01*
X202123855Y-81756428D02*
X201323855Y-81756428D01*
X201323855Y-81756428D02*
X201323855Y-81451666D01*
X201323855Y-81451666D02*
X201361950Y-81375476D01*
X201361950Y-81375476D02*
X201400045Y-81337381D01*
X201400045Y-81337381D02*
X201476236Y-81299285D01*
X201476236Y-81299285D02*
X201590521Y-81299285D01*
X201590521Y-81299285D02*
X201666712Y-81337381D01*
X201666712Y-81337381D02*
X201704807Y-81375476D01*
X201704807Y-81375476D02*
X201742902Y-81451666D01*
X201742902Y-81451666D02*
X201742902Y-81756428D01*
X202123855Y-80537381D02*
X202123855Y-80994524D01*
X202123855Y-80765952D02*
X201323855Y-80765952D01*
X201323855Y-80765952D02*
X201438140Y-80842143D01*
X201438140Y-80842143D02*
X201514331Y-80918333D01*
X201514331Y-80918333D02*
X201552426Y-80994524D01*
X201323855Y-80042142D02*
X201323855Y-79965952D01*
X201323855Y-79965952D02*
X201361950Y-79889761D01*
X201361950Y-79889761D02*
X201400045Y-79851666D01*
X201400045Y-79851666D02*
X201476236Y-79813571D01*
X201476236Y-79813571D02*
X201628617Y-79775476D01*
X201628617Y-79775476D02*
X201819093Y-79775476D01*
X201819093Y-79775476D02*
X201971474Y-79813571D01*
X201971474Y-79813571D02*
X202047664Y-79851666D01*
X202047664Y-79851666D02*
X202085760Y-79889761D01*
X202085760Y-79889761D02*
X202123855Y-79965952D01*
X202123855Y-79965952D02*
X202123855Y-80042142D01*
X202123855Y-80042142D02*
X202085760Y-80118333D01*
X202085760Y-80118333D02*
X202047664Y-80156428D01*
X202047664Y-80156428D02*
X201971474Y-80194523D01*
X201971474Y-80194523D02*
X201819093Y-80232619D01*
X201819093Y-80232619D02*
X201628617Y-80232619D01*
X201628617Y-80232619D02*
X201476236Y-80194523D01*
X201476236Y-80194523D02*
X201400045Y-80156428D01*
X201400045Y-80156428D02*
X201361950Y-80118333D01*
X201361950Y-80118333D02*
X201323855Y-80042142D01*
X202280476Y-48683855D02*
X202280476Y-49331474D01*
X202280476Y-49331474D02*
X202318571Y-49407664D01*
X202318571Y-49407664D02*
X202356666Y-49445760D01*
X202356666Y-49445760D02*
X202432857Y-49483855D01*
X202432857Y-49483855D02*
X202585238Y-49483855D01*
X202585238Y-49483855D02*
X202661428Y-49445760D01*
X202661428Y-49445760D02*
X202699523Y-49407664D01*
X202699523Y-49407664D02*
X202737619Y-49331474D01*
X202737619Y-49331474D02*
X202737619Y-48683855D01*
X203042380Y-48683855D02*
X203537618Y-48683855D01*
X203537618Y-48683855D02*
X203270952Y-48988617D01*
X203270952Y-48988617D02*
X203385237Y-48988617D01*
X203385237Y-48988617D02*
X203461428Y-49026712D01*
X203461428Y-49026712D02*
X203499523Y-49064807D01*
X203499523Y-49064807D02*
X203537618Y-49140998D01*
X203537618Y-49140998D02*
X203537618Y-49331474D01*
X203537618Y-49331474D02*
X203499523Y-49407664D01*
X203499523Y-49407664D02*
X203461428Y-49445760D01*
X203461428Y-49445760D02*
X203385237Y-49483855D01*
X203385237Y-49483855D02*
X203156666Y-49483855D01*
X203156666Y-49483855D02*
X203080475Y-49445760D01*
X203080475Y-49445760D02*
X203042380Y-49407664D01*
X196733855Y-50946666D02*
X197305283Y-50946666D01*
X197305283Y-50946666D02*
X197419569Y-50984761D01*
X197419569Y-50984761D02*
X197495760Y-51060952D01*
X197495760Y-51060952D02*
X197533855Y-51175237D01*
X197533855Y-51175237D02*
X197533855Y-51251428D01*
X197533855Y-50146666D02*
X197533855Y-50603809D01*
X197533855Y-50375237D02*
X196733855Y-50375237D01*
X196733855Y-50375237D02*
X196848140Y-50451428D01*
X196848140Y-50451428D02*
X196924331Y-50527618D01*
X196924331Y-50527618D02*
X196962426Y-50603809D01*
D12*
X194014819Y-85771904D02*
X194824342Y-85771904D01*
X194824342Y-85771904D02*
X194919580Y-85724285D01*
X194919580Y-85724285D02*
X194967200Y-85676666D01*
X194967200Y-85676666D02*
X195014819Y-85581428D01*
X195014819Y-85581428D02*
X195014819Y-85390952D01*
X195014819Y-85390952D02*
X194967200Y-85295714D01*
X194967200Y-85295714D02*
X194919580Y-85248095D01*
X194919580Y-85248095D02*
X194824342Y-85200476D01*
X194824342Y-85200476D02*
X194014819Y-85200476D01*
X194348152Y-84295714D02*
X195014819Y-84295714D01*
X193967200Y-84533809D02*
X194681485Y-84771904D01*
X194681485Y-84771904D02*
X194681485Y-84152857D01*
D11*
X206659524Y-42113855D02*
X206659524Y-41313855D01*
X206659524Y-41313855D02*
X206850000Y-41313855D01*
X206850000Y-41313855D02*
X206964286Y-41351950D01*
X206964286Y-41351950D02*
X207040476Y-41428140D01*
X207040476Y-41428140D02*
X207078571Y-41504331D01*
X207078571Y-41504331D02*
X207116667Y-41656712D01*
X207116667Y-41656712D02*
X207116667Y-41770998D01*
X207116667Y-41770998D02*
X207078571Y-41923379D01*
X207078571Y-41923379D02*
X207040476Y-41999569D01*
X207040476Y-41999569D02*
X206964286Y-42075760D01*
X206964286Y-42075760D02*
X206850000Y-42113855D01*
X206850000Y-42113855D02*
X206659524Y-42113855D01*
X207497619Y-42113855D02*
X207650000Y-42113855D01*
X207650000Y-42113855D02*
X207726190Y-42075760D01*
X207726190Y-42075760D02*
X207764286Y-42037664D01*
X207764286Y-42037664D02*
X207840476Y-41923379D01*
X207840476Y-41923379D02*
X207878571Y-41770998D01*
X207878571Y-41770998D02*
X207878571Y-41466236D01*
X207878571Y-41466236D02*
X207840476Y-41390045D01*
X207840476Y-41390045D02*
X207802381Y-41351950D01*
X207802381Y-41351950D02*
X207726190Y-41313855D01*
X207726190Y-41313855D02*
X207573809Y-41313855D01*
X207573809Y-41313855D02*
X207497619Y-41351950D01*
X207497619Y-41351950D02*
X207459524Y-41390045D01*
X207459524Y-41390045D02*
X207421428Y-41466236D01*
X207421428Y-41466236D02*
X207421428Y-41656712D01*
X207421428Y-41656712D02*
X207459524Y-41732902D01*
X207459524Y-41732902D02*
X207497619Y-41770998D01*
X207497619Y-41770998D02*
X207573809Y-41809093D01*
X207573809Y-41809093D02*
X207726190Y-41809093D01*
X207726190Y-41809093D02*
X207802381Y-41770998D01*
X207802381Y-41770998D02*
X207840476Y-41732902D01*
X207840476Y-41732902D02*
X207878571Y-41656712D01*
X190747664Y-88445832D02*
X190785760Y-88483928D01*
X190785760Y-88483928D02*
X190823855Y-88598213D01*
X190823855Y-88598213D02*
X190823855Y-88674404D01*
X190823855Y-88674404D02*
X190785760Y-88788690D01*
X190785760Y-88788690D02*
X190709569Y-88864880D01*
X190709569Y-88864880D02*
X190633379Y-88902975D01*
X190633379Y-88902975D02*
X190480998Y-88941071D01*
X190480998Y-88941071D02*
X190366712Y-88941071D01*
X190366712Y-88941071D02*
X190214331Y-88902975D01*
X190214331Y-88902975D02*
X190138140Y-88864880D01*
X190138140Y-88864880D02*
X190061950Y-88788690D01*
X190061950Y-88788690D02*
X190023855Y-88674404D01*
X190023855Y-88674404D02*
X190023855Y-88598213D01*
X190023855Y-88598213D02*
X190061950Y-88483928D01*
X190061950Y-88483928D02*
X190100045Y-88445832D01*
X190023855Y-88179166D02*
X190023855Y-87645832D01*
X190023855Y-87645832D02*
X190823855Y-87988690D01*
X198233855Y-53003332D02*
X197852902Y-53269999D01*
X198233855Y-53460475D02*
X197433855Y-53460475D01*
X197433855Y-53460475D02*
X197433855Y-53155713D01*
X197433855Y-53155713D02*
X197471950Y-53079523D01*
X197471950Y-53079523D02*
X197510045Y-53041428D01*
X197510045Y-53041428D02*
X197586236Y-53003332D01*
X197586236Y-53003332D02*
X197700521Y-53003332D01*
X197700521Y-53003332D02*
X197776712Y-53041428D01*
X197776712Y-53041428D02*
X197814807Y-53079523D01*
X197814807Y-53079523D02*
X197852902Y-53155713D01*
X197852902Y-53155713D02*
X197852902Y-53460475D01*
X197433855Y-52736666D02*
X197433855Y-52203332D01*
X197433855Y-52203332D02*
X198233855Y-52546190D01*
X191108571Y-54763855D02*
X191108571Y-53963855D01*
X191108571Y-53963855D02*
X191299047Y-53963855D01*
X191299047Y-53963855D02*
X191413333Y-54001950D01*
X191413333Y-54001950D02*
X191489523Y-54078140D01*
X191489523Y-54078140D02*
X191527618Y-54154331D01*
X191527618Y-54154331D02*
X191565714Y-54306712D01*
X191565714Y-54306712D02*
X191565714Y-54420998D01*
X191565714Y-54420998D02*
X191527618Y-54573379D01*
X191527618Y-54573379D02*
X191489523Y-54649569D01*
X191489523Y-54649569D02*
X191413333Y-54725760D01*
X191413333Y-54725760D02*
X191299047Y-54763855D01*
X191299047Y-54763855D02*
X191108571Y-54763855D01*
X192327618Y-54763855D02*
X191870475Y-54763855D01*
X192099047Y-54763855D02*
X192099047Y-53963855D01*
X192099047Y-53963855D02*
X192022856Y-54078140D01*
X192022856Y-54078140D02*
X191946666Y-54154331D01*
X191946666Y-54154331D02*
X191870475Y-54192426D01*
X192632380Y-54040045D02*
X192670476Y-54001950D01*
X192670476Y-54001950D02*
X192746666Y-53963855D01*
X192746666Y-53963855D02*
X192937142Y-53963855D01*
X192937142Y-53963855D02*
X193013333Y-54001950D01*
X193013333Y-54001950D02*
X193051428Y-54040045D01*
X193051428Y-54040045D02*
X193089523Y-54116236D01*
X193089523Y-54116236D02*
X193089523Y-54192426D01*
X193089523Y-54192426D02*
X193051428Y-54306712D01*
X193051428Y-54306712D02*
X192594285Y-54763855D01*
X192594285Y-54763855D02*
X193089523Y-54763855D01*
X217925760Y-96046667D02*
X217963855Y-95932381D01*
X217963855Y-95932381D02*
X217963855Y-95741905D01*
X217963855Y-95741905D02*
X217925760Y-95665714D01*
X217925760Y-95665714D02*
X217887664Y-95627619D01*
X217887664Y-95627619D02*
X217811474Y-95589524D01*
X217811474Y-95589524D02*
X217735283Y-95589524D01*
X217735283Y-95589524D02*
X217659093Y-95627619D01*
X217659093Y-95627619D02*
X217620998Y-95665714D01*
X217620998Y-95665714D02*
X217582902Y-95741905D01*
X217582902Y-95741905D02*
X217544807Y-95894286D01*
X217544807Y-95894286D02*
X217506712Y-95970476D01*
X217506712Y-95970476D02*
X217468617Y-96008571D01*
X217468617Y-96008571D02*
X217392426Y-96046667D01*
X217392426Y-96046667D02*
X217316236Y-96046667D01*
X217316236Y-96046667D02*
X217240045Y-96008571D01*
X217240045Y-96008571D02*
X217201950Y-95970476D01*
X217201950Y-95970476D02*
X217163855Y-95894286D01*
X217163855Y-95894286D02*
X217163855Y-95703809D01*
X217163855Y-95703809D02*
X217201950Y-95589524D01*
X217163855Y-95322857D02*
X217963855Y-95132381D01*
X217963855Y-95132381D02*
X217392426Y-94980000D01*
X217392426Y-94980000D02*
X217963855Y-94827619D01*
X217963855Y-94827619D02*
X217163855Y-94637143D01*
X217240045Y-94370476D02*
X217201950Y-94332380D01*
X217201950Y-94332380D02*
X217163855Y-94256190D01*
X217163855Y-94256190D02*
X217163855Y-94065714D01*
X217163855Y-94065714D02*
X217201950Y-93989523D01*
X217201950Y-93989523D02*
X217240045Y-93951428D01*
X217240045Y-93951428D02*
X217316236Y-93913333D01*
X217316236Y-93913333D02*
X217392426Y-93913333D01*
X217392426Y-93913333D02*
X217506712Y-93951428D01*
X217506712Y-93951428D02*
X217963855Y-94408571D01*
X217963855Y-94408571D02*
X217963855Y-93913333D01*
D12*
X209940000Y-93184819D02*
X209940000Y-93422914D01*
X209701905Y-93327676D02*
X209940000Y-93422914D01*
X209940000Y-93422914D02*
X210178095Y-93327676D01*
X209797143Y-93613390D02*
X209940000Y-93422914D01*
X209940000Y-93422914D02*
X210082857Y-93613390D01*
X209940000Y-93184819D02*
X209940000Y-93422914D01*
X209701905Y-93327676D02*
X209940000Y-93422914D01*
X209940000Y-93422914D02*
X210178095Y-93327676D01*
X209797143Y-93613390D02*
X209940000Y-93422914D01*
X209940000Y-93422914D02*
X210082857Y-93613390D01*
D11*
%TO.C,R12*%
X191367500Y-84675276D02*
X191367500Y-85184724D01*
X192412500Y-84675276D02*
X192412500Y-85184724D01*
D12*
%TO.C,SW6*%
X238090000Y-81620000D02*
X238090000Y-80620000D01*
X238090000Y-94620000D02*
X238090000Y-93620000D01*
X238090000Y-94620000D02*
X239090000Y-94620000D01*
X239090000Y-80620000D02*
X238090000Y-80620000D01*
X251090000Y-94620000D02*
X252090000Y-94620000D01*
X252090000Y-80620000D02*
X251090000Y-80620000D01*
X252090000Y-80620000D02*
X252090000Y-81620000D01*
X252090000Y-93620000D02*
X252090000Y-94620000D01*
D11*
%TO.C,C5*%
X193600000Y-85081267D02*
X193600000Y-84788733D01*
X194620000Y-85081267D02*
X194620000Y-84788733D01*
D13*
%TO.C,U2*%
X209160400Y-87685800D02*
X209160400Y-87990600D01*
X209160400Y-87990600D02*
X209160400Y-88600200D01*
X209160400Y-88600200D02*
X209160400Y-88905000D01*
D14*
X209160400Y-87990600D02*
G75*
G02*
X209160400Y-88600200I0J-304800D01*
G01*
D11*
%TO.C,C4*%
X196813733Y-87485000D02*
X197106267Y-87485000D01*
X196813733Y-88505000D02*
X197106267Y-88505000D01*
D15*
%TO.C,S1*%
X219340000Y-43320000D02*
X219340000Y-44495000D01*
X219340000Y-43320000D02*
X220515000Y-43320000D01*
X219340000Y-55720000D02*
X219340000Y-54545000D01*
X219340000Y-55720000D02*
X220515000Y-55720000D01*
X232740000Y-43320000D02*
X231565000Y-43320000D01*
X232740000Y-43320000D02*
X232740000Y-44495000D01*
X232740000Y-55720000D02*
X231565000Y-55720000D01*
X232740000Y-55720000D02*
X232740000Y-54545000D01*
D14*
%TO.C,U1*%
X189220000Y-59400000D02*
X190395000Y-59400000D01*
X189220000Y-60575000D02*
X189220000Y-59400000D01*
X189220000Y-77400000D02*
X189220000Y-76225000D01*
X190395000Y-77400000D02*
X189220000Y-77400000D01*
X208945000Y-59400000D02*
X209220000Y-59400000D01*
X209220000Y-59400000D02*
X209220000Y-60575000D01*
X209220000Y-76225000D02*
X209220000Y-77400000D01*
X209220000Y-77400000D02*
X208945000Y-77400000D01*
D11*
%TO.C,C8*%
X210666233Y-90977500D02*
X210958767Y-90977500D01*
X210666233Y-91997500D02*
X210958767Y-91997500D01*
%TO.C,D8*%
X205380000Y-85485000D02*
X205380000Y-88345000D01*
X205380000Y-88345000D02*
X207300000Y-88345000D01*
X207300000Y-88345000D02*
X207300000Y-85485000D01*
%TO.C,C6*%
X202700000Y-83361233D02*
X202700000Y-83653767D01*
X203720000Y-83361233D02*
X203720000Y-83653767D01*
%TO.C,C3*%
X196823733Y-88995000D02*
X197116267Y-88995000D01*
X196823733Y-90015000D02*
X197116267Y-90015000D01*
%TO.C,R2*%
X198822224Y-44040000D02*
X198312776Y-44040000D01*
X198822224Y-45085000D02*
X198312776Y-45085000D01*
%TO.C,D10*%
X202010000Y-51817500D02*
X202010000Y-54677500D01*
X202010000Y-54677500D02*
X203930000Y-54677500D01*
X203930000Y-54677500D02*
X203930000Y-51817500D01*
%TO.C,R11*%
X209932776Y-43067500D02*
X210442224Y-43067500D01*
X209932776Y-44112500D02*
X210442224Y-44112500D01*
%TO.C,C1*%
X202363767Y-43740000D02*
X202071233Y-43740000D01*
X202363767Y-44760000D02*
X202071233Y-44760000D01*
%TO.C,R5*%
X198814724Y-45550000D02*
X198305276Y-45550000D01*
X198814724Y-46595000D02*
X198305276Y-46595000D01*
%TO.C,R4*%
X198814724Y-47050000D02*
X198305276Y-47050000D01*
X198814724Y-48095000D02*
X198305276Y-48095000D01*
%TO.C,R1*%
X198817224Y-48560000D02*
X198307776Y-48560000D01*
X198817224Y-49605000D02*
X198307776Y-49605000D01*
D12*
%TO.C,SW9*%
X219040000Y-62570000D02*
X219040000Y-61570000D01*
X219040000Y-75570000D02*
X219040000Y-74570000D01*
X219040000Y-75570000D02*
X220040000Y-75570000D01*
X220040000Y-61570000D02*
X219040000Y-61570000D01*
X232040000Y-75570000D02*
X233040000Y-75570000D01*
X233040000Y-61570000D02*
X232040000Y-61570000D01*
X233040000Y-61570000D02*
X233040000Y-62570000D01*
X233040000Y-74570000D02*
X233040000Y-75570000D01*
D11*
%TO.C,SW3*%
X191475000Y-90750000D02*
X191475000Y-91950000D01*
X191475000Y-93550000D02*
X191475000Y-94750000D01*
X191500000Y-94750000D02*
X192700000Y-94750000D01*
X192675000Y-90750000D02*
X191475000Y-90750000D01*
X196675000Y-90750000D02*
X197875000Y-90750000D01*
X196675000Y-94750000D02*
X197875000Y-94750000D01*
X197875000Y-91950000D02*
X197875000Y-90750000D01*
X197875000Y-94750000D02*
X197875000Y-93550000D01*
%TO.C,R13*%
X206997776Y-89077500D02*
X207507224Y-89077500D01*
X206997776Y-90122500D02*
X207507224Y-90122500D01*
%TO.C,C9*%
X210943767Y-84480000D02*
X210651233Y-84480000D01*
X210943767Y-85500000D02*
X210651233Y-85500000D01*
%TO.C,Q1*%
X202895000Y-89232500D02*
X202895000Y-90122500D01*
X202895000Y-90122500D02*
X201045000Y-90122500D01*
X202910000Y-87002500D02*
X201060000Y-87002500D01*
X202910000Y-87002500D02*
X202910000Y-87892500D01*
%TO.C,R14*%
X207687500Y-86147224D02*
X207687500Y-85637776D01*
X208732500Y-86147224D02*
X208732500Y-85637776D01*
%TO.C,R6*%
X200577500Y-52572776D02*
X200577500Y-53082224D01*
X201622500Y-52572776D02*
X201622500Y-53082224D01*
%TO.C,R10*%
X201177500Y-83255276D02*
X201177500Y-83764724D01*
X202222500Y-83255276D02*
X202222500Y-83764724D01*
%TO.C,U3*%
X202865000Y-48407500D02*
X202065000Y-48407500D01*
X202865000Y-48407500D02*
X203665000Y-48407500D01*
X203865000Y-45187500D02*
X202065000Y-45187500D01*
X204405000Y-48687500D02*
X203925000Y-48687500D01*
X204165000Y-48357500D01*
X204405000Y-48687500D01*
G36*
X204405000Y-48687500D02*
G01*
X203925000Y-48687500D01*
X204165000Y-48357500D01*
X204405000Y-48687500D01*
G37*
%TO.C,U4*%
X195400000Y-85010000D02*
X195400000Y-84235000D01*
X195400000Y-85010000D02*
X195400000Y-85785000D01*
X198520000Y-85010000D02*
X198520000Y-84235000D01*
X198520000Y-85010000D02*
X198520000Y-85785000D01*
X195450000Y-86372500D02*
X195120000Y-86612500D01*
X195120000Y-86132500D01*
X195450000Y-86372500D01*
G36*
X195450000Y-86372500D02*
G01*
X195120000Y-86612500D01*
X195120000Y-86132500D01*
X195450000Y-86372500D01*
G37*
%TO.C,D9*%
X209075000Y-42700000D02*
X211935000Y-42700000D01*
X211935000Y-40780000D02*
X209075000Y-40780000D01*
X211935000Y-42700000D02*
X211935000Y-40780000D01*
%TO.C,C7*%
X191380000Y-88458767D02*
X191380000Y-88166233D01*
X192400000Y-88458767D02*
X192400000Y-88166233D01*
%TO.C,R7*%
X195455276Y-52307500D02*
X195964724Y-52307500D01*
X195455276Y-53352500D02*
X195964724Y-53352500D01*
%TO.C,D12*%
X190222500Y-51850000D02*
X190222500Y-53770000D01*
X190222500Y-53770000D02*
X193082500Y-53770000D01*
X193082500Y-51850000D02*
X190222500Y-51850000D01*
D12*
%TO.C,SW7*%
X238090000Y-62570000D02*
X238090000Y-61570000D01*
X238090000Y-75570000D02*
X238090000Y-74570000D01*
X238090000Y-75570000D02*
X239090000Y-75570000D01*
X239090000Y-61570000D02*
X238090000Y-61570000D01*
X251090000Y-75570000D02*
X252090000Y-75570000D01*
X252090000Y-61570000D02*
X251090000Y-61570000D01*
X252090000Y-61570000D02*
X252090000Y-62570000D01*
X252090000Y-74570000D02*
X252090000Y-75570000D01*
%TO.C,SW8*%
X219040000Y-81620000D02*
X219040000Y-80620000D01*
X219040000Y-94620000D02*
X219040000Y-93620000D01*
X219040000Y-94620000D02*
X220040000Y-94620000D01*
X220040000Y-80620000D02*
X219040000Y-80620000D01*
X232040000Y-94620000D02*
X233040000Y-94620000D01*
X233040000Y-80620000D02*
X232040000Y-80620000D01*
X233040000Y-80620000D02*
X233040000Y-81620000D01*
X233040000Y-93620000D02*
X233040000Y-94620000D01*
%TO.C,SW1*%
X238090000Y-43520000D02*
X238090000Y-42520000D01*
X238090000Y-56520000D02*
X238090000Y-55520000D01*
X238090000Y-56520000D02*
X239090000Y-56520000D01*
X239090000Y-42520000D02*
X238090000Y-42520000D01*
X251090000Y-56520000D02*
X252090000Y-56520000D01*
X252090000Y-42520000D02*
X251090000Y-42520000D01*
X252090000Y-42520000D02*
X252090000Y-43520000D01*
X252090000Y-55520000D02*
X252090000Y-56520000D01*
D11*
%TO.C,D11*%
X199100000Y-82947500D02*
X199100000Y-85607500D01*
X200800000Y-82947500D02*
X199100000Y-82947500D01*
X200800000Y-82947500D02*
X200800000Y-85607500D01*
D13*
%TO.C,SW2*%
X207507700Y-92612400D02*
X207507700Y-94008069D01*
X207507700Y-95991931D02*
X207507700Y-97159000D01*
X207507700Y-97159000D02*
X216372300Y-97159000D01*
X216372300Y-92612400D02*
X207507700Y-92612400D01*
X216372300Y-94008069D02*
X216372300Y-92612400D01*
X216372300Y-97159000D02*
X216372300Y-95991931D01*
%TD*%
M02*
