%TF.GenerationSoftware,KiCad,Pcbnew,9.0.2*%
%TF.CreationDate,2025-07-23T19:01:54-06:00*%
%TF.ProjectId,macro devboard ESP32,6d616372-6f20-4646-9576-626f61726420,rev?*%
%TF.SameCoordinates,Original*%
%TF.FileFunction,Paste,Top*%
%TF.FilePolarity,Positive*%
%FSLAX46Y46*%
G04 Gerber Fmt 4.6, Leading zero omitted, Abs format (unit mm)*
G04 Created by KiCad (PCBNEW 9.0.2) date 2025-07-23 19:01:54*
%MOMM*%
%LPD*%
G01*
G04 APERTURE LIST*
G04 Aperture macros list*
%AMRoundRect*
0 Rectangle with rounded corners*
0 $1 Rounding radius*
0 $2 $3 $4 $5 $6 $7 $8 $9 X,Y pos of 4 corners*
0 Add a 4 corners polygon primitive as box body*
4,1,4,$2,$3,$4,$5,$6,$7,$8,$9,$2,$3,0*
0 Add four circle primitives for the rounded corners*
1,1,$1+$1,$2,$3*
1,1,$1+$1,$4,$5*
1,1,$1+$1,$6,$7*
1,1,$1+$1,$8,$9*
0 Add four rect primitives between the rounded corners*
20,1,$1+$1,$2,$3,$4,$5,0*
20,1,$1+$1,$4,$5,$6,$7,0*
20,1,$1+$1,$6,$7,$8,$9,0*
20,1,$1+$1,$8,$9,$2,$3,0*%
G04 Aperture macros list end*
%ADD10RoundRect,0.237500X-0.237500X0.250000X-0.237500X-0.250000X0.237500X-0.250000X0.237500X0.250000X0*%
%ADD11RoundRect,0.237500X0.237500X-0.300000X0.237500X0.300000X-0.237500X0.300000X-0.237500X-0.300000X0*%
%ADD12R,0.558800X1.270000*%
%ADD13RoundRect,0.237500X-0.300000X-0.237500X0.300000X-0.237500X0.300000X0.237500X-0.300000X0.237500X0*%
%ADD14R,0.700000X0.700000*%
%ADD15R,0.900000X1.500000*%
%ADD16RoundRect,0.250000X0.450000X-0.325000X0.450000X0.325000X-0.450000X0.325000X-0.450000X-0.325000X0*%
%ADD17RoundRect,0.237500X-0.237500X0.300000X-0.237500X-0.300000X0.237500X-0.300000X0.237500X0.300000X0*%
%ADD18RoundRect,0.237500X0.250000X0.237500X-0.250000X0.237500X-0.250000X-0.237500X0.250000X-0.237500X0*%
%ADD19RoundRect,0.237500X0.237500X-0.250000X0.237500X0.250000X-0.237500X0.250000X-0.237500X-0.250000X0*%
%ADD20R,1.250000X1.000000*%
%ADD21RoundRect,0.237500X-0.250000X-0.237500X0.250000X-0.237500X0.250000X0.237500X-0.250000X0.237500X0*%
%ADD22RoundRect,0.237500X0.300000X0.237500X-0.300000X0.237500X-0.300000X-0.237500X0.300000X-0.237500X0*%
%ADD23RoundRect,0.162500X-0.837500X-0.162500X0.837500X-0.162500X0.837500X0.162500X-0.837500X0.162500X0*%
%ADD24RoundRect,0.162500X0.617500X0.162500X-0.617500X0.162500X-0.617500X-0.162500X0.617500X-0.162500X0*%
%ADD25R,1.140000X0.600000*%
%ADD26R,1.140000X0.300000*%
%ADD27RoundRect,0.150000X0.150000X-0.512500X0.150000X0.512500X-0.150000X0.512500X-0.150000X-0.512500X0*%
%ADD28RoundRect,0.250000X0.325000X0.450000X-0.325000X0.450000X-0.325000X-0.450000X0.325000X-0.450000X0*%
%ADD29RoundRect,0.250000X-0.325000X-0.450000X0.325000X-0.450000X0.325000X0.450000X-0.325000X0.450000X0*%
%ADD30RoundRect,0.125000X-0.125000X0.125000X-0.125000X-0.125000X0.125000X-0.125000X0.125000X0.125000X0*%
G04 APERTURE END LIST*
D10*
%TO.C,R12*%
X191890000Y-84017500D03*
X191890000Y-85842500D03*
%TD*%
D11*
%TO.C,C5*%
X194110000Y-85797500D03*
X194110000Y-84072500D03*
%TD*%
D12*
%TO.C,U2*%
X209770000Y-89590800D03*
X210709800Y-89590800D03*
X211649600Y-89590800D03*
X211649600Y-87000000D03*
X209770000Y-87000000D03*
%TD*%
D13*
%TO.C,C4*%
X196097500Y-87995000D03*
X197822500Y-87995000D03*
%TD*%
D14*
%TO.C,U1*%
X201420000Y-68540000D03*
X202520000Y-68540000D03*
X203620000Y-68540000D03*
X201420000Y-67440000D03*
X202520000Y-67440000D03*
X203620000Y-67440000D03*
X201420000Y-66340000D03*
X202520000Y-66340000D03*
X203620000Y-66340000D03*
D15*
X196320000Y-77150000D03*
X197820000Y-77150000D03*
X199320000Y-77150000D03*
X200820000Y-77150000D03*
X202320000Y-77150000D03*
X203820000Y-77150000D03*
X205320000Y-77150000D03*
X206820000Y-77150000D03*
X208320000Y-77150000D03*
X208320000Y-59650000D03*
X206820000Y-59650000D03*
X205320000Y-59650000D03*
X203820000Y-59650000D03*
X202320000Y-59650000D03*
X200820000Y-59650000D03*
X199320000Y-59650000D03*
X197820000Y-59650000D03*
X196320000Y-59650000D03*
%TD*%
D13*
%TO.C,C8*%
X209950000Y-91487500D03*
X211675000Y-91487500D03*
%TD*%
D16*
%TO.C,D8*%
X206340000Y-87510000D03*
X206340000Y-85460000D03*
%TD*%
D17*
%TO.C,C6*%
X203200000Y-83700000D03*
X203200000Y-85425000D03*
%TD*%
D13*
%TO.C,C3*%
X196107500Y-89505000D03*
X197832500Y-89505000D03*
%TD*%
D18*
%TO.C,R2*%
X199480000Y-44562500D03*
X197655000Y-44562500D03*
%TD*%
D16*
%TO.C,D10*%
X202970000Y-53842500D03*
X202970000Y-51792500D03*
%TD*%
D19*
%TO.C,R11*%
X207360000Y-43325000D03*
X207360000Y-41500000D03*
%TD*%
D18*
%TO.C,R5*%
X199472500Y-46072500D03*
X197647500Y-46072500D03*
%TD*%
%TO.C,R4*%
X199472500Y-47572500D03*
X197647500Y-47572500D03*
%TD*%
%TO.C,R1*%
X199475000Y-49082500D03*
X197650000Y-49082500D03*
%TD*%
D20*
%TO.C,SW3*%
X199690000Y-92730000D03*
X191940000Y-92730000D03*
%TD*%
D21*
%TO.C,R13*%
X206340000Y-89600000D03*
X208165000Y-89600000D03*
%TD*%
D22*
%TO.C,C9*%
X211660000Y-84990000D03*
X209935000Y-84990000D03*
%TD*%
D23*
%TO.C,Q1*%
X200240000Y-87612500D03*
X200240000Y-89512500D03*
X203660000Y-88562500D03*
%TD*%
D19*
%TO.C,R14*%
X208210000Y-86805000D03*
X208210000Y-84980000D03*
%TD*%
D10*
%TO.C,R6*%
X201100000Y-51915000D03*
X201100000Y-53740000D03*
%TD*%
%TO.C,R10*%
X201690000Y-83652500D03*
X201690000Y-85477500D03*
%TD*%
D24*
%TO.C,U3*%
X204315000Y-47747500D03*
X204315000Y-46797500D03*
X204315000Y-45847500D03*
X201615000Y-45847500D03*
X201615000Y-46797500D03*
X201615000Y-47747500D03*
%TD*%
D25*
%TO.C,J1*%
X195710000Y-43110000D03*
X195710000Y-43910000D03*
D26*
X195710000Y-45060000D03*
X195710000Y-46060000D03*
X195710000Y-46560000D03*
X195710000Y-47560000D03*
D25*
X195710000Y-49510000D03*
X195710000Y-48710000D03*
D26*
X195710000Y-48060000D03*
X195710000Y-47060000D03*
X195710000Y-45560000D03*
X195710000Y-44560000D03*
%TD*%
D27*
%TO.C,U4*%
X195920000Y-86065000D03*
X196870000Y-86065000D03*
X197820000Y-86065000D03*
X197820000Y-83790000D03*
X195920000Y-83790000D03*
%TD*%
D28*
%TO.C,D9*%
X211100000Y-41740000D03*
X209050000Y-41740000D03*
%TD*%
D11*
%TO.C,C7*%
X191890000Y-89175000D03*
X191890000Y-87450000D03*
%TD*%
D21*
%TO.C,R7*%
X194797500Y-52830000D03*
X196622500Y-52830000D03*
%TD*%
D29*
%TO.C,D12*%
X191057500Y-52830000D03*
X193107500Y-52830000D03*
%TD*%
D30*
%TO.C,D11*%
X199950000Y-83457500D03*
X199950000Y-85657500D03*
%TD*%
M02*
