%TF.GenerationSoftware,KiCad,Pcbnew,9.0.2*%
%TF.CreationDate,2025-08-07T13:19:16-06:00*%
%TF.ProjectId,macro devboard ESP32,6d616372-6f20-4646-9576-626f61726420,rev?*%
%TF.SameCoordinates,Original*%
%TF.FileFunction,Copper,L4,Bot*%
%TF.FilePolarity,Positive*%
%FSLAX46Y46*%
G04 Gerber Fmt 4.6, Leading zero omitted, Abs format (unit mm)*
G04 Created by KiCad (PCBNEW 9.0.2) date 2025-08-07 13:19:16*
%MOMM*%
%LPD*%
G01*
G04 APERTURE LIST*
G04 Aperture macros list*
%AMRoundRect*
0 Rectangle with rounded corners*
0 $1 Rounding radius*
0 $2 $3 $4 $5 $6 $7 $8 $9 X,Y pos of 4 corners*
0 Add a 4 corners polygon primitive as box body*
4,1,4,$2,$3,$4,$5,$6,$7,$8,$9,$2,$3,0*
0 Add four circle primitives for the rounded corners*
1,1,$1+$1,$2,$3*
1,1,$1+$1,$4,$5*
1,1,$1+$1,$6,$7*
1,1,$1+$1,$8,$9*
0 Add four rect primitives between the rounded corners*
20,1,$1+$1,$2,$3,$4,$5,0*
20,1,$1+$1,$4,$5,$6,$7,0*
20,1,$1+$1,$6,$7,$8,$9,0*
20,1,$1+$1,$8,$9,$2,$3,0*%
%AMFreePoly0*
4,1,23,0.500000,-0.750000,0.000000,-0.750000,0.000000,-0.745722,-0.065263,-0.745722,-0.191342,-0.711940,-0.304381,-0.646677,-0.396677,-0.554381,-0.461940,-0.441342,-0.495722,-0.315263,-0.495722,-0.250000,-0.500000,-0.250000,-0.500000,0.250000,-0.495722,0.250000,-0.495722,0.315263,-0.461940,0.441342,-0.396677,0.554381,-0.304381,0.646677,-0.191342,0.711940,-0.065263,0.745722,0.000000,0.745722,
0.000000,0.750000,0.500000,0.750000,0.500000,-0.750000,0.500000,-0.750000,$1*%
%AMFreePoly1*
4,1,23,0.000000,0.745722,0.065263,0.745722,0.191342,0.711940,0.304381,0.646677,0.396677,0.554381,0.461940,0.441342,0.495722,0.315263,0.495722,0.250000,0.500000,0.250000,0.500000,-0.250000,0.495722,-0.250000,0.495722,-0.315263,0.461940,-0.441342,0.396677,-0.554381,0.304381,-0.646677,0.191342,-0.711940,0.065263,-0.745722,0.000000,-0.745722,0.000000,-0.750000,-0.500000,-0.750000,
-0.500000,0.750000,0.000000,0.750000,0.000000,0.745722,0.000000,0.745722,$1*%
G04 Aperture macros list end*
%TA.AperFunction,SMDPad,CuDef*%
%ADD10R,2.550000X2.500000*%
%TD*%
%TA.AperFunction,ComponentPad*%
%ADD11C,2.286000*%
%TD*%
%TA.AperFunction,ComponentPad*%
%ADD12R,1.800000X1.800000*%
%TD*%
%TA.AperFunction,ComponentPad*%
%ADD13C,1.800000*%
%TD*%
%TA.AperFunction,ComponentPad*%
%ADD14O,6.000000X3.000000*%
%TD*%
%TA.AperFunction,ComponentPad*%
%ADD15O,2.100000X1.050000*%
%TD*%
%TA.AperFunction,ComponentPad*%
%ADD16O,1.800000X0.900000*%
%TD*%
%TA.AperFunction,ComponentPad*%
%ADD17C,1.320800*%
%TD*%
%TA.AperFunction,ComponentPad*%
%ADD18C,1.498600*%
%TD*%
%TA.AperFunction,SMDPad,CuDef*%
%ADD19RoundRect,0.125000X0.125000X-0.125000X0.125000X0.125000X-0.125000X0.125000X-0.125000X-0.125000X0*%
%TD*%
%TA.AperFunction,SMDPad,CuDef*%
%ADD20FreePoly0,270.000000*%
%TD*%
%TA.AperFunction,SMDPad,CuDef*%
%ADD21FreePoly1,270.000000*%
%TD*%
%TA.AperFunction,SMDPad,CuDef*%
%ADD22C,2.000000*%
%TD*%
%TA.AperFunction,ComponentPad*%
%ADD23R,1.700000X1.700000*%
%TD*%
%TA.AperFunction,ComponentPad*%
%ADD24C,1.700000*%
%TD*%
%TA.AperFunction,SMDPad,CuDef*%
%ADD25RoundRect,0.125000X-0.125000X0.125000X-0.125000X-0.125000X0.125000X-0.125000X0.125000X0.125000X0*%
%TD*%
%TA.AperFunction,ComponentPad*%
%ADD26RoundRect,0.250000X0.625000X-0.350000X0.625000X0.350000X-0.625000X0.350000X-0.625000X-0.350000X0*%
%TD*%
%TA.AperFunction,ComponentPad*%
%ADD27O,1.750000X1.200000*%
%TD*%
%TA.AperFunction,ViaPad*%
%ADD28C,0.600000*%
%TD*%
%TA.AperFunction,ViaPad*%
%ADD29C,0.500000*%
%TD*%
%TA.AperFunction,Conductor*%
%ADD30C,0.400000*%
%TD*%
%TA.AperFunction,Conductor*%
%ADD31C,0.200000*%
%TD*%
%TA.AperFunction,Conductor*%
%ADD32C,0.300000*%
%TD*%
G04 APERTURE END LIST*
D10*
%TO.P,SW6,1,1*%
%TO.N,col0*%
X238800000Y-92700000D03*
D11*
X247630000Y-82540000D03*
%TO.P,SW6,2,2*%
%TO.N,Net-(D3-A)*%
X241280000Y-85080000D03*
D10*
X252650000Y-90160000D03*
%TD*%
D12*
%TO.P,S1,1*%
%TO.N,Net-(D7-A)*%
X233040000Y-47020000D03*
D13*
%TO.P,S1,2*%
%TO.N,col2*%
X233040000Y-52020000D03*
%TO.P,S1,A,CHANNEL_A*%
%TO.N,ROT1*%
X218540000Y-47020000D03*
%TO.P,S1,B,CHANNEL_B*%
%TO.N,ROT2*%
X218540000Y-52020000D03*
%TO.P,S1,C,COMMON*%
%TO.N,GND*%
X218540000Y-49520000D03*
D14*
%TO.P,S1,SH1,SHIELD*%
X226040000Y-43920000D03*
%TO.P,S1,SH2,SHIELD__1*%
X226040000Y-55120000D03*
%TD*%
D10*
%TO.P,SW9,1,1*%
%TO.N,col1*%
X219750000Y-73650000D03*
D11*
X228580000Y-63490000D03*
%TO.P,SW9,2,2*%
%TO.N,Net-(D6-A)*%
X222230000Y-66030000D03*
D10*
X233600000Y-71110000D03*
%TD*%
D15*
%TO.P,J1,SH1,SHIELD*%
%TO.N,GND*%
X195140000Y-41990000D03*
%TO.P,J1,SH2,SHIELD__1*%
X195140000Y-50630000D03*
D16*
%TO.P,J1,SH3,SHIELD__2*%
X190960000Y-41990000D03*
%TO.P,J1,SH4,SHIELD__3*%
X190960000Y-50630000D03*
%TD*%
D10*
%TO.P,SW7,1,1*%
%TO.N,col1*%
X238800000Y-73650000D03*
D11*
X247630000Y-63490000D03*
%TO.P,SW7,2,2*%
%TO.N,Net-(D4-A)*%
X241280000Y-66030000D03*
D10*
X252650000Y-71110000D03*
%TD*%
%TO.P,SW8,1,1*%
%TO.N,col0*%
X219750000Y-92700000D03*
D11*
X228580000Y-82540000D03*
%TO.P,SW8,2,2*%
%TO.N,Net-(D5-A)*%
X222230000Y-85080000D03*
D10*
X233600000Y-90160000D03*
%TD*%
%TO.P,SW1,1,1*%
%TO.N,col2*%
X238800000Y-54600000D03*
D11*
X247630000Y-44440000D03*
%TO.P,SW1,2,2*%
%TO.N,Net-(D2-A)*%
X241280000Y-46980000D03*
D10*
X252650000Y-52060000D03*
%TD*%
D17*
%TO.P,SW2,1,1*%
%TO.N,VBAT*%
X209940000Y-95000000D03*
%TO.P,SW2,2,2*%
X211940000Y-95000000D03*
%TO.P,SW2,3,3*%
%TO.N,VBAT_IN*%
X213940001Y-95000000D03*
D18*
%TO.P,SW2,4*%
%TO.N,N/C*%
X207940000Y-95000000D03*
%TO.P,SW2,5*%
X215940000Y-95000000D03*
%TD*%
D19*
%TO.P,D4,1,K*%
%TO.N,row0*%
X251950000Y-76977499D03*
%TO.P,D4,2,A*%
%TO.N,Net-(D4-A)*%
X251950000Y-74777501D03*
%TD*%
%TO.P,D6,1,K*%
%TO.N,row1*%
X233560000Y-76099998D03*
%TO.P,D6,2,A*%
%TO.N,Net-(D6-A)*%
X233560000Y-73900000D03*
%TD*%
D20*
%TO.P,LED1,1,A*%
%TO.N,Net-(LED1-A)*%
X199310000Y-55160000D03*
D21*
%TO.P,LED1,2,B*%
%TO.N,IO1*%
X199310000Y-56460000D03*
%TD*%
D22*
%TO.P,TP4,1,1*%
%TO.N,VBUS*%
X216970000Y-57720000D03*
%TD*%
D23*
%TO.P,J3,1,Pin_1*%
%TO.N,IO20{slash}RXD*%
X211300000Y-64670000D03*
D24*
%TO.P,J3,2,Pin_2*%
%TO.N,IO21{slash}TXD*%
X213840000Y-64670000D03*
%TO.P,J3,3,Pin_3*%
%TO.N,IO3*%
X211300000Y-67210000D03*
%TO.P,J3,4,Pin_4*%
%TO.N,IO2*%
X213840000Y-67210000D03*
%TO.P,J3,5,Pin_5*%
%TO.N,IO1*%
X211300000Y-69750000D03*
%TO.P,J3,6,Pin_6*%
%TO.N,IO0*%
X213840000Y-69750000D03*
%TO.P,J3,7,Pin_7*%
%TO.N,GND*%
X211300000Y-72290000D03*
%TO.P,J3,8,Pin_8*%
%TO.N,VDD*%
X213840000Y-72290000D03*
%TD*%
D22*
%TO.P,TP5,1,1*%
%TO.N,VDD*%
X217000000Y-61120000D03*
%TD*%
D25*
%TO.P,D3,1,K*%
%TO.N,row0*%
X251940000Y-84052501D03*
%TO.P,D3,2,A*%
%TO.N,Net-(D3-A)*%
X251940000Y-86252499D03*
%TD*%
D22*
%TO.P,TP6,1,1*%
%TO.N,Net-(D11-K)*%
X200240000Y-89550000D03*
%TD*%
%TO.P,TP2,1,1*%
%TO.N,GND*%
X213230000Y-49520000D03*
%TD*%
%TO.P,TP3,1,1*%
%TO.N,EN*%
X192860000Y-92720000D03*
%TD*%
D19*
%TO.P,D7,1,K*%
%TO.N,row1*%
X235590000Y-49190000D03*
%TO.P,D7,2,A*%
%TO.N,Net-(D7-A)*%
X235590000Y-46990000D03*
%TD*%
D20*
%TO.P,LED0,1,A*%
%TO.N,Net-(LED0-A)*%
X196720000Y-55160000D03*
D21*
%TO.P,LED0,2,B*%
%TO.N,IO0*%
X196720000Y-56460000D03*
%TD*%
D19*
%TO.P,D2,1,K*%
%TO.N,row0*%
X251950000Y-58292498D03*
%TO.P,D2,2,A*%
%TO.N,Net-(D2-A)*%
X251950000Y-56092500D03*
%TD*%
D26*
%TO.P,J4,1,Pin_1*%
%TO.N,VBAT_IN*%
X216090000Y-86810000D03*
D27*
%TO.P,J4,2,Pin_2*%
%TO.N,GND*%
X216090000Y-84810000D03*
%TD*%
D25*
%TO.P,D5,1,K*%
%TO.N,row1*%
X233580000Y-84032501D03*
%TO.P,D5,2,A*%
%TO.N,Net-(D5-A)*%
X233580000Y-86232499D03*
%TD*%
D22*
%TO.P,TP1,1,1*%
%TO.N,VBAT_IN*%
X215440000Y-90870000D03*
%TD*%
D28*
%TO.N,row0*%
X202327500Y-78610000D03*
X252650000Y-59420000D03*
X251110000Y-75910000D03*
%TO.N,row1*%
X200827500Y-78610000D03*
X235580000Y-50440000D03*
X232073750Y-82526250D03*
X232720000Y-75000000D03*
%TO.N,GND*%
X251470000Y-60590000D03*
X228610000Y-47890000D03*
X226070000Y-77870000D03*
X238770000Y-60590000D03*
X237240000Y-66540000D03*
X236230000Y-42810000D03*
X223530000Y-50430000D03*
X222300000Y-89250000D03*
X243850000Y-58050000D03*
X203210000Y-73290000D03*
X198130000Y-65670000D03*
X210660000Y-84220000D03*
X198130000Y-63130000D03*
X226070000Y-63130000D03*
X235600000Y-74570000D03*
D29*
X202520000Y-67460000D03*
D28*
X246390000Y-93610000D03*
X201100000Y-55740000D03*
X246390000Y-60590000D03*
X197290000Y-95600000D03*
X241330000Y-81170000D03*
X248380000Y-67820000D03*
X238270000Y-63150000D03*
X208290000Y-63130000D03*
X226090000Y-73240000D03*
X243850000Y-60590000D03*
X193050000Y-42810000D03*
X220990000Y-45350000D03*
X231150000Y-42810000D03*
X248930000Y-75830000D03*
X238770000Y-78370000D03*
D29*
X194340000Y-47840000D03*
D28*
X198000000Y-53900000D03*
X203210000Y-70750000D03*
X248930000Y-93610000D03*
X229270000Y-67800000D03*
X208770000Y-91490000D03*
D29*
X201500000Y-67470000D03*
D28*
X236230000Y-85990000D03*
X237240000Y-70760000D03*
D29*
X201500000Y-66390000D03*
D28*
X201610000Y-49082500D03*
X223530000Y-63130000D03*
X196030000Y-75270000D03*
X238760000Y-81200000D03*
X231150000Y-60590000D03*
X237240000Y-68220000D03*
X198130000Y-70750000D03*
X198130000Y-68210000D03*
X226070000Y-50430000D03*
X195590000Y-93610000D03*
X238770000Y-42810000D03*
X223530000Y-47890000D03*
D29*
X202520000Y-68460000D03*
D28*
X200670000Y-70750000D03*
X248930000Y-58050000D03*
X231150000Y-47890000D03*
X233690000Y-60590000D03*
X229740000Y-93420000D03*
X209930000Y-75240000D03*
X193050000Y-50430000D03*
X190510000Y-45350000D03*
X220990000Y-42810000D03*
X233690000Y-42810000D03*
X204130000Y-61430000D03*
X198130000Y-73290000D03*
X238770000Y-75830000D03*
X248930000Y-78370000D03*
X191890000Y-95650000D03*
X238930000Y-51390000D03*
X222630000Y-69990000D03*
X231150000Y-50430000D03*
X228610000Y-75840000D03*
D29*
X203590000Y-66370000D03*
D28*
X250190000Y-83490000D03*
X233810000Y-65630000D03*
X251470000Y-81170000D03*
X191890000Y-90250000D03*
X196030000Y-61550000D03*
X248390000Y-86910000D03*
X231150000Y-52970000D03*
X236250000Y-83590000D03*
X241310000Y-78370000D03*
X246390000Y-91070000D03*
D29*
X201500000Y-68470000D03*
D28*
X226070000Y-75830000D03*
X233620000Y-93380000D03*
X238770000Y-58050000D03*
X236250000Y-81180000D03*
X228610000Y-50430000D03*
X251470000Y-42790000D03*
X241270000Y-69990000D03*
X226070000Y-47890000D03*
X200670000Y-73290000D03*
X241310000Y-58050000D03*
X233690000Y-58050000D03*
X229280000Y-86890000D03*
X246390000Y-58050000D03*
X236230000Y-91070000D03*
X246390000Y-75830000D03*
D29*
X203590000Y-67450000D03*
D28*
X204220000Y-53120000D03*
X223530000Y-58050000D03*
X248360000Y-48700000D03*
X208300000Y-88240000D03*
X246390000Y-78370000D03*
X233690000Y-81170000D03*
X251470000Y-45340000D03*
X226070000Y-58050000D03*
X241290000Y-95570000D03*
X243840000Y-81170000D03*
X248930000Y-55510000D03*
X226090000Y-93390000D03*
X251470000Y-93610000D03*
X236230000Y-88530000D03*
X222350000Y-60240000D03*
D29*
X203590000Y-68450000D03*
D28*
X246390000Y-55510000D03*
X223530000Y-77870000D03*
X219760000Y-95550000D03*
X246390000Y-52970000D03*
D29*
X202520000Y-66380000D03*
D28*
X246360000Y-73270000D03*
X231150000Y-45350000D03*
X199760000Y-91490000D03*
X221740000Y-51850000D03*
X208770000Y-65980000D03*
X200730000Y-82260000D03*
D29*
X200460000Y-44960000D03*
D28*
X236230000Y-78370000D03*
X243830000Y-95570000D03*
X199330000Y-52370000D03*
X251470000Y-63130000D03*
X199770000Y-95620000D03*
X241970000Y-50430000D03*
X205750000Y-73290000D03*
X194600000Y-87350000D03*
X228610000Y-77870000D03*
X205750000Y-70750000D03*
X195590000Y-91070000D03*
D29*
X194330000Y-44390000D03*
D28*
X207380000Y-84230000D03*
X236230000Y-45350000D03*
X241491310Y-89240000D03*
X190510000Y-47890000D03*
X248930000Y-60590000D03*
X204640000Y-49820000D03*
X212350000Y-41730000D03*
X243850000Y-78370000D03*
X208290000Y-73290000D03*
X226070000Y-91070000D03*
X209030000Y-84230000D03*
X241310000Y-60590000D03*
X251460000Y-78380000D03*
%TO.N,VBUS*%
X218590000Y-57720000D03*
%TO.N,Net-(D11-K)*%
X201140000Y-90870000D03*
%TO.N,/Din-*%
X194340000Y-45260000D03*
X194344670Y-46559999D03*
%TO.N,IO1*%
X197830000Y-58310000D03*
%TO.N,IO3*%
X200822500Y-58325000D03*
%TO.N,IO2*%
X199320000Y-58320000D03*
%TO.N,IO0*%
X196312500Y-58300000D03*
%TO.N,ROT1*%
X206817500Y-78620000D03*
%TO.N,ROT2*%
X209930000Y-60630000D03*
%TO.N,EN*%
X191000000Y-86620000D03*
X190800000Y-91590000D03*
X197830000Y-78620000D03*
%TO.N,col2*%
X205317500Y-78620000D03*
%TO.N,col0*%
X199327500Y-78610000D03*
%TO.N,col1*%
X203827500Y-78610000D03*
%TO.N,VBAT_IN*%
X217100000Y-90890000D03*
%TO.N,Net-(LED0-A)*%
X196720000Y-53850000D03*
%TO.N,Net-(LED1-A)*%
X199350000Y-53870000D03*
%TD*%
D30*
%TO.N,Net-(D4-A)*%
X252650000Y-71110000D02*
X252240000Y-71520000D01*
X252240000Y-74487501D02*
X251950000Y-74777501D01*
X252240000Y-71520000D02*
X252240000Y-74487501D01*
%TO.N,row0*%
X252650000Y-77677499D02*
X252650000Y-78580000D01*
X251110000Y-75910000D02*
X251110000Y-76137499D01*
X251110000Y-76137499D02*
X252650000Y-77677499D01*
%TO.N,Net-(D2-A)*%
X252930000Y-52340000D02*
X252650000Y-52060000D01*
X252660000Y-52050000D02*
X252650000Y-52060000D01*
X252650000Y-52060000D02*
X252650000Y-55390000D01*
X241600000Y-46660000D02*
X250480000Y-46660000D01*
X241280000Y-46980000D02*
X241600000Y-46660000D01*
X241280000Y-46980000D02*
X241550000Y-46710000D01*
X250480000Y-46660000D02*
X252650000Y-48830000D01*
X252650000Y-48830000D02*
X252650000Y-52060000D01*
X252650000Y-55390000D02*
X251950000Y-56090000D01*
X251950000Y-56090000D02*
X251950000Y-56092500D01*
%TO.N,row0*%
X218269058Y-79681000D02*
X217408058Y-80542000D01*
X252640000Y-80130000D02*
X252640000Y-83352501D01*
X252650000Y-78580000D02*
X252650000Y-79690000D01*
X252650000Y-80120000D02*
X252640000Y-80130000D01*
X251650000Y-79681000D02*
X251990000Y-79681000D01*
X252650000Y-79021000D02*
X251990000Y-79681000D01*
X204548942Y-80539000D02*
X204256500Y-80539000D01*
X252641000Y-79681000D02*
X252650000Y-79690000D01*
X204256500Y-80539000D02*
X202327500Y-78610000D01*
X217408058Y-80542000D02*
X204962058Y-80542000D01*
X251650000Y-79681000D02*
X251981000Y-79681000D01*
X204549942Y-80540000D02*
X204548942Y-80539000D01*
X252640000Y-83352501D02*
X251940000Y-84052501D01*
X252650000Y-79690000D02*
X252650000Y-80120000D01*
X251990000Y-79681000D02*
X252641000Y-79681000D01*
X204960058Y-80540000D02*
X204549942Y-80540000D01*
X251650000Y-79681000D02*
X218269058Y-79681000D01*
X252650000Y-78580000D02*
X252650000Y-79021000D01*
X251981000Y-79681000D02*
X252610000Y-80310000D01*
X252650000Y-59420000D02*
X252650000Y-58992498D01*
X252650000Y-58992498D02*
X251950000Y-58292498D01*
X204962058Y-80542000D02*
X204960058Y-80540000D01*
%TO.N,Net-(D3-A)*%
X252640000Y-90150000D02*
X252650000Y-90160000D01*
X241280000Y-85080000D02*
X241650000Y-84710000D01*
X250397501Y-84710000D02*
X252640000Y-86952499D01*
X252640000Y-86952499D02*
X252640000Y-90150000D01*
X241650000Y-84710000D02*
X250397501Y-84710000D01*
%TO.N,Net-(D4-A)*%
X252230000Y-70690000D02*
X252230000Y-67540000D01*
X250340000Y-65650000D02*
X241660000Y-65650000D01*
X252650000Y-71110000D02*
X252230000Y-70690000D01*
X241280000Y-66030000D02*
X241700000Y-65610000D01*
X241660000Y-65650000D02*
X241280000Y-66030000D01*
X252230000Y-67540000D02*
X250340000Y-65650000D01*
%TO.N,row1*%
X204711116Y-81141000D02*
X204301000Y-81141000D01*
X233560000Y-75840000D02*
X232720000Y-75000000D01*
X204713116Y-81143000D02*
X204711116Y-81141000D01*
X233580000Y-84032501D02*
X229829499Y-80282000D01*
X229829499Y-80282000D02*
X218518000Y-80282000D01*
X204301000Y-81141000D02*
X204300000Y-81140000D01*
X235580000Y-49200000D02*
X235590000Y-49190000D01*
X217657000Y-81143000D02*
X204713116Y-81143000D01*
X218518000Y-80282000D02*
X217657000Y-81143000D01*
X204300000Y-81140000D02*
X203357500Y-81140000D01*
X235580000Y-50440000D02*
X235580000Y-49200000D01*
X203357500Y-81140000D02*
X200827500Y-78610000D01*
X233560000Y-76099998D02*
X233560000Y-75840000D01*
%TO.N,Net-(D5-A)*%
X233580000Y-86232499D02*
X232107501Y-84760000D01*
X222550000Y-84760000D02*
X222230000Y-85080000D01*
X233580000Y-90140000D02*
X233600000Y-90160000D01*
X233580000Y-86232499D02*
X233580000Y-90140000D01*
X232107501Y-84760000D02*
X222550000Y-84760000D01*
%TO.N,Net-(D6-A)*%
X233560000Y-71150000D02*
X233600000Y-71110000D01*
X222230000Y-66030000D02*
X222560000Y-65700000D01*
X222560000Y-65700000D02*
X231310000Y-65700000D01*
X233600000Y-67990000D02*
X233600000Y-71110000D01*
X233560000Y-73900000D02*
X233560000Y-71150000D01*
X231310000Y-65700000D02*
X233600000Y-67990000D01*
X232560000Y-70070000D02*
X232780000Y-70070000D01*
%TO.N,Net-(D7-A)*%
X234770000Y-46990000D02*
X233070000Y-46990000D01*
X235590000Y-46990000D02*
X234770000Y-46990000D01*
X234770000Y-46990000D02*
X234340000Y-46990000D01*
X233070000Y-46990000D02*
X233040000Y-47020000D01*
D31*
%TO.N,VBUS*%
X218590000Y-57720000D02*
X216970000Y-57720000D01*
%TO.N,Net-(D11-K)*%
X201140000Y-90870000D02*
X201140000Y-90450000D01*
X201140000Y-90450000D02*
X200240000Y-89550000D01*
D32*
%TO.N,/Din-*%
X194340000Y-46555329D02*
X194344670Y-46559999D01*
X194340000Y-45260000D02*
X194340000Y-46555329D01*
%TO.N,IO1*%
X197830000Y-57680000D02*
X199040000Y-56470000D01*
X197830000Y-58310000D02*
X197830000Y-57680000D01*
X199040000Y-56470000D02*
X199160000Y-56470000D01*
X209380000Y-69750000D02*
X211300000Y-69750000D01*
X197830000Y-58310000D02*
X197940000Y-58310000D01*
X197940000Y-58310000D02*
X209380000Y-69750000D01*
%TO.N,IO3*%
X200822500Y-58325000D02*
X200822500Y-59770460D01*
X200822500Y-59770460D02*
X208262040Y-67210000D01*
X208262040Y-67210000D02*
X211300000Y-67210000D01*
%TO.N,IO2*%
X208823520Y-68480000D02*
X212570000Y-68480000D01*
X199320000Y-58320000D02*
X199322500Y-58322500D01*
X212570000Y-68480000D02*
X213840000Y-67210000D01*
X199322500Y-58322500D02*
X199322500Y-58978980D01*
X199322500Y-58978980D02*
X208823520Y-68480000D01*
%TO.N,IO0*%
X209941480Y-71020000D02*
X212570000Y-71020000D01*
X197981480Y-59060000D02*
X209941480Y-71020000D01*
X197072500Y-59060000D02*
X197981480Y-59060000D01*
X196312500Y-58300000D02*
X196312500Y-56867500D01*
X212570000Y-71020000D02*
X213840000Y-69750000D01*
X196312500Y-56867500D02*
X196720000Y-56460000D01*
X196720000Y-56460000D02*
X196630000Y-56460000D01*
X196312500Y-58300000D02*
X197072500Y-59060000D01*
D30*
%TO.N,ROT1*%
X211620058Y-78620000D02*
X216830000Y-73410058D01*
X218045000Y-47525000D02*
X218050000Y-47520000D01*
X216830000Y-73410058D02*
X216830000Y-64780000D01*
X219550000Y-48030000D02*
X219500000Y-47980000D01*
X216830000Y-64780000D02*
X220480000Y-61130000D01*
X220480000Y-61130000D02*
X220480000Y-48960000D01*
X220480000Y-48960000D02*
X219550000Y-48030000D01*
X206817500Y-78620000D02*
X211620058Y-78620000D01*
X219550000Y-48030000D02*
X218540000Y-47020000D01*
%TO.N,ROT2*%
X209930000Y-60630000D02*
X218540000Y-52020000D01*
D31*
%TO.N,EN*%
X192860000Y-92720000D02*
X191730000Y-91590000D01*
D32*
X192680000Y-84940000D02*
X195300000Y-84940000D01*
X197830000Y-82410000D02*
X197830000Y-78620000D01*
X195300000Y-84940000D02*
X197830000Y-82410000D01*
D31*
X191730000Y-91590000D02*
X190800000Y-91590000D01*
D32*
X191000000Y-86620000D02*
X192680000Y-84940000D01*
D30*
%TO.N,col2*%
X236650000Y-52020000D02*
X236580000Y-52020000D01*
X226630000Y-61530000D02*
X233040000Y-55120000D01*
X236580000Y-52020000D02*
X236710000Y-52020000D01*
X237190000Y-51510000D02*
X237190000Y-51990000D01*
X236650000Y-52020000D02*
X236680000Y-52020000D01*
X217431000Y-73659000D02*
X217431000Y-65028942D01*
X206037500Y-79340000D02*
X211750000Y-79340000D01*
X237810000Y-54290000D02*
X238440000Y-53660000D01*
X237160000Y-52020000D02*
X236580000Y-52020000D01*
X237190000Y-52500000D02*
X237530000Y-52840000D01*
X233040000Y-55120000D02*
X233040000Y-52020000D01*
X247630000Y-44440000D02*
X239670000Y-44440000D01*
X236680000Y-52020000D02*
X237190000Y-51510000D01*
X237190000Y-46920000D02*
X237190000Y-51510000D01*
X239670000Y-44440000D02*
X237190000Y-46920000D01*
X205317500Y-78620000D02*
X206037500Y-79340000D01*
X217431000Y-65028942D02*
X220929942Y-61530000D01*
X211750000Y-79340000D02*
X217431000Y-73659000D01*
X238950000Y-54260000D02*
X238950000Y-54810000D01*
X237190000Y-52050000D02*
X237190000Y-52500000D01*
X236650000Y-52020000D02*
X237160000Y-52020000D01*
X237720000Y-53030000D02*
X237720000Y-53580000D01*
X220929942Y-61530000D02*
X226630000Y-61530000D01*
X238790000Y-54610000D02*
X238800000Y-54600000D01*
X237530000Y-52840000D02*
X237720000Y-53030000D01*
X236710000Y-52020000D02*
X237190000Y-52500000D01*
X237160000Y-52020000D02*
X237190000Y-52050000D01*
X238440000Y-53660000D02*
X238800000Y-53660000D01*
X236580000Y-52020000D02*
X233040000Y-52020000D01*
X237190000Y-51990000D02*
X237160000Y-52020000D01*
X237530000Y-52840000D02*
X238950000Y-54260000D01*
%TO.N,col0*%
X228580000Y-82540000D02*
X220500000Y-82540000D01*
X222060000Y-95010000D02*
X219750000Y-92700000D01*
X218975000Y-83075000D02*
X217650000Y-81750000D01*
X217650000Y-81750000D02*
X202467500Y-81750000D01*
X219750000Y-92065000D02*
X219255000Y-92065000D01*
X219085000Y-83185000D02*
X218975000Y-83075000D01*
X219470000Y-92420000D02*
X219750000Y-92700000D01*
X238330000Y-84960000D02*
X240750000Y-82540000D01*
X202467500Y-81750000D02*
X199327500Y-78610000D01*
X238800000Y-92700000D02*
X236490000Y-95010000D01*
X238800000Y-92700000D02*
X238330000Y-92230000D01*
X240750000Y-82540000D02*
X247630000Y-82540000D01*
X236490000Y-95010000D02*
X222060000Y-95010000D01*
X219855000Y-83185000D02*
X219470000Y-83570000D01*
X238330000Y-92230000D02*
X238330000Y-84960000D01*
X220100000Y-91715000D02*
X219750000Y-92065000D01*
X219470000Y-83570000D02*
X219470000Y-92420000D01*
X219430000Y-83530000D02*
X218975000Y-83075000D01*
X219855000Y-83185000D02*
X219085000Y-83185000D01*
X220500000Y-82540000D02*
X219855000Y-83185000D01*
X219430000Y-83530000D02*
X219470000Y-83570000D01*
%TO.N,col1*%
X219170000Y-73650000D02*
X219750000Y-73650000D01*
X238280000Y-64970000D02*
X238200000Y-64970000D01*
X228580000Y-63490000D02*
X236720000Y-63490000D01*
X205211000Y-79941000D02*
X217159116Y-79941000D01*
X220220000Y-79080000D02*
X233370000Y-79080000D01*
X219750000Y-76070000D02*
X219750000Y-74230000D01*
X219750000Y-73650000D02*
X219750000Y-76070000D01*
X236720000Y-63490000D02*
X237800000Y-64570000D01*
X218020116Y-79080000D02*
X219290000Y-79080000D01*
X219780000Y-79080000D02*
X219750000Y-79050000D01*
X219750000Y-74230000D02*
X219170000Y-73650000D01*
X219750000Y-78260000D02*
X219750000Y-76070000D01*
X238845000Y-64405000D02*
X238280000Y-64970000D01*
X237800000Y-64570000D02*
X238200000Y-64970000D01*
X217159116Y-79941000D02*
X218020116Y-79080000D01*
X219750000Y-79050000D02*
X219750000Y-78260000D01*
X219750000Y-78610000D02*
X220220000Y-79080000D01*
X203880000Y-78610000D02*
X205211000Y-79941000D01*
X219750000Y-78260000D02*
X219750000Y-78620000D01*
X233370000Y-79080000D02*
X238800000Y-73650000D01*
X203827500Y-78610000D02*
X203880000Y-78610000D01*
X238280000Y-73130000D02*
X238800000Y-73650000D01*
X238200000Y-64970000D02*
X238280000Y-65050000D01*
X247630000Y-63490000D02*
X239760000Y-63490000D01*
X238680000Y-64570000D02*
X238845000Y-64405000D01*
X219290000Y-79080000D02*
X220220000Y-79080000D01*
X237800000Y-64570000D02*
X238680000Y-64570000D01*
X219750000Y-78620000D02*
X219290000Y-79080000D01*
X219750000Y-73650000D02*
X220750000Y-73650000D01*
X238280000Y-64980000D02*
X238280000Y-73130000D01*
X219750000Y-78260000D02*
X219750000Y-78610000D01*
X239760000Y-63490000D02*
X238845000Y-64405000D01*
D31*
%TO.N,VDD*%
X215710000Y-62410000D02*
X215710000Y-70420000D01*
X215710000Y-70420000D02*
X213840000Y-72290000D01*
X217000000Y-61120000D02*
X215710000Y-62410000D01*
%TO.N,VBAT_IN*%
X217100000Y-90890000D02*
X215460000Y-90890000D01*
D32*
%TO.N,Net-(LED0-A)*%
X196720000Y-55070000D02*
X196630000Y-55160000D01*
X196720000Y-53850000D02*
X196720000Y-55070000D01*
%TO.N,Net-(LED1-A)*%
X199350000Y-54980000D02*
X199160000Y-55170000D01*
X199350000Y-53870000D02*
X199350000Y-54980000D01*
%TD*%
%TA.AperFunction,Conductor*%
%TO.N,GND*%
G36*
X198679248Y-79106310D02*
G01*
X198717980Y-79132559D01*
X198817210Y-79231789D01*
X198848774Y-79252879D01*
X198855100Y-79260448D01*
X198864772Y-79265594D01*
X198876519Y-79276626D01*
X198880057Y-79279949D01*
X199294794Y-79570602D01*
X199311310Y-79584467D01*
X202020953Y-82294111D01*
X202020954Y-82294112D01*
X202135692Y-82370777D01*
X202263167Y-82423578D01*
X202263172Y-82423580D01*
X202263176Y-82423580D01*
X202263177Y-82423581D01*
X202398503Y-82450500D01*
X202398506Y-82450500D01*
X202398507Y-82450500D01*
X217308481Y-82450500D01*
X217375520Y-82470185D01*
X217396162Y-82486819D01*
X218733181Y-83823838D01*
X218766666Y-83885161D01*
X218769500Y-83911519D01*
X218769500Y-90825500D01*
X218749815Y-90892539D01*
X218697011Y-90938294D01*
X218645501Y-90949500D01*
X218427130Y-90949500D01*
X218427123Y-90949501D01*
X218367516Y-90955908D01*
X218232671Y-91006202D01*
X218232664Y-91006206D01*
X218117455Y-91092452D01*
X218117450Y-91092457D01*
X218115996Y-91094400D01*
X218114056Y-91095851D01*
X218111183Y-91098725D01*
X218110769Y-91098311D01*
X218060058Y-91136265D01*
X217990366Y-91141242D01*
X217929047Y-91107751D01*
X217895568Y-91046424D01*
X217895120Y-90995888D01*
X217900500Y-90968842D01*
X217900500Y-90811158D01*
X217900500Y-90811155D01*
X217900499Y-90811153D01*
X217897361Y-90795377D01*
X217869737Y-90656503D01*
X217816308Y-90527512D01*
X217809397Y-90510827D01*
X217809390Y-90510814D01*
X217721789Y-90379711D01*
X217721786Y-90379707D01*
X217610292Y-90268213D01*
X217610288Y-90268210D01*
X217479185Y-90180609D01*
X217479172Y-90180602D01*
X217333501Y-90120264D01*
X217333489Y-90120261D01*
X217178845Y-90089500D01*
X217178842Y-90089500D01*
X217021158Y-90089500D01*
X217021156Y-90089500D01*
X216866504Y-90120262D01*
X216860670Y-90122032D01*
X216860266Y-90120702D01*
X216797779Y-90127412D01*
X216735304Y-90096128D01*
X216719495Y-90078271D01*
X216584517Y-89892490D01*
X216417510Y-89725483D01*
X216226433Y-89586657D01*
X216015996Y-89479433D01*
X215791368Y-89406446D01*
X215558097Y-89369500D01*
X215558092Y-89369500D01*
X215321908Y-89369500D01*
X215321903Y-89369500D01*
X215088631Y-89406446D01*
X214864003Y-89479433D01*
X214653566Y-89586657D01*
X214583911Y-89637265D01*
X214462490Y-89725483D01*
X214462488Y-89725485D01*
X214462487Y-89725485D01*
X214295485Y-89892487D01*
X214295485Y-89892488D01*
X214295483Y-89892490D01*
X214289033Y-89901368D01*
X214156657Y-90083566D01*
X214049433Y-90294003D01*
X213976446Y-90518631D01*
X213939500Y-90751902D01*
X213939500Y-90988097D01*
X213976446Y-91221368D01*
X214049433Y-91445996D01*
X214150429Y-91644210D01*
X214156657Y-91656433D01*
X214295483Y-91847510D01*
X214462490Y-92014517D01*
X214653567Y-92153343D01*
X214752991Y-92204002D01*
X214864003Y-92260566D01*
X214864005Y-92260566D01*
X214864008Y-92260568D01*
X214940959Y-92285571D01*
X215088631Y-92333553D01*
X215321903Y-92370500D01*
X215321908Y-92370500D01*
X215558097Y-92370500D01*
X215791368Y-92333553D01*
X215834258Y-92319617D01*
X216015992Y-92260568D01*
X216226433Y-92153343D01*
X216417510Y-92014517D01*
X216584517Y-91847510D01*
X216697153Y-91692480D01*
X216718391Y-91676103D01*
X216737212Y-91656992D01*
X216745640Y-91655090D01*
X216752482Y-91649815D01*
X216779204Y-91647519D01*
X216805369Y-91641618D01*
X216817739Y-91644210D01*
X216822095Y-91643836D01*
X216839913Y-91648856D01*
X216840053Y-91648907D01*
X216845057Y-91650853D01*
X216866503Y-91659737D01*
X216873046Y-91661038D01*
X216886786Y-91664600D01*
X216891881Y-91666238D01*
X216893549Y-91666707D01*
X216983720Y-91683419D01*
X216983724Y-91683418D01*
X216990243Y-91684627D01*
X216994374Y-91685172D01*
X217021158Y-91690500D01*
X217021162Y-91690500D01*
X217178844Y-91690500D01*
X217178845Y-91690499D01*
X217333497Y-91659737D01*
X217479179Y-91599394D01*
X217610289Y-91511789D01*
X217721789Y-91400289D01*
X217747398Y-91361963D01*
X217801010Y-91317158D01*
X217870335Y-91308451D01*
X217933363Y-91338605D01*
X217970082Y-91398048D01*
X217974500Y-91430854D01*
X217974500Y-93997870D01*
X217974501Y-93997876D01*
X217980908Y-94057483D01*
X218031202Y-94192328D01*
X218031206Y-94192335D01*
X218117452Y-94307544D01*
X218117455Y-94307547D01*
X218232664Y-94393793D01*
X218232671Y-94393797D01*
X218367517Y-94444091D01*
X218367516Y-94444091D01*
X218374444Y-94444835D01*
X218427127Y-94450500D01*
X220458480Y-94450499D01*
X220525519Y-94470184D01*
X220546161Y-94486818D01*
X221515886Y-95456542D01*
X221551990Y-95492646D01*
X221585475Y-95553969D01*
X221580491Y-95623661D01*
X221551990Y-95668008D01*
X220611819Y-96608181D01*
X220550496Y-96641666D01*
X220524138Y-96644500D01*
X217244000Y-96644500D01*
X217176961Y-96624815D01*
X217131206Y-96572011D01*
X217120000Y-96520500D01*
X217120000Y-95432410D01*
X217126068Y-95394094D01*
X217159026Y-95292662D01*
X217189800Y-95098366D01*
X217189800Y-94901633D01*
X217159026Y-94707337D01*
X217098233Y-94520238D01*
X217047437Y-94420546D01*
X217008925Y-94344962D01*
X216893294Y-94185810D01*
X216754190Y-94046706D01*
X216595038Y-93931075D01*
X216419761Y-93841766D01*
X216232663Y-93780974D01*
X216175393Y-93771903D01*
X216112259Y-93741973D01*
X216107111Y-93737111D01*
X216020000Y-93650000D01*
X207910000Y-93650000D01*
X207832295Y-93727703D01*
X207770971Y-93761187D01*
X207764014Y-93762493D01*
X207647340Y-93780973D01*
X207460240Y-93841766D01*
X207284961Y-93931075D01*
X207194159Y-93997047D01*
X207125810Y-94046706D01*
X207125808Y-94046708D01*
X207125807Y-94046708D01*
X206986708Y-94185807D01*
X206986708Y-94185808D01*
X206986706Y-94185810D01*
X206961502Y-94220500D01*
X206871075Y-94344961D01*
X206781766Y-94520240D01*
X206720973Y-94707340D01*
X206702493Y-94824015D01*
X206672563Y-94887150D01*
X206670099Y-94889757D01*
X206670000Y-94889998D01*
X206670000Y-96520500D01*
X206650315Y-96587539D01*
X206597511Y-96633294D01*
X206546000Y-96644500D01*
X204330612Y-96644500D01*
X204263573Y-96624815D01*
X204217818Y-96572011D01*
X204207874Y-96502853D01*
X204236899Y-96439297D01*
X204253299Y-96423553D01*
X204408934Y-96299438D01*
X204619438Y-96088934D01*
X204805050Y-95856185D01*
X204963435Y-95604117D01*
X205092601Y-95335901D01*
X205190924Y-95054909D01*
X205257168Y-94764675D01*
X205290500Y-94468849D01*
X205290500Y-94171151D01*
X205257168Y-93875325D01*
X205190924Y-93585091D01*
X205092601Y-93304099D01*
X204963435Y-93035883D01*
X204805050Y-92783815D01*
X204619438Y-92551066D01*
X204408934Y-92340562D01*
X204176185Y-92154950D01*
X203984489Y-92034499D01*
X203924114Y-91996563D01*
X203655904Y-91867400D01*
X203374920Y-91769079D01*
X203374912Y-91769076D01*
X203157233Y-91719393D01*
X203084675Y-91702832D01*
X203084671Y-91702831D01*
X203084662Y-91702830D01*
X202788853Y-91669500D01*
X202788849Y-91669500D01*
X202491151Y-91669500D01*
X202491146Y-91669500D01*
X202195337Y-91702830D01*
X202195325Y-91702832D01*
X201905087Y-91769076D01*
X201905079Y-91769079D01*
X201624095Y-91867400D01*
X201355885Y-91996563D01*
X201103816Y-92154949D01*
X200871066Y-92340561D01*
X200660561Y-92551066D01*
X200474949Y-92783816D01*
X200316563Y-93035885D01*
X200187400Y-93304095D01*
X200089079Y-93585079D01*
X200089076Y-93585087D01*
X200022832Y-93875325D01*
X200022830Y-93875337D01*
X199989500Y-94171146D01*
X199989500Y-94468853D01*
X200022830Y-94764662D01*
X200022832Y-94764674D01*
X200089076Y-95054912D01*
X200089079Y-95054920D01*
X200187400Y-95335904D01*
X200316563Y-95604114D01*
X200316565Y-95604117D01*
X200474950Y-95856185D01*
X200660562Y-96088934D01*
X200871066Y-96299438D01*
X201010597Y-96410711D01*
X201026701Y-96423553D01*
X201066841Y-96480741D01*
X201069691Y-96550553D01*
X201034346Y-96610823D01*
X200972027Y-96642416D01*
X200949388Y-96644500D01*
X190999428Y-96644500D01*
X190990582Y-96644184D01*
X190965862Y-96642416D01*
X190790442Y-96629869D01*
X190772931Y-96627351D01*
X190581212Y-96585646D01*
X190564236Y-96580662D01*
X190380390Y-96512090D01*
X190364298Y-96504740D01*
X190192095Y-96410711D01*
X190177210Y-96401146D01*
X190020132Y-96283558D01*
X190006762Y-96271972D01*
X189868027Y-96133237D01*
X189856441Y-96119867D01*
X189833284Y-96088933D01*
X189738849Y-95962784D01*
X189729288Y-95947904D01*
X189635259Y-95775701D01*
X189627909Y-95759609D01*
X189578824Y-95628008D01*
X189559334Y-95575755D01*
X189554355Y-95558797D01*
X189512647Y-95367063D01*
X189510130Y-95349556D01*
X189509153Y-95335901D01*
X189495816Y-95149418D01*
X189495500Y-95140572D01*
X189495500Y-91511153D01*
X189999500Y-91511153D01*
X189999500Y-91668846D01*
X190030261Y-91823489D01*
X190030264Y-91823501D01*
X190090602Y-91969172D01*
X190090609Y-91969185D01*
X190178210Y-92100288D01*
X190178213Y-92100292D01*
X190289707Y-92211786D01*
X190289711Y-92211789D01*
X190420814Y-92299390D01*
X190420827Y-92299397D01*
X190561735Y-92357762D01*
X190566503Y-92359737D01*
X190721153Y-92390499D01*
X190721156Y-92390500D01*
X190721158Y-92390500D01*
X190878844Y-92390500D01*
X190878845Y-92390499D01*
X191033497Y-92359737D01*
X191054964Y-92350843D01*
X191060120Y-92348842D01*
X191222639Y-92289916D01*
X191292372Y-92285571D01*
X191353386Y-92319617D01*
X191386308Y-92381244D01*
X191387378Y-92425889D01*
X191359500Y-92601902D01*
X191359500Y-92838097D01*
X191396446Y-93071368D01*
X191469433Y-93295996D01*
X191561095Y-93475891D01*
X191576657Y-93506433D01*
X191715483Y-93697510D01*
X191882490Y-93864517D01*
X192073567Y-94003343D01*
X192104135Y-94018918D01*
X192284003Y-94110566D01*
X192284005Y-94110566D01*
X192284008Y-94110568D01*
X192404412Y-94149689D01*
X192508631Y-94183553D01*
X192741903Y-94220500D01*
X192741908Y-94220500D01*
X192978097Y-94220500D01*
X193211368Y-94183553D01*
X193249537Y-94171151D01*
X193435992Y-94110568D01*
X193646433Y-94003343D01*
X193837510Y-93864517D01*
X194004517Y-93697510D01*
X194143343Y-93506433D01*
X194250568Y-93295992D01*
X194323553Y-93071368D01*
X194334041Y-93005151D01*
X194360500Y-92838097D01*
X194360500Y-92601902D01*
X194323553Y-92368631D01*
X194253601Y-92153343D01*
X194250568Y-92144008D01*
X194250566Y-92144005D01*
X194250566Y-92144003D01*
X194184589Y-92014517D01*
X194143343Y-91933567D01*
X194004517Y-91742490D01*
X193837510Y-91575483D01*
X193646433Y-91436657D01*
X193578680Y-91402135D01*
X193435996Y-91329433D01*
X193211368Y-91256446D01*
X192978097Y-91219500D01*
X192978092Y-91219500D01*
X192741908Y-91219500D01*
X192741903Y-91219500D01*
X192508628Y-91256447D01*
X192382433Y-91297450D01*
X192367221Y-91297884D01*
X192352962Y-91303203D01*
X192333006Y-91298861D01*
X192312592Y-91299445D01*
X192298505Y-91291356D01*
X192284689Y-91288351D01*
X192256435Y-91267200D01*
X192217590Y-91228355D01*
X192217588Y-91228352D01*
X192098717Y-91109481D01*
X192098712Y-91109477D01*
X191980835Y-91041422D01*
X191980832Y-91041420D01*
X191961785Y-91030423D01*
X191961782Y-91030422D01*
X191898826Y-91013553D01*
X191809057Y-90989499D01*
X191650943Y-90989499D01*
X191643347Y-90989499D01*
X191643331Y-90989500D01*
X191518625Y-90989500D01*
X191476358Y-90982074D01*
X191060132Y-90831160D01*
X191054947Y-90829147D01*
X191033502Y-90820264D01*
X191033487Y-90820261D01*
X191026959Y-90818962D01*
X191013225Y-90815401D01*
X191008178Y-90813779D01*
X191006520Y-90813312D01*
X190909793Y-90795377D01*
X190905598Y-90794822D01*
X190887152Y-90791153D01*
X190878842Y-90789500D01*
X190721158Y-90789500D01*
X190721155Y-90789500D01*
X190566510Y-90820261D01*
X190566498Y-90820264D01*
X190420827Y-90880602D01*
X190420814Y-90880609D01*
X190289711Y-90968210D01*
X190289707Y-90968213D01*
X190178213Y-91079707D01*
X190178210Y-91079711D01*
X190090609Y-91210814D01*
X190090602Y-91210827D01*
X190030264Y-91356498D01*
X190030261Y-91356510D01*
X189999500Y-91511153D01*
X189495500Y-91511153D01*
X189495500Y-89431902D01*
X198739500Y-89431902D01*
X198739500Y-89668097D01*
X198776446Y-89901368D01*
X198849433Y-90125996D01*
X198935038Y-90294003D01*
X198956657Y-90336433D01*
X199095483Y-90527510D01*
X199262490Y-90694517D01*
X199453567Y-90833343D01*
X199539270Y-90877011D01*
X199664003Y-90940566D01*
X199664005Y-90940566D01*
X199664008Y-90940568D01*
X199751023Y-90968841D01*
X199888631Y-91013553D01*
X200121903Y-91050500D01*
X200265457Y-91050500D01*
X200332496Y-91070185D01*
X200378251Y-91122989D01*
X200380018Y-91127048D01*
X200430602Y-91249172D01*
X200430609Y-91249185D01*
X200518210Y-91380288D01*
X200518213Y-91380292D01*
X200629707Y-91491786D01*
X200629711Y-91491789D01*
X200760814Y-91579390D01*
X200760827Y-91579397D01*
X200906498Y-91639735D01*
X200906503Y-91639737D01*
X201052823Y-91668842D01*
X201061153Y-91670499D01*
X201061156Y-91670500D01*
X201061158Y-91670500D01*
X201218844Y-91670500D01*
X201218845Y-91670499D01*
X201373497Y-91639737D01*
X201519179Y-91579394D01*
X201650289Y-91491789D01*
X201761789Y-91380289D01*
X201849394Y-91249179D01*
X201852620Y-91241392D01*
X201866590Y-91207664D01*
X201909737Y-91103497D01*
X201940500Y-90948842D01*
X201940500Y-90791158D01*
X201940500Y-90791155D01*
X201940499Y-90791153D01*
X201921276Y-90694514D01*
X201909737Y-90636503D01*
X201849394Y-90490821D01*
X201822209Y-90450137D01*
X201820576Y-90447625D01*
X201816817Y-90441685D01*
X201801848Y-90410776D01*
X201728420Y-90302010D01*
X201727441Y-90300463D01*
X201726418Y-90296888D01*
X201712446Y-90266246D01*
X201699577Y-90218215D01*
X201666316Y-90160606D01*
X201663847Y-90156330D01*
X201647375Y-90088431D01*
X201653302Y-90056019D01*
X201703553Y-89901368D01*
X201727551Y-89749850D01*
X201740500Y-89668097D01*
X201740500Y-89431902D01*
X201703553Y-89198631D01*
X201630566Y-88974003D01*
X201523342Y-88763566D01*
X201492936Y-88721716D01*
X201384517Y-88572490D01*
X201217510Y-88405483D01*
X201026433Y-88266657D01*
X200981782Y-88243906D01*
X200815996Y-88159433D01*
X200591368Y-88086446D01*
X200358097Y-88049500D01*
X200358092Y-88049500D01*
X200121908Y-88049500D01*
X200121903Y-88049500D01*
X199888631Y-88086446D01*
X199664003Y-88159433D01*
X199453566Y-88266657D01*
X199414139Y-88295303D01*
X199262490Y-88405483D01*
X199262488Y-88405485D01*
X199262487Y-88405485D01*
X199095485Y-88572487D01*
X199095485Y-88572488D01*
X199095483Y-88572490D01*
X199048925Y-88636572D01*
X198956657Y-88763566D01*
X198849433Y-88974003D01*
X198776446Y-89198631D01*
X198739500Y-89431902D01*
X189495500Y-89431902D01*
X189495500Y-88591973D01*
X189515185Y-88524934D01*
X189531814Y-88504296D01*
X190622974Y-87413136D01*
X190684295Y-87379653D01*
X190753987Y-87384637D01*
X190758085Y-87386250D01*
X190766503Y-87389737D01*
X190884147Y-87413138D01*
X190921153Y-87420499D01*
X190921156Y-87420500D01*
X190921158Y-87420500D01*
X191078844Y-87420500D01*
X191078845Y-87420499D01*
X191233497Y-87389737D01*
X191379179Y-87329394D01*
X191510289Y-87241789D01*
X191621789Y-87130289D01*
X191666410Y-87063506D01*
X191671930Y-87055889D01*
X191693740Y-87028089D01*
X191932386Y-86613585D01*
X191952160Y-86587784D01*
X192129961Y-86409983D01*
X214714500Y-86409983D01*
X214714500Y-87210001D01*
X214714501Y-87210019D01*
X214725000Y-87312796D01*
X214725001Y-87312799D01*
X214758251Y-87413138D01*
X214780186Y-87479334D01*
X214872288Y-87628656D01*
X214996344Y-87752712D01*
X215145666Y-87844814D01*
X215312203Y-87899999D01*
X215414991Y-87910500D01*
X216765008Y-87910499D01*
X216867797Y-87899999D01*
X217034334Y-87844814D01*
X217183656Y-87752712D01*
X217307712Y-87628656D01*
X217399814Y-87479334D01*
X217454999Y-87312797D01*
X217465500Y-87210009D01*
X217465499Y-86409992D01*
X217454999Y-86307203D01*
X217399814Y-86140666D01*
X217307712Y-85991344D01*
X217183656Y-85867288D01*
X217183655Y-85867287D01*
X217119019Y-85827420D01*
X217072294Y-85775472D01*
X217061071Y-85706510D01*
X217088914Y-85642428D01*
X217096434Y-85634199D01*
X217204035Y-85526598D01*
X217305804Y-85386524D01*
X217384408Y-85232255D01*
X217437914Y-85067584D01*
X217439115Y-85060000D01*
X216370330Y-85060000D01*
X216390075Y-85040255D01*
X216439444Y-84954745D01*
X216465000Y-84859370D01*
X216465000Y-84760630D01*
X216439444Y-84665255D01*
X216390075Y-84579745D01*
X216370330Y-84560000D01*
X217439115Y-84560000D01*
X217439115Y-84559999D01*
X217437914Y-84552415D01*
X217384408Y-84387744D01*
X217305804Y-84233475D01*
X217204032Y-84093397D01*
X217081602Y-83970967D01*
X216941524Y-83869195D01*
X216787257Y-83790591D01*
X216622584Y-83737085D01*
X216451571Y-83710000D01*
X216340000Y-83710000D01*
X216340000Y-84529670D01*
X216320255Y-84509925D01*
X216234745Y-84460556D01*
X216139370Y-84435000D01*
X216040630Y-84435000D01*
X215945255Y-84460556D01*
X215859745Y-84509925D01*
X215840000Y-84529670D01*
X215840000Y-83710000D01*
X215728429Y-83710000D01*
X215557415Y-83737085D01*
X215392742Y-83790591D01*
X215238475Y-83869195D01*
X215098397Y-83970967D01*
X214975967Y-84093397D01*
X214874195Y-84233475D01*
X214795591Y-84387744D01*
X214742085Y-84552415D01*
X214740884Y-84559999D01*
X214740885Y-84560000D01*
X215809670Y-84560000D01*
X215789925Y-84579745D01*
X215740556Y-84665255D01*
X215715000Y-84760630D01*
X215715000Y-84859370D01*
X215740556Y-84954745D01*
X215789925Y-85040255D01*
X215809670Y-85060000D01*
X214740885Y-85060000D01*
X214742085Y-85067584D01*
X214795591Y-85232255D01*
X214874195Y-85386524D01*
X214975967Y-85526602D01*
X215083565Y-85634200D01*
X215117050Y-85695523D01*
X215112066Y-85765215D01*
X215070194Y-85821148D01*
X215060981Y-85827420D01*
X214996342Y-85867289D01*
X214872289Y-85991342D01*
X214780187Y-86140663D01*
X214780185Y-86140668D01*
X214776871Y-86150670D01*
X214725001Y-86307203D01*
X214725001Y-86307204D01*
X214725000Y-86307204D01*
X214714500Y-86409983D01*
X192129961Y-86409983D01*
X192913127Y-85626819D01*
X192974450Y-85593334D01*
X193000808Y-85590500D01*
X195364071Y-85590500D01*
X195469469Y-85569534D01*
X195489744Y-85565501D01*
X195608127Y-85516465D01*
X195626612Y-85504114D01*
X195638484Y-85496182D01*
X195662425Y-85480185D01*
X195714669Y-85445277D01*
X196165265Y-84994681D01*
X196650563Y-84509384D01*
X198335271Y-82824675D01*
X198335276Y-82824670D01*
X198406465Y-82718127D01*
X198455501Y-82599744D01*
X198462566Y-82564225D01*
X198480500Y-82474069D01*
X198480500Y-81897599D01*
X198489940Y-81850144D01*
X198490000Y-81849999D01*
X198490000Y-79710000D01*
X198489939Y-79709853D01*
X198480500Y-79662400D01*
X198480500Y-79316064D01*
X198484764Y-79283827D01*
X198497192Y-79237666D01*
X198510563Y-79188001D01*
X198546999Y-79128386D01*
X198609883Y-79097932D01*
X198679248Y-79106310D01*
G37*
%TD.AperFunction*%
%TA.AperFunction,Conductor*%
G36*
X244032429Y-85430185D02*
G01*
X244078184Y-85482989D01*
X244088128Y-85552147D01*
X244059103Y-85615703D01*
X244027390Y-85641887D01*
X243840410Y-85749840D01*
X243840394Y-85749851D01*
X243606990Y-85928948D01*
X243606983Y-85928954D01*
X243398954Y-86136983D01*
X243398948Y-86136990D01*
X243219851Y-86370394D01*
X243219840Y-86370410D01*
X243072742Y-86625189D01*
X243072734Y-86625205D01*
X242960152Y-86897005D01*
X242884001Y-87181203D01*
X242845601Y-87472883D01*
X242845600Y-87472900D01*
X242845600Y-87767099D01*
X242845601Y-87767116D01*
X242882777Y-88049500D01*
X242884002Y-88058800D01*
X242941519Y-88273457D01*
X242960152Y-88342994D01*
X243072734Y-88614794D01*
X243072742Y-88614810D01*
X243219840Y-88869589D01*
X243219851Y-88869605D01*
X243398948Y-89103009D01*
X243398954Y-89103016D01*
X243606983Y-89311045D01*
X243606990Y-89311051D01*
X243731311Y-89406446D01*
X243840403Y-89490155D01*
X243840410Y-89490159D01*
X244095189Y-89637257D01*
X244095205Y-89637265D01*
X244367005Y-89749847D01*
X244367007Y-89749847D01*
X244367013Y-89749850D01*
X244651200Y-89825998D01*
X244942894Y-89864400D01*
X244942901Y-89864400D01*
X245237099Y-89864400D01*
X245237106Y-89864400D01*
X245528800Y-89825998D01*
X245812987Y-89749850D01*
X246010370Y-89668092D01*
X246084794Y-89637265D01*
X246084797Y-89637263D01*
X246084803Y-89637261D01*
X246339597Y-89490155D01*
X246573011Y-89311050D01*
X246781050Y-89103011D01*
X246960155Y-88869597D01*
X247107261Y-88614803D01*
X247113532Y-88599665D01*
X247193963Y-88405485D01*
X247219850Y-88342987D01*
X247295998Y-88058800D01*
X247334400Y-87767106D01*
X247334400Y-87472894D01*
X247295998Y-87181200D01*
X247219850Y-86897013D01*
X247206047Y-86863689D01*
X247107265Y-86625205D01*
X247107257Y-86625189D01*
X246960159Y-86370410D01*
X246960155Y-86370403D01*
X246783873Y-86140668D01*
X246781051Y-86136990D01*
X246781045Y-86136983D01*
X246573016Y-85928954D01*
X246573009Y-85928948D01*
X246339605Y-85749851D01*
X246339603Y-85749849D01*
X246339597Y-85749845D01*
X246339592Y-85749842D01*
X246339589Y-85749840D01*
X246152610Y-85641887D01*
X246104394Y-85591320D01*
X246091172Y-85522713D01*
X246117140Y-85457848D01*
X246174054Y-85417320D01*
X246214610Y-85410500D01*
X250055982Y-85410500D01*
X250123021Y-85430185D01*
X250143663Y-85446819D01*
X251177689Y-86480845D01*
X251209084Y-86533931D01*
X251236380Y-86627884D01*
X251236381Y-86627887D01*
X251316827Y-86763915D01*
X251316834Y-86763924D01*
X251428574Y-86875664D01*
X251428578Y-86875667D01*
X251428580Y-86875669D01*
X251564610Y-86956117D01*
X251658568Y-86983414D01*
X251711654Y-87014809D01*
X251903181Y-87206336D01*
X251936666Y-87267659D01*
X251939500Y-87294017D01*
X251939500Y-88285500D01*
X251919815Y-88352539D01*
X251867011Y-88398294D01*
X251815500Y-88409500D01*
X251327129Y-88409500D01*
X251327123Y-88409501D01*
X251267515Y-88415909D01*
X251221761Y-88432974D01*
X251152070Y-88437958D01*
X251090747Y-88404472D01*
X251057263Y-88343149D01*
X251062248Y-88273457D01*
X251078112Y-88243906D01*
X251111999Y-88197264D01*
X251111998Y-88197264D01*
X251112002Y-88197260D01*
X251190708Y-88042791D01*
X251244280Y-87877912D01*
X251264110Y-87752710D01*
X251271400Y-87706687D01*
X251271400Y-87533312D01*
X251248659Y-87389736D01*
X251244280Y-87362088D01*
X251194870Y-87210019D01*
X251190709Y-87197211D01*
X251190708Y-87197208D01*
X251122590Y-87063521D01*
X251112002Y-87042740D01*
X251010101Y-86902486D01*
X250887514Y-86779899D01*
X250747260Y-86677998D01*
X250592791Y-86599291D01*
X250592788Y-86599290D01*
X250427913Y-86545720D01*
X250256687Y-86518600D01*
X250256682Y-86518600D01*
X250083318Y-86518600D01*
X250083313Y-86518600D01*
X249912086Y-86545720D01*
X249747211Y-86599290D01*
X249747208Y-86599291D01*
X249592739Y-86677998D01*
X249545069Y-86712633D01*
X249452486Y-86779899D01*
X249452484Y-86779901D01*
X249452483Y-86779901D01*
X249329901Y-86902483D01*
X249329901Y-86902484D01*
X249329899Y-86902486D01*
X249290934Y-86956116D01*
X249227998Y-87042739D01*
X249149291Y-87197208D01*
X249149290Y-87197211D01*
X249095720Y-87362086D01*
X249068600Y-87533312D01*
X249068600Y-87706687D01*
X249095720Y-87877913D01*
X249149290Y-88042788D01*
X249149291Y-88042791D01*
X249227998Y-88197260D01*
X249251420Y-88229497D01*
X249274900Y-88295303D01*
X249259075Y-88363357D01*
X249208970Y-88412052D01*
X249140492Y-88425928D01*
X249134917Y-88425322D01*
X249014744Y-88409501D01*
X249014739Y-88409500D01*
X249014734Y-88409500D01*
X248785266Y-88409500D01*
X248785258Y-88409500D01*
X248569110Y-88437958D01*
X248557762Y-88439452D01*
X248480709Y-88460098D01*
X248336112Y-88498842D01*
X248124123Y-88586650D01*
X248124109Y-88586657D01*
X247925382Y-88701392D01*
X247743338Y-88841081D01*
X247581081Y-89003338D01*
X247441392Y-89185382D01*
X247326657Y-89384109D01*
X247326650Y-89384123D01*
X247238842Y-89596112D01*
X247179453Y-89817759D01*
X247179451Y-89817770D01*
X247149500Y-90045258D01*
X247149500Y-90274741D01*
X247171663Y-90443073D01*
X247179452Y-90502238D01*
X247220787Y-90656503D01*
X247238842Y-90723887D01*
X247326650Y-90935876D01*
X247326657Y-90935890D01*
X247338215Y-90955909D01*
X247434678Y-91122989D01*
X247441392Y-91134617D01*
X247581081Y-91316661D01*
X247581089Y-91316670D01*
X247743330Y-91478911D01*
X247743338Y-91478918D01*
X247743339Y-91478919D01*
X247785347Y-91511153D01*
X247925382Y-91618607D01*
X247925385Y-91618608D01*
X247925388Y-91618611D01*
X248124112Y-91733344D01*
X248124117Y-91733346D01*
X248124123Y-91733349D01*
X248146187Y-91742488D01*
X248336113Y-91821158D01*
X248557762Y-91880548D01*
X248774312Y-91909057D01*
X248785250Y-91910498D01*
X248785266Y-91910500D01*
X248785273Y-91910500D01*
X249014727Y-91910500D01*
X249014734Y-91910500D01*
X249242238Y-91880548D01*
X249463887Y-91821158D01*
X249675888Y-91733344D01*
X249874612Y-91618611D01*
X250056661Y-91478919D01*
X250056665Y-91478914D01*
X250056670Y-91478911D01*
X250218911Y-91316670D01*
X250218914Y-91316665D01*
X250218919Y-91316661D01*
X250358611Y-91134612D01*
X250473344Y-90935888D01*
X250561158Y-90723887D01*
X250620548Y-90502238D01*
X250627561Y-90448964D01*
X250655827Y-90385069D01*
X250714151Y-90346597D01*
X250784016Y-90345765D01*
X250843239Y-90382837D01*
X250873019Y-90446043D01*
X250874500Y-90465150D01*
X250874500Y-91457870D01*
X250874501Y-91457876D01*
X250880908Y-91517483D01*
X250931202Y-91652328D01*
X250931206Y-91652335D01*
X251017452Y-91767544D01*
X251017455Y-91767547D01*
X251132664Y-91853793D01*
X251132671Y-91853797D01*
X251267517Y-91904091D01*
X251267516Y-91904091D01*
X251274444Y-91904835D01*
X251327127Y-91910500D01*
X253965500Y-91910499D01*
X254032539Y-91930184D01*
X254078294Y-91982987D01*
X254089500Y-92034499D01*
X254089500Y-95140572D01*
X254089184Y-95149418D01*
X254089184Y-95149419D01*
X254074869Y-95349557D01*
X254072351Y-95367068D01*
X254030646Y-95558787D01*
X254025662Y-95575763D01*
X253957090Y-95759609D01*
X253949740Y-95775701D01*
X253855711Y-95947904D01*
X253846146Y-95962789D01*
X253728558Y-96119867D01*
X253716972Y-96133237D01*
X253578237Y-96271972D01*
X253564867Y-96283558D01*
X253407789Y-96401146D01*
X253392904Y-96410711D01*
X253220701Y-96504740D01*
X253204609Y-96512090D01*
X253020763Y-96580662D01*
X253003787Y-96585646D01*
X252812068Y-96627351D01*
X252794557Y-96629869D01*
X252613779Y-96642799D01*
X252594417Y-96644184D01*
X252585572Y-96644500D01*
X238105862Y-96644500D01*
X238038823Y-96624815D01*
X238018181Y-96608181D01*
X237038008Y-95628008D01*
X237004523Y-95566685D01*
X237009507Y-95496993D01*
X237038004Y-95452651D01*
X238003837Y-94486817D01*
X238065160Y-94453333D01*
X238091518Y-94450499D01*
X240122871Y-94450499D01*
X240122872Y-94450499D01*
X240182483Y-94444091D01*
X240317331Y-94393796D01*
X240432546Y-94307546D01*
X240518796Y-94192331D01*
X240569091Y-94057483D01*
X240575500Y-93997873D01*
X240575500Y-93005147D01*
X240595183Y-92938112D01*
X240647987Y-92892357D01*
X240717146Y-92882413D01*
X240780702Y-92911438D01*
X240818476Y-92970216D01*
X240822438Y-92988964D01*
X240829452Y-93042238D01*
X240888842Y-93263887D01*
X240976650Y-93475876D01*
X240976657Y-93475890D01*
X241091392Y-93674617D01*
X241231081Y-93856661D01*
X241231089Y-93856670D01*
X241393330Y-94018911D01*
X241393338Y-94018918D01*
X241393339Y-94018919D01*
X241429554Y-94046708D01*
X241575382Y-94158607D01*
X241575385Y-94158608D01*
X241575388Y-94158611D01*
X241774112Y-94273344D01*
X241774117Y-94273346D01*
X241774123Y-94273349D01*
X241813876Y-94289815D01*
X241986113Y-94361158D01*
X242207762Y-94420548D01*
X242424312Y-94449057D01*
X242435250Y-94450498D01*
X242435266Y-94450500D01*
X242435273Y-94450500D01*
X242664727Y-94450500D01*
X242664734Y-94450500D01*
X242892238Y-94420548D01*
X243113887Y-94361158D01*
X243325888Y-94273344D01*
X243524612Y-94158611D01*
X243706661Y-94018919D01*
X243706665Y-94018914D01*
X243706670Y-94018911D01*
X243868911Y-93856670D01*
X243868914Y-93856665D01*
X243868919Y-93856661D01*
X244008611Y-93674612D01*
X244123344Y-93475888D01*
X244211158Y-93263887D01*
X244270548Y-93042238D01*
X244300500Y-92814734D01*
X244300500Y-92585266D01*
X244270548Y-92357762D01*
X244211158Y-92136113D01*
X244142014Y-91969185D01*
X244123349Y-91924123D01*
X244123346Y-91924117D01*
X244123344Y-91924112D01*
X244008611Y-91725388D01*
X244008608Y-91725385D01*
X244008607Y-91725382D01*
X243868918Y-91543338D01*
X243868911Y-91543330D01*
X243706670Y-91381089D01*
X243706661Y-91381081D01*
X243524617Y-91241392D01*
X243489934Y-91221368D01*
X243351152Y-91141242D01*
X243325890Y-91126657D01*
X243325876Y-91126650D01*
X243113887Y-91038842D01*
X242892238Y-90979452D01*
X242854215Y-90974446D01*
X242664741Y-90949500D01*
X242664734Y-90949500D01*
X242435266Y-90949500D01*
X242435258Y-90949500D01*
X242218715Y-90978009D01*
X242207762Y-90979452D01*
X242170266Y-90989499D01*
X241986112Y-91038842D01*
X241774123Y-91126650D01*
X241774109Y-91126657D01*
X241575382Y-91241392D01*
X241393338Y-91381081D01*
X241231081Y-91543338D01*
X241091392Y-91725382D01*
X240976657Y-91924109D01*
X240976650Y-91924123D01*
X240888842Y-92136112D01*
X240869588Y-92207972D01*
X240845092Y-92299394D01*
X240829453Y-92357759D01*
X240829451Y-92357769D01*
X240822438Y-92411036D01*
X240794171Y-92474932D01*
X240735846Y-92513402D01*
X240665981Y-92514233D01*
X240606758Y-92477160D01*
X240576980Y-92413954D01*
X240575499Y-92394849D01*
X240575499Y-91402129D01*
X240575498Y-91402123D01*
X240575497Y-91402116D01*
X240569091Y-91342517D01*
X240561040Y-91320932D01*
X240518797Y-91207671D01*
X240518793Y-91207664D01*
X240432547Y-91092455D01*
X240432544Y-91092452D01*
X240317335Y-91006206D01*
X240317328Y-91006202D01*
X240182482Y-90955908D01*
X240182483Y-90955908D01*
X240122883Y-90949501D01*
X240122881Y-90949500D01*
X240122873Y-90949500D01*
X240122865Y-90949500D01*
X239154500Y-90949500D01*
X239087461Y-90929815D01*
X239041706Y-90877011D01*
X239030500Y-90825500D01*
X239030500Y-88497477D01*
X239050185Y-88430438D01*
X239102989Y-88384683D01*
X239172147Y-88374739D01*
X239235703Y-88403764D01*
X239242181Y-88409796D01*
X239292486Y-88460101D01*
X239432740Y-88562002D01*
X239506658Y-88599665D01*
X239587208Y-88640708D01*
X239587211Y-88640709D01*
X239650477Y-88661265D01*
X239752088Y-88694280D01*
X239828472Y-88706378D01*
X239923313Y-88721400D01*
X239923318Y-88721400D01*
X240096687Y-88721400D01*
X240179695Y-88708252D01*
X240267912Y-88694280D01*
X240432791Y-88640708D01*
X240587260Y-88562002D01*
X240727514Y-88460101D01*
X240850101Y-88337514D01*
X240952002Y-88197260D01*
X241030708Y-88042791D01*
X241084280Y-87877912D01*
X241104110Y-87752710D01*
X241111400Y-87706687D01*
X241111400Y-87533312D01*
X241088659Y-87389736D01*
X241084280Y-87362088D01*
X241034870Y-87210019D01*
X241030709Y-87197211D01*
X241030708Y-87197208D01*
X240962590Y-87063521D01*
X240952002Y-87042740D01*
X240850101Y-86902486D01*
X240850092Y-86902477D01*
X240846937Y-86898782D01*
X240847908Y-86897952D01*
X240817240Y-86841787D01*
X240822224Y-86772095D01*
X240864096Y-86716162D01*
X240929560Y-86691745D01*
X240957804Y-86692956D01*
X241150649Y-86723500D01*
X241150654Y-86723500D01*
X241409351Y-86723500D01*
X241551294Y-86701017D01*
X241664854Y-86683032D01*
X241910885Y-86603091D01*
X242141382Y-86485647D01*
X242350668Y-86333592D01*
X242533592Y-86150668D01*
X242685647Y-85941382D01*
X242803091Y-85710885D01*
X242872853Y-85496179D01*
X242912289Y-85438506D01*
X242976648Y-85411308D01*
X242990783Y-85410500D01*
X243965390Y-85410500D01*
X244032429Y-85430185D01*
G37*
%TD.AperFunction*%
%TA.AperFunction,Conductor*%
G36*
X251706520Y-80401185D02*
G01*
X251727162Y-80417819D01*
X251903181Y-80593837D01*
X251936666Y-80655160D01*
X251939500Y-80681518D01*
X251939500Y-83010981D01*
X251919815Y-83078020D01*
X251903181Y-83098662D01*
X251711653Y-83290190D01*
X251658567Y-83321585D01*
X251564614Y-83348880D01*
X251564611Y-83348882D01*
X251428583Y-83429328D01*
X251428574Y-83429335D01*
X251316834Y-83541075D01*
X251316827Y-83541084D01*
X251236382Y-83677110D01*
X251236380Y-83677115D01*
X251192292Y-83828867D01*
X251192290Y-83828880D01*
X251189500Y-83864330D01*
X251189500Y-84211980D01*
X251169815Y-84279019D01*
X251117011Y-84324774D01*
X251047853Y-84334718D01*
X250984297Y-84305693D01*
X250977832Y-84299674D01*
X250844044Y-84165886D01*
X250729312Y-84089225D01*
X250729313Y-84089225D01*
X250729308Y-84089222D01*
X250601833Y-84036421D01*
X250601823Y-84036418D01*
X250466497Y-84009500D01*
X250466495Y-84009500D01*
X250466494Y-84009500D01*
X248783988Y-84009500D01*
X248716949Y-83989815D01*
X248671194Y-83937011D01*
X248661250Y-83867853D01*
X248690275Y-83804297D01*
X248697405Y-83797219D01*
X248697223Y-83797037D01*
X248784260Y-83710000D01*
X248883592Y-83610668D01*
X249035647Y-83401382D01*
X249153091Y-83170885D01*
X249233032Y-82924854D01*
X249251017Y-82811294D01*
X249273500Y-82669351D01*
X249273500Y-82410648D01*
X249233032Y-82155149D01*
X249233032Y-82155146D01*
X249153091Y-81909115D01*
X249035647Y-81678618D01*
X248883592Y-81469332D01*
X248700668Y-81286408D01*
X248491382Y-81134353D01*
X248260885Y-81016909D01*
X248014854Y-80936968D01*
X248014852Y-80936967D01*
X248014850Y-80936967D01*
X247759351Y-80896500D01*
X247759346Y-80896500D01*
X247500654Y-80896500D01*
X247500649Y-80896500D01*
X247245149Y-80936967D01*
X246999112Y-81016910D01*
X246768617Y-81134353D01*
X246559329Y-81286410D01*
X246376410Y-81469329D01*
X246224353Y-81678617D01*
X246176877Y-81771795D01*
X246128902Y-81822591D01*
X246066392Y-81839500D01*
X240681004Y-81839500D01*
X240545677Y-81866418D01*
X240545667Y-81866421D01*
X240418192Y-81919222D01*
X240303454Y-81995887D01*
X237785887Y-84513454D01*
X237765533Y-84543917D01*
X237743686Y-84576614D01*
X237726396Y-84602490D01*
X237709223Y-84628191D01*
X237656421Y-84755667D01*
X237656418Y-84755677D01*
X237629500Y-84891004D01*
X237629500Y-90825500D01*
X237609815Y-90892539D01*
X237557011Y-90938294D01*
X237505504Y-90949500D01*
X237477131Y-90949500D01*
X237477123Y-90949501D01*
X237417516Y-90955908D01*
X237282671Y-91006202D01*
X237282664Y-91006206D01*
X237167455Y-91092452D01*
X237167452Y-91092455D01*
X237081206Y-91207664D01*
X237081202Y-91207671D01*
X237030908Y-91342517D01*
X237024697Y-91400292D01*
X237024501Y-91402123D01*
X237024500Y-91402135D01*
X237024500Y-93433480D01*
X237004815Y-93500519D01*
X236988181Y-93521161D01*
X236236162Y-94273181D01*
X236174839Y-94306666D01*
X236148481Y-94309500D01*
X224643261Y-94309500D01*
X224576222Y-94289815D01*
X224530467Y-94237011D01*
X224520523Y-94167853D01*
X224549548Y-94104297D01*
X224567774Y-94087125D01*
X224580810Y-94077121D01*
X224656661Y-94018919D01*
X224656665Y-94018914D01*
X224656670Y-94018911D01*
X224818911Y-93856670D01*
X224818914Y-93856665D01*
X224818919Y-93856661D01*
X224958611Y-93674612D01*
X225073344Y-93475888D01*
X225161158Y-93263887D01*
X225220548Y-93042238D01*
X225250500Y-92814734D01*
X225250500Y-92585266D01*
X225220548Y-92357762D01*
X225161158Y-92136113D01*
X225092014Y-91969185D01*
X225073349Y-91924123D01*
X225073346Y-91924117D01*
X225073344Y-91924112D01*
X224958611Y-91725388D01*
X224958608Y-91725385D01*
X224958607Y-91725382D01*
X224818918Y-91543338D01*
X224818911Y-91543330D01*
X224656670Y-91381089D01*
X224656661Y-91381081D01*
X224474617Y-91241392D01*
X224439934Y-91221368D01*
X224301152Y-91141242D01*
X224275890Y-91126657D01*
X224275876Y-91126650D01*
X224063887Y-91038842D01*
X223842238Y-90979452D01*
X223804215Y-90974446D01*
X223614741Y-90949500D01*
X223614734Y-90949500D01*
X223385266Y-90949500D01*
X223385258Y-90949500D01*
X223168715Y-90978009D01*
X223157762Y-90979452D01*
X223120266Y-90989499D01*
X222936112Y-91038842D01*
X222724123Y-91126650D01*
X222724109Y-91126657D01*
X222525382Y-91241392D01*
X222343338Y-91381081D01*
X222181081Y-91543338D01*
X222041392Y-91725382D01*
X221926657Y-91924109D01*
X221926650Y-91924123D01*
X221838842Y-92136112D01*
X221819588Y-92207972D01*
X221779452Y-92357762D01*
X221775142Y-92390499D01*
X221772438Y-92411038D01*
X221744171Y-92474934D01*
X221685847Y-92513405D01*
X221615982Y-92514236D01*
X221556759Y-92477164D01*
X221526980Y-92413958D01*
X221525499Y-92394852D01*
X221525499Y-91402129D01*
X221525498Y-91402123D01*
X221525497Y-91402116D01*
X221519091Y-91342517D01*
X221511040Y-91320932D01*
X221468797Y-91207671D01*
X221468793Y-91207664D01*
X221382547Y-91092455D01*
X221382544Y-91092452D01*
X221267335Y-91006206D01*
X221267328Y-91006202D01*
X221132482Y-90955908D01*
X221132483Y-90955908D01*
X221072883Y-90949501D01*
X221072881Y-90949500D01*
X221072873Y-90949500D01*
X221072865Y-90949500D01*
X220294500Y-90949500D01*
X220227461Y-90929815D01*
X220181706Y-90877011D01*
X220170500Y-90825500D01*
X220170500Y-88651164D01*
X220190185Y-88584125D01*
X220242989Y-88538370D01*
X220312147Y-88528426D01*
X220367384Y-88550845D01*
X220382740Y-88562002D01*
X220456658Y-88599665D01*
X220537208Y-88640708D01*
X220537211Y-88640709D01*
X220600477Y-88661265D01*
X220702088Y-88694280D01*
X220778472Y-88706378D01*
X220873313Y-88721400D01*
X220873318Y-88721400D01*
X221046687Y-88721400D01*
X221129695Y-88708252D01*
X221217912Y-88694280D01*
X221382791Y-88640708D01*
X221537260Y-88562002D01*
X221677514Y-88460101D01*
X221800101Y-88337514D01*
X221902002Y-88197260D01*
X221980708Y-88042791D01*
X222034280Y-87877912D01*
X222054110Y-87752710D01*
X222061400Y-87706687D01*
X222061400Y-87533312D01*
X222038659Y-87389736D01*
X222034280Y-87362088D01*
X221984870Y-87210019D01*
X221980709Y-87197211D01*
X221980708Y-87197208D01*
X221912590Y-87063521D01*
X221902002Y-87042740D01*
X221800101Y-86902486D01*
X221800092Y-86902477D01*
X221796937Y-86898782D01*
X221797908Y-86897952D01*
X221767240Y-86841787D01*
X221772224Y-86772095D01*
X221814096Y-86716162D01*
X221879560Y-86691745D01*
X221907804Y-86692956D01*
X222100649Y-86723500D01*
X222100654Y-86723500D01*
X222359351Y-86723500D01*
X222501294Y-86701017D01*
X222614854Y-86683032D01*
X222860885Y-86603091D01*
X223091382Y-86485647D01*
X223300668Y-86333592D01*
X223483592Y-86150668D01*
X223635647Y-85941382D01*
X223753091Y-85710885D01*
X223806607Y-85546180D01*
X223846045Y-85488506D01*
X223910404Y-85461308D01*
X223924538Y-85460500D01*
X224828788Y-85460500D01*
X224895827Y-85480185D01*
X224941582Y-85532989D01*
X224951526Y-85602147D01*
X224922501Y-85665703D01*
X224890789Y-85691886D01*
X224842094Y-85720001D01*
X224790403Y-85749845D01*
X224790394Y-85749851D01*
X224556990Y-85928948D01*
X224556983Y-85928954D01*
X224348954Y-86136983D01*
X224348948Y-86136990D01*
X224169851Y-86370394D01*
X224169840Y-86370410D01*
X224022742Y-86625189D01*
X224022734Y-86625205D01*
X223910152Y-86897005D01*
X223834001Y-87181203D01*
X223795601Y-87472883D01*
X223795600Y-87472900D01*
X223795600Y-87767099D01*
X223795601Y-87767116D01*
X223832777Y-88049500D01*
X223834002Y-88058800D01*
X223891519Y-88273457D01*
X223910152Y-88342994D01*
X224022734Y-88614794D01*
X224022742Y-88614810D01*
X224169840Y-88869589D01*
X224169851Y-88869605D01*
X224348948Y-89103009D01*
X224348954Y-89103016D01*
X224556983Y-89311045D01*
X224556990Y-89311051D01*
X224681311Y-89406446D01*
X224790403Y-89490155D01*
X224790410Y-89490159D01*
X225045189Y-89637257D01*
X225045205Y-89637265D01*
X225317005Y-89749847D01*
X225317007Y-89749847D01*
X225317013Y-89749850D01*
X225601200Y-89825998D01*
X225892894Y-89864400D01*
X225892901Y-89864400D01*
X226187099Y-89864400D01*
X226187106Y-89864400D01*
X226478800Y-89825998D01*
X226762987Y-89749850D01*
X226960370Y-89668092D01*
X227034794Y-89637265D01*
X227034797Y-89637263D01*
X227034803Y-89637261D01*
X227289597Y-89490155D01*
X227523011Y-89311050D01*
X227731050Y-89103011D01*
X227910155Y-88869597D01*
X228057261Y-88614803D01*
X228063532Y-88599665D01*
X228143963Y-88405485D01*
X228169850Y-88342987D01*
X228245998Y-88058800D01*
X228284400Y-87767106D01*
X228284400Y-87472894D01*
X228245998Y-87181200D01*
X228169850Y-86897013D01*
X228156047Y-86863689D01*
X228057265Y-86625205D01*
X228057257Y-86625189D01*
X227910159Y-86370410D01*
X227910155Y-86370403D01*
X227733873Y-86140668D01*
X227731051Y-86136990D01*
X227731045Y-86136983D01*
X227523016Y-85928954D01*
X227523009Y-85928948D01*
X227289605Y-85749851D01*
X227289603Y-85749850D01*
X227289597Y-85749845D01*
X227189210Y-85691886D01*
X227140996Y-85641320D01*
X227127774Y-85572712D01*
X227153742Y-85507848D01*
X227210656Y-85467320D01*
X227251212Y-85460500D01*
X231765982Y-85460500D01*
X231833021Y-85480185D01*
X231853663Y-85496819D01*
X232817689Y-86460845D01*
X232825348Y-86473795D01*
X232834514Y-86481784D01*
X232849084Y-86513931D01*
X232874576Y-86601674D01*
X232879500Y-86636269D01*
X232879500Y-88285500D01*
X232859815Y-88352539D01*
X232807011Y-88398294D01*
X232755500Y-88409500D01*
X232277129Y-88409500D01*
X232277123Y-88409501D01*
X232217515Y-88415909D01*
X232171761Y-88432974D01*
X232102070Y-88437958D01*
X232040747Y-88404472D01*
X232007263Y-88343149D01*
X232012248Y-88273457D01*
X232028112Y-88243906D01*
X232061999Y-88197264D01*
X232061998Y-88197264D01*
X232062002Y-88197260D01*
X232140708Y-88042791D01*
X232194280Y-87877912D01*
X232214110Y-87752710D01*
X232221400Y-87706687D01*
X232221400Y-87533312D01*
X232198659Y-87389736D01*
X232194280Y-87362088D01*
X232144870Y-87210019D01*
X232140709Y-87197211D01*
X232140708Y-87197208D01*
X232072590Y-87063521D01*
X232062002Y-87042740D01*
X231960101Y-86902486D01*
X231837514Y-86779899D01*
X231697260Y-86677998D01*
X231542791Y-86599291D01*
X231542788Y-86599290D01*
X231377913Y-86545720D01*
X231206687Y-86518600D01*
X231206682Y-86518600D01*
X231033318Y-86518600D01*
X231033313Y-86518600D01*
X230862086Y-86545720D01*
X230697211Y-86599290D01*
X230697208Y-86599291D01*
X230542739Y-86677998D01*
X230495069Y-86712633D01*
X230402486Y-86779899D01*
X230402484Y-86779901D01*
X230402483Y-86779901D01*
X230279901Y-86902483D01*
X230279901Y-86902484D01*
X230279899Y-86902486D01*
X230240934Y-86956116D01*
X230177998Y-87042739D01*
X230099291Y-87197208D01*
X230099290Y-87197211D01*
X230045720Y-87362086D01*
X230018600Y-87533312D01*
X230018600Y-87706687D01*
X230045720Y-87877913D01*
X230099290Y-88042788D01*
X230099291Y-88042791D01*
X230177998Y-88197260D01*
X230201420Y-88229497D01*
X230224900Y-88295303D01*
X230209075Y-88363357D01*
X230158970Y-88412052D01*
X230090492Y-88425928D01*
X230084917Y-88425322D01*
X229964744Y-88409501D01*
X229964739Y-88409500D01*
X229964734Y-88409500D01*
X229735266Y-88409500D01*
X229735258Y-88409500D01*
X229519110Y-88437958D01*
X229507762Y-88439452D01*
X229430709Y-88460098D01*
X229286112Y-88498842D01*
X229074123Y-88586650D01*
X229074109Y-88586657D01*
X228875382Y-88701392D01*
X228693338Y-88841081D01*
X228531081Y-89003338D01*
X228391392Y-89185382D01*
X228276657Y-89384109D01*
X228276650Y-89384123D01*
X228188842Y-89596112D01*
X228129453Y-89817759D01*
X228129451Y-89817770D01*
X228099500Y-90045258D01*
X228099500Y-90274741D01*
X228121663Y-90443073D01*
X228129452Y-90502238D01*
X228170787Y-90656503D01*
X228188842Y-90723887D01*
X228276650Y-90935876D01*
X228276657Y-90935890D01*
X228288215Y-90955909D01*
X228384678Y-91122989D01*
X228391392Y-91134617D01*
X228531081Y-91316661D01*
X228531089Y-91316670D01*
X228693330Y-91478911D01*
X228693338Y-91478918D01*
X228693339Y-91478919D01*
X228735347Y-91511153D01*
X228875382Y-91618607D01*
X228875385Y-91618608D01*
X228875388Y-91618611D01*
X229074112Y-91733344D01*
X229074117Y-91733346D01*
X229074123Y-91733349D01*
X229096187Y-91742488D01*
X229286113Y-91821158D01*
X229507762Y-91880548D01*
X229724312Y-91909057D01*
X229735250Y-91910498D01*
X229735266Y-91910500D01*
X229735273Y-91910500D01*
X229964727Y-91910500D01*
X229964734Y-91910500D01*
X230192238Y-91880548D01*
X230413887Y-91821158D01*
X230625888Y-91733344D01*
X230824612Y-91618611D01*
X231006661Y-91478919D01*
X231006665Y-91478914D01*
X231006670Y-91478911D01*
X231168911Y-91316670D01*
X231168914Y-91316665D01*
X231168919Y-91316661D01*
X231308611Y-91134612D01*
X231423344Y-90935888D01*
X231511158Y-90723887D01*
X231570548Y-90502238D01*
X231577561Y-90448964D01*
X231605827Y-90385069D01*
X231664151Y-90346597D01*
X231734016Y-90345765D01*
X231793239Y-90382837D01*
X231823019Y-90446043D01*
X231824500Y-90465150D01*
X231824500Y-91457870D01*
X231824501Y-91457876D01*
X231830908Y-91517483D01*
X231881202Y-91652328D01*
X231881206Y-91652335D01*
X231967452Y-91767544D01*
X231967455Y-91767547D01*
X232082664Y-91853793D01*
X232082671Y-91853797D01*
X232217517Y-91904091D01*
X232217516Y-91904091D01*
X232224444Y-91904835D01*
X232277127Y-91910500D01*
X234922872Y-91910499D01*
X234982483Y-91904091D01*
X235117331Y-91853796D01*
X235232546Y-91767546D01*
X235318796Y-91652331D01*
X235369091Y-91517483D01*
X235375500Y-91457873D01*
X235375499Y-88862128D01*
X235369091Y-88802517D01*
X235354563Y-88763566D01*
X235318797Y-88667671D01*
X235318793Y-88667664D01*
X235232547Y-88552455D01*
X235232544Y-88552452D01*
X235117335Y-88466206D01*
X235117328Y-88466202D01*
X234982482Y-88415908D01*
X234982483Y-88415908D01*
X234922883Y-88409501D01*
X234922881Y-88409500D01*
X234922873Y-88409500D01*
X234922865Y-88409500D01*
X234404500Y-88409500D01*
X234337461Y-88389815D01*
X234291706Y-88337011D01*
X234280500Y-88285500D01*
X234280500Y-86636269D01*
X234285422Y-86601678D01*
X234327709Y-86456126D01*
X234330500Y-86420662D01*
X234330499Y-86044337D01*
X234327709Y-86008872D01*
X234283618Y-85857109D01*
X234203170Y-85721079D01*
X234203168Y-85721077D01*
X234203165Y-85721073D01*
X234091425Y-85609333D01*
X234091416Y-85609326D01*
X233955388Y-85528880D01*
X233955385Y-85528879D01*
X233861432Y-85501583D01*
X233808346Y-85470188D01*
X233332840Y-84994681D01*
X233299355Y-84933358D01*
X233304339Y-84863666D01*
X233346211Y-84807733D01*
X233411675Y-84783316D01*
X233420495Y-84783000D01*
X233768162Y-84783000D01*
X233803627Y-84780210D01*
X233955390Y-84736119D01*
X234091420Y-84655671D01*
X234203170Y-84543921D01*
X234283618Y-84407891D01*
X234327709Y-84256128D01*
X234330500Y-84220664D01*
X234330499Y-83844339D01*
X234327709Y-83808874D01*
X234283618Y-83657111D01*
X234214998Y-83541081D01*
X234203172Y-83521084D01*
X234203165Y-83521075D01*
X234091425Y-83409335D01*
X234091416Y-83409328D01*
X233955388Y-83328882D01*
X233955385Y-83328881D01*
X233861431Y-83301585D01*
X233808345Y-83270190D01*
X232869823Y-82331668D01*
X232842943Y-82291439D01*
X232783147Y-82147077D01*
X232783140Y-82147064D01*
X232695539Y-82015961D01*
X232695536Y-82015957D01*
X232584042Y-81904463D01*
X232584038Y-81904460D01*
X232452935Y-81816859D01*
X232452922Y-81816852D01*
X232308562Y-81757057D01*
X232268333Y-81730177D01*
X231131337Y-80593181D01*
X231097852Y-80531858D01*
X231102836Y-80462166D01*
X231144708Y-80406233D01*
X231210172Y-80381816D01*
X231219018Y-80381500D01*
X251581007Y-80381500D01*
X251639481Y-80381500D01*
X251706520Y-80401185D01*
G37*
%TD.AperFunction*%
%TA.AperFunction,Conductor*%
G36*
X244049750Y-66370185D02*
G01*
X244095505Y-66422989D01*
X244105449Y-66492147D01*
X244076424Y-66555703D01*
X244044711Y-66581887D01*
X243840410Y-66699840D01*
X243840394Y-66699851D01*
X243606990Y-66878948D01*
X243606983Y-66878954D01*
X243398954Y-67086983D01*
X243398948Y-67086990D01*
X243219851Y-67320394D01*
X243219840Y-67320410D01*
X243072742Y-67575189D01*
X243072734Y-67575205D01*
X242960152Y-67847005D01*
X242884001Y-68131203D01*
X242845601Y-68422883D01*
X242845600Y-68422900D01*
X242845600Y-68717099D01*
X242845601Y-68717116D01*
X242878331Y-68965731D01*
X242884002Y-69008800D01*
X242955260Y-69274739D01*
X242960152Y-69292994D01*
X243072734Y-69564794D01*
X243072742Y-69564810D01*
X243219840Y-69819589D01*
X243219851Y-69819605D01*
X243398948Y-70053009D01*
X243398954Y-70053016D01*
X243606983Y-70261045D01*
X243606990Y-70261051D01*
X243773205Y-70388592D01*
X243840403Y-70440155D01*
X243840410Y-70440159D01*
X244095189Y-70587257D01*
X244095205Y-70587265D01*
X244367005Y-70699847D01*
X244367007Y-70699847D01*
X244367013Y-70699850D01*
X244651200Y-70775998D01*
X244942894Y-70814400D01*
X244942901Y-70814400D01*
X245237099Y-70814400D01*
X245237106Y-70814400D01*
X245528800Y-70775998D01*
X245812987Y-70699850D01*
X245886318Y-70669475D01*
X246084794Y-70587265D01*
X246084797Y-70587263D01*
X246084803Y-70587261D01*
X246339597Y-70440155D01*
X246573011Y-70261050D01*
X246781050Y-70053011D01*
X246960155Y-69819597D01*
X247107261Y-69564803D01*
X247113532Y-69549665D01*
X247204337Y-69330438D01*
X247219850Y-69292987D01*
X247295998Y-69008800D01*
X247334400Y-68717106D01*
X247334400Y-68422894D01*
X247295998Y-68131200D01*
X247219850Y-67847013D01*
X247207349Y-67816833D01*
X247107265Y-67575205D01*
X247107257Y-67575189D01*
X246960159Y-67320410D01*
X246960155Y-67320403D01*
X246781050Y-67086989D01*
X246781045Y-67086983D01*
X246573016Y-66878954D01*
X246573009Y-66878948D01*
X246339605Y-66699851D01*
X246339603Y-66699849D01*
X246339597Y-66699845D01*
X246339592Y-66699842D01*
X246339589Y-66699840D01*
X246135289Y-66581887D01*
X246087073Y-66531320D01*
X246073851Y-66462713D01*
X246099819Y-66397848D01*
X246156733Y-66357320D01*
X246197289Y-66350500D01*
X249998481Y-66350500D01*
X250065520Y-66370185D01*
X250086162Y-66386819D01*
X251493181Y-67793838D01*
X251526666Y-67855161D01*
X251529500Y-67881519D01*
X251529500Y-69235500D01*
X251509815Y-69302539D01*
X251457011Y-69348294D01*
X251405502Y-69359500D01*
X251327130Y-69359500D01*
X251327123Y-69359501D01*
X251267515Y-69365909D01*
X251221761Y-69382974D01*
X251152070Y-69387958D01*
X251090747Y-69354472D01*
X251057263Y-69293149D01*
X251062248Y-69223457D01*
X251078112Y-69193906D01*
X251111999Y-69147264D01*
X251111998Y-69147264D01*
X251112002Y-69147260D01*
X251190708Y-68992791D01*
X251244280Y-68827912D01*
X251261831Y-68717099D01*
X251271400Y-68656687D01*
X251271400Y-68483312D01*
X251255622Y-68383702D01*
X251244280Y-68312088D01*
X251190708Y-68147209D01*
X251190708Y-68147208D01*
X251112001Y-67992739D01*
X251010101Y-67852486D01*
X250887514Y-67729899D01*
X250747260Y-67627998D01*
X250592791Y-67549291D01*
X250592788Y-67549290D01*
X250427913Y-67495720D01*
X250256687Y-67468600D01*
X250256682Y-67468600D01*
X250083318Y-67468600D01*
X250083313Y-67468600D01*
X249912086Y-67495720D01*
X249747211Y-67549290D01*
X249747208Y-67549291D01*
X249592739Y-67627998D01*
X249540212Y-67666162D01*
X249452486Y-67729899D01*
X249452484Y-67729901D01*
X249452483Y-67729901D01*
X249329901Y-67852483D01*
X249329901Y-67852484D01*
X249329899Y-67852486D01*
X249315858Y-67871812D01*
X249227998Y-67992739D01*
X249149291Y-68147208D01*
X249149290Y-68147211D01*
X249095720Y-68312086D01*
X249068600Y-68483312D01*
X249068600Y-68656687D01*
X249095720Y-68827913D01*
X249149290Y-68992788D01*
X249149291Y-68992791D01*
X249227998Y-69147260D01*
X249251420Y-69179497D01*
X249274900Y-69245303D01*
X249259075Y-69313357D01*
X249208970Y-69362052D01*
X249140492Y-69375928D01*
X249134917Y-69375322D01*
X249014744Y-69359501D01*
X249014739Y-69359500D01*
X249014734Y-69359500D01*
X248785266Y-69359500D01*
X248785258Y-69359500D01*
X248575065Y-69387174D01*
X248557762Y-69389452D01*
X248527812Y-69397477D01*
X248336112Y-69448842D01*
X248124123Y-69536650D01*
X248124109Y-69536657D01*
X247925382Y-69651392D01*
X247743338Y-69791081D01*
X247581081Y-69953338D01*
X247441392Y-70135382D01*
X247326657Y-70334109D01*
X247326650Y-70334123D01*
X247238842Y-70546112D01*
X247179453Y-70767759D01*
X247179451Y-70767770D01*
X247149500Y-70995258D01*
X247149500Y-71224741D01*
X247158961Y-71296597D01*
X247179452Y-71452238D01*
X247231236Y-71645500D01*
X247238842Y-71673887D01*
X247326650Y-71885876D01*
X247326657Y-71885890D01*
X247441392Y-72084617D01*
X247581081Y-72266661D01*
X247581089Y-72266670D01*
X247743330Y-72428911D01*
X247743338Y-72428918D01*
X247925382Y-72568607D01*
X247925385Y-72568608D01*
X247925388Y-72568611D01*
X248124112Y-72683344D01*
X248124117Y-72683346D01*
X248124123Y-72683349D01*
X248206678Y-72717544D01*
X248336113Y-72771158D01*
X248557762Y-72830548D01*
X248774312Y-72859057D01*
X248785250Y-72860498D01*
X248785266Y-72860500D01*
X248785273Y-72860500D01*
X249014727Y-72860500D01*
X249014734Y-72860500D01*
X249242238Y-72830548D01*
X249463887Y-72771158D01*
X249675888Y-72683344D01*
X249874612Y-72568611D01*
X250056661Y-72428919D01*
X250056665Y-72428914D01*
X250056670Y-72428911D01*
X250218911Y-72266670D01*
X250218914Y-72266665D01*
X250218919Y-72266661D01*
X250358611Y-72084612D01*
X250473344Y-71885888D01*
X250561158Y-71673887D01*
X250620548Y-71452238D01*
X250627561Y-71398964D01*
X250655827Y-71335069D01*
X250714151Y-71296597D01*
X250784016Y-71295765D01*
X250843239Y-71332837D01*
X250873019Y-71396043D01*
X250874500Y-71415150D01*
X250874500Y-72407870D01*
X250874501Y-72407876D01*
X250880908Y-72467483D01*
X250931202Y-72602328D01*
X250931206Y-72602335D01*
X251017452Y-72717544D01*
X251017455Y-72717547D01*
X251132664Y-72803793D01*
X251132671Y-72803797D01*
X251144522Y-72808217D01*
X251267517Y-72854091D01*
X251327127Y-72860500D01*
X251415500Y-72860499D01*
X251482538Y-72880183D01*
X251528294Y-72932986D01*
X251539500Y-72984499D01*
X251539500Y-74023918D01*
X251519815Y-74090957D01*
X251478622Y-74130649D01*
X251438585Y-74154326D01*
X251438574Y-74154335D01*
X251326834Y-74266075D01*
X251326827Y-74266084D01*
X251246382Y-74402110D01*
X251246380Y-74402115D01*
X251202292Y-74553867D01*
X251202290Y-74553880D01*
X251199500Y-74589330D01*
X251199500Y-74965651D01*
X251199502Y-74965686D01*
X251200296Y-74975779D01*
X251185928Y-75044156D01*
X251136873Y-75093909D01*
X251076678Y-75109500D01*
X251031155Y-75109500D01*
X250876510Y-75140261D01*
X250876498Y-75140264D01*
X250730827Y-75200602D01*
X250730814Y-75200609D01*
X250599711Y-75288210D01*
X250599707Y-75288213D01*
X250488213Y-75399707D01*
X250488210Y-75399711D01*
X250400609Y-75530814D01*
X250400602Y-75530827D01*
X250340264Y-75676498D01*
X250340261Y-75676510D01*
X250309500Y-75831153D01*
X250309500Y-75988846D01*
X250340261Y-76143489D01*
X250340264Y-76143501D01*
X250400602Y-76289171D01*
X250400604Y-76289175D01*
X250400606Y-76289179D01*
X250404811Y-76295472D01*
X250430672Y-76334177D01*
X250442129Y-76355612D01*
X250489224Y-76469309D01*
X250565887Y-76584044D01*
X250565888Y-76584045D01*
X250705007Y-76723163D01*
X250839295Y-76857451D01*
X250842751Y-76861754D01*
X250860663Y-76882846D01*
X250861512Y-76883792D01*
X250920527Y-76939754D01*
X250923160Y-76941316D01*
X251187689Y-77205845D01*
X251219084Y-77258931D01*
X251246380Y-77352884D01*
X251246381Y-77352887D01*
X251326827Y-77488915D01*
X251326834Y-77488924D01*
X251438574Y-77600664D01*
X251438578Y-77600667D01*
X251438580Y-77600669D01*
X251574610Y-77681117D01*
X251668569Y-77708414D01*
X251721652Y-77739808D01*
X251913181Y-77931337D01*
X251946666Y-77992660D01*
X251949500Y-78019018D01*
X251949500Y-78679481D01*
X251929815Y-78746520D01*
X251913181Y-78767162D01*
X251736162Y-78944181D01*
X251674839Y-78977666D01*
X251648481Y-78980500D01*
X234759519Y-78980500D01*
X234692480Y-78960815D01*
X234646725Y-78908011D01*
X234636781Y-78838853D01*
X234665806Y-78775297D01*
X234671838Y-78768819D01*
X238003838Y-75436818D01*
X238065161Y-75403333D01*
X238091519Y-75400499D01*
X240122871Y-75400499D01*
X240122872Y-75400499D01*
X240182483Y-75394091D01*
X240317331Y-75343796D01*
X240432546Y-75257546D01*
X240518796Y-75142331D01*
X240569091Y-75007483D01*
X240575500Y-74947873D01*
X240575499Y-73955148D01*
X240595183Y-73888112D01*
X240647987Y-73842357D01*
X240717146Y-73832413D01*
X240780702Y-73861438D01*
X240818476Y-73920216D01*
X240822438Y-73938964D01*
X240829452Y-73992238D01*
X240884987Y-74199500D01*
X240888842Y-74213887D01*
X240976650Y-74425876D01*
X240976657Y-74425890D01*
X241091392Y-74624617D01*
X241231081Y-74806661D01*
X241231089Y-74806670D01*
X241393330Y-74968911D01*
X241393338Y-74968918D01*
X241575382Y-75108607D01*
X241575385Y-75108608D01*
X241575388Y-75108611D01*
X241774112Y-75223344D01*
X241774117Y-75223346D01*
X241774123Y-75223349D01*
X241856678Y-75257544D01*
X241986113Y-75311158D01*
X242207762Y-75370548D01*
X242424312Y-75399057D01*
X242435250Y-75400498D01*
X242435266Y-75400500D01*
X242435273Y-75400500D01*
X242664727Y-75400500D01*
X242664734Y-75400500D01*
X242892238Y-75370548D01*
X243113887Y-75311158D01*
X243325888Y-75223344D01*
X243524612Y-75108611D01*
X243706661Y-74968919D01*
X243706665Y-74968914D01*
X243706670Y-74968911D01*
X243868911Y-74806670D01*
X243868914Y-74806665D01*
X243868919Y-74806661D01*
X244008611Y-74624612D01*
X244123344Y-74425888D01*
X244211158Y-74213887D01*
X244270548Y-73992238D01*
X244300500Y-73764734D01*
X244300500Y-73535266D01*
X244270548Y-73307762D01*
X244211158Y-73086113D01*
X244147731Y-72932987D01*
X244123349Y-72874123D01*
X244123346Y-72874117D01*
X244123344Y-72874112D01*
X244008611Y-72675388D01*
X244008608Y-72675385D01*
X244008607Y-72675382D01*
X243868918Y-72493338D01*
X243868911Y-72493330D01*
X243706670Y-72331089D01*
X243706661Y-72331081D01*
X243524617Y-72191392D01*
X243466210Y-72157671D01*
X243325888Y-72076656D01*
X243325876Y-72076650D01*
X243113887Y-71988842D01*
X243092058Y-71982993D01*
X242892238Y-71929452D01*
X242854215Y-71924446D01*
X242664741Y-71899500D01*
X242664734Y-71899500D01*
X242435266Y-71899500D01*
X242435258Y-71899500D01*
X242218715Y-71928009D01*
X242207762Y-71929452D01*
X242200022Y-71931526D01*
X241986112Y-71988842D01*
X241774123Y-72076650D01*
X241774109Y-72076657D01*
X241575382Y-72191392D01*
X241393338Y-72331081D01*
X241231081Y-72493338D01*
X241091392Y-72675382D01*
X240976657Y-72874109D01*
X240976650Y-72874123D01*
X240888842Y-73086112D01*
X240829453Y-73307759D01*
X240829451Y-73307769D01*
X240822438Y-73361036D01*
X240794171Y-73424932D01*
X240735846Y-73463402D01*
X240665981Y-73464233D01*
X240606758Y-73427160D01*
X240576980Y-73363954D01*
X240575499Y-73344849D01*
X240575499Y-72352129D01*
X240575498Y-72352123D01*
X240575497Y-72352116D01*
X240569091Y-72292517D01*
X240568152Y-72290000D01*
X240518797Y-72157671D01*
X240518793Y-72157664D01*
X240432547Y-72042455D01*
X240432544Y-72042452D01*
X240317335Y-71956206D01*
X240317328Y-71956202D01*
X240182482Y-71905908D01*
X240182483Y-71905908D01*
X240122883Y-71899501D01*
X240122881Y-71899500D01*
X240122873Y-71899500D01*
X240122865Y-71899500D01*
X239104500Y-71899500D01*
X239037461Y-71879815D01*
X238991706Y-71827011D01*
X238980500Y-71775500D01*
X238980500Y-69397477D01*
X239000185Y-69330438D01*
X239052989Y-69284683D01*
X239122147Y-69274739D01*
X239185703Y-69303764D01*
X239192181Y-69309796D01*
X239292486Y-69410101D01*
X239432740Y-69512002D01*
X239481126Y-69536656D01*
X239587208Y-69590708D01*
X239587211Y-69590709D01*
X239650477Y-69611265D01*
X239752088Y-69644280D01*
X239828472Y-69656378D01*
X239923313Y-69671400D01*
X239923318Y-69671400D01*
X240096687Y-69671400D01*
X240179695Y-69658252D01*
X240267912Y-69644280D01*
X240432791Y-69590708D01*
X240587260Y-69512002D01*
X240727514Y-69410101D01*
X240850101Y-69287514D01*
X240952002Y-69147260D01*
X241030708Y-68992791D01*
X241084280Y-68827912D01*
X241101831Y-68717099D01*
X241111400Y-68656687D01*
X241111400Y-68483312D01*
X241095622Y-68383702D01*
X241084280Y-68312088D01*
X241030708Y-68147209D01*
X241030708Y-68147208D01*
X240952001Y-67992739D01*
X240850101Y-67852486D01*
X240850092Y-67852477D01*
X240846937Y-67848782D01*
X240847908Y-67847952D01*
X240817240Y-67791787D01*
X240822224Y-67722095D01*
X240864096Y-67666162D01*
X240929560Y-67641745D01*
X240957804Y-67642956D01*
X241150649Y-67673500D01*
X241150654Y-67673500D01*
X241409351Y-67673500D01*
X241551294Y-67651017D01*
X241664854Y-67633032D01*
X241910885Y-67553091D01*
X242141382Y-67435647D01*
X242350668Y-67283592D01*
X242533592Y-67100668D01*
X242685647Y-66891382D01*
X242803091Y-66660885D01*
X242876102Y-66436179D01*
X242915540Y-66378506D01*
X242979898Y-66351308D01*
X242994033Y-66350500D01*
X243982711Y-66350500D01*
X244049750Y-66370185D01*
G37*
%TD.AperFunction*%
%TA.AperFunction,Conductor*%
G36*
X240907055Y-45160185D02*
G01*
X240952810Y-45212989D01*
X240962754Y-45282147D01*
X240933729Y-45345703D01*
X240878335Y-45382430D01*
X240649115Y-45456909D01*
X240649112Y-45456910D01*
X240418617Y-45574353D01*
X240209329Y-45726410D01*
X240026410Y-45909329D01*
X239874353Y-46118617D01*
X239756910Y-46349112D01*
X239676967Y-46595149D01*
X239636500Y-46850648D01*
X239636500Y-47109351D01*
X239674291Y-47347952D01*
X239676968Y-47364854D01*
X239756909Y-47610885D01*
X239874353Y-47841382D01*
X240026408Y-48050668D01*
X240026410Y-48050670D01*
X240182659Y-48206919D01*
X240216144Y-48268242D01*
X240211160Y-48337934D01*
X240169288Y-48393867D01*
X240103824Y-48418284D01*
X240094978Y-48418600D01*
X239923313Y-48418600D01*
X239752086Y-48445720D01*
X239587211Y-48499290D01*
X239587208Y-48499291D01*
X239432739Y-48577998D01*
X239368736Y-48624500D01*
X239292486Y-48679899D01*
X239292484Y-48679901D01*
X239292483Y-48679901D01*
X239169901Y-48802483D01*
X239169901Y-48802484D01*
X239169899Y-48802486D01*
X239137825Y-48846632D01*
X239067998Y-48942739D01*
X238989291Y-49097208D01*
X238989290Y-49097211D01*
X238935720Y-49262086D01*
X238908600Y-49433312D01*
X238908600Y-49606687D01*
X238935720Y-49777913D01*
X238989290Y-49942788D01*
X238989291Y-49942791D01*
X239067998Y-50097260D01*
X239169899Y-50237514D01*
X239292486Y-50360101D01*
X239432740Y-50462002D01*
X239481126Y-50486656D01*
X239587208Y-50540708D01*
X239587211Y-50540709D01*
X239669648Y-50567494D01*
X239752088Y-50594280D01*
X239828472Y-50606378D01*
X239923313Y-50621400D01*
X239923318Y-50621400D01*
X240096687Y-50621400D01*
X240179695Y-50608252D01*
X240267912Y-50594280D01*
X240432791Y-50540708D01*
X240587260Y-50462002D01*
X240727514Y-50360101D01*
X240850101Y-50237514D01*
X240952002Y-50097260D01*
X241030708Y-49942791D01*
X241084280Y-49777912D01*
X241105428Y-49644390D01*
X241111400Y-49606687D01*
X241111400Y-49433312D01*
X241095622Y-49333702D01*
X241084280Y-49262088D01*
X241030708Y-49097209D01*
X241030708Y-49097208D01*
X240969898Y-48977863D01*
X240952002Y-48942740D01*
X240850101Y-48802486D01*
X240850092Y-48802477D01*
X240846937Y-48798782D01*
X240847908Y-48797952D01*
X240817240Y-48741787D01*
X240822224Y-48672095D01*
X240864096Y-48616162D01*
X240929560Y-48591745D01*
X240957804Y-48592956D01*
X241150649Y-48623500D01*
X241150654Y-48623500D01*
X241409351Y-48623500D01*
X241551294Y-48601017D01*
X241664854Y-48583032D01*
X241910885Y-48503091D01*
X242141382Y-48385647D01*
X242350668Y-48233592D01*
X242533592Y-48050668D01*
X242685647Y-47841382D01*
X242803091Y-47610885D01*
X242856607Y-47446180D01*
X242896045Y-47388506D01*
X242960404Y-47361308D01*
X242974538Y-47360500D01*
X243878788Y-47360500D01*
X243945827Y-47380185D01*
X243991582Y-47432989D01*
X244001526Y-47502147D01*
X243972501Y-47565703D01*
X243940789Y-47591886D01*
X243903934Y-47613165D01*
X243840403Y-47649845D01*
X243840394Y-47649851D01*
X243606990Y-47828948D01*
X243606983Y-47828954D01*
X243398954Y-48036983D01*
X243398948Y-48036990D01*
X243219851Y-48270394D01*
X243219840Y-48270410D01*
X243072742Y-48525189D01*
X243072734Y-48525205D01*
X242960152Y-48797005D01*
X242884001Y-49081203D01*
X242845601Y-49372883D01*
X242845600Y-49372900D01*
X242845600Y-49667099D01*
X242845601Y-49667116D01*
X242874734Y-49888408D01*
X242884002Y-49958800D01*
X242941519Y-50173457D01*
X242960152Y-50242994D01*
X243072734Y-50514794D01*
X243072742Y-50514810D01*
X243219840Y-50769589D01*
X243219851Y-50769605D01*
X243398948Y-51003009D01*
X243398954Y-51003016D01*
X243606983Y-51211045D01*
X243606990Y-51211051D01*
X243704632Y-51285974D01*
X243840403Y-51390155D01*
X243840410Y-51390159D01*
X244095189Y-51537257D01*
X244095205Y-51537265D01*
X244367005Y-51649847D01*
X244367007Y-51649847D01*
X244367013Y-51649850D01*
X244651200Y-51725998D01*
X244942894Y-51764400D01*
X244942901Y-51764400D01*
X245237099Y-51764400D01*
X245237106Y-51764400D01*
X245528800Y-51725998D01*
X245812987Y-51649850D01*
X245886318Y-51619475D01*
X246084794Y-51537265D01*
X246084797Y-51537263D01*
X246084803Y-51537261D01*
X246339597Y-51390155D01*
X246573011Y-51211050D01*
X246781050Y-51003011D01*
X246960155Y-50769597D01*
X247107261Y-50514803D01*
X247118920Y-50486657D01*
X247203419Y-50282656D01*
X247219850Y-50242987D01*
X247295998Y-49958800D01*
X247334400Y-49667106D01*
X247334400Y-49372894D01*
X247295998Y-49081200D01*
X247219850Y-48797013D01*
X247219847Y-48797005D01*
X247107265Y-48525205D01*
X247107257Y-48525189D01*
X246960159Y-48270410D01*
X246960155Y-48270403D01*
X246883105Y-48169990D01*
X246781051Y-48036990D01*
X246781045Y-48036983D01*
X246573016Y-47828954D01*
X246573009Y-47828948D01*
X246339605Y-47649851D01*
X246339603Y-47649850D01*
X246339597Y-47649845D01*
X246239210Y-47591886D01*
X246190996Y-47541320D01*
X246177774Y-47472712D01*
X246203742Y-47407848D01*
X246260656Y-47367320D01*
X246301212Y-47360500D01*
X250138481Y-47360500D01*
X250205520Y-47380185D01*
X250226162Y-47396819D01*
X251913181Y-49083837D01*
X251946666Y-49145160D01*
X251949500Y-49171518D01*
X251949500Y-50185500D01*
X251929815Y-50252539D01*
X251877011Y-50298294D01*
X251825500Y-50309500D01*
X251327129Y-50309500D01*
X251327123Y-50309501D01*
X251267515Y-50315909D01*
X251221761Y-50332974D01*
X251152070Y-50337958D01*
X251090747Y-50304472D01*
X251057263Y-50243149D01*
X251062248Y-50173457D01*
X251078112Y-50143906D01*
X251111999Y-50097264D01*
X251111998Y-50097264D01*
X251112002Y-50097260D01*
X251190708Y-49942791D01*
X251244280Y-49777912D01*
X251265428Y-49644390D01*
X251271400Y-49606687D01*
X251271400Y-49433312D01*
X251255622Y-49333702D01*
X251244280Y-49262088D01*
X251190708Y-49097209D01*
X251190708Y-49097208D01*
X251129898Y-48977863D01*
X251112002Y-48942740D01*
X251010101Y-48802486D01*
X250887514Y-48679899D01*
X250747260Y-48577998D01*
X250592791Y-48499291D01*
X250592788Y-48499290D01*
X250427913Y-48445720D01*
X250256687Y-48418600D01*
X250256682Y-48418600D01*
X250083318Y-48418600D01*
X250083313Y-48418600D01*
X249912086Y-48445720D01*
X249747211Y-48499290D01*
X249747208Y-48499291D01*
X249592739Y-48577998D01*
X249528736Y-48624500D01*
X249452486Y-48679899D01*
X249452484Y-48679901D01*
X249452483Y-48679901D01*
X249329901Y-48802483D01*
X249329901Y-48802484D01*
X249329899Y-48802486D01*
X249297825Y-48846632D01*
X249227998Y-48942739D01*
X249149291Y-49097208D01*
X249149290Y-49097211D01*
X249095720Y-49262086D01*
X249068600Y-49433312D01*
X249068600Y-49606687D01*
X249095720Y-49777913D01*
X249149290Y-49942788D01*
X249149291Y-49942791D01*
X249227998Y-50097260D01*
X249251420Y-50129497D01*
X249274900Y-50195303D01*
X249259075Y-50263357D01*
X249208970Y-50312052D01*
X249140492Y-50325928D01*
X249134917Y-50325322D01*
X249014744Y-50309501D01*
X249014739Y-50309500D01*
X249014734Y-50309500D01*
X248785266Y-50309500D01*
X248785258Y-50309500D01*
X248575065Y-50337174D01*
X248557762Y-50339452D01*
X248507588Y-50352896D01*
X248336112Y-50398842D01*
X248124123Y-50486650D01*
X248124109Y-50486657D01*
X247925382Y-50601392D01*
X247743338Y-50741081D01*
X247581081Y-50903338D01*
X247441392Y-51085382D01*
X247326657Y-51284109D01*
X247326650Y-51284123D01*
X247238842Y-51496112D01*
X247179453Y-51717759D01*
X247179451Y-51717770D01*
X247149500Y-51945258D01*
X247149500Y-52174741D01*
X247158961Y-52246597D01*
X247179452Y-52402238D01*
X247221082Y-52557606D01*
X247238842Y-52623887D01*
X247326650Y-52835876D01*
X247326657Y-52835890D01*
X247441392Y-53034617D01*
X247581081Y-53216661D01*
X247581089Y-53216670D01*
X247743330Y-53378911D01*
X247743338Y-53378918D01*
X247925382Y-53518607D01*
X247925385Y-53518608D01*
X247925388Y-53518611D01*
X248124112Y-53633344D01*
X248124117Y-53633346D01*
X248124123Y-53633349D01*
X248193648Y-53662147D01*
X248336113Y-53721158D01*
X248557762Y-53780548D01*
X248785266Y-53810500D01*
X248785273Y-53810500D01*
X249014727Y-53810500D01*
X249014734Y-53810500D01*
X249242238Y-53780548D01*
X249463887Y-53721158D01*
X249675888Y-53633344D01*
X249874612Y-53518611D01*
X250056661Y-53378919D01*
X250056665Y-53378914D01*
X250056670Y-53378911D01*
X250218911Y-53216670D01*
X250218914Y-53216665D01*
X250218919Y-53216661D01*
X250358611Y-53034612D01*
X250473344Y-52835888D01*
X250561158Y-52623887D01*
X250620548Y-52402238D01*
X250627561Y-52348964D01*
X250655827Y-52285069D01*
X250714151Y-52246597D01*
X250784016Y-52245765D01*
X250843239Y-52282837D01*
X250873019Y-52346043D01*
X250874500Y-52365150D01*
X250874500Y-53357870D01*
X250874501Y-53357876D01*
X250880908Y-53417483D01*
X250931202Y-53552328D01*
X250931206Y-53552335D01*
X251017452Y-53667544D01*
X251017455Y-53667547D01*
X251132664Y-53753793D01*
X251132671Y-53753797D01*
X251177618Y-53770561D01*
X251267517Y-53804091D01*
X251327127Y-53810500D01*
X251825500Y-53810499D01*
X251892539Y-53830183D01*
X251938294Y-53882987D01*
X251949500Y-53934499D01*
X251949500Y-55048480D01*
X251929815Y-55115519D01*
X251913181Y-55136161D01*
X251718128Y-55331213D01*
X251665042Y-55362608D01*
X251574614Y-55388879D01*
X251574611Y-55388881D01*
X251438583Y-55469327D01*
X251438574Y-55469334D01*
X251326834Y-55581074D01*
X251326827Y-55581083D01*
X251246382Y-55717109D01*
X251246380Y-55717114D01*
X251202292Y-55868866D01*
X251202290Y-55868879D01*
X251199500Y-55904329D01*
X251199500Y-56280650D01*
X251199501Y-56280675D01*
X251202291Y-56316127D01*
X251246380Y-56467885D01*
X251246382Y-56467890D01*
X251326827Y-56603916D01*
X251326834Y-56603925D01*
X251438574Y-56715665D01*
X251438578Y-56715668D01*
X251438580Y-56715670D01*
X251574610Y-56796118D01*
X251726373Y-56840209D01*
X251761837Y-56843000D01*
X252138162Y-56842999D01*
X252173627Y-56840209D01*
X252325390Y-56796118D01*
X252461420Y-56715670D01*
X252573170Y-56603920D01*
X252653618Y-56467890D01*
X252681939Y-56370405D01*
X252713332Y-56317323D01*
X253194113Y-55836543D01*
X253204834Y-55820499D01*
X253270775Y-55721811D01*
X253315096Y-55614810D01*
X253323580Y-55594329D01*
X253331111Y-55556465D01*
X253350500Y-55458993D01*
X253350500Y-53934499D01*
X253370185Y-53867460D01*
X253422989Y-53821705D01*
X253474500Y-53810499D01*
X253965500Y-53810499D01*
X254032539Y-53830184D01*
X254078294Y-53882988D01*
X254089500Y-53934499D01*
X254089500Y-69235500D01*
X254069815Y-69302539D01*
X254017011Y-69348294D01*
X253965500Y-69359500D01*
X253054500Y-69359500D01*
X252987461Y-69339815D01*
X252941706Y-69287011D01*
X252930500Y-69235500D01*
X252930500Y-67471006D01*
X252923466Y-67435648D01*
X252923466Y-67435645D01*
X252903581Y-67335679D01*
X252903580Y-67335672D01*
X252897258Y-67320410D01*
X252850777Y-67208192D01*
X252774112Y-67093454D01*
X250786545Y-65105887D01*
X250671807Y-65029222D01*
X250544332Y-64976421D01*
X250544322Y-64976418D01*
X250408996Y-64949500D01*
X250408994Y-64949500D01*
X250408993Y-64949500D01*
X248794122Y-64949500D01*
X248727083Y-64929815D01*
X248681328Y-64877011D01*
X248671384Y-64807853D01*
X248700409Y-64744297D01*
X248706441Y-64737819D01*
X248883592Y-64560668D01*
X249035647Y-64351382D01*
X249153091Y-64120885D01*
X249233032Y-63874854D01*
X249251017Y-63761294D01*
X249273500Y-63619351D01*
X249273500Y-63360648D01*
X249233032Y-63105149D01*
X249233032Y-63105146D01*
X249153091Y-62859115D01*
X249035647Y-62628618D01*
X248883592Y-62419332D01*
X248700668Y-62236408D01*
X248491382Y-62084353D01*
X248260885Y-61966909D01*
X248014854Y-61886968D01*
X248014852Y-61886967D01*
X248014850Y-61886967D01*
X247759351Y-61846500D01*
X247759346Y-61846500D01*
X247500654Y-61846500D01*
X247500649Y-61846500D01*
X247245149Y-61886967D01*
X246999112Y-61966910D01*
X246768617Y-62084353D01*
X246559329Y-62236410D01*
X246376410Y-62419329D01*
X246224353Y-62628617D01*
X246176877Y-62721795D01*
X246128902Y-62772591D01*
X246066392Y-62789500D01*
X239691003Y-62789500D01*
X239589823Y-62809626D01*
X239589819Y-62809627D01*
X239582591Y-62811065D01*
X239555671Y-62816420D01*
X239510907Y-62834962D01*
X239506475Y-62836797D01*
X239506465Y-62836801D01*
X239428192Y-62869223D01*
X239396319Y-62890520D01*
X239313457Y-62945886D01*
X239313453Y-62945889D01*
X238426161Y-63833181D01*
X238399233Y-63847884D01*
X238373415Y-63864477D01*
X238367214Y-63865368D01*
X238364838Y-63866666D01*
X238338480Y-63869500D01*
X238141519Y-63869500D01*
X238074480Y-63849815D01*
X238053838Y-63833181D01*
X237166546Y-62945888D01*
X237166545Y-62945887D01*
X237051807Y-62869222D01*
X236924332Y-62816421D01*
X236924322Y-62816418D01*
X236788996Y-62789500D01*
X236788994Y-62789500D01*
X236788993Y-62789500D01*
X230143608Y-62789500D01*
X230076569Y-62769815D01*
X230033123Y-62721795D01*
X229985646Y-62628617D01*
X229833592Y-62419332D01*
X229650668Y-62236408D01*
X229441382Y-62084353D01*
X229210885Y-61966909D01*
X228964854Y-61886968D01*
X228964852Y-61886967D01*
X228964850Y-61886967D01*
X228709351Y-61846500D01*
X228709346Y-61846500D01*
X228450654Y-61846500D01*
X228450649Y-61846500D01*
X228195149Y-61886967D01*
X227949112Y-61966910D01*
X227718617Y-62084353D01*
X227509329Y-62236410D01*
X227326410Y-62419329D01*
X227174353Y-62628617D01*
X227056910Y-62859112D01*
X226976967Y-63105149D01*
X226936500Y-63360648D01*
X226936500Y-63619351D01*
X226975671Y-63866666D01*
X226976968Y-63874854D01*
X227056909Y-64120885D01*
X227174353Y-64351382D01*
X227326408Y-64560668D01*
X227509332Y-64743592D01*
X227552812Y-64775182D01*
X227595478Y-64830512D01*
X227601457Y-64900125D01*
X227568851Y-64961920D01*
X227508013Y-64996277D01*
X227479927Y-64999500D01*
X223575063Y-64999500D01*
X223508024Y-64979815D01*
X223487720Y-64962093D01*
X223487037Y-64962777D01*
X223300670Y-64776410D01*
X223300668Y-64776408D01*
X223091382Y-64624353D01*
X222860885Y-64506909D01*
X222614854Y-64426968D01*
X222614852Y-64426967D01*
X222614850Y-64426967D01*
X222359351Y-64386500D01*
X222359346Y-64386500D01*
X222100654Y-64386500D01*
X222100649Y-64386500D01*
X221845149Y-64426967D01*
X221599112Y-64506910D01*
X221368617Y-64624353D01*
X221159329Y-64776410D01*
X220976410Y-64959329D01*
X220824353Y-65168617D01*
X220706910Y-65399112D01*
X220626967Y-65645149D01*
X220586500Y-65900648D01*
X220586500Y-66159351D01*
X220626967Y-66414850D01*
X220626968Y-66414854D01*
X220706909Y-66660885D01*
X220824353Y-66891382D01*
X220976408Y-67100668D01*
X220976410Y-67100670D01*
X221132659Y-67256919D01*
X221166144Y-67318242D01*
X221161160Y-67387934D01*
X221119288Y-67443867D01*
X221053824Y-67468284D01*
X221044978Y-67468600D01*
X220873313Y-67468600D01*
X220702086Y-67495720D01*
X220537211Y-67549290D01*
X220537208Y-67549291D01*
X220382739Y-67627998D01*
X220330212Y-67666162D01*
X220242486Y-67729899D01*
X220242484Y-67729901D01*
X220242483Y-67729901D01*
X220119901Y-67852483D01*
X220119901Y-67852484D01*
X220119899Y-67852486D01*
X220105858Y-67871812D01*
X220017998Y-67992739D01*
X219939291Y-68147208D01*
X219939290Y-68147211D01*
X219885720Y-68312086D01*
X219858600Y-68483312D01*
X219858600Y-68656687D01*
X219885720Y-68827913D01*
X219939290Y-68992788D01*
X219939291Y-68992791D01*
X220008795Y-69129198D01*
X220017998Y-69147260D01*
X220119899Y-69287514D01*
X220242486Y-69410101D01*
X220382740Y-69512002D01*
X220431126Y-69536656D01*
X220537208Y-69590708D01*
X220537211Y-69590709D01*
X220600477Y-69611265D01*
X220702088Y-69644280D01*
X220778472Y-69656378D01*
X220873313Y-69671400D01*
X220873318Y-69671400D01*
X221046687Y-69671400D01*
X221129695Y-69658252D01*
X221217912Y-69644280D01*
X221382791Y-69590708D01*
X221537260Y-69512002D01*
X221677514Y-69410101D01*
X221800101Y-69287514D01*
X221902002Y-69147260D01*
X221980708Y-68992791D01*
X222034280Y-68827912D01*
X222051831Y-68717099D01*
X222061400Y-68656687D01*
X222061400Y-68483312D01*
X222045622Y-68383702D01*
X222034280Y-68312088D01*
X221980708Y-68147209D01*
X221980708Y-68147208D01*
X221902001Y-67992739D01*
X221800101Y-67852486D01*
X221800092Y-67852477D01*
X221796937Y-67848782D01*
X221797908Y-67847952D01*
X221767240Y-67791787D01*
X221772224Y-67722095D01*
X221814096Y-67666162D01*
X221879560Y-67641745D01*
X221907804Y-67642956D01*
X222100649Y-67673500D01*
X222100654Y-67673500D01*
X222359351Y-67673500D01*
X222501294Y-67651017D01*
X222614854Y-67633032D01*
X222860885Y-67553091D01*
X223091382Y-67435647D01*
X223300668Y-67283592D01*
X223483592Y-67100668D01*
X223635647Y-66891382D01*
X223753091Y-66660885D01*
X223809856Y-66486180D01*
X223849294Y-66428506D01*
X223913653Y-66401308D01*
X223927787Y-66400500D01*
X224846109Y-66400500D01*
X224913148Y-66420185D01*
X224958903Y-66472989D01*
X224968847Y-66542147D01*
X224939822Y-66605703D01*
X224908109Y-66631887D01*
X224790410Y-66699840D01*
X224790394Y-66699851D01*
X224556990Y-66878948D01*
X224556983Y-66878954D01*
X224348954Y-67086983D01*
X224348948Y-67086990D01*
X224169851Y-67320394D01*
X224169840Y-67320410D01*
X224022742Y-67575189D01*
X224022734Y-67575205D01*
X223910152Y-67847005D01*
X223834001Y-68131203D01*
X223795601Y-68422883D01*
X223795600Y-68422900D01*
X223795600Y-68717099D01*
X223795601Y-68717116D01*
X223828331Y-68965731D01*
X223834002Y-69008800D01*
X223905260Y-69274739D01*
X223910152Y-69292994D01*
X224022734Y-69564794D01*
X224022742Y-69564810D01*
X224169840Y-69819589D01*
X224169851Y-69819605D01*
X224348948Y-70053009D01*
X224348954Y-70053016D01*
X224556983Y-70261045D01*
X224556990Y-70261051D01*
X224723205Y-70388592D01*
X224790403Y-70440155D01*
X224790410Y-70440159D01*
X225045189Y-70587257D01*
X225045205Y-70587265D01*
X225317005Y-70699847D01*
X225317007Y-70699847D01*
X225317013Y-70699850D01*
X225601200Y-70775998D01*
X225892894Y-70814400D01*
X225892901Y-70814400D01*
X226187099Y-70814400D01*
X226187106Y-70814400D01*
X226478800Y-70775998D01*
X226762987Y-70699850D01*
X226836318Y-70669475D01*
X227034794Y-70587265D01*
X227034797Y-70587263D01*
X227034803Y-70587261D01*
X227289597Y-70440155D01*
X227523011Y-70261050D01*
X227731050Y-70053011D01*
X227910155Y-69819597D01*
X228057261Y-69564803D01*
X228063532Y-69549665D01*
X228154337Y-69330438D01*
X228169850Y-69292987D01*
X228245998Y-69008800D01*
X228284400Y-68717106D01*
X228284400Y-68422894D01*
X228245998Y-68131200D01*
X228169850Y-67847013D01*
X228157349Y-67816833D01*
X228057265Y-67575205D01*
X228057257Y-67575189D01*
X227910159Y-67320410D01*
X227910155Y-67320403D01*
X227731050Y-67086989D01*
X227731045Y-67086983D01*
X227523016Y-66878954D01*
X227523009Y-66878948D01*
X227289605Y-66699851D01*
X227289603Y-66699849D01*
X227289597Y-66699845D01*
X227289592Y-66699842D01*
X227289589Y-66699840D01*
X227171891Y-66631887D01*
X227123675Y-66581320D01*
X227110453Y-66512713D01*
X227136421Y-66447848D01*
X227193335Y-66407320D01*
X227233891Y-66400500D01*
X230968481Y-66400500D01*
X231035520Y-66420185D01*
X231056162Y-66436819D01*
X232863181Y-68243838D01*
X232896666Y-68305161D01*
X232899500Y-68331519D01*
X232899500Y-69235500D01*
X232879815Y-69302539D01*
X232827011Y-69348294D01*
X232775500Y-69359500D01*
X232277129Y-69359500D01*
X232277123Y-69359501D01*
X232217515Y-69365909D01*
X232171761Y-69382974D01*
X232102070Y-69387958D01*
X232040747Y-69354472D01*
X232007263Y-69293149D01*
X232012248Y-69223457D01*
X232028112Y-69193906D01*
X232061999Y-69147264D01*
X232061998Y-69147264D01*
X232062002Y-69147260D01*
X232140708Y-68992791D01*
X232194280Y-68827912D01*
X232211831Y-68717099D01*
X232221400Y-68656687D01*
X232221400Y-68483312D01*
X232205622Y-68383702D01*
X232194280Y-68312088D01*
X232140708Y-68147209D01*
X232140708Y-68147208D01*
X232062001Y-67992739D01*
X231960101Y-67852486D01*
X231837514Y-67729899D01*
X231697260Y-67627998D01*
X231542791Y-67549291D01*
X231542788Y-67549290D01*
X231377913Y-67495720D01*
X231206687Y-67468600D01*
X231206682Y-67468600D01*
X231033318Y-67468600D01*
X231033313Y-67468600D01*
X230862086Y-67495720D01*
X230697211Y-67549290D01*
X230697208Y-67549291D01*
X230542739Y-67627998D01*
X230490212Y-67666162D01*
X230402486Y-67729899D01*
X230402484Y-67729901D01*
X230402483Y-67729901D01*
X230279901Y-67852483D01*
X230279901Y-67852484D01*
X230279899Y-67852486D01*
X230265858Y-67871812D01*
X230177998Y-67992739D01*
X230099291Y-68147208D01*
X230099290Y-68147211D01*
X230045720Y-68312086D01*
X230018600Y-68483312D01*
X230018600Y-68656687D01*
X230045720Y-68827913D01*
X230099290Y-68992788D01*
X230099291Y-68992791D01*
X230177998Y-69147260D01*
X230201420Y-69179497D01*
X230224900Y-69245303D01*
X230209075Y-69313357D01*
X230158970Y-69362052D01*
X230090492Y-69375928D01*
X230084917Y-69375322D01*
X229964744Y-69359501D01*
X229964739Y-69359500D01*
X229964734Y-69359500D01*
X229735266Y-69359500D01*
X229735258Y-69359500D01*
X229525065Y-69387174D01*
X229507762Y-69389452D01*
X229477812Y-69397477D01*
X229286112Y-69448842D01*
X229074123Y-69536650D01*
X229074109Y-69536657D01*
X228875382Y-69651392D01*
X228693338Y-69791081D01*
X228531081Y-69953338D01*
X228391392Y-70135382D01*
X228276657Y-70334109D01*
X228276650Y-70334123D01*
X228188842Y-70546112D01*
X228129453Y-70767759D01*
X228129451Y-70767770D01*
X228099500Y-70995258D01*
X228099500Y-71224741D01*
X228108961Y-71296597D01*
X228129452Y-71452238D01*
X228181236Y-71645500D01*
X228188842Y-71673887D01*
X228276650Y-71885876D01*
X228276657Y-71885890D01*
X228391392Y-72084617D01*
X228531081Y-72266661D01*
X228531089Y-72266670D01*
X228693330Y-72428911D01*
X228693338Y-72428918D01*
X228875382Y-72568607D01*
X228875385Y-72568608D01*
X228875388Y-72568611D01*
X229074112Y-72683344D01*
X229074117Y-72683346D01*
X229074123Y-72683349D01*
X229156678Y-72717544D01*
X229286113Y-72771158D01*
X229507762Y-72830548D01*
X229724312Y-72859057D01*
X229735250Y-72860498D01*
X229735266Y-72860500D01*
X229735273Y-72860500D01*
X229964727Y-72860500D01*
X229964734Y-72860500D01*
X230192238Y-72830548D01*
X230413887Y-72771158D01*
X230625888Y-72683344D01*
X230824612Y-72568611D01*
X231006661Y-72428919D01*
X231006665Y-72428914D01*
X231006670Y-72428911D01*
X231168911Y-72266670D01*
X231168914Y-72266665D01*
X231168919Y-72266661D01*
X231308611Y-72084612D01*
X231423344Y-71885888D01*
X231511158Y-71673887D01*
X231570548Y-71452238D01*
X231577561Y-71398964D01*
X231605827Y-71335069D01*
X231664151Y-71296597D01*
X231734016Y-71295765D01*
X231793239Y-71332837D01*
X231823019Y-71396043D01*
X231824500Y-71415150D01*
X231824500Y-72407870D01*
X231824501Y-72407876D01*
X231830908Y-72467483D01*
X231881202Y-72602328D01*
X231881206Y-72602335D01*
X231967452Y-72717544D01*
X231967455Y-72717547D01*
X232082664Y-72803793D01*
X232082671Y-72803797D01*
X232094522Y-72808217D01*
X232217517Y-72854091D01*
X232277127Y-72860500D01*
X232735500Y-72860499D01*
X232802539Y-72880183D01*
X232848294Y-72932987D01*
X232859500Y-72984499D01*
X232859500Y-73496231D01*
X232854576Y-73530826D01*
X232812292Y-73676366D01*
X232812290Y-73676379D01*
X232809500Y-73711829D01*
X232809500Y-73711844D01*
X232809501Y-74075500D01*
X232789817Y-74142539D01*
X232737013Y-74188294D01*
X232685501Y-74199500D01*
X232641155Y-74199500D01*
X232486510Y-74230261D01*
X232486498Y-74230264D01*
X232340827Y-74290602D01*
X232340814Y-74290609D01*
X232209711Y-74378210D01*
X232209707Y-74378213D01*
X232098213Y-74489707D01*
X232098210Y-74489711D01*
X232010609Y-74620814D01*
X232010602Y-74620827D01*
X231950264Y-74766498D01*
X231950261Y-74766510D01*
X231919500Y-74921153D01*
X231919500Y-75078846D01*
X231950261Y-75233489D01*
X231950264Y-75233501D01*
X232010602Y-75379172D01*
X232010609Y-75379185D01*
X232098210Y-75510288D01*
X232098213Y-75510292D01*
X232209710Y-75621789D01*
X232241274Y-75642879D01*
X232257272Y-75655594D01*
X232269019Y-75666626D01*
X232272557Y-75669949D01*
X232687296Y-75960603D01*
X232703812Y-75974468D01*
X232773181Y-76043837D01*
X232806666Y-76105160D01*
X232809500Y-76131517D01*
X232809500Y-76288149D01*
X232809501Y-76288173D01*
X232812291Y-76323625D01*
X232856380Y-76475383D01*
X232856382Y-76475388D01*
X232936827Y-76611414D01*
X232936834Y-76611423D01*
X233048574Y-76723163D01*
X233048578Y-76723166D01*
X233048580Y-76723168D01*
X233184610Y-76803616D01*
X233336373Y-76847707D01*
X233371837Y-76850498D01*
X233748162Y-76850497D01*
X233783627Y-76847707D01*
X233935390Y-76803616D01*
X234071420Y-76723168D01*
X234183170Y-76611418D01*
X234263618Y-76475388D01*
X234307709Y-76323625D01*
X234310500Y-76288161D01*
X234310499Y-75911836D01*
X234307709Y-75876371D01*
X234263618Y-75724608D01*
X234255772Y-75711341D01*
X234245527Y-75689358D01*
X234242606Y-75681052D01*
X234238925Y-75662543D01*
X234233580Y-75635671D01*
X234188981Y-75528000D01*
X234187531Y-75524499D01*
X234180778Y-75508195D01*
X234180771Y-75508182D01*
X234104115Y-75393459D01*
X234081202Y-75370546D01*
X234006542Y-75295886D01*
X233694468Y-74983812D01*
X233680603Y-74967296D01*
X233666990Y-74947872D01*
X233595362Y-74845664D01*
X233573008Y-74779466D01*
X233589991Y-74711692D01*
X233640919Y-74663859D01*
X233696908Y-74650499D01*
X233748150Y-74650499D01*
X233748162Y-74650499D01*
X233783627Y-74647709D01*
X233935390Y-74603618D01*
X234071420Y-74523170D01*
X234183170Y-74411420D01*
X234263618Y-74275390D01*
X234307709Y-74123627D01*
X234310500Y-74088163D01*
X234310499Y-73711838D01*
X234307709Y-73676373D01*
X234265424Y-73530826D01*
X234260500Y-73496231D01*
X234260500Y-72984499D01*
X234280185Y-72917460D01*
X234332989Y-72871705D01*
X234384500Y-72860499D01*
X234922871Y-72860499D01*
X234922872Y-72860499D01*
X234982483Y-72854091D01*
X235117331Y-72803796D01*
X235232546Y-72717546D01*
X235318796Y-72602331D01*
X235369091Y-72467483D01*
X235375500Y-72407873D01*
X235375499Y-69812128D01*
X235369091Y-69752517D01*
X235338954Y-69671716D01*
X235318797Y-69617671D01*
X235318793Y-69617664D01*
X235232547Y-69502455D01*
X235232544Y-69502452D01*
X235117335Y-69416206D01*
X235117328Y-69416202D01*
X234982482Y-69365908D01*
X234982483Y-69365908D01*
X234922883Y-69359501D01*
X234922881Y-69359500D01*
X234922873Y-69359500D01*
X234922865Y-69359500D01*
X234424500Y-69359500D01*
X234357461Y-69339815D01*
X234311706Y-69287011D01*
X234300500Y-69235500D01*
X234300500Y-67921006D01*
X234290714Y-67871813D01*
X234290714Y-67871812D01*
X234273580Y-67785672D01*
X234273578Y-67785667D01*
X234220777Y-67658192D01*
X234144112Y-67543454D01*
X231756545Y-65155887D01*
X231641807Y-65079222D01*
X231514332Y-65026421D01*
X231514322Y-65026418D01*
X231378996Y-64999500D01*
X231378994Y-64999500D01*
X231378993Y-64999500D01*
X229680073Y-64999500D01*
X229613034Y-64979815D01*
X229567279Y-64927011D01*
X229557335Y-64857853D01*
X229586360Y-64794297D01*
X229607188Y-64775182D01*
X229650668Y-64743592D01*
X229833592Y-64560668D01*
X229985647Y-64351382D01*
X230033123Y-64258205D01*
X230081098Y-64207409D01*
X230143608Y-64190500D01*
X236378481Y-64190500D01*
X236445520Y-64210185D01*
X236466162Y-64226819D01*
X237255885Y-65016542D01*
X237255886Y-65016543D01*
X237407961Y-65168618D01*
X237543181Y-65303837D01*
X237576666Y-65365160D01*
X237579500Y-65391518D01*
X237579500Y-71777111D01*
X237559815Y-71844150D01*
X237507011Y-71889905D01*
X237468754Y-71900401D01*
X237417516Y-71905909D01*
X237282671Y-71956202D01*
X237282664Y-71956206D01*
X237167455Y-72042452D01*
X237167452Y-72042455D01*
X237081206Y-72157664D01*
X237081202Y-72157671D01*
X237030908Y-72292517D01*
X237024501Y-72352116D01*
X237024501Y-72352123D01*
X237024500Y-72352135D01*
X237024500Y-74383480D01*
X237004815Y-74450519D01*
X236988181Y-74471161D01*
X233116162Y-78343181D01*
X233054839Y-78376666D01*
X233028481Y-78379500D01*
X220574500Y-78379500D01*
X220507461Y-78359815D01*
X220461706Y-78307011D01*
X220450500Y-78255500D01*
X220450500Y-75524499D01*
X220470185Y-75457460D01*
X220522989Y-75411705D01*
X220574500Y-75400499D01*
X221072871Y-75400499D01*
X221072872Y-75400499D01*
X221132483Y-75394091D01*
X221267331Y-75343796D01*
X221382546Y-75257546D01*
X221468796Y-75142331D01*
X221519091Y-75007483D01*
X221525500Y-74947873D01*
X221525499Y-73955148D01*
X221545183Y-73888112D01*
X221597987Y-73842357D01*
X221667146Y-73832413D01*
X221730702Y-73861438D01*
X221768476Y-73920216D01*
X221772438Y-73938964D01*
X221779452Y-73992238D01*
X221834987Y-74199500D01*
X221838842Y-74213887D01*
X221926650Y-74425876D01*
X221926657Y-74425890D01*
X222041392Y-74624617D01*
X222181081Y-74806661D01*
X222181089Y-74806670D01*
X222343330Y-74968911D01*
X222343338Y-74968918D01*
X222525382Y-75108607D01*
X222525385Y-75108608D01*
X222525388Y-75108611D01*
X222724112Y-75223344D01*
X222724117Y-75223346D01*
X222724123Y-75223349D01*
X222806678Y-75257544D01*
X222936113Y-75311158D01*
X223157762Y-75370548D01*
X223374312Y-75399057D01*
X223385250Y-75400498D01*
X223385266Y-75400500D01*
X223385273Y-75400500D01*
X223614727Y-75400500D01*
X223614734Y-75400500D01*
X223842238Y-75370548D01*
X224063887Y-75311158D01*
X224275888Y-75223344D01*
X224474612Y-75108611D01*
X224656661Y-74968919D01*
X224656665Y-74968914D01*
X224656670Y-74968911D01*
X224818911Y-74806670D01*
X224818914Y-74806665D01*
X224818919Y-74806661D01*
X224958611Y-74624612D01*
X225073344Y-74425888D01*
X225161158Y-74213887D01*
X225220548Y-73992238D01*
X225250500Y-73764734D01*
X225250500Y-73535266D01*
X225220548Y-73307762D01*
X225161158Y-73086113D01*
X225097731Y-72932987D01*
X225073349Y-72874123D01*
X225073346Y-72874117D01*
X225073344Y-72874112D01*
X224958611Y-72675388D01*
X224958608Y-72675385D01*
X224958607Y-72675382D01*
X224818918Y-72493338D01*
X224818911Y-72493330D01*
X224656670Y-72331089D01*
X224656661Y-72331081D01*
X224474617Y-72191392D01*
X224416210Y-72157671D01*
X224275888Y-72076656D01*
X224275876Y-72076650D01*
X224063887Y-71988842D01*
X224042058Y-71982993D01*
X223842238Y-71929452D01*
X223804215Y-71924446D01*
X223614741Y-71899500D01*
X223614734Y-71899500D01*
X223385266Y-71899500D01*
X223385258Y-71899500D01*
X223168715Y-71928009D01*
X223157762Y-71929452D01*
X223150022Y-71931526D01*
X222936112Y-71988842D01*
X222724123Y-72076650D01*
X222724109Y-72076657D01*
X222525382Y-72191392D01*
X222343338Y-72331081D01*
X222181081Y-72493338D01*
X222041392Y-72675382D01*
X221926657Y-72874109D01*
X221926650Y-72874123D01*
X221838842Y-73086112D01*
X221779453Y-73307759D01*
X221779451Y-73307769D01*
X221772438Y-73361036D01*
X221744171Y-73424932D01*
X221685846Y-73463402D01*
X221615981Y-73464233D01*
X221556758Y-73427160D01*
X221526980Y-73363954D01*
X221525499Y-73344849D01*
X221525499Y-72352129D01*
X221525498Y-72352123D01*
X221525497Y-72352116D01*
X221519091Y-72292517D01*
X221518152Y-72290000D01*
X221468797Y-72157671D01*
X221468793Y-72157664D01*
X221382547Y-72042455D01*
X221382544Y-72042452D01*
X221267335Y-71956206D01*
X221267328Y-71956202D01*
X221132482Y-71905908D01*
X221132483Y-71905908D01*
X221072883Y-71899501D01*
X221072881Y-71899500D01*
X221072873Y-71899500D01*
X221072864Y-71899500D01*
X218427129Y-71899500D01*
X218427123Y-71899501D01*
X218367516Y-71905908D01*
X218298833Y-71931526D01*
X218229141Y-71936510D01*
X218167818Y-71903025D01*
X218134334Y-71841701D01*
X218131500Y-71815344D01*
X218131500Y-65370461D01*
X218151185Y-65303422D01*
X218167819Y-65282780D01*
X221183780Y-62266819D01*
X221245103Y-62233334D01*
X221271461Y-62230500D01*
X226698996Y-62230500D01*
X226790040Y-62212389D01*
X226834328Y-62203580D01*
X226898069Y-62177177D01*
X226961807Y-62150777D01*
X226961808Y-62150776D01*
X226961811Y-62150775D01*
X227076543Y-62074114D01*
X229030946Y-60119711D01*
X231046331Y-58104327D01*
X251199500Y-58104327D01*
X251199500Y-58480648D01*
X251199501Y-58480673D01*
X251202291Y-58516125D01*
X251246380Y-58667883D01*
X251246382Y-58667888D01*
X251326827Y-58803914D01*
X251326834Y-58803923D01*
X251438574Y-58915663D01*
X251438583Y-58915670D01*
X251486998Y-58944302D01*
X251574610Y-58996116D01*
X251668569Y-59023413D01*
X251681518Y-59031071D01*
X251693398Y-59033656D01*
X251721652Y-59054807D01*
X251822660Y-59155815D01*
X251856145Y-59217138D01*
X251858351Y-59255963D01*
X251853892Y-59300081D01*
X251852319Y-59322037D01*
X251850258Y-59337340D01*
X251849501Y-59341146D01*
X251849500Y-59341162D01*
X251849500Y-59498846D01*
X251880261Y-59653489D01*
X251880264Y-59653501D01*
X251940602Y-59799172D01*
X251940609Y-59799185D01*
X252028210Y-59930288D01*
X252028213Y-59930292D01*
X252139707Y-60041786D01*
X252139711Y-60041789D01*
X252270814Y-60129390D01*
X252270827Y-60129397D01*
X252416498Y-60189735D01*
X252416503Y-60189737D01*
X252571153Y-60220499D01*
X252571156Y-60220500D01*
X252571158Y-60220500D01*
X252728844Y-60220500D01*
X252728845Y-60220499D01*
X252883497Y-60189737D01*
X253029179Y-60129394D01*
X253160289Y-60041789D01*
X253271789Y-59930289D01*
X253359394Y-59799179D01*
X253419737Y-59653497D01*
X253450500Y-59498842D01*
X253450500Y-59341158D01*
X253450500Y-59341155D01*
X253450499Y-59341153D01*
X253442329Y-59300080D01*
X253419737Y-59186503D01*
X253407026Y-59155815D01*
X253359939Y-59042134D01*
X253351402Y-59009608D01*
X253350500Y-59002169D01*
X253350500Y-58923505D01*
X253326983Y-58805276D01*
X253323580Y-58788169D01*
X253300067Y-58731404D01*
X253270775Y-58660687D01*
X253270774Y-58660686D01*
X253270771Y-58660680D01*
X253194115Y-58545957D01*
X253158847Y-58510689D01*
X253096542Y-58448384D01*
X253027000Y-58378842D01*
X252712309Y-58064150D01*
X252680915Y-58011067D01*
X252653618Y-57917108D01*
X252573170Y-57781078D01*
X252573168Y-57781076D01*
X252573165Y-57781072D01*
X252461425Y-57669332D01*
X252461416Y-57669325D01*
X252325390Y-57588880D01*
X252325385Y-57588878D01*
X252173633Y-57544790D01*
X252173620Y-57544788D01*
X252138163Y-57541998D01*
X251761849Y-57541998D01*
X251761824Y-57541999D01*
X251726372Y-57544789D01*
X251574614Y-57588878D01*
X251574609Y-57588880D01*
X251438583Y-57669325D01*
X251438574Y-57669332D01*
X251326834Y-57781072D01*
X251326827Y-57781081D01*
X251246382Y-57917107D01*
X251246380Y-57917112D01*
X251202292Y-58068864D01*
X251202290Y-58068877D01*
X251199500Y-58104327D01*
X231046331Y-58104327D01*
X231136439Y-58014219D01*
X233584111Y-55566546D01*
X233584112Y-55566545D01*
X233584114Y-55566543D01*
X233660775Y-55451811D01*
X233713580Y-55324328D01*
X233740500Y-55188994D01*
X233740500Y-55051006D01*
X233740500Y-53943309D01*
X233750481Y-53894569D01*
X233755432Y-53882987D01*
X234079534Y-53124810D01*
X234123984Y-53070906D01*
X234144807Y-53059535D01*
X234914568Y-52730480D01*
X234963308Y-52720500D01*
X236368481Y-52720500D01*
X236435520Y-52740185D01*
X236456162Y-52756819D01*
X236983181Y-53283838D01*
X237016666Y-53345161D01*
X237019500Y-53371519D01*
X237019500Y-53648993D01*
X237022117Y-53662152D01*
X237024500Y-53686341D01*
X237024500Y-55897870D01*
X237024501Y-55897876D01*
X237030908Y-55957483D01*
X237081202Y-56092328D01*
X237081206Y-56092335D01*
X237167452Y-56207544D01*
X237167455Y-56207547D01*
X237282664Y-56293793D01*
X237282671Y-56293797D01*
X237417517Y-56344091D01*
X237417516Y-56344091D01*
X237424444Y-56344835D01*
X237477127Y-56350500D01*
X240122872Y-56350499D01*
X240182483Y-56344091D01*
X240317331Y-56293796D01*
X240432546Y-56207546D01*
X240518796Y-56092331D01*
X240569091Y-55957483D01*
X240575500Y-55897873D01*
X240575499Y-54905148D01*
X240595183Y-54838112D01*
X240647987Y-54792357D01*
X240717146Y-54782413D01*
X240780702Y-54811438D01*
X240818476Y-54870216D01*
X240822438Y-54888964D01*
X240829452Y-54942238D01*
X240857919Y-55048480D01*
X240888842Y-55163887D01*
X240976650Y-55375876D01*
X240976657Y-55375890D01*
X241091392Y-55574617D01*
X241231081Y-55756661D01*
X241231089Y-55756670D01*
X241393330Y-55918911D01*
X241393338Y-55918918D01*
X241575382Y-56058607D01*
X241575385Y-56058608D01*
X241575388Y-56058611D01*
X241774112Y-56173344D01*
X241774117Y-56173346D01*
X241774123Y-56173349D01*
X241856678Y-56207544D01*
X241986113Y-56261158D01*
X242207762Y-56320548D01*
X242424312Y-56349057D01*
X242435250Y-56350498D01*
X242435266Y-56350500D01*
X242435273Y-56350500D01*
X242664727Y-56350500D01*
X242664734Y-56350500D01*
X242892238Y-56320548D01*
X243113887Y-56261158D01*
X243325888Y-56173344D01*
X243524612Y-56058611D01*
X243706661Y-55918919D01*
X243706665Y-55918914D01*
X243706670Y-55918911D01*
X243868911Y-55756670D01*
X243868914Y-55756665D01*
X243868919Y-55756661D01*
X244008611Y-55574612D01*
X244123344Y-55375888D01*
X244211158Y-55163887D01*
X244270548Y-54942238D01*
X244300500Y-54714734D01*
X244300500Y-54485266D01*
X244270548Y-54257762D01*
X244211158Y-54036113D01*
X244147731Y-53882987D01*
X244123349Y-53824123D01*
X244123346Y-53824117D01*
X244123344Y-53824112D01*
X244008611Y-53625388D01*
X244008608Y-53625385D01*
X244008607Y-53625382D01*
X243868918Y-53443338D01*
X243868911Y-53443330D01*
X243706670Y-53281089D01*
X243706661Y-53281081D01*
X243524617Y-53141392D01*
X243466210Y-53107671D01*
X243416693Y-53079082D01*
X243325890Y-53026657D01*
X243325876Y-53026650D01*
X243113887Y-52938842D01*
X243026772Y-52915500D01*
X242892238Y-52879452D01*
X242854215Y-52874446D01*
X242664741Y-52849500D01*
X242664734Y-52849500D01*
X242435266Y-52849500D01*
X242435258Y-52849500D01*
X242218715Y-52878009D01*
X242207762Y-52879452D01*
X242166545Y-52890496D01*
X241986112Y-52938842D01*
X241774123Y-53026650D01*
X241774109Y-53026657D01*
X241575382Y-53141392D01*
X241393338Y-53281081D01*
X241231081Y-53443338D01*
X241091392Y-53625382D01*
X240976657Y-53824109D01*
X240976650Y-53824123D01*
X240888842Y-54036112D01*
X240879230Y-54071985D01*
X240835946Y-54233528D01*
X240829453Y-54257759D01*
X240829451Y-54257769D01*
X240822438Y-54311036D01*
X240794171Y-54374932D01*
X240735846Y-54413402D01*
X240665981Y-54414233D01*
X240606758Y-54377160D01*
X240576980Y-54313954D01*
X240575499Y-54294849D01*
X240575499Y-53302129D01*
X240575498Y-53302123D01*
X240573823Y-53286543D01*
X240569091Y-53242517D01*
X240563755Y-53228211D01*
X240518797Y-53107671D01*
X240518793Y-53107664D01*
X240432547Y-52992455D01*
X240432544Y-52992452D01*
X240317335Y-52906206D01*
X240317328Y-52906202D01*
X240182482Y-52855908D01*
X240182483Y-52855908D01*
X240122883Y-52849501D01*
X240122881Y-52849500D01*
X240122873Y-52849500D01*
X240122865Y-52849500D01*
X238581519Y-52849500D01*
X238514480Y-52829815D01*
X238493838Y-52813181D01*
X237926819Y-52246162D01*
X237893334Y-52184839D01*
X237890500Y-52158481D01*
X237890500Y-47261519D01*
X237910185Y-47194480D01*
X237926819Y-47173838D01*
X239923838Y-45176819D01*
X239985161Y-45143334D01*
X240011519Y-45140500D01*
X240840016Y-45140500D01*
X240907055Y-45160185D01*
G37*
%TD.AperFunction*%
%TA.AperFunction,Conductor*%
G36*
X195665203Y-58780066D02*
G01*
X195687102Y-58804888D01*
X195688308Y-58806693D01*
X195690712Y-58810291D01*
X195802207Y-58921786D01*
X195802215Y-58921792D01*
X195868972Y-58966398D01*
X195876615Y-58971936D01*
X195904410Y-58993740D01*
X196292426Y-59217138D01*
X196318912Y-59232387D01*
X196344722Y-59252168D01*
X196657824Y-59565271D01*
X196657827Y-59565274D01*
X196657830Y-59565276D01*
X196724382Y-59609744D01*
X196764373Y-59636465D01*
X196882756Y-59685501D01*
X196882760Y-59685501D01*
X196882761Y-59685502D01*
X197008428Y-59710500D01*
X197008431Y-59710500D01*
X197660672Y-59710500D01*
X197727711Y-59730185D01*
X197748353Y-59746819D01*
X209436204Y-71434669D01*
X209526811Y-71525276D01*
X209526812Y-71525277D01*
X209633346Y-71596461D01*
X209633352Y-71596464D01*
X209633353Y-71596465D01*
X209751736Y-71645501D01*
X209751740Y-71645501D01*
X209751741Y-71645502D01*
X209877408Y-71670500D01*
X209877411Y-71670500D01*
X209911142Y-71670500D01*
X209978181Y-71690185D01*
X210023936Y-71742989D01*
X210033880Y-71812147D01*
X210029073Y-71832818D01*
X209983242Y-71973869D01*
X209983242Y-71973872D01*
X209950000Y-72183753D01*
X209950000Y-72396246D01*
X209983242Y-72606127D01*
X209983242Y-72606130D01*
X210048904Y-72808217D01*
X210145375Y-72997550D01*
X210184728Y-73051716D01*
X210817036Y-72419407D01*
X210834075Y-72482993D01*
X210899901Y-72597007D01*
X210992993Y-72690099D01*
X211107007Y-72755925D01*
X211170590Y-72772962D01*
X210538282Y-73405269D01*
X210538282Y-73405270D01*
X210592449Y-73444624D01*
X210781782Y-73541095D01*
X210983870Y-73606757D01*
X211193754Y-73640000D01*
X211406246Y-73640000D01*
X211616127Y-73606757D01*
X211616130Y-73606757D01*
X211818217Y-73541095D01*
X212007554Y-73444622D01*
X212061716Y-73405270D01*
X212061717Y-73405270D01*
X211429408Y-72772962D01*
X211492993Y-72755925D01*
X211607007Y-72690099D01*
X211700099Y-72597007D01*
X211765925Y-72482993D01*
X211782962Y-72419408D01*
X212427140Y-73063586D01*
X212451169Y-73068632D01*
X212480209Y-73090209D01*
X213373681Y-73983681D01*
X213407166Y-74045004D01*
X213410000Y-74071362D01*
X213410000Y-75788039D01*
X213390315Y-75855078D01*
X213373681Y-75875720D01*
X211366220Y-77883181D01*
X211304897Y-77916666D01*
X211278539Y-77919500D01*
X207495109Y-77919500D01*
X207473626Y-77917625D01*
X207468174Y-77916666D01*
X206974837Y-77829884D01*
X206974825Y-77829882D01*
X206974802Y-77829879D01*
X206927525Y-77823846D01*
X206926617Y-77823817D01*
X206906383Y-77821497D01*
X206896342Y-77819500D01*
X206738658Y-77819500D01*
X206738655Y-77819500D01*
X206584010Y-77850261D01*
X206583998Y-77850264D01*
X206438327Y-77910602D01*
X206438314Y-77910609D01*
X206307211Y-77998210D01*
X206307207Y-77998213D01*
X206195713Y-78109707D01*
X206172400Y-78144598D01*
X206151269Y-78162256D01*
X206132491Y-78182396D01*
X206124841Y-78184342D01*
X206118787Y-78189402D01*
X206091469Y-78192833D01*
X206064778Y-78199624D01*
X206057290Y-78197125D01*
X206049462Y-78198109D01*
X206024625Y-78186226D01*
X205998501Y-78177509D01*
X205990488Y-78169893D01*
X205986435Y-78167954D01*
X205972688Y-78153439D01*
X205971931Y-78152498D01*
X205958272Y-78134842D01*
X205956390Y-78133183D01*
X205951473Y-78127072D01*
X205950897Y-78125678D01*
X205944984Y-78118234D01*
X205939289Y-78109711D01*
X205827789Y-77998211D01*
X205827788Y-77998210D01*
X205827787Y-77998209D01*
X205696685Y-77910609D01*
X205696672Y-77910602D01*
X205551001Y-77850264D01*
X205550989Y-77850261D01*
X205396345Y-77819500D01*
X205396342Y-77819500D01*
X205238658Y-77819500D01*
X205238655Y-77819500D01*
X205084010Y-77850261D01*
X205083998Y-77850264D01*
X204938327Y-77910602D01*
X204938314Y-77910609D01*
X204807211Y-77998210D01*
X204807207Y-77998213D01*
X204695713Y-78109707D01*
X204695708Y-78109714D01*
X204681408Y-78131115D01*
X204661374Y-78147857D01*
X204644031Y-78167372D01*
X204634995Y-78169902D01*
X204627795Y-78175920D01*
X204601888Y-78179173D01*
X204576750Y-78186213D01*
X204567781Y-78183456D01*
X204558470Y-78184626D01*
X204534917Y-78173357D01*
X204509963Y-78165688D01*
X204500038Y-78156668D01*
X204495443Y-78154470D01*
X204483582Y-78142242D01*
X204482658Y-78141148D01*
X204476955Y-78134084D01*
X204460311Y-78114694D01*
X204459978Y-78114300D01*
X204459882Y-78114083D01*
X204451600Y-78103170D01*
X204449288Y-78099709D01*
X204337792Y-77988213D01*
X204337788Y-77988210D01*
X204206685Y-77900609D01*
X204206672Y-77900602D01*
X204061001Y-77840264D01*
X204060989Y-77840261D01*
X203906345Y-77809500D01*
X203906342Y-77809500D01*
X203748658Y-77809500D01*
X203748655Y-77809500D01*
X203594010Y-77840261D01*
X203593998Y-77840264D01*
X203448327Y-77900602D01*
X203448314Y-77900609D01*
X203317211Y-77988210D01*
X203317207Y-77988213D01*
X203205713Y-78099707D01*
X203182400Y-78134598D01*
X203161269Y-78152256D01*
X203142491Y-78172396D01*
X203134841Y-78174342D01*
X203128787Y-78179402D01*
X203101469Y-78182833D01*
X203074778Y-78189624D01*
X203067290Y-78187125D01*
X203059462Y-78188109D01*
X203034625Y-78176226D01*
X203008501Y-78167509D01*
X203000488Y-78159893D01*
X202996435Y-78157954D01*
X202982688Y-78143439D01*
X202981931Y-78142498D01*
X202968272Y-78124842D01*
X202966390Y-78123183D01*
X202961473Y-78117072D01*
X202960897Y-78115678D01*
X202954984Y-78108234D01*
X202949289Y-78099711D01*
X202837789Y-77988211D01*
X202837788Y-77988210D01*
X202837787Y-77988209D01*
X202706685Y-77900609D01*
X202706672Y-77900602D01*
X202561001Y-77840264D01*
X202560989Y-77840261D01*
X202406345Y-77809500D01*
X202406342Y-77809500D01*
X202248658Y-77809500D01*
X202248655Y-77809500D01*
X202094010Y-77840261D01*
X202093998Y-77840264D01*
X201948327Y-77900602D01*
X201948314Y-77900609D01*
X201817211Y-77988210D01*
X201817207Y-77988213D01*
X201705713Y-78099707D01*
X201682400Y-78134598D01*
X201661269Y-78152256D01*
X201642491Y-78172396D01*
X201634841Y-78174342D01*
X201628787Y-78179402D01*
X201601469Y-78182833D01*
X201574778Y-78189624D01*
X201567290Y-78187125D01*
X201559462Y-78188109D01*
X201534625Y-78176226D01*
X201508501Y-78167509D01*
X201500488Y-78159893D01*
X201496435Y-78157954D01*
X201482688Y-78143439D01*
X201481931Y-78142498D01*
X201468272Y-78124842D01*
X201466390Y-78123183D01*
X201461473Y-78117072D01*
X201460897Y-78115678D01*
X201454984Y-78108234D01*
X201449289Y-78099711D01*
X201337789Y-77988211D01*
X201337788Y-77988210D01*
X201337787Y-77988209D01*
X201206685Y-77900609D01*
X201206672Y-77900602D01*
X201061001Y-77840264D01*
X201060989Y-77840261D01*
X200906345Y-77809500D01*
X200906342Y-77809500D01*
X200748658Y-77809500D01*
X200748655Y-77809500D01*
X200594010Y-77840261D01*
X200593998Y-77840264D01*
X200448327Y-77900602D01*
X200448314Y-77900609D01*
X200317211Y-77988210D01*
X200317207Y-77988213D01*
X200205713Y-78099707D01*
X200182400Y-78134598D01*
X200161269Y-78152256D01*
X200142491Y-78172396D01*
X200134841Y-78174342D01*
X200128787Y-78179402D01*
X200101469Y-78182833D01*
X200074778Y-78189624D01*
X200067290Y-78187125D01*
X200059462Y-78188109D01*
X200034625Y-78176226D01*
X200008501Y-78167509D01*
X200000488Y-78159893D01*
X199996435Y-78157954D01*
X199982688Y-78143439D01*
X199981931Y-78142498D01*
X199968272Y-78124842D01*
X199966390Y-78123183D01*
X199961473Y-78117072D01*
X199960897Y-78115678D01*
X199954984Y-78108234D01*
X199949289Y-78099711D01*
X199837789Y-77988211D01*
X199837788Y-77988210D01*
X199837787Y-77988209D01*
X199706685Y-77900609D01*
X199706672Y-77900602D01*
X199561001Y-77840264D01*
X199560989Y-77840261D01*
X199406345Y-77809500D01*
X199406342Y-77809500D01*
X199248658Y-77809500D01*
X199248655Y-77809500D01*
X199094010Y-77840261D01*
X199093998Y-77840264D01*
X198948327Y-77900602D01*
X198948314Y-77900609D01*
X198817211Y-77988210D01*
X198817207Y-77988213D01*
X198705713Y-78099707D01*
X198705710Y-78099711D01*
X198678511Y-78140418D01*
X198624899Y-78185223D01*
X198555574Y-78193930D01*
X198492546Y-78163775D01*
X198472307Y-78140418D01*
X198451789Y-78109710D01*
X198340292Y-77998213D01*
X198340288Y-77998210D01*
X198209185Y-77910609D01*
X198209172Y-77910602D01*
X198063501Y-77850264D01*
X198063489Y-77850261D01*
X197908845Y-77819500D01*
X197908842Y-77819500D01*
X197751158Y-77819500D01*
X197751155Y-77819500D01*
X197596510Y-77850261D01*
X197596498Y-77850264D01*
X197450827Y-77910602D01*
X197450814Y-77910609D01*
X197319711Y-77998210D01*
X197319707Y-77998213D01*
X197208213Y-78109707D01*
X197208208Y-78109713D01*
X197164579Y-78175008D01*
X197110967Y-78219812D01*
X197041641Y-78228519D01*
X196978614Y-78198364D01*
X196973797Y-78193797D01*
X195496319Y-76716319D01*
X195462834Y-76654996D01*
X195460000Y-76628638D01*
X195460000Y-58873779D01*
X195479685Y-58806740D01*
X195532489Y-58760985D01*
X195601647Y-58751041D01*
X195665203Y-58780066D01*
G37*
%TD.AperFunction*%
%TA.AperFunction,Conductor*%
G36*
X214724810Y-40515185D02*
G01*
X214770565Y-40567989D01*
X214780509Y-40637147D01*
X214751484Y-40700703D01*
X214711573Y-40731220D01*
X214575885Y-40796563D01*
X214323816Y-40954949D01*
X214091066Y-41140561D01*
X213880561Y-41351066D01*
X213694949Y-41583816D01*
X213536563Y-41835885D01*
X213407400Y-42104095D01*
X213309079Y-42385079D01*
X213309076Y-42385087D01*
X213242832Y-42675325D01*
X213242830Y-42675337D01*
X213209500Y-42971146D01*
X213209500Y-43268853D01*
X213242830Y-43564662D01*
X213242831Y-43564671D01*
X213242832Y-43564675D01*
X213259393Y-43637233D01*
X213309076Y-43854912D01*
X213309079Y-43854920D01*
X213407400Y-44135904D01*
X213536563Y-44404114D01*
X213536565Y-44404117D01*
X213694950Y-44656185D01*
X213880562Y-44888934D01*
X214091066Y-45099438D01*
X214323815Y-45285050D01*
X214575883Y-45443435D01*
X214844099Y-45572601D01*
X215047878Y-45643906D01*
X215125079Y-45670920D01*
X215125087Y-45670923D01*
X215125090Y-45670923D01*
X215125091Y-45670924D01*
X215415325Y-45737168D01*
X215711147Y-45770499D01*
X215711148Y-45770500D01*
X215711151Y-45770500D01*
X216008852Y-45770500D01*
X216008852Y-45770499D01*
X216304675Y-45737168D01*
X216594909Y-45670924D01*
X216875901Y-45572601D01*
X217144117Y-45443435D01*
X217396185Y-45285050D01*
X217628934Y-45099438D01*
X217839438Y-44888934D01*
X218025050Y-44656185D01*
X218183435Y-44404117D01*
X218312601Y-44135901D01*
X218410924Y-43854909D01*
X218431121Y-43766420D01*
X218450407Y-43681924D01*
X218450407Y-43681923D01*
X218453128Y-43669999D01*
X222555654Y-43669999D01*
X222555655Y-43670000D01*
X224920137Y-43670000D01*
X224890000Y-43821509D01*
X224890000Y-44018491D01*
X224920137Y-44170000D01*
X222555655Y-44170000D01*
X222574221Y-44311016D01*
X222642075Y-44564255D01*
X222742404Y-44806471D01*
X222742409Y-44806482D01*
X222873496Y-45033528D01*
X223033092Y-45241519D01*
X223033098Y-45241526D01*
X223218473Y-45426901D01*
X223218480Y-45426907D01*
X223426471Y-45586503D01*
X223653517Y-45717590D01*
X223653528Y-45717595D01*
X223895744Y-45817924D01*
X224148979Y-45885777D01*
X224148990Y-45885779D01*
X224408905Y-45919999D01*
X224408920Y-45920000D01*
X225790000Y-45920000D01*
X225790000Y-44919699D01*
X225791509Y-44920000D01*
X226288491Y-44920000D01*
X226290000Y-44919699D01*
X226290000Y-45920000D01*
X227671080Y-45920000D01*
X227671094Y-45919999D01*
X227931009Y-45885779D01*
X227931020Y-45885777D01*
X228184255Y-45817924D01*
X228426471Y-45717595D01*
X228426482Y-45717590D01*
X228653528Y-45586503D01*
X228861519Y-45426907D01*
X228861526Y-45426901D01*
X229046901Y-45241526D01*
X229046907Y-45241519D01*
X229206503Y-45033528D01*
X229337590Y-44806482D01*
X229337595Y-44806471D01*
X229437924Y-44564255D01*
X229505778Y-44311016D01*
X229524345Y-44170000D01*
X227159863Y-44170000D01*
X227190000Y-44018491D01*
X227190000Y-43821509D01*
X227159863Y-43670000D01*
X229524345Y-43670000D01*
X229524345Y-43669999D01*
X229505778Y-43528983D01*
X229437924Y-43275744D01*
X229337595Y-43033528D01*
X229337590Y-43033517D01*
X229206503Y-42806471D01*
X229046907Y-42598480D01*
X229046901Y-42598473D01*
X228861526Y-42413098D01*
X228861519Y-42413092D01*
X228653528Y-42253496D01*
X228426482Y-42122409D01*
X228426471Y-42122404D01*
X228184255Y-42022075D01*
X227931020Y-41954222D01*
X227931009Y-41954220D01*
X227671094Y-41920000D01*
X226290000Y-41920000D01*
X226290000Y-42920300D01*
X226288491Y-42920000D01*
X225791509Y-42920000D01*
X225790000Y-42920300D01*
X225790000Y-41920000D01*
X224408905Y-41920000D01*
X224148990Y-41954220D01*
X224148979Y-41954222D01*
X223895744Y-42022075D01*
X223653528Y-42122404D01*
X223653517Y-42122409D01*
X223426471Y-42253496D01*
X223218480Y-42413092D01*
X223218473Y-42413098D01*
X223033098Y-42598473D01*
X223033092Y-42598480D01*
X222873496Y-42806471D01*
X222742409Y-43033517D01*
X222742404Y-43033528D01*
X222642075Y-43275744D01*
X222574221Y-43528983D01*
X222555654Y-43669999D01*
X218453128Y-43669999D01*
X218459488Y-43642135D01*
X218477168Y-43564675D01*
X218510500Y-43268849D01*
X218510500Y-42971151D01*
X218477168Y-42675325D01*
X218410924Y-42385091D01*
X218312601Y-42104099D01*
X218183435Y-41835883D01*
X218025050Y-41583815D01*
X217839438Y-41351066D01*
X217628934Y-41140562D01*
X217396185Y-40954950D01*
X217144117Y-40796565D01*
X217144114Y-40796563D01*
X217008427Y-40731220D01*
X216956568Y-40684398D01*
X216938255Y-40616971D01*
X216959303Y-40550347D01*
X217013029Y-40505678D01*
X217062229Y-40495500D01*
X252524108Y-40495500D01*
X252585572Y-40495500D01*
X252594418Y-40495816D01*
X252794561Y-40510130D01*
X252812063Y-40512647D01*
X253003797Y-40554355D01*
X253020755Y-40559334D01*
X253204609Y-40627909D01*
X253220701Y-40635259D01*
X253392904Y-40729288D01*
X253407784Y-40738849D01*
X253564867Y-40856441D01*
X253578237Y-40868027D01*
X253716972Y-41006762D01*
X253728558Y-41020132D01*
X253827822Y-41152733D01*
X253846146Y-41177210D01*
X253855711Y-41192095D01*
X253949740Y-41364298D01*
X253957090Y-41380390D01*
X254025662Y-41564236D01*
X254030646Y-41581212D01*
X254072351Y-41772931D01*
X254074869Y-41790442D01*
X254089184Y-41990580D01*
X254089500Y-41999427D01*
X254089500Y-50185500D01*
X254069815Y-50252539D01*
X254017011Y-50298294D01*
X253965500Y-50309500D01*
X253474500Y-50309500D01*
X253407461Y-50289815D01*
X253361706Y-50237011D01*
X253350500Y-50185500D01*
X253350500Y-48761004D01*
X253350499Y-48760998D01*
X253331148Y-48663719D01*
X253323580Y-48625672D01*
X253322680Y-48623500D01*
X253292236Y-48550000D01*
X253286870Y-48537047D01*
X253270778Y-48498195D01*
X253270771Y-48498182D01*
X253194115Y-48383459D01*
X253148590Y-48337934D01*
X253096542Y-48285886D01*
X252564678Y-47754022D01*
X250926546Y-46115888D01*
X250926545Y-46115887D01*
X250811807Y-46039222D01*
X250684332Y-45986421D01*
X250684322Y-45986418D01*
X250548996Y-45959500D01*
X250548994Y-45959500D01*
X250548993Y-45959500D01*
X248716310Y-45959500D01*
X248649271Y-45939815D01*
X248603516Y-45887011D01*
X248593572Y-45817853D01*
X248622597Y-45754297D01*
X248643424Y-45735182D01*
X248700668Y-45693592D01*
X248883592Y-45510668D01*
X249035647Y-45301382D01*
X249153091Y-45070885D01*
X249233032Y-44824854D01*
X249253321Y-44696751D01*
X249273500Y-44569351D01*
X249273500Y-44310648D01*
X249238478Y-44089534D01*
X249233032Y-44055146D01*
X249153091Y-43809115D01*
X249035647Y-43578618D01*
X248883592Y-43369332D01*
X248700668Y-43186408D01*
X248491382Y-43034353D01*
X248260885Y-42916909D01*
X248014854Y-42836968D01*
X248014852Y-42836967D01*
X248014850Y-42836967D01*
X247759351Y-42796500D01*
X247759346Y-42796500D01*
X247500654Y-42796500D01*
X247500649Y-42796500D01*
X247245149Y-42836967D01*
X247245146Y-42836968D01*
X247056243Y-42898347D01*
X246999112Y-42916910D01*
X246768617Y-43034353D01*
X246559329Y-43186410D01*
X246376410Y-43369329D01*
X246224353Y-43578617D01*
X246176877Y-43671795D01*
X246128902Y-43722591D01*
X246066392Y-43739500D01*
X239601004Y-43739500D01*
X239465677Y-43766418D01*
X239465667Y-43766421D01*
X239338192Y-43819222D01*
X239223454Y-43895887D01*
X236645887Y-46473454D01*
X236569224Y-46588189D01*
X236537849Y-46663936D01*
X236494007Y-46718339D01*
X236427713Y-46740403D01*
X236360014Y-46723123D01*
X236312404Y-46671986D01*
X236304213Y-46651081D01*
X236293618Y-46614610D01*
X236213170Y-46478580D01*
X236213168Y-46478578D01*
X236213165Y-46478574D01*
X236101425Y-46366834D01*
X236101416Y-46366827D01*
X235965390Y-46286382D01*
X235965385Y-46286380D01*
X235813633Y-46242292D01*
X235813620Y-46242290D01*
X235778163Y-46239500D01*
X235401849Y-46239500D01*
X235401824Y-46239501D01*
X235366375Y-46242290D01*
X235220823Y-46284577D01*
X235186229Y-46289500D01*
X235055305Y-46289500D01*
X234988266Y-46269815D01*
X234981259Y-46264965D01*
X234471901Y-45885777D01*
X234249960Y-45720554D01*
X234235929Y-45710476D01*
X234235921Y-45710471D01*
X234222463Y-45703753D01*
X234222463Y-45703754D01*
X234212471Y-45698767D01*
X234182331Y-45676204D01*
X234122727Y-45653973D01*
X234116843Y-45651036D01*
X234116842Y-45651035D01*
X234107195Y-45646220D01*
X234100216Y-45643906D01*
X234092499Y-45641938D01*
X234079810Y-45637966D01*
X234047486Y-45625910D01*
X234047484Y-45625909D01*
X234047483Y-45625909D01*
X234047482Y-45625908D01*
X234047479Y-45625908D01*
X233987883Y-45619501D01*
X233987881Y-45619500D01*
X233987873Y-45619500D01*
X233987864Y-45619500D01*
X232092129Y-45619500D01*
X232092123Y-45619501D01*
X232032516Y-45625908D01*
X231897671Y-45676202D01*
X231897664Y-45676206D01*
X231782455Y-45762452D01*
X231782452Y-45762455D01*
X231696206Y-45877664D01*
X231696202Y-45877671D01*
X231645908Y-46012517D01*
X231639501Y-46072116D01*
X231639500Y-46072135D01*
X231639500Y-47967870D01*
X231639501Y-47967876D01*
X231645908Y-48027483D01*
X231696202Y-48162328D01*
X231696206Y-48162335D01*
X231782452Y-48277544D01*
X231782455Y-48277547D01*
X231897664Y-48363793D01*
X231897671Y-48363797D01*
X232032517Y-48414091D01*
X232032516Y-48414091D01*
X232039444Y-48414835D01*
X232092127Y-48420500D01*
X233987872Y-48420499D01*
X234047483Y-48414091D01*
X234182331Y-48363796D01*
X234297546Y-48277546D01*
X234308060Y-48263500D01*
X234330181Y-48240732D01*
X234988796Y-47717415D01*
X235010914Y-47708431D01*
X235031001Y-47695523D01*
X235049101Y-47692920D01*
X235053529Y-47691122D01*
X235065936Y-47690500D01*
X235186229Y-47690500D01*
X235220822Y-47695422D01*
X235366373Y-47737709D01*
X235401837Y-47740500D01*
X235778162Y-47740499D01*
X235813627Y-47737709D01*
X235965390Y-47693618D01*
X236101420Y-47613170D01*
X236213170Y-47501420D01*
X236258768Y-47424317D01*
X236309837Y-47376635D01*
X236378579Y-47364131D01*
X236443168Y-47390776D01*
X236483098Y-47448112D01*
X236489500Y-47487439D01*
X236489500Y-48692560D01*
X236469815Y-48759599D01*
X236417011Y-48805354D01*
X236347853Y-48815298D01*
X236284297Y-48786273D01*
X236258768Y-48755681D01*
X236213172Y-48678583D01*
X236213165Y-48678574D01*
X236101425Y-48566834D01*
X236101416Y-48566827D01*
X235965390Y-48486382D01*
X235965385Y-48486380D01*
X235813633Y-48442292D01*
X235813620Y-48442290D01*
X235778163Y-48439500D01*
X235401849Y-48439500D01*
X235401824Y-48439501D01*
X235366372Y-48442291D01*
X235214614Y-48486380D01*
X235214609Y-48486382D01*
X235078583Y-48566827D01*
X235078574Y-48566834D01*
X234966834Y-48678574D01*
X234966827Y-48678583D01*
X234886382Y-48814609D01*
X234886380Y-48814614D01*
X234842292Y-48966366D01*
X234842290Y-48966379D01*
X234839500Y-49001829D01*
X234839500Y-49378150D01*
X234839501Y-49378175D01*
X234842291Y-49413627D01*
X234874576Y-49524752D01*
X234879500Y-49559347D01*
X234879500Y-49762391D01*
X234877625Y-49783874D01*
X234789885Y-50282656D01*
X234789879Y-50282696D01*
X234783846Y-50329973D01*
X234783817Y-50330882D01*
X234781498Y-50351110D01*
X234779500Y-50361154D01*
X234779500Y-50518846D01*
X234810261Y-50673489D01*
X234810264Y-50673501D01*
X234870602Y-50819172D01*
X234870609Y-50819185D01*
X234958210Y-50950288D01*
X234958213Y-50950292D01*
X235069707Y-51061786D01*
X235069711Y-51061789D01*
X235115520Y-51092398D01*
X235137267Y-51118419D01*
X235159423Y-51143989D01*
X235159586Y-51145126D01*
X235160325Y-51146010D01*
X235164546Y-51179622D01*
X235169367Y-51213147D01*
X235168888Y-51214194D01*
X235169032Y-51215335D01*
X235154413Y-51245890D01*
X235140342Y-51276703D01*
X235139374Y-51277324D01*
X235138878Y-51278363D01*
X235110039Y-51296176D01*
X235081564Y-51314477D01*
X235080065Y-51314692D01*
X235079435Y-51315082D01*
X235046629Y-51319500D01*
X234963311Y-51319500D01*
X234914570Y-51309519D01*
X233775115Y-50822428D01*
X233767569Y-50818897D01*
X233577611Y-50722106D01*
X233577603Y-50722103D01*
X233367952Y-50653985D01*
X233259086Y-50636742D01*
X233150222Y-50619500D01*
X232929778Y-50619500D01*
X232857201Y-50630995D01*
X232712047Y-50653985D01*
X232502396Y-50722103D01*
X232502393Y-50722104D01*
X232305974Y-50822187D01*
X232127641Y-50951752D01*
X232127636Y-50951756D01*
X231971756Y-51107636D01*
X231971752Y-51107641D01*
X231842187Y-51285974D01*
X231742104Y-51482393D01*
X231742103Y-51482396D01*
X231673985Y-51692047D01*
X231639500Y-51909778D01*
X231639500Y-52130221D01*
X231673985Y-52347952D01*
X231742103Y-52557603D01*
X231742106Y-52557611D01*
X231838897Y-52747569D01*
X231842428Y-52755115D01*
X232324568Y-53882987D01*
X232329519Y-53894569D01*
X232339500Y-53943310D01*
X232339500Y-54778481D01*
X232319815Y-54845520D01*
X232303181Y-54866162D01*
X226376162Y-60793181D01*
X226314839Y-60826666D01*
X226288481Y-60829500D01*
X221304500Y-60829500D01*
X221237461Y-60809815D01*
X221191706Y-60757011D01*
X221180500Y-60705500D01*
X221180500Y-54869999D01*
X222555654Y-54869999D01*
X222555655Y-54870000D01*
X224920137Y-54870000D01*
X224890000Y-55021509D01*
X224890000Y-55218491D01*
X224920137Y-55370000D01*
X222555655Y-55370000D01*
X222574221Y-55511016D01*
X222642075Y-55764255D01*
X222742404Y-56006471D01*
X222742409Y-56006482D01*
X222873496Y-56233528D01*
X223033092Y-56441519D01*
X223033098Y-56441526D01*
X223218473Y-56626901D01*
X223218480Y-56626907D01*
X223426471Y-56786503D01*
X223653517Y-56917590D01*
X223653528Y-56917595D01*
X223895744Y-57017924D01*
X224148979Y-57085777D01*
X224148990Y-57085779D01*
X224408905Y-57119999D01*
X224408920Y-57120000D01*
X225790000Y-57120000D01*
X225790000Y-56119699D01*
X225791509Y-56120000D01*
X226288491Y-56120000D01*
X226290000Y-56119699D01*
X226290000Y-57120000D01*
X227671080Y-57120000D01*
X227671094Y-57119999D01*
X227931009Y-57085779D01*
X227931020Y-57085777D01*
X228184255Y-57017924D01*
X228426471Y-56917595D01*
X228426482Y-56917590D01*
X228653528Y-56786503D01*
X228861519Y-56626907D01*
X228861526Y-56626901D01*
X229046901Y-56441526D01*
X229046907Y-56441519D01*
X229206503Y-56233528D01*
X229337590Y-56006482D01*
X229337595Y-56006471D01*
X229437924Y-55764255D01*
X229505778Y-55511016D01*
X229524345Y-55370000D01*
X227159863Y-55370000D01*
X227190000Y-55218491D01*
X227190000Y-55021509D01*
X227159863Y-54870000D01*
X229524345Y-54870000D01*
X229524345Y-54869999D01*
X229505778Y-54728983D01*
X229437924Y-54475744D01*
X229337595Y-54233528D01*
X229337590Y-54233517D01*
X229206503Y-54006471D01*
X229046907Y-53798480D01*
X229046901Y-53798473D01*
X228861526Y-53613098D01*
X228861519Y-53613092D01*
X228653528Y-53453496D01*
X228426482Y-53322409D01*
X228426471Y-53322404D01*
X228184255Y-53222075D01*
X227931020Y-53154222D01*
X227931009Y-53154220D01*
X227671094Y-53120000D01*
X226290000Y-53120000D01*
X226290000Y-54120300D01*
X226288491Y-54120000D01*
X225791509Y-54120000D01*
X225790000Y-54120300D01*
X225790000Y-53120000D01*
X224408905Y-53120000D01*
X224148990Y-53154220D01*
X224148979Y-53154222D01*
X223895744Y-53222075D01*
X223653528Y-53322404D01*
X223653517Y-53322409D01*
X223426471Y-53453496D01*
X223218480Y-53613092D01*
X223218473Y-53613098D01*
X223033098Y-53798473D01*
X223033092Y-53798480D01*
X222873496Y-54006471D01*
X222742409Y-54233517D01*
X222742404Y-54233528D01*
X222642075Y-54475744D01*
X222574221Y-54728983D01*
X222555654Y-54869999D01*
X221180500Y-54869999D01*
X221180500Y-48891004D01*
X221153581Y-48755677D01*
X221153580Y-48755676D01*
X221153580Y-48755672D01*
X221139834Y-48722485D01*
X221100778Y-48628195D01*
X221100774Y-48628188D01*
X221070602Y-48583032D01*
X221024114Y-48513457D01*
X221024112Y-48513454D01*
X221024109Y-48513451D01*
X220395313Y-47884656D01*
X220367905Y-47843134D01*
X220367202Y-47841382D01*
X219906613Y-46692988D01*
X219903773Y-46685150D01*
X219837897Y-46482399D01*
X219837895Y-46482393D01*
X219803237Y-46414375D01*
X219737815Y-46285978D01*
X219721260Y-46263192D01*
X219608247Y-46107641D01*
X219608243Y-46107636D01*
X219452363Y-45951756D01*
X219452358Y-45951752D01*
X219274025Y-45822187D01*
X219274024Y-45822186D01*
X219274022Y-45822185D01*
X219156791Y-45762452D01*
X219077606Y-45722104D01*
X219077603Y-45722103D01*
X218867952Y-45653985D01*
X218759086Y-45636742D01*
X218650222Y-45619500D01*
X218429778Y-45619500D01*
X218389307Y-45625910D01*
X218212047Y-45653985D01*
X218002396Y-45722103D01*
X218002393Y-45722104D01*
X217805974Y-45822187D01*
X217627641Y-45951752D01*
X217627636Y-45951756D01*
X217471756Y-46107636D01*
X217471752Y-46107641D01*
X217342187Y-46285974D01*
X217242104Y-46482393D01*
X217242103Y-46482396D01*
X217173985Y-46692047D01*
X217139500Y-46909778D01*
X217139500Y-47130221D01*
X217173985Y-47347952D01*
X217242103Y-47557603D01*
X217242104Y-47557606D01*
X217342187Y-47754025D01*
X217471734Y-47932333D01*
X217471736Y-47932335D01*
X217471758Y-47932365D01*
X217480648Y-47941255D01*
X217500886Y-47971543D01*
X217598457Y-48069114D01*
X217633940Y-48092822D01*
X217729616Y-48162335D01*
X217740153Y-48169990D01*
X217782818Y-48225320D01*
X217788797Y-48294934D01*
X217756191Y-48356728D01*
X217742513Y-48368580D01*
X217742485Y-48368932D01*
X218328941Y-48955387D01*
X218308409Y-48960889D01*
X218171592Y-49039881D01*
X218059881Y-49151592D01*
X217980889Y-49288409D01*
X217975387Y-49308940D01*
X217388932Y-48722485D01*
X217388931Y-48722485D01*
X217342616Y-48786233D01*
X217242567Y-48982589D01*
X217174473Y-49192164D01*
X217140000Y-49409818D01*
X217140000Y-49630181D01*
X217174473Y-49847835D01*
X217242567Y-50057410D01*
X217342611Y-50253756D01*
X217388932Y-50317513D01*
X217975387Y-49731058D01*
X217980889Y-49751591D01*
X218059881Y-49888408D01*
X218171592Y-50000119D01*
X218308409Y-50079111D01*
X218328939Y-50084612D01*
X217742485Y-50671065D01*
X217742602Y-50672548D01*
X217782818Y-50724701D01*
X217788797Y-50794315D01*
X217756192Y-50856110D01*
X217740153Y-50870008D01*
X217627636Y-50951756D01*
X217471756Y-51107636D01*
X217471752Y-51107641D01*
X217342187Y-51285974D01*
X217242104Y-51482393D01*
X217242103Y-51482396D01*
X217176223Y-51685158D01*
X217173384Y-51692989D01*
X216712092Y-52843135D01*
X216684686Y-52884655D01*
X209913812Y-59655529D01*
X209897296Y-59669394D01*
X209482550Y-59960055D01*
X209444824Y-59989241D01*
X209444160Y-59989865D01*
X209428225Y-60002522D01*
X209419713Y-60008209D01*
X209308209Y-60119712D01*
X209220609Y-60250814D01*
X209220602Y-60250827D01*
X209160264Y-60396498D01*
X209160261Y-60396510D01*
X209129500Y-60551153D01*
X209129500Y-60708846D01*
X209160261Y-60863489D01*
X209160264Y-60863501D01*
X209220602Y-61009172D01*
X209220609Y-61009185D01*
X209308210Y-61140288D01*
X209308213Y-61140292D01*
X209419707Y-61251786D01*
X209419711Y-61251789D01*
X209550814Y-61339390D01*
X209550827Y-61339397D01*
X209696498Y-61399735D01*
X209696503Y-61399737D01*
X209827933Y-61425880D01*
X209889844Y-61458264D01*
X209903043Y-61473231D01*
X209945301Y-61529734D01*
X209949993Y-61542332D01*
X209958794Y-61552489D01*
X209965840Y-61584880D01*
X209969688Y-61595210D01*
X209968887Y-61598883D01*
X209970000Y-61604000D01*
X209970000Y-63652364D01*
X209962182Y-63695696D01*
X209955909Y-63712514D01*
X209955908Y-63712516D01*
X209949501Y-63772116D01*
X209949500Y-63772135D01*
X209949500Y-65567870D01*
X209949501Y-65567876D01*
X209955908Y-65627483D01*
X209955909Y-65627486D01*
X209962181Y-65644300D01*
X209970000Y-65687635D01*
X209970000Y-66435500D01*
X209950315Y-66502539D01*
X209897511Y-66548294D01*
X209846000Y-66559500D01*
X208582848Y-66559500D01*
X208515809Y-66539815D01*
X208495167Y-66523181D01*
X201509319Y-59537333D01*
X201475834Y-59476010D01*
X201473000Y-59449652D01*
X201473000Y-59021064D01*
X201477264Y-58988826D01*
X201494851Y-58923505D01*
X201601611Y-58526985D01*
X201605538Y-58511419D01*
X201605708Y-58510697D01*
X201617006Y-58441499D01*
X201617005Y-58441488D01*
X201617102Y-58439771D01*
X201619293Y-58422475D01*
X201623000Y-58403841D01*
X201623000Y-58246155D01*
X201622999Y-58246153D01*
X201592238Y-58091510D01*
X201592237Y-58091503D01*
X201580907Y-58064150D01*
X201531897Y-57945827D01*
X201531890Y-57945814D01*
X201444289Y-57814711D01*
X201444286Y-57814707D01*
X201332792Y-57703213D01*
X201332788Y-57703210D01*
X201201685Y-57615609D01*
X201201672Y-57615602D01*
X201056001Y-57555264D01*
X201055989Y-57555261D01*
X200901345Y-57524500D01*
X200901342Y-57524500D01*
X200743658Y-57524500D01*
X200743655Y-57524500D01*
X200589010Y-57555261D01*
X200588998Y-57555264D01*
X200443327Y-57615602D01*
X200443314Y-57615609D01*
X200312211Y-57703210D01*
X200312207Y-57703213D01*
X200200713Y-57814707D01*
X200200708Y-57814713D01*
X200176021Y-57851660D01*
X200122408Y-57896464D01*
X200053083Y-57905171D01*
X199990056Y-57875016D01*
X199969818Y-57851659D01*
X199941789Y-57809710D01*
X199830292Y-57698213D01*
X199830288Y-57698210D01*
X199769776Y-57657777D01*
X199724971Y-57604165D01*
X199716264Y-57534840D01*
X199746419Y-57471812D01*
X199805862Y-57435093D01*
X199806303Y-57434973D01*
X199883829Y-57414200D01*
X200005743Y-57363701D01*
X200119757Y-57297875D01*
X200224449Y-57217541D01*
X200317541Y-57124449D01*
X200397875Y-57019757D01*
X200463701Y-56905743D01*
X200514200Y-56783829D01*
X200548275Y-56656662D01*
X200565500Y-56525826D01*
X200565500Y-55960000D01*
X200560355Y-55888060D01*
X200549396Y-55850740D01*
X200545636Y-55798158D01*
X200565500Y-55660000D01*
X200565500Y-55094174D01*
X200548275Y-54963338D01*
X200514200Y-54836171D01*
X200463701Y-54714257D01*
X200463698Y-54714252D01*
X200463697Y-54714249D01*
X200463696Y-54714248D01*
X200397879Y-54600250D01*
X200397875Y-54600243D01*
X200317541Y-54495551D01*
X200224449Y-54402459D01*
X200224444Y-54402455D01*
X200137510Y-54335747D01*
X200096307Y-54279319D01*
X200092153Y-54209573D01*
X200093250Y-54205176D01*
X200129111Y-54071985D01*
X200133038Y-54056419D01*
X200133208Y-54055697D01*
X200144506Y-53986499D01*
X200144505Y-53986488D01*
X200144602Y-53984771D01*
X200146793Y-53967475D01*
X200148182Y-53960496D01*
X200150500Y-53948842D01*
X200150500Y-53791158D01*
X200150500Y-53791155D01*
X200150499Y-53791153D01*
X200148842Y-53782825D01*
X200119737Y-53636503D01*
X200111451Y-53616498D01*
X200059397Y-53490827D01*
X200059390Y-53490814D01*
X199971789Y-53359711D01*
X199971786Y-53359707D01*
X199860292Y-53248213D01*
X199860288Y-53248210D01*
X199729185Y-53160609D01*
X199729172Y-53160602D01*
X199583501Y-53100264D01*
X199583489Y-53100261D01*
X199428845Y-53069500D01*
X199428842Y-53069500D01*
X199271158Y-53069500D01*
X199271155Y-53069500D01*
X199116510Y-53100261D01*
X199116498Y-53100264D01*
X198970827Y-53160602D01*
X198970814Y-53160609D01*
X198839711Y-53248210D01*
X198839707Y-53248213D01*
X198728213Y-53359707D01*
X198728210Y-53359711D01*
X198640609Y-53490814D01*
X198640602Y-53490827D01*
X198580264Y-53636498D01*
X198580261Y-53636510D01*
X198549500Y-53791153D01*
X198549500Y-53791158D01*
X198549500Y-53948842D01*
X198549500Y-53948844D01*
X198549499Y-53948844D01*
X198564878Y-54026154D01*
X198564883Y-54026177D01*
X198566084Y-54032214D01*
X198570888Y-54071986D01*
X198595601Y-54163775D01*
X198596188Y-54166402D01*
X198594055Y-54198694D01*
X198593324Y-54231033D01*
X198591766Y-54233340D01*
X198591583Y-54236119D01*
X198572335Y-54262124D01*
X198554232Y-54288943D01*
X198550637Y-54291442D01*
X198550017Y-54292280D01*
X198548729Y-54292768D01*
X198537169Y-54300805D01*
X198500249Y-54322121D01*
X198500232Y-54322132D01*
X198395555Y-54402455D01*
X198395545Y-54402464D01*
X198302464Y-54495545D01*
X198302455Y-54495555D01*
X198222132Y-54600232D01*
X198222120Y-54600250D01*
X198156304Y-54714246D01*
X198156300Y-54714254D01*
X198156299Y-54714257D01*
X198129559Y-54778810D01*
X198085719Y-54833212D01*
X198019425Y-54855276D01*
X197951725Y-54837996D01*
X197904116Y-54786858D01*
X197900445Y-54778823D01*
X197873701Y-54714257D01*
X197807875Y-54600243D01*
X197727541Y-54495551D01*
X197634449Y-54402459D01*
X197557286Y-54343249D01*
X197529759Y-54322126D01*
X197522789Y-54318102D01*
X197505267Y-54299725D01*
X197485044Y-54284382D01*
X197481565Y-54274868D01*
X197474573Y-54267535D01*
X197469768Y-54242606D01*
X197461050Y-54218762D01*
X197462452Y-54204644D01*
X197461351Y-54198928D01*
X197463796Y-54183575D01*
X197464368Y-54181022D01*
X197499111Y-54051985D01*
X197503038Y-54036419D01*
X197503208Y-54035697D01*
X197514506Y-53966499D01*
X197514203Y-53960496D01*
X197520500Y-53928842D01*
X197520500Y-53771158D01*
X197520500Y-53771155D01*
X197520499Y-53771153D01*
X197489737Y-53616503D01*
X197463158Y-53552335D01*
X197429397Y-53470827D01*
X197429390Y-53470814D01*
X197341789Y-53339711D01*
X197341786Y-53339707D01*
X197230292Y-53228213D01*
X197230288Y-53228210D01*
X197099185Y-53140609D01*
X197099172Y-53140602D01*
X196953501Y-53080264D01*
X196953489Y-53080261D01*
X196798845Y-53049500D01*
X196798842Y-53049500D01*
X196641158Y-53049500D01*
X196641155Y-53049500D01*
X196486510Y-53080261D01*
X196486498Y-53080264D01*
X196340827Y-53140602D01*
X196340814Y-53140609D01*
X196209711Y-53228210D01*
X196209707Y-53228213D01*
X196098213Y-53339707D01*
X196098210Y-53339711D01*
X196010609Y-53470814D01*
X196010602Y-53470827D01*
X195950264Y-53616498D01*
X195950261Y-53616510D01*
X195919500Y-53771153D01*
X195919500Y-53771158D01*
X195919500Y-53928842D01*
X195919500Y-53928844D01*
X195919499Y-53928844D01*
X195934767Y-54005594D01*
X195936084Y-54012214D01*
X195940888Y-54051986D01*
X195975498Y-54180534D01*
X195975979Y-54182597D01*
X195974109Y-54215450D01*
X195973366Y-54248330D01*
X195972134Y-54250154D01*
X195972009Y-54252354D01*
X195952677Y-54278976D01*
X195934274Y-54306240D01*
X195931462Y-54308194D01*
X195930957Y-54308891D01*
X195929827Y-54309331D01*
X195917211Y-54318102D01*
X195910248Y-54322121D01*
X195910232Y-54322132D01*
X195805555Y-54402455D01*
X195805545Y-54402464D01*
X195712461Y-54495548D01*
X195682375Y-54534757D01*
X195625946Y-54575959D01*
X195556200Y-54580113D01*
X195495280Y-54545899D01*
X195462528Y-54484181D01*
X195460000Y-54459269D01*
X195460000Y-53760000D01*
X190391362Y-53760000D01*
X190324323Y-53740315D01*
X190303681Y-53723681D01*
X189531819Y-52951819D01*
X189498334Y-52890496D01*
X189495500Y-52864138D01*
X189495500Y-51230422D01*
X189515185Y-51163383D01*
X189567989Y-51117628D01*
X189637147Y-51107684D01*
X189700703Y-51136709D01*
X189722602Y-51161531D01*
X189772086Y-51235589D01*
X189772089Y-51235593D01*
X189904406Y-51367910D01*
X189904410Y-51367913D01*
X190059999Y-51471875D01*
X190060008Y-51471880D01*
X190232894Y-51543491D01*
X190232902Y-51543493D01*
X190416428Y-51579999D01*
X190416431Y-51580000D01*
X190710000Y-51580000D01*
X190710000Y-50930000D01*
X191210000Y-50930000D01*
X191210000Y-51580000D01*
X191503569Y-51580000D01*
X191503571Y-51579999D01*
X191687097Y-51543493D01*
X191687105Y-51543491D01*
X191859991Y-51471880D01*
X191860000Y-51471875D01*
X192015589Y-51367913D01*
X192015593Y-51367910D01*
X192147910Y-51235593D01*
X192147913Y-51235589D01*
X192251875Y-51080000D01*
X192251880Y-51079991D01*
X192323492Y-50907103D01*
X192323493Y-50907100D01*
X192328884Y-50880000D01*
X191526988Y-50880000D01*
X191544205Y-50870060D01*
X191600060Y-50814205D01*
X191639556Y-50745796D01*
X191660000Y-50669496D01*
X191660000Y-50590504D01*
X191639556Y-50514204D01*
X191600060Y-50445795D01*
X191544205Y-50389940D01*
X191526988Y-50380000D01*
X192328884Y-50380000D01*
X193619647Y-50380000D01*
X194423012Y-50380000D01*
X194405795Y-50389940D01*
X194349940Y-50445795D01*
X194310444Y-50514204D01*
X194290000Y-50590504D01*
X194290000Y-50669496D01*
X194310444Y-50745796D01*
X194349940Y-50814205D01*
X194405795Y-50870060D01*
X194423012Y-50880000D01*
X193619647Y-50880000D01*
X193629387Y-50928974D01*
X193629390Y-50928983D01*
X193706652Y-51115513D01*
X193706659Y-51115526D01*
X193818829Y-51283399D01*
X193818832Y-51283403D01*
X193961596Y-51426167D01*
X193961600Y-51426170D01*
X194129473Y-51538340D01*
X194129486Y-51538347D01*
X194316016Y-51615609D01*
X194316025Y-51615612D01*
X194514041Y-51654999D01*
X194514045Y-51655000D01*
X194890000Y-51655000D01*
X194890000Y-50930000D01*
X195390000Y-50930000D01*
X195390000Y-51655000D01*
X195765955Y-51655000D01*
X195765958Y-51654999D01*
X195963974Y-51615612D01*
X195963983Y-51615609D01*
X196150513Y-51538347D01*
X196150526Y-51538340D01*
X196318399Y-51426170D01*
X196318403Y-51426167D01*
X196461167Y-51283403D01*
X196461170Y-51283399D01*
X196573340Y-51115526D01*
X196573347Y-51115513D01*
X196650609Y-50928983D01*
X196650612Y-50928974D01*
X196660353Y-50880000D01*
X195856988Y-50880000D01*
X195874205Y-50870060D01*
X195930060Y-50814205D01*
X195969556Y-50745796D01*
X195990000Y-50669496D01*
X195990000Y-50590504D01*
X195969556Y-50514204D01*
X195930060Y-50445795D01*
X195874205Y-50389940D01*
X195856988Y-50380000D01*
X196660353Y-50380000D01*
X196650612Y-50331025D01*
X196650609Y-50331016D01*
X196573347Y-50144486D01*
X196573340Y-50144473D01*
X196461170Y-49976600D01*
X196461167Y-49976596D01*
X196318403Y-49833832D01*
X196318399Y-49833829D01*
X196150526Y-49721659D01*
X196150513Y-49721652D01*
X195963983Y-49644390D01*
X195963974Y-49644387D01*
X195765958Y-49605000D01*
X195285479Y-49605000D01*
X195218440Y-49585315D01*
X195172685Y-49532511D01*
X195162741Y-49463353D01*
X195167130Y-49443992D01*
X195171227Y-49430888D01*
X195176281Y-49422135D01*
X195215500Y-49275766D01*
X195215500Y-49124234D01*
X195176281Y-48977865D01*
X195100515Y-48846635D01*
X194993365Y-48739485D01*
X194890163Y-48679901D01*
X194862136Y-48663719D01*
X194788950Y-48644109D01*
X194715766Y-48624500D01*
X194564234Y-48624500D01*
X194417863Y-48663719D01*
X194286635Y-48739485D01*
X194286632Y-48739487D01*
X194179487Y-48846632D01*
X194179485Y-48846635D01*
X194103719Y-48977863D01*
X194071741Y-49097209D01*
X194064500Y-49124234D01*
X194064500Y-49275766D01*
X194101439Y-49413627D01*
X194103720Y-49422137D01*
X194103720Y-49422138D01*
X194177878Y-49550583D01*
X194194351Y-49618483D01*
X194171498Y-49684510D01*
X194134017Y-49717481D01*
X194134545Y-49718271D01*
X193961600Y-49833829D01*
X193961596Y-49833832D01*
X193818832Y-49976596D01*
X193818829Y-49976600D01*
X193706659Y-50144473D01*
X193706652Y-50144486D01*
X193629390Y-50331016D01*
X193629387Y-50331025D01*
X193619647Y-50380000D01*
X192328884Y-50380000D01*
X192328884Y-50379999D01*
X192323493Y-50352899D01*
X192323492Y-50352896D01*
X192251880Y-50180008D01*
X192251875Y-50179999D01*
X192147913Y-50024410D01*
X192147910Y-50024406D01*
X192015593Y-49892089D01*
X192015589Y-49892086D01*
X191860000Y-49788124D01*
X191859991Y-49788119D01*
X191687105Y-49716508D01*
X191687097Y-49716506D01*
X191503570Y-49680000D01*
X191210000Y-49680000D01*
X191210000Y-50330000D01*
X190710000Y-50330000D01*
X190710000Y-49680000D01*
X190416430Y-49680000D01*
X190232902Y-49716506D01*
X190232894Y-49716508D01*
X190060008Y-49788119D01*
X190059999Y-49788124D01*
X189904410Y-49892086D01*
X189904406Y-49892089D01*
X189772089Y-50024406D01*
X189772086Y-50024410D01*
X189722602Y-50098468D01*
X189668989Y-50143273D01*
X189599664Y-50151980D01*
X189536637Y-50121825D01*
X189499918Y-50062382D01*
X189495500Y-50029577D01*
X189495500Y-45338844D01*
X193539499Y-45338844D01*
X193555162Y-45417580D01*
X193556650Y-45426901D01*
X193560887Y-45461984D01*
X193673298Y-45879491D01*
X193673557Y-45942990D01*
X193564362Y-46362129D01*
X193561019Y-46375738D01*
X193560878Y-46376346D01*
X193550062Y-46443479D01*
X193549934Y-46445820D01*
X193547739Y-46463210D01*
X193544170Y-46481157D01*
X193544170Y-46638845D01*
X193574931Y-46793488D01*
X193574934Y-46793500D01*
X193635272Y-46939171D01*
X193635279Y-46939184D01*
X193722880Y-47070287D01*
X193722883Y-47070291D01*
X193834377Y-47181785D01*
X193834381Y-47181788D01*
X193965484Y-47269389D01*
X193965497Y-47269396D01*
X194111168Y-47329734D01*
X194111173Y-47329736D01*
X194265823Y-47360498D01*
X194265826Y-47360499D01*
X194265828Y-47360499D01*
X194423514Y-47360499D01*
X194423515Y-47360498D01*
X194578167Y-47329736D01*
X194723849Y-47269393D01*
X194854959Y-47181788D01*
X194966459Y-47070288D01*
X195054064Y-46939178D01*
X195114407Y-46793496D01*
X195145170Y-46638841D01*
X195145170Y-46481157D01*
X195144657Y-46478580D01*
X195128385Y-46396779D01*
X195127021Y-46388452D01*
X195125460Y-46376350D01*
X195122575Y-46353986D01*
X195007904Y-45941446D01*
X195007640Y-45876003D01*
X195119111Y-45461985D01*
X195123038Y-45446419D01*
X195123208Y-45445697D01*
X195134506Y-45376499D01*
X195134505Y-45376488D01*
X195134602Y-45374771D01*
X195136793Y-45357475D01*
X195140500Y-45338844D01*
X195140500Y-45338842D01*
X195140500Y-45181158D01*
X195140500Y-45181155D01*
X195140499Y-45181153D01*
X195132976Y-45143334D01*
X195109737Y-45026503D01*
X195109735Y-45026498D01*
X195049397Y-44880827D01*
X195049390Y-44880814D01*
X194961789Y-44749711D01*
X194961786Y-44749707D01*
X194850292Y-44638213D01*
X194850288Y-44638210D01*
X194719185Y-44550609D01*
X194719172Y-44550602D01*
X194573501Y-44490264D01*
X194573489Y-44490261D01*
X194418845Y-44459500D01*
X194418842Y-44459500D01*
X194261158Y-44459500D01*
X194261155Y-44459500D01*
X194106510Y-44490261D01*
X194106498Y-44490264D01*
X193960827Y-44550602D01*
X193960814Y-44550609D01*
X193829711Y-44638210D01*
X193829707Y-44638213D01*
X193718213Y-44749707D01*
X193718210Y-44749711D01*
X193630609Y-44880814D01*
X193630602Y-44880827D01*
X193570264Y-45026498D01*
X193570261Y-45026510D01*
X193539500Y-45181153D01*
X193539500Y-45181158D01*
X193539500Y-45338842D01*
X193539500Y-45338844D01*
X193539499Y-45338844D01*
X189495500Y-45338844D01*
X189495500Y-42590422D01*
X189515185Y-42523383D01*
X189567989Y-42477628D01*
X189637147Y-42467684D01*
X189700703Y-42496709D01*
X189722602Y-42521531D01*
X189772086Y-42595589D01*
X189772089Y-42595593D01*
X189904406Y-42727910D01*
X189904410Y-42727913D01*
X190059999Y-42831875D01*
X190060008Y-42831880D01*
X190232894Y-42903491D01*
X190232902Y-42903493D01*
X190416428Y-42939999D01*
X190416431Y-42940000D01*
X190710000Y-42940000D01*
X190710000Y-42290000D01*
X191210000Y-42290000D01*
X191210000Y-42940000D01*
X191503569Y-42940000D01*
X191503571Y-42939999D01*
X191687097Y-42903493D01*
X191687105Y-42903491D01*
X191859991Y-42831880D01*
X191860000Y-42831875D01*
X192015589Y-42727913D01*
X192015593Y-42727910D01*
X192147910Y-42595593D01*
X192147913Y-42595589D01*
X192251875Y-42440000D01*
X192251880Y-42439991D01*
X192323492Y-42267103D01*
X192323493Y-42267100D01*
X192328884Y-42240000D01*
X191526988Y-42240000D01*
X191544205Y-42230060D01*
X191600060Y-42174205D01*
X191639556Y-42105796D01*
X191660000Y-42029496D01*
X191660000Y-41950504D01*
X191639556Y-41874204D01*
X191600060Y-41805795D01*
X191544205Y-41749940D01*
X191526988Y-41740000D01*
X192328884Y-41740000D01*
X193619647Y-41740000D01*
X194423012Y-41740000D01*
X194405795Y-41749940D01*
X194349940Y-41805795D01*
X194310444Y-41874204D01*
X194290000Y-41950504D01*
X194290000Y-42029496D01*
X194310444Y-42105796D01*
X194349940Y-42174205D01*
X194405795Y-42230060D01*
X194423012Y-42240000D01*
X193619647Y-42240000D01*
X193629387Y-42288974D01*
X193629390Y-42288983D01*
X193706652Y-42475513D01*
X193706659Y-42475526D01*
X193818829Y-42643399D01*
X193818832Y-42643403D01*
X193961596Y-42786167D01*
X193961600Y-42786170D01*
X194134545Y-42901729D01*
X194133805Y-42902835D01*
X194178784Y-42947013D01*
X194194250Y-43015149D01*
X194177878Y-43069416D01*
X194103720Y-43197861D01*
X194103720Y-43197862D01*
X194103719Y-43197864D01*
X194103719Y-43197865D01*
X194064500Y-43344234D01*
X194064500Y-43495766D01*
X194082960Y-43564662D01*
X194103719Y-43642136D01*
X194126691Y-43681924D01*
X194179485Y-43773365D01*
X194286635Y-43880515D01*
X194417865Y-43956281D01*
X194564234Y-43995500D01*
X194564236Y-43995500D01*
X194715764Y-43995500D01*
X194715766Y-43995500D01*
X194862135Y-43956281D01*
X194993365Y-43880515D01*
X195100515Y-43773365D01*
X195176281Y-43642135D01*
X195215500Y-43495766D01*
X195215500Y-43344234D01*
X195176281Y-43197865D01*
X195176278Y-43197860D01*
X195173169Y-43190351D01*
X195175293Y-43189471D01*
X195161620Y-43133090D01*
X195184477Y-43067065D01*
X195239402Y-43023879D01*
X195285479Y-43015000D01*
X195765955Y-43015000D01*
X195765958Y-43014999D01*
X195963974Y-42975612D01*
X195963983Y-42975609D01*
X196150513Y-42898347D01*
X196150526Y-42898340D01*
X196318399Y-42786170D01*
X196318403Y-42786167D01*
X196461167Y-42643403D01*
X196461170Y-42643399D01*
X196573340Y-42475526D01*
X196573347Y-42475513D01*
X196650609Y-42288983D01*
X196650612Y-42288974D01*
X196660353Y-42240000D01*
X195856988Y-42240000D01*
X195874205Y-42230060D01*
X195930060Y-42174205D01*
X195969556Y-42105796D01*
X195990000Y-42029496D01*
X195990000Y-41950504D01*
X195969556Y-41874204D01*
X195930060Y-41805795D01*
X195874205Y-41749940D01*
X195856988Y-41740000D01*
X196660353Y-41740000D01*
X196650612Y-41691025D01*
X196650609Y-41691016D01*
X196573347Y-41504486D01*
X196573340Y-41504473D01*
X196461170Y-41336600D01*
X196461167Y-41336596D01*
X196318403Y-41193832D01*
X196318399Y-41193829D01*
X196150526Y-41081659D01*
X196150513Y-41081652D01*
X195963983Y-41004390D01*
X195963974Y-41004387D01*
X195765958Y-40965000D01*
X195390000Y-40965000D01*
X195390000Y-41690000D01*
X194890000Y-41690000D01*
X194890000Y-40965000D01*
X194514041Y-40965000D01*
X194316025Y-41004387D01*
X194316016Y-41004390D01*
X194129486Y-41081652D01*
X194129473Y-41081659D01*
X193961600Y-41193829D01*
X193961596Y-41193832D01*
X193818832Y-41336596D01*
X193818829Y-41336600D01*
X193706659Y-41504473D01*
X193706652Y-41504486D01*
X193629390Y-41691016D01*
X193629387Y-41691025D01*
X193619647Y-41740000D01*
X192328884Y-41740000D01*
X192328884Y-41739999D01*
X192323493Y-41712899D01*
X192323492Y-41712896D01*
X192251880Y-41540008D01*
X192251875Y-41539999D01*
X192147913Y-41384410D01*
X192147910Y-41384406D01*
X192015593Y-41252089D01*
X192015589Y-41252086D01*
X191860000Y-41148124D01*
X191859991Y-41148119D01*
X191687105Y-41076508D01*
X191687097Y-41076506D01*
X191503570Y-41040000D01*
X191210000Y-41040000D01*
X191210000Y-41690000D01*
X190710000Y-41690000D01*
X190710000Y-41040000D01*
X190416430Y-41040000D01*
X190232902Y-41076506D01*
X190232890Y-41076509D01*
X190066900Y-41145264D01*
X190055696Y-41146468D01*
X190045806Y-41151869D01*
X190021580Y-41150136D01*
X189997431Y-41152733D01*
X189987354Y-41147688D01*
X189976114Y-41146885D01*
X189956668Y-41132328D01*
X189934952Y-41121457D01*
X189929202Y-41111766D01*
X189920181Y-41105013D01*
X189911692Y-41082254D01*
X189899300Y-41061368D01*
X189899702Y-41050107D01*
X189895764Y-41039549D01*
X189900927Y-41015815D01*
X189901794Y-40991543D01*
X189908606Y-40980515D01*
X189910616Y-40971276D01*
X189931764Y-40943025D01*
X190006769Y-40868020D01*
X190020123Y-40856448D01*
X190177221Y-40738845D01*
X190192089Y-40729291D01*
X190364298Y-40635258D01*
X190380385Y-40627911D01*
X190564248Y-40559333D01*
X190581199Y-40554356D01*
X190772938Y-40512646D01*
X190790436Y-40510130D01*
X190990582Y-40495816D01*
X190999428Y-40495500D01*
X191060892Y-40495500D01*
X214657771Y-40495500D01*
X214724810Y-40515185D01*
G37*
%TD.AperFunction*%
%TD*%
%TA.AperFunction,Conductor*%
%TO.N,row0*%
G36*
X251402543Y-75855296D02*
G01*
X251407242Y-75861709D01*
X251525928Y-76265880D01*
X251524971Y-76274784D01*
X251522975Y-76277450D01*
X251254267Y-76546158D01*
X251245994Y-76549585D01*
X251237721Y-76546158D01*
X251236872Y-76545212D01*
X250868529Y-76086594D01*
X250866021Y-76078000D01*
X250870325Y-76070148D01*
X250871099Y-76069578D01*
X251107334Y-75910611D01*
X251111612Y-75908838D01*
X251393766Y-75853525D01*
X251402543Y-75855296D01*
G37*
%TD.AperFunction*%
%TD*%
%TA.AperFunction,Conductor*%
%TO.N,row0*%
G36*
X202583485Y-78452667D02*
G01*
X202873144Y-78865986D01*
X202883472Y-78880722D01*
X202885414Y-78889464D01*
X202882164Y-78895710D01*
X202613210Y-79164664D01*
X202604937Y-79168091D01*
X202598222Y-79165972D01*
X202170168Y-78865986D01*
X202165360Y-78858432D01*
X202167133Y-78849938D01*
X202325485Y-78611263D01*
X202328763Y-78607985D01*
X202567438Y-78449633D01*
X202576225Y-78447915D01*
X202583485Y-78452667D01*
G37*
%TD.AperFunction*%
%TD*%
%TA.AperFunction,Conductor*%
%TO.N,row0*%
G36*
X252677912Y-58745333D02*
G01*
X252680370Y-58748945D01*
X252895561Y-59244397D01*
X252895714Y-59253350D01*
X252891362Y-59258765D01*
X252654756Y-59417981D01*
X252645979Y-59419757D01*
X252645920Y-59419745D01*
X252366168Y-59363562D01*
X252358732Y-59358573D01*
X252356831Y-59350914D01*
X252367597Y-59244397D01*
X252390261Y-59020164D01*
X252393627Y-59013072D01*
X252661367Y-58745332D01*
X252669639Y-58741906D01*
X252677912Y-58745333D01*
G37*
%TD.AperFunction*%
%TD*%
%TA.AperFunction,Conductor*%
%TO.N,row1*%
G36*
X232975985Y-74842667D02*
G01*
X233265644Y-75255986D01*
X233275972Y-75270722D01*
X233277914Y-75279464D01*
X233274664Y-75285710D01*
X233005710Y-75554664D01*
X232997437Y-75558091D01*
X232990722Y-75555972D01*
X232562668Y-75255986D01*
X232557860Y-75248432D01*
X232559633Y-75239938D01*
X232717985Y-75001263D01*
X232721263Y-74997985D01*
X232959938Y-74839633D01*
X232968725Y-74837915D01*
X232975985Y-74842667D01*
G37*
%TD.AperFunction*%
%TD*%
%TA.AperFunction,Conductor*%
%TO.N,row1*%
G36*
X232177002Y-82420530D02*
G01*
X232177238Y-82429482D01*
X232174587Y-82433564D01*
X231942638Y-82665513D01*
X231934365Y-82668940D01*
X231928692Y-82667473D01*
X231800033Y-82596151D01*
X231794459Y-82589143D01*
X231795473Y-82580245D01*
X231800943Y-82575231D01*
X232161555Y-82414602D01*
X232170505Y-82414367D01*
X232177002Y-82420530D01*
G37*
%TD.AperFunction*%
%TD*%
%TA.AperFunction,Conductor*%
%TO.N,row1*%
G36*
X235778452Y-49849191D02*
G01*
X235781702Y-49855437D01*
X235872259Y-50370239D01*
X235870317Y-50378981D01*
X235863056Y-50383734D01*
X235582320Y-50440530D01*
X235577680Y-50440530D01*
X235296943Y-50383734D01*
X235289514Y-50378734D01*
X235287740Y-50370239D01*
X235378298Y-49855437D01*
X235383106Y-49847883D01*
X235389821Y-49845764D01*
X235770179Y-49845764D01*
X235778452Y-49849191D01*
G37*
%TD.AperFunction*%
%TD*%
%TA.AperFunction,Conductor*%
%TO.N,row1*%
G36*
X201083485Y-78452667D02*
G01*
X201373144Y-78865986D01*
X201383472Y-78880722D01*
X201385414Y-78889464D01*
X201382164Y-78895710D01*
X201113210Y-79164664D01*
X201104937Y-79168091D01*
X201098222Y-79165972D01*
X200670168Y-78865986D01*
X200665360Y-78858432D01*
X200667133Y-78849938D01*
X200825485Y-78611263D01*
X200828763Y-78607985D01*
X201067438Y-78449633D01*
X201076225Y-78447915D01*
X201083485Y-78452667D01*
G37*
%TD.AperFunction*%
%TD*%
%TA.AperFunction,Conductor*%
%TO.N,Net-(D7-A)*%
G36*
X233948104Y-46126033D02*
G01*
X234835287Y-46786491D01*
X234839876Y-46794180D01*
X234840000Y-46795876D01*
X234840000Y-47184352D01*
X234836573Y-47192625D01*
X234835579Y-47193512D01*
X233948098Y-47898680D01*
X233939488Y-47901144D01*
X233932620Y-47897866D01*
X233786410Y-47754234D01*
X233047424Y-47028276D01*
X233043924Y-47020035D01*
X233047278Y-47011732D01*
X233047307Y-47011701D01*
X233932851Y-46127140D01*
X233941125Y-46123719D01*
X233948104Y-46126033D01*
G37*
%TD.AperFunction*%
%TD*%
%TA.AperFunction,Conductor*%
%TO.N,VBUS*%
G36*
X218527655Y-57430792D02*
G01*
X218533696Y-57437402D01*
X218534165Y-57439070D01*
X218590530Y-57717680D01*
X218590530Y-57722320D01*
X218534165Y-58000929D01*
X218529165Y-58008358D01*
X218520377Y-58010077D01*
X218518709Y-58009608D01*
X218003476Y-57822796D01*
X217996866Y-57816755D01*
X217995764Y-57811797D01*
X217995764Y-57628202D01*
X217999191Y-57619929D01*
X218003473Y-57617204D01*
X218518711Y-57430391D01*
X218527655Y-57430792D01*
G37*
%TD.AperFunction*%
%TD*%
%TA.AperFunction,Conductor*%
%TO.N,Net-(D11-K)*%
G36*
X201094022Y-90266117D02*
G01*
X201095446Y-90267844D01*
X201382884Y-90693617D01*
X201384673Y-90702391D01*
X201379733Y-90709860D01*
X201379719Y-90709870D01*
X201144756Y-90867981D01*
X201135979Y-90869757D01*
X201135920Y-90869745D01*
X200857697Y-90813869D01*
X200850261Y-90808880D01*
X200848530Y-90800094D01*
X200848617Y-90799697D01*
X200945312Y-90400698D01*
X200948408Y-90395185D01*
X201077477Y-90266116D01*
X201085749Y-90262690D01*
X201094022Y-90266117D01*
G37*
%TD.AperFunction*%
%TD*%
%TA.AperFunction,Conductor*%
%TO.N,/Din-*%
G36*
X194489381Y-45969190D02*
G01*
X194492381Y-45974330D01*
X194635540Y-46489363D01*
X194634454Y-46498251D01*
X194627400Y-46503769D01*
X194626587Y-46503964D01*
X194346990Y-46560529D01*
X194342350Y-46560529D01*
X194062553Y-46503923D01*
X194055124Y-46498923D01*
X194053405Y-46490135D01*
X194053545Y-46489529D01*
X194187720Y-45974512D01*
X194193122Y-45967371D01*
X194199042Y-45965763D01*
X194481108Y-45965763D01*
X194489381Y-45969190D01*
G37*
%TD.AperFunction*%
%TD*%
%TA.AperFunction,Conductor*%
%TO.N,/Din-*%
G36*
X194622017Y-45316055D02*
G01*
X194629445Y-45321054D01*
X194631164Y-45329842D01*
X194630994Y-45330564D01*
X194492331Y-45845578D01*
X194486871Y-45852676D01*
X194481033Y-45854236D01*
X194198967Y-45854236D01*
X194190694Y-45850809D01*
X194187669Y-45845578D01*
X194049005Y-45330564D01*
X194050163Y-45321684D01*
X194057261Y-45316224D01*
X194057953Y-45316060D01*
X194337682Y-45259469D01*
X194342318Y-45259469D01*
X194622017Y-45316055D01*
G37*
%TD.AperFunction*%
%TD*%
%TA.AperFunction,Conductor*%
%TO.N,IO1*%
G36*
X199292479Y-56467350D02*
G01*
X199297798Y-56474553D01*
X199296518Y-56483322D01*
X199019774Y-56952018D01*
X199013521Y-56957127D01*
X198640679Y-57085979D01*
X198631740Y-57085443D01*
X198628584Y-57083194D01*
X198428674Y-56883284D01*
X198425247Y-56875011D01*
X198427461Y-56868163D01*
X198591762Y-56640666D01*
X198598422Y-56636164D01*
X199283623Y-56466018D01*
X199292479Y-56467350D01*
G37*
%TD.AperFunction*%
%TD*%
%TA.AperFunction,Conductor*%
%TO.N,IO1*%
G36*
X197979306Y-57719191D02*
G01*
X197982331Y-57724422D01*
X198120994Y-58239435D01*
X198119836Y-58248315D01*
X198112738Y-58253775D01*
X198112016Y-58253945D01*
X197832320Y-58310530D01*
X197827680Y-58310530D01*
X197547983Y-58253945D01*
X197540554Y-58248945D01*
X197538835Y-58240157D01*
X197539005Y-58239435D01*
X197677669Y-57724422D01*
X197683129Y-57717324D01*
X197688967Y-57715764D01*
X197971033Y-57715764D01*
X197979306Y-57719191D01*
G37*
%TD.AperFunction*%
%TD*%
%TA.AperFunction,Conductor*%
%TO.N,IO1*%
G36*
X198086100Y-58151907D02*
G01*
X198399287Y-58555332D01*
X198401653Y-58563968D01*
X198398318Y-58570779D01*
X198198969Y-58770128D01*
X198196855Y-58771003D01*
X198195247Y-58772634D01*
X198192880Y-58772650D01*
X198190696Y-58773555D01*
X198186293Y-58772695D01*
X198184317Y-58771892D01*
X198182191Y-58771029D01*
X198180745Y-58770322D01*
X198131612Y-58741956D01*
X198116768Y-58733386D01*
X198116767Y-58733385D01*
X198116764Y-58733384D01*
X198116766Y-58733384D01*
X198037305Y-58712094D01*
X198035931Y-58711633D01*
X197780407Y-58607864D01*
X197774031Y-58601576D01*
X197773328Y-58594773D01*
X197781060Y-58555331D01*
X197828353Y-58314085D01*
X197833304Y-58306631D01*
X198070392Y-58149332D01*
X198079178Y-58147614D01*
X198086100Y-58151907D01*
G37*
%TD.AperFunction*%
%TD*%
%TA.AperFunction,Conductor*%
%TO.N,IO3*%
G36*
X201104517Y-58381055D02*
G01*
X201111945Y-58386054D01*
X201113664Y-58394842D01*
X201113494Y-58395564D01*
X200974831Y-58910578D01*
X200969371Y-58917676D01*
X200963533Y-58919236D01*
X200681467Y-58919236D01*
X200673194Y-58915809D01*
X200670169Y-58910578D01*
X200531505Y-58395564D01*
X200532663Y-58386684D01*
X200539761Y-58381224D01*
X200540453Y-58381060D01*
X200820182Y-58324469D01*
X200824818Y-58324469D01*
X201104517Y-58381055D01*
G37*
%TD.AperFunction*%
%TD*%
%TA.AperFunction,Conductor*%
%TO.N,IO2*%
G36*
X199602071Y-58376065D02*
G01*
X199609499Y-58381065D01*
X199611218Y-58389853D01*
X199611061Y-58390526D01*
X199474804Y-58905529D01*
X199469375Y-58912650D01*
X199463493Y-58914236D01*
X199181426Y-58914236D01*
X199173153Y-58910809D01*
X199170142Y-58905627D01*
X199154717Y-58849314D01*
X199029071Y-58390601D01*
X199030190Y-58381718D01*
X199037264Y-58376228D01*
X199038022Y-58376046D01*
X199317682Y-58319469D01*
X199322318Y-58319469D01*
X199602071Y-58376065D01*
G37*
%TD.AperFunction*%
%TD*%
%TA.AperFunction,Conductor*%
%TO.N,IO0*%
G36*
X196717653Y-56475835D02*
G01*
X196720206Y-56483029D01*
X196724258Y-56954504D01*
X196720902Y-56962807D01*
X196720105Y-56963545D01*
X196465769Y-57178248D01*
X196458222Y-57181008D01*
X196175635Y-57181008D01*
X196167362Y-57177581D01*
X196163935Y-57169308D01*
X196164013Y-57167960D01*
X196188129Y-56960000D01*
X196197391Y-56880131D01*
X196201717Y-56872334D01*
X196701213Y-56473982D01*
X196709816Y-56471504D01*
X196717653Y-56475835D01*
G37*
%TD.AperFunction*%
%TD*%
%TA.AperFunction,Conductor*%
%TO.N,IO0*%
G36*
X196461806Y-57709191D02*
G01*
X196464831Y-57714422D01*
X196603494Y-58229435D01*
X196602336Y-58238315D01*
X196595238Y-58243775D01*
X196594516Y-58243945D01*
X196314820Y-58300530D01*
X196310180Y-58300530D01*
X196030483Y-58243945D01*
X196023054Y-58238945D01*
X196021335Y-58230157D01*
X196021505Y-58229435D01*
X196160169Y-57714422D01*
X196165629Y-57707324D01*
X196171467Y-57705764D01*
X196453533Y-57705764D01*
X196461806Y-57709191D01*
G37*
%TD.AperFunction*%
%TD*%
%TA.AperFunction,Conductor*%
%TO.N,IO0*%
G36*
X196567769Y-58143502D02*
G01*
X196568160Y-58144132D01*
X196834280Y-58606351D01*
X196835438Y-58615231D01*
X196832413Y-58620462D01*
X196632962Y-58819913D01*
X196624689Y-58823340D01*
X196618851Y-58821780D01*
X196156632Y-58555660D01*
X196151172Y-58548562D01*
X196152330Y-58539682D01*
X196152710Y-58539068D01*
X196310485Y-58301263D01*
X196313763Y-58297985D01*
X196551553Y-58140220D01*
X196560340Y-58138502D01*
X196567769Y-58143502D01*
G37*
%TD.AperFunction*%
%TD*%
%TA.AperFunction,Conductor*%
%TO.N,ROT1*%
G36*
X207402063Y-78418298D02*
G01*
X207409617Y-78423106D01*
X207411736Y-78429821D01*
X207411736Y-78810178D01*
X207408309Y-78818451D01*
X207402063Y-78821701D01*
X206887260Y-78912259D01*
X206878518Y-78910317D01*
X206873765Y-78903056D01*
X206856962Y-78820000D01*
X206816969Y-78622318D01*
X206816969Y-78617680D01*
X206854975Y-78429821D01*
X206873765Y-78336942D01*
X206878765Y-78329514D01*
X206887260Y-78327740D01*
X207402063Y-78418298D01*
G37*
%TD.AperFunction*%
%TD*%
%TA.AperFunction,Conductor*%
%TO.N,ROT1*%
G36*
X219421969Y-46848058D02*
G01*
X219426319Y-46853425D01*
X219939110Y-48131974D01*
X219939009Y-48140928D01*
X219936524Y-48144602D01*
X219664602Y-48416524D01*
X219656329Y-48419951D01*
X219651974Y-48419110D01*
X218373425Y-47906319D01*
X218367022Y-47900059D01*
X218366303Y-47893188D01*
X218537772Y-47026973D01*
X218542739Y-47019526D01*
X218546970Y-47017773D01*
X219413188Y-46846303D01*
X219421969Y-46848058D01*
G37*
%TD.AperFunction*%
%TD*%
%TA.AperFunction,Conductor*%
%TO.N,ROT2*%
G36*
X218533024Y-52017772D02*
G01*
X218540473Y-52022739D01*
X218542228Y-52026976D01*
X218713696Y-52893188D01*
X218711941Y-52901969D01*
X218706574Y-52906319D01*
X217428025Y-53419110D01*
X217419071Y-53419009D01*
X217415397Y-53416524D01*
X217143475Y-53144602D01*
X217140048Y-53136329D01*
X217140888Y-53131978D01*
X217653681Y-51853423D01*
X217659940Y-51847022D01*
X217666810Y-51846303D01*
X218533024Y-52017772D01*
G37*
%TD.AperFunction*%
%TD*%
%TA.AperFunction,Conductor*%
%TO.N,ROT2*%
G36*
X210215710Y-60075335D02*
G01*
X210484664Y-60344289D01*
X210488091Y-60352562D01*
X210485972Y-60359277D01*
X210185986Y-60787331D01*
X210178432Y-60792139D01*
X210169937Y-60790365D01*
X209931265Y-60632015D01*
X209927984Y-60628734D01*
X209769634Y-60390062D01*
X209767915Y-60381274D01*
X209772666Y-60374015D01*
X210200724Y-60074026D01*
X210209464Y-60072085D01*
X210215710Y-60075335D01*
G37*
%TD.AperFunction*%
%TD*%
%TA.AperFunction,Conductor*%
%TO.N,EN*%
G36*
X198112017Y-78676055D02*
G01*
X198119445Y-78681054D01*
X198121164Y-78689842D01*
X198120994Y-78690564D01*
X197982331Y-79205578D01*
X197976871Y-79212676D01*
X197971033Y-79214236D01*
X197688967Y-79214236D01*
X197680694Y-79210809D01*
X197677669Y-79205578D01*
X197539005Y-78690564D01*
X197540163Y-78681684D01*
X197547261Y-78676224D01*
X197547953Y-78676060D01*
X197827682Y-78619469D01*
X197832318Y-78619469D01*
X198112017Y-78676055D01*
G37*
%TD.AperFunction*%
%TD*%
%TA.AperFunction,Conductor*%
%TO.N,EN*%
G36*
X190871282Y-91300389D02*
G01*
X191386525Y-91487204D01*
X191393134Y-91493244D01*
X191394236Y-91498202D01*
X191394236Y-91681797D01*
X191390809Y-91690070D01*
X191386524Y-91692796D01*
X190871290Y-91879608D01*
X190862344Y-91879207D01*
X190856303Y-91872597D01*
X190855837Y-91870939D01*
X190799469Y-91592318D01*
X190799469Y-91587680D01*
X190855835Y-91309067D01*
X190860834Y-91301641D01*
X190869622Y-91299922D01*
X190871282Y-91300389D01*
G37*
%TD.AperFunction*%
%TD*%
%TA.AperFunction,Conductor*%
%TO.N,EN*%
G36*
X191320462Y-86100086D02*
G01*
X191519913Y-86299537D01*
X191523340Y-86307810D01*
X191521780Y-86313648D01*
X191255660Y-86775867D01*
X191248562Y-86781327D01*
X191239682Y-86780169D01*
X191239052Y-86779778D01*
X191001265Y-86622015D01*
X190997984Y-86618734D01*
X190840221Y-86380947D01*
X190838502Y-86372159D01*
X190843502Y-86364730D01*
X190844132Y-86364339D01*
X191306353Y-86098218D01*
X191315231Y-86097061D01*
X191320462Y-86100086D01*
G37*
%TD.AperFunction*%
%TD*%
%TA.AperFunction,Conductor*%
%TO.N,col2*%
G36*
X233046505Y-52023355D02*
G01*
X233780259Y-52514614D01*
X233785227Y-52522064D01*
X233784508Y-52528935D01*
X233243036Y-53795606D01*
X233236633Y-53801866D01*
X233232278Y-53802707D01*
X232847722Y-53802707D01*
X232839449Y-53799280D01*
X232836964Y-53795606D01*
X232295491Y-52528935D01*
X232295390Y-52519981D01*
X232299738Y-52514615D01*
X233033492Y-52023356D01*
X233042272Y-52021602D01*
X233046505Y-52023355D01*
G37*
%TD.AperFunction*%
%TD*%
%TA.AperFunction,Conductor*%
%TO.N,col2*%
G36*
X205573485Y-78462667D02*
G01*
X205863144Y-78875986D01*
X205873472Y-78890722D01*
X205875414Y-78899464D01*
X205872164Y-78905710D01*
X205603210Y-79174664D01*
X205594937Y-79178091D01*
X205588222Y-79175972D01*
X205160168Y-78875986D01*
X205155360Y-78868432D01*
X205157133Y-78859938D01*
X205315485Y-78621263D01*
X205318763Y-78617985D01*
X205557438Y-78459633D01*
X205566225Y-78457915D01*
X205573485Y-78462667D01*
G37*
%TD.AperFunction*%
%TD*%
%TA.AperFunction,Conductor*%
%TO.N,col2*%
G36*
X233548935Y-51275491D02*
G01*
X234815606Y-51816964D01*
X234821866Y-51823367D01*
X234822707Y-51827722D01*
X234822707Y-52212277D01*
X234819280Y-52220550D01*
X234815606Y-52223035D01*
X233548935Y-52764508D01*
X233539981Y-52764609D01*
X233534614Y-52760259D01*
X233043356Y-52026507D01*
X233041602Y-52017728D01*
X233043355Y-52013494D01*
X233534615Y-51279739D01*
X233542064Y-51274772D01*
X233548935Y-51275491D01*
G37*
%TD.AperFunction*%
%TD*%
%TA.AperFunction,Conductor*%
%TO.N,col0*%
G36*
X199583485Y-78452667D02*
G01*
X199873144Y-78865986D01*
X199883472Y-78880722D01*
X199885414Y-78889464D01*
X199882164Y-78895710D01*
X199613210Y-79164664D01*
X199604937Y-79168091D01*
X199598222Y-79165972D01*
X199170168Y-78865986D01*
X199165360Y-78858432D01*
X199167133Y-78849938D01*
X199325485Y-78611263D01*
X199328763Y-78607985D01*
X199567438Y-78449633D01*
X199576225Y-78447915D01*
X199583485Y-78452667D01*
G37*
%TD.AperFunction*%
%TD*%
%TA.AperFunction,Conductor*%
%TO.N,col1*%
G36*
X204083634Y-78451619D02*
G01*
X204408751Y-78854332D01*
X204411281Y-78862921D01*
X204407920Y-78869954D01*
X204139005Y-79138869D01*
X204130732Y-79142296D01*
X204124667Y-79140601D01*
X203875398Y-78989504D01*
X203671249Y-78865757D01*
X203665952Y-78858539D01*
X203667310Y-78849688D01*
X203667540Y-78849325D01*
X203825485Y-78611263D01*
X203828763Y-78607985D01*
X204068063Y-78449218D01*
X204076850Y-78447500D01*
X204083634Y-78451619D01*
G37*
%TD.AperFunction*%
%TD*%
%TA.AperFunction,Conductor*%
%TO.N,VDD*%
G36*
X214961898Y-71031678D02*
G01*
X214964931Y-71033866D01*
X215096133Y-71165068D01*
X215099560Y-71173341D01*
X215098962Y-71177033D01*
X214676922Y-72446039D01*
X214671060Y-72452808D01*
X214663549Y-72453824D01*
X213846978Y-72292227D01*
X213839527Y-72287260D01*
X213837772Y-72283021D01*
X213676175Y-71466450D01*
X213677930Y-71457669D01*
X213683957Y-71453078D01*
X214952966Y-71031037D01*
X214961898Y-71031678D01*
G37*
%TD.AperFunction*%
%TD*%
%TA.AperFunction,Conductor*%
%TO.N,VBAT_IN*%
G36*
X217037655Y-90600792D02*
G01*
X217043696Y-90607402D01*
X217044165Y-90609070D01*
X217100530Y-90887680D01*
X217100530Y-90892320D01*
X217044165Y-91170929D01*
X217039165Y-91178358D01*
X217030377Y-91180077D01*
X217028709Y-91179608D01*
X216513476Y-90992796D01*
X216506866Y-90986755D01*
X216505764Y-90981797D01*
X216505764Y-90798202D01*
X216509191Y-90789929D01*
X216513473Y-90787204D01*
X217028711Y-90600391D01*
X217037655Y-90600792D01*
G37*
%TD.AperFunction*%
%TD*%
%TA.AperFunction,Conductor*%
%TO.N,Net-(LED0-A)*%
G36*
X196870352Y-54413427D02*
G01*
X196872942Y-54417355D01*
X196968050Y-54655126D01*
X196967941Y-54664080D01*
X196967656Y-54664695D01*
X196730469Y-55140020D01*
X196723709Y-55145893D01*
X196714776Y-55145265D01*
X196709531Y-55140020D01*
X196472343Y-54664695D01*
X196471715Y-54655762D01*
X196471942Y-54655144D01*
X196567058Y-54417355D01*
X196573312Y-54410946D01*
X196577921Y-54410000D01*
X196862079Y-54410000D01*
X196870352Y-54413427D01*
G37*
%TD.AperFunction*%
%TD*%
%TA.AperFunction,Conductor*%
%TO.N,Net-(LED0-A)*%
G36*
X197002017Y-53906055D02*
G01*
X197009445Y-53911054D01*
X197011164Y-53919842D01*
X197010994Y-53920564D01*
X196872331Y-54435578D01*
X196866871Y-54442676D01*
X196861033Y-54444236D01*
X196578967Y-54444236D01*
X196570694Y-54440809D01*
X196567669Y-54435578D01*
X196429005Y-53920564D01*
X196430163Y-53911684D01*
X196437261Y-53906224D01*
X196437953Y-53906060D01*
X196717682Y-53849469D01*
X196722318Y-53849469D01*
X197002017Y-53906055D01*
G37*
%TD.AperFunction*%
%TD*%
%TA.AperFunction,Conductor*%
%TO.N,Net-(LED1-A)*%
G36*
X199499904Y-54413427D02*
G01*
X199502703Y-54417919D01*
X199585129Y-54659351D01*
X199584558Y-54668287D01*
X199584276Y-54668826D01*
X199321376Y-55140584D01*
X199314355Y-55146143D01*
X199305461Y-55145109D01*
X199300472Y-55139659D01*
X199088479Y-54664813D01*
X199088236Y-54655861D01*
X199088512Y-54655200D01*
X199196882Y-54416857D01*
X199203426Y-54410744D01*
X199207533Y-54410000D01*
X199491631Y-54410000D01*
X199499904Y-54413427D01*
G37*
%TD.AperFunction*%
%TD*%
%TA.AperFunction,Conductor*%
%TO.N,Net-(LED1-A)*%
G36*
X199632017Y-53926055D02*
G01*
X199639445Y-53931054D01*
X199641164Y-53939842D01*
X199640994Y-53940564D01*
X199502331Y-54455578D01*
X199496871Y-54462676D01*
X199491033Y-54464236D01*
X199208967Y-54464236D01*
X199200694Y-54460809D01*
X199197669Y-54455578D01*
X199059005Y-53940564D01*
X199060163Y-53931684D01*
X199067261Y-53926224D01*
X199067953Y-53926060D01*
X199347682Y-53869469D01*
X199352318Y-53869469D01*
X199632017Y-53926055D01*
G37*
%TD.AperFunction*%
%TD*%
M02*
