%TF.GenerationSoftware,KiCad,Pcbnew,9.0.2*%
%TF.CreationDate,2025-08-07T13:19:16-06:00*%
%TF.ProjectId,macro devboard ESP32,6d616372-6f20-4646-9576-626f61726420,rev?*%
%TF.SameCoordinates,Original*%
%TF.FileFunction,Legend,Bot*%
%TF.FilePolarity,Positive*%
%FSLAX46Y46*%
G04 Gerber Fmt 4.6, Leading zero omitted, Abs format (unit mm)*
G04 Created by KiCad (PCBNEW 9.0.2) date 2025-08-07 13:19:16*
%MOMM*%
%LPD*%
G01*
G04 APERTURE LIST*
%ADD10C,0.600000*%
%ADD11C,0.200000*%
%ADD12C,0.120000*%
%ADD13C,0.150000*%
%ADD14C,0.000000*%
G04 APERTURE END LIST*
D10*
G36*
X198108389Y-46628897D02*
G01*
X198108389Y-46208799D01*
X198109634Y-46208649D01*
X198619467Y-46131863D01*
X198633511Y-46082709D01*
X198724492Y-46110797D01*
X198981551Y-46040599D01*
X199223872Y-45949726D01*
X199413299Y-45856005D01*
X199592696Y-45743064D01*
X199748083Y-45620931D01*
X199895121Y-45479033D01*
X200029701Y-45320961D01*
X200156477Y-45141069D01*
X200388565Y-44705230D01*
X200595866Y-44138887D01*
X200778131Y-43398761D01*
X200817348Y-43191789D01*
X201301876Y-43327036D01*
X201699370Y-43401838D01*
X201598183Y-43799940D01*
X201485477Y-44163150D01*
X201367451Y-44478438D01*
X201239207Y-44765044D01*
X201105999Y-45015594D01*
X200963512Y-45242173D01*
X200815023Y-45442180D01*
X200657833Y-45621687D01*
X200317447Y-45924408D01*
X199932475Y-46165647D01*
X199486045Y-46356057D01*
X199424553Y-46376716D01*
X199686762Y-46509032D01*
X199931218Y-46654422D01*
X200153889Y-46809507D01*
X200360266Y-46977052D01*
X200549369Y-47155637D01*
X200723146Y-47346412D01*
X201028094Y-47767456D01*
X201280129Y-48248307D01*
X201481125Y-48800309D01*
X201615411Y-49358921D01*
X200984688Y-49503159D01*
X200684541Y-49603775D01*
X200639663Y-49242412D01*
X200576691Y-48900136D01*
X200500622Y-48595562D01*
X200408016Y-48308215D01*
X200304624Y-48051613D01*
X200185910Y-47810791D01*
X200057465Y-47594772D01*
X199914548Y-47393504D01*
X199761630Y-47212167D01*
X199594702Y-47044974D01*
X199416183Y-46894040D01*
X199223709Y-46757070D01*
X198808450Y-46530894D01*
X198108389Y-46628897D01*
G37*
G36*
X199655362Y-43660736D02*
G01*
X200166441Y-43996875D01*
X199819387Y-44233714D01*
X199343120Y-44468090D01*
X198747623Y-44679851D01*
X198640533Y-44710675D01*
X198318438Y-44367819D01*
X198588788Y-44278870D01*
X198853062Y-44171285D01*
X199099892Y-44049642D01*
X199329400Y-43913409D01*
X199655362Y-43660736D01*
G37*
G36*
X197980467Y-43884829D02*
G01*
X197980467Y-48679926D01*
X195166789Y-48679926D01*
X195166789Y-43884829D01*
X196062855Y-43884829D01*
X196062855Y-48294633D01*
X196239626Y-48294633D01*
X196239626Y-44199902D01*
X196925338Y-44199902D01*
X196925338Y-48294633D01*
X197084706Y-48294633D01*
X197084706Y-43884829D01*
X197980467Y-43884829D01*
G37*
G36*
X199646509Y-47776838D02*
G01*
X200108738Y-48070846D01*
X199497181Y-48437983D01*
X198778531Y-48798689D01*
X198274474Y-48455833D01*
X198847769Y-48212925D01*
X199529375Y-47849445D01*
X199646509Y-47776838D01*
G37*
G36*
X208412262Y-47783860D02*
G01*
X208920898Y-47783860D01*
X208920898Y-48112672D01*
X208412262Y-48112672D01*
X208412262Y-49463640D01*
X207670069Y-49463640D01*
X207670069Y-48112672D01*
X207415751Y-48112672D01*
X207415751Y-49295724D01*
X206673558Y-49295724D01*
X206673558Y-48112672D01*
X206420462Y-48112672D01*
X206420462Y-49169633D01*
X205499361Y-49169633D01*
X205499361Y-49610797D01*
X204778234Y-49610797D01*
X204778234Y-49169633D01*
X203859881Y-49169633D01*
X203859881Y-48861887D01*
X204532159Y-48861887D01*
X204778234Y-48861887D01*
X205499361Y-48861887D01*
X205755205Y-48861887D01*
X205755205Y-48112672D01*
X205499361Y-48112672D01*
X205499361Y-48861887D01*
X204778234Y-48861887D01*
X204778234Y-48112672D01*
X204532159Y-48112672D01*
X204532159Y-48861887D01*
X203859881Y-48861887D01*
X203859881Y-48112672D01*
X203440088Y-48112672D01*
X203440088Y-47783860D01*
X203859881Y-47783860D01*
X203859881Y-46887794D01*
X204532159Y-46887794D01*
X204532159Y-47783860D01*
X204778234Y-47783860D01*
X204778234Y-46747660D01*
X205499361Y-46747660D01*
X205499361Y-47783860D01*
X205755205Y-47783860D01*
X205755205Y-46887794D01*
X206420462Y-46887794D01*
X206420462Y-47783860D01*
X206673558Y-47783860D01*
X206673558Y-46873750D01*
X207415751Y-46873750D01*
X207415751Y-47783860D01*
X207670069Y-47783860D01*
X207670069Y-46684767D01*
X208412262Y-46684767D01*
X208412262Y-47783860D01*
G37*
G36*
X209806302Y-45024127D02*
G01*
X210128679Y-45102684D01*
X209958168Y-45293245D01*
X209770225Y-45472582D01*
X209571013Y-45634908D01*
X209353568Y-45786089D01*
X209119874Y-45924203D01*
X208866518Y-46050808D01*
X208762751Y-46096753D01*
X208952676Y-46246107D01*
X209121751Y-46403397D01*
X209402047Y-46741259D01*
X209615049Y-47115842D01*
X209767639Y-47536879D01*
X209862301Y-48019316D01*
X209897447Y-48586355D01*
X209897564Y-48623750D01*
X209897564Y-49456618D01*
X209232382Y-49554577D01*
X209086067Y-49589731D01*
X209099806Y-48637794D01*
X209086358Y-48280791D01*
X209048284Y-47931479D01*
X208997149Y-47661798D01*
X208924718Y-47400449D01*
X208842262Y-47180759D01*
X208740007Y-46969587D01*
X208627908Y-46785070D01*
X208496601Y-46609285D01*
X208355374Y-46453573D01*
X208195191Y-46306802D01*
X207425581Y-46493923D01*
X206504378Y-46633335D01*
X205753068Y-46698811D01*
X205717958Y-46495785D01*
X205724980Y-46439914D01*
X205724980Y-45998750D01*
X204847320Y-46389620D01*
X203909035Y-46740943D01*
X203573506Y-46509829D01*
X203678531Y-46383738D01*
X203678531Y-45354865D01*
X204602379Y-45354865D01*
X204602379Y-46075687D01*
X205438619Y-45700554D01*
X205548820Y-45641851D01*
X205808198Y-45495807D01*
X206003519Y-45348910D01*
X206060814Y-45270907D01*
X206455799Y-45389804D01*
X206687602Y-45445846D01*
X206569976Y-45477947D01*
X206536782Y-45494694D01*
X206536782Y-46299780D01*
X206984736Y-46220059D01*
X207402065Y-46122169D01*
X207761355Y-46012794D01*
X207323481Y-45817566D01*
X206995654Y-45711765D01*
X207233790Y-45424780D01*
X207562619Y-45519149D01*
X207864479Y-45624811D01*
X208286172Y-45809767D01*
X208525983Y-45687411D01*
X208744956Y-45553298D01*
X208933552Y-45414889D01*
X209101429Y-45266764D01*
X209240922Y-45117511D01*
X209360218Y-44960341D01*
X209407857Y-44885919D01*
X209806302Y-45024127D01*
G37*
G36*
X205431722Y-43231265D02*
G01*
X205783293Y-43324902D01*
X205779653Y-43327901D01*
X205540272Y-43506863D01*
X206204612Y-43506863D01*
X206204612Y-44080833D01*
X206732177Y-44080833D01*
X206732177Y-43233921D01*
X207635265Y-43233921D01*
X207635265Y-44080833D01*
X208506906Y-44080833D01*
X208751248Y-44046444D01*
X209007680Y-43942527D01*
X209251562Y-43781158D01*
X209302833Y-43737978D01*
X209701421Y-43883611D01*
X210009610Y-43968787D01*
X209857535Y-44071801D01*
X209619435Y-44300682D01*
X208946201Y-45079519D01*
X208771910Y-45291667D01*
X208004987Y-45165882D01*
X208611625Y-44430711D01*
X207635265Y-44430711D01*
X207635265Y-45242819D01*
X206732177Y-45242819D01*
X206732177Y-44430711D01*
X206204612Y-44430711D01*
X206204612Y-45165882D01*
X205336634Y-45165882D01*
X205336634Y-43639975D01*
X204867688Y-43884829D01*
X204867688Y-45207709D01*
X203957578Y-45207709D01*
X203957578Y-44241728D01*
X203650816Y-44337243D01*
X203593961Y-44353775D01*
X203356130Y-43996875D01*
X203914142Y-43785040D01*
X204179048Y-43653461D01*
X204429288Y-43506680D01*
X204649337Y-43354716D01*
X204848742Y-43191728D01*
X204966301Y-43079743D01*
X205431722Y-43231265D01*
G37*
D11*
X207322513Y-63854136D02*
X207274894Y-63901755D01*
X207274894Y-63901755D02*
X207227275Y-63996993D01*
X207227275Y-63996993D02*
X207227275Y-64235088D01*
X207227275Y-64235088D02*
X207274894Y-64330326D01*
X207274894Y-64330326D02*
X207322513Y-64377945D01*
X207322513Y-64377945D02*
X207417751Y-64425564D01*
X207417751Y-64425564D02*
X207512989Y-64425564D01*
X207512989Y-64425564D02*
X207655846Y-64377945D01*
X207655846Y-64377945D02*
X208227275Y-63806517D01*
X208227275Y-63806517D02*
X208227275Y-64425564D01*
X207227275Y-65044612D02*
X207227275Y-65139850D01*
X207227275Y-65139850D02*
X207274894Y-65235088D01*
X207274894Y-65235088D02*
X207322513Y-65282707D01*
X207322513Y-65282707D02*
X207417751Y-65330326D01*
X207417751Y-65330326D02*
X207608227Y-65377945D01*
X207608227Y-65377945D02*
X207846322Y-65377945D01*
X207846322Y-65377945D02*
X208036798Y-65330326D01*
X208036798Y-65330326D02*
X208132036Y-65282707D01*
X208132036Y-65282707D02*
X208179656Y-65235088D01*
X208179656Y-65235088D02*
X208227275Y-65139850D01*
X208227275Y-65139850D02*
X208227275Y-65044612D01*
X208227275Y-65044612D02*
X208179656Y-64949374D01*
X208179656Y-64949374D02*
X208132036Y-64901755D01*
X208132036Y-64901755D02*
X208036798Y-64854136D01*
X208036798Y-64854136D02*
X207846322Y-64806517D01*
X207846322Y-64806517D02*
X207608227Y-64806517D01*
X207608227Y-64806517D02*
X207417751Y-64854136D01*
X207417751Y-64854136D02*
X207322513Y-64901755D01*
X207322513Y-64901755D02*
X207274894Y-64949374D01*
X207274894Y-64949374D02*
X207227275Y-65044612D01*
X209837219Y-64425564D02*
X209361028Y-64092231D01*
X209837219Y-63854136D02*
X208837219Y-63854136D01*
X208837219Y-63854136D02*
X208837219Y-64235088D01*
X208837219Y-64235088D02*
X208884838Y-64330326D01*
X208884838Y-64330326D02*
X208932457Y-64377945D01*
X208932457Y-64377945D02*
X209027695Y-64425564D01*
X209027695Y-64425564D02*
X209170552Y-64425564D01*
X209170552Y-64425564D02*
X209265790Y-64377945D01*
X209265790Y-64377945D02*
X209313409Y-64330326D01*
X209313409Y-64330326D02*
X209361028Y-64235088D01*
X209361028Y-64235088D02*
X209361028Y-63854136D01*
X208837219Y-64758898D02*
X209837219Y-65425564D01*
X208837219Y-65425564D02*
X209837219Y-64758898D01*
X217608720Y-86834600D02*
X218751578Y-86834600D01*
X218180149Y-87406028D02*
X218180149Y-86263171D01*
X215186517Y-72812780D02*
X215519850Y-71812780D01*
X215519850Y-71812780D02*
X215853183Y-72812780D01*
X216186517Y-71812780D02*
X216186517Y-72812780D01*
X216186517Y-72812780D02*
X216424612Y-72812780D01*
X216424612Y-72812780D02*
X216567469Y-72765161D01*
X216567469Y-72765161D02*
X216662707Y-72669923D01*
X216662707Y-72669923D02*
X216710326Y-72574685D01*
X216710326Y-72574685D02*
X216757945Y-72384209D01*
X216757945Y-72384209D02*
X216757945Y-72241352D01*
X216757945Y-72241352D02*
X216710326Y-72050876D01*
X216710326Y-72050876D02*
X216662707Y-71955638D01*
X216662707Y-71955638D02*
X216567469Y-71860400D01*
X216567469Y-71860400D02*
X216424612Y-71812780D01*
X216424612Y-71812780D02*
X216186517Y-71812780D01*
X217186517Y-71812780D02*
X217186517Y-72812780D01*
X217186517Y-72812780D02*
X217424612Y-72812780D01*
X217424612Y-72812780D02*
X217567469Y-72765161D01*
X217567469Y-72765161D02*
X217662707Y-72669923D01*
X217662707Y-72669923D02*
X217710326Y-72574685D01*
X217710326Y-72574685D02*
X217757945Y-72384209D01*
X217757945Y-72384209D02*
X217757945Y-72241352D01*
X217757945Y-72241352D02*
X217710326Y-72050876D01*
X217710326Y-72050876D02*
X217662707Y-71955638D01*
X217662707Y-71955638D02*
X217567469Y-71860400D01*
X217567469Y-71860400D02*
X217424612Y-71812780D01*
X217424612Y-71812780D02*
X217186517Y-71812780D01*
X202331755Y-50322780D02*
X202331755Y-51322780D01*
X202903183Y-50322780D02*
X202474612Y-50894209D01*
X202903183Y-51322780D02*
X202331755Y-50751352D01*
X203712707Y-50370400D02*
X203617469Y-50322780D01*
X203617469Y-50322780D02*
X203426993Y-50322780D01*
X203426993Y-50322780D02*
X203331755Y-50370400D01*
X203331755Y-50370400D02*
X203284136Y-50465638D01*
X203284136Y-50465638D02*
X203284136Y-50846590D01*
X203284136Y-50846590D02*
X203331755Y-50941828D01*
X203331755Y-50941828D02*
X203426993Y-50989447D01*
X203426993Y-50989447D02*
X203617469Y-50989447D01*
X203617469Y-50989447D02*
X203712707Y-50941828D01*
X203712707Y-50941828D02*
X203760326Y-50846590D01*
X203760326Y-50846590D02*
X203760326Y-50751352D01*
X203760326Y-50751352D02*
X203284136Y-50656114D01*
X204093660Y-50989447D02*
X204331755Y-50322780D01*
X204331755Y-50322780D02*
X204569850Y-50989447D01*
X204950803Y-50322780D02*
X204950803Y-50989447D01*
X204950803Y-51322780D02*
X204903184Y-51275161D01*
X204903184Y-51275161D02*
X204950803Y-51227542D01*
X204950803Y-51227542D02*
X204998422Y-51275161D01*
X204998422Y-51275161D02*
X204950803Y-51322780D01*
X204950803Y-51322780D02*
X204950803Y-51227542D01*
X205426993Y-50989447D02*
X205426993Y-50322780D01*
X205426993Y-50894209D02*
X205474612Y-50941828D01*
X205474612Y-50941828D02*
X205569850Y-50989447D01*
X205569850Y-50989447D02*
X205712707Y-50989447D01*
X205712707Y-50989447D02*
X205807945Y-50941828D01*
X205807945Y-50941828D02*
X205855564Y-50846590D01*
X205855564Y-50846590D02*
X205855564Y-50322780D01*
X207284136Y-50798971D02*
X207284136Y-50322780D01*
X206950803Y-51322780D02*
X207284136Y-50798971D01*
X207284136Y-50798971D02*
X207617469Y-51322780D01*
X207950803Y-50322780D02*
X207950803Y-50989447D01*
X207950803Y-51322780D02*
X207903184Y-51275161D01*
X207903184Y-51275161D02*
X207950803Y-51227542D01*
X207950803Y-51227542D02*
X207998422Y-51275161D01*
X207998422Y-51275161D02*
X207950803Y-51322780D01*
X207950803Y-51322780D02*
X207950803Y-51227542D01*
X208426993Y-50989447D02*
X208426993Y-50322780D01*
X208426993Y-50894209D02*
X208474612Y-50941828D01*
X208474612Y-50941828D02*
X208569850Y-50989447D01*
X208569850Y-50989447D02*
X208712707Y-50989447D01*
X208712707Y-50989447D02*
X208807945Y-50941828D01*
X208807945Y-50941828D02*
X208855564Y-50846590D01*
X208855564Y-50846590D02*
X208855564Y-50322780D01*
X209760326Y-50989447D02*
X209760326Y-50179923D01*
X209760326Y-50179923D02*
X209712707Y-50084685D01*
X209712707Y-50084685D02*
X209665088Y-50037066D01*
X209665088Y-50037066D02*
X209569850Y-49989447D01*
X209569850Y-49989447D02*
X209426993Y-49989447D01*
X209426993Y-49989447D02*
X209331755Y-50037066D01*
X209760326Y-50370400D02*
X209665088Y-50322780D01*
X209665088Y-50322780D02*
X209474612Y-50322780D01*
X209474612Y-50322780D02*
X209379374Y-50370400D01*
X209379374Y-50370400D02*
X209331755Y-50418019D01*
X209331755Y-50418019D02*
X209284136Y-50513257D01*
X209284136Y-50513257D02*
X209284136Y-50798971D01*
X209284136Y-50798971D02*
X209331755Y-50894209D01*
X209331755Y-50894209D02*
X209379374Y-50941828D01*
X209379374Y-50941828D02*
X209474612Y-50989447D01*
X209474612Y-50989447D02*
X209665088Y-50989447D01*
X209665088Y-50989447D02*
X209760326Y-50941828D01*
X215382457Y-66836517D02*
X215334838Y-66884136D01*
X215334838Y-66884136D02*
X215287219Y-66979374D01*
X215287219Y-66979374D02*
X215287219Y-67217469D01*
X215287219Y-67217469D02*
X215334838Y-67312707D01*
X215334838Y-67312707D02*
X215382457Y-67360326D01*
X215382457Y-67360326D02*
X215477695Y-67407945D01*
X215477695Y-67407945D02*
X215572933Y-67407945D01*
X215572933Y-67407945D02*
X215715790Y-67360326D01*
X215715790Y-67360326D02*
X216287219Y-66788898D01*
X216287219Y-66788898D02*
X216287219Y-67407945D01*
X216907219Y-63819374D02*
X216907219Y-64390802D01*
X217907219Y-64105088D02*
X216907219Y-64105088D01*
X216907219Y-64628898D02*
X217907219Y-65295564D01*
X216907219Y-65295564D02*
X217907219Y-64628898D01*
X215297219Y-69654612D02*
X215297219Y-69749850D01*
X215297219Y-69749850D02*
X215344838Y-69845088D01*
X215344838Y-69845088D02*
X215392457Y-69892707D01*
X215392457Y-69892707D02*
X215487695Y-69940326D01*
X215487695Y-69940326D02*
X215678171Y-69987945D01*
X215678171Y-69987945D02*
X215916266Y-69987945D01*
X215916266Y-69987945D02*
X216106742Y-69940326D01*
X216106742Y-69940326D02*
X216201980Y-69892707D01*
X216201980Y-69892707D02*
X216249600Y-69845088D01*
X216249600Y-69845088D02*
X216297219Y-69749850D01*
X216297219Y-69749850D02*
X216297219Y-69654612D01*
X216297219Y-69654612D02*
X216249600Y-69559374D01*
X216249600Y-69559374D02*
X216201980Y-69511755D01*
X216201980Y-69511755D02*
X216106742Y-69464136D01*
X216106742Y-69464136D02*
X215916266Y-69416517D01*
X215916266Y-69416517D02*
X215678171Y-69416517D01*
X215678171Y-69416517D02*
X215487695Y-69464136D01*
X215487695Y-69464136D02*
X215392457Y-69511755D01*
X215392457Y-69511755D02*
X215344838Y-69559374D01*
X215344838Y-69559374D02*
X215297219Y-69654612D01*
X215382457Y-63864136D02*
X215334838Y-63911755D01*
X215334838Y-63911755D02*
X215287219Y-64006993D01*
X215287219Y-64006993D02*
X215287219Y-64245088D01*
X215287219Y-64245088D02*
X215334838Y-64340326D01*
X215334838Y-64340326D02*
X215382457Y-64387945D01*
X215382457Y-64387945D02*
X215477695Y-64435564D01*
X215477695Y-64435564D02*
X215572933Y-64435564D01*
X215572933Y-64435564D02*
X215715790Y-64387945D01*
X215715790Y-64387945D02*
X216287219Y-63816517D01*
X216287219Y-63816517D02*
X216287219Y-64435564D01*
X216287219Y-65387945D02*
X216287219Y-64816517D01*
X216287219Y-65102231D02*
X215287219Y-65102231D01*
X215287219Y-65102231D02*
X215430076Y-65006993D01*
X215430076Y-65006993D02*
X215525314Y-64911755D01*
X215525314Y-64911755D02*
X215572933Y-64816517D01*
X209837219Y-69967945D02*
X209837219Y-69396517D01*
X209837219Y-69682231D02*
X208837219Y-69682231D01*
X208837219Y-69682231D02*
X208980076Y-69586993D01*
X208980076Y-69586993D02*
X209075314Y-69491755D01*
X209075314Y-69491755D02*
X209122933Y-69396517D01*
X207692707Y-72765161D02*
X207597469Y-72812780D01*
X207597469Y-72812780D02*
X207454612Y-72812780D01*
X207454612Y-72812780D02*
X207311755Y-72765161D01*
X207311755Y-72765161D02*
X207216517Y-72669923D01*
X207216517Y-72669923D02*
X207168898Y-72574685D01*
X207168898Y-72574685D02*
X207121279Y-72384209D01*
X207121279Y-72384209D02*
X207121279Y-72241352D01*
X207121279Y-72241352D02*
X207168898Y-72050876D01*
X207168898Y-72050876D02*
X207216517Y-71955638D01*
X207216517Y-71955638D02*
X207311755Y-71860400D01*
X207311755Y-71860400D02*
X207454612Y-71812780D01*
X207454612Y-71812780D02*
X207549850Y-71812780D01*
X207549850Y-71812780D02*
X207692707Y-71860400D01*
X207692707Y-71860400D02*
X207740326Y-71908019D01*
X207740326Y-71908019D02*
X207740326Y-72241352D01*
X207740326Y-72241352D02*
X207549850Y-72241352D01*
X208168898Y-71812780D02*
X208168898Y-72812780D01*
X208168898Y-72812780D02*
X208740326Y-71812780D01*
X208740326Y-71812780D02*
X208740326Y-72812780D01*
X209216517Y-71812780D02*
X209216517Y-72812780D01*
X209216517Y-72812780D02*
X209454612Y-72812780D01*
X209454612Y-72812780D02*
X209597469Y-72765161D01*
X209597469Y-72765161D02*
X209692707Y-72669923D01*
X209692707Y-72669923D02*
X209740326Y-72574685D01*
X209740326Y-72574685D02*
X209787945Y-72384209D01*
X209787945Y-72384209D02*
X209787945Y-72241352D01*
X209787945Y-72241352D02*
X209740326Y-72050876D01*
X209740326Y-72050876D02*
X209692707Y-71955638D01*
X209692707Y-71955638D02*
X209597469Y-71860400D01*
X209597469Y-71860400D02*
X209454612Y-71812780D01*
X209454612Y-71812780D02*
X209216517Y-71812780D01*
X208817219Y-66808898D02*
X208817219Y-67427945D01*
X208817219Y-67427945D02*
X209198171Y-67094612D01*
X209198171Y-67094612D02*
X209198171Y-67237469D01*
X209198171Y-67237469D02*
X209245790Y-67332707D01*
X209245790Y-67332707D02*
X209293409Y-67380326D01*
X209293409Y-67380326D02*
X209388647Y-67427945D01*
X209388647Y-67427945D02*
X209626742Y-67427945D01*
X209626742Y-67427945D02*
X209721980Y-67380326D01*
X209721980Y-67380326D02*
X209769600Y-67332707D01*
X209769600Y-67332707D02*
X209817219Y-67237469D01*
X209817219Y-67237469D02*
X209817219Y-66951755D01*
X209817219Y-66951755D02*
X209769600Y-66856517D01*
X209769600Y-66856517D02*
X209721980Y-66808898D01*
D12*
X244775760Y-82623332D02*
X244813855Y-82737618D01*
X244813855Y-82737618D02*
X244813855Y-82928094D01*
X244813855Y-82928094D02*
X244775760Y-83004285D01*
X244775760Y-83004285D02*
X244737664Y-83042380D01*
X244737664Y-83042380D02*
X244661474Y-83080475D01*
X244661474Y-83080475D02*
X244585283Y-83080475D01*
X244585283Y-83080475D02*
X244509093Y-83042380D01*
X244509093Y-83042380D02*
X244470998Y-83004285D01*
X244470998Y-83004285D02*
X244432902Y-82928094D01*
X244432902Y-82928094D02*
X244394807Y-82775713D01*
X244394807Y-82775713D02*
X244356712Y-82699523D01*
X244356712Y-82699523D02*
X244318617Y-82661428D01*
X244318617Y-82661428D02*
X244242426Y-82623332D01*
X244242426Y-82623332D02*
X244166236Y-82623332D01*
X244166236Y-82623332D02*
X244090045Y-82661428D01*
X244090045Y-82661428D02*
X244051950Y-82699523D01*
X244051950Y-82699523D02*
X244013855Y-82775713D01*
X244013855Y-82775713D02*
X244013855Y-82966190D01*
X244013855Y-82966190D02*
X244051950Y-83080475D01*
X244013855Y-83347142D02*
X244813855Y-83537618D01*
X244813855Y-83537618D02*
X244242426Y-83689999D01*
X244242426Y-83689999D02*
X244813855Y-83842380D01*
X244813855Y-83842380D02*
X244013855Y-84032857D01*
X244013855Y-84680476D02*
X244013855Y-84528095D01*
X244013855Y-84528095D02*
X244051950Y-84451904D01*
X244051950Y-84451904D02*
X244090045Y-84413809D01*
X244090045Y-84413809D02*
X244204331Y-84337619D01*
X244204331Y-84337619D02*
X244356712Y-84299523D01*
X244356712Y-84299523D02*
X244661474Y-84299523D01*
X244661474Y-84299523D02*
X244737664Y-84337619D01*
X244737664Y-84337619D02*
X244775760Y-84375714D01*
X244775760Y-84375714D02*
X244813855Y-84451904D01*
X244813855Y-84451904D02*
X244813855Y-84604285D01*
X244813855Y-84604285D02*
X244775760Y-84680476D01*
X244775760Y-84680476D02*
X244737664Y-84718571D01*
X244737664Y-84718571D02*
X244661474Y-84756666D01*
X244661474Y-84756666D02*
X244470998Y-84756666D01*
X244470998Y-84756666D02*
X244394807Y-84718571D01*
X244394807Y-84718571D02*
X244356712Y-84680476D01*
X244356712Y-84680476D02*
X244318617Y-84604285D01*
X244318617Y-84604285D02*
X244318617Y-84451904D01*
X244318617Y-84451904D02*
X244356712Y-84375714D01*
X244356712Y-84375714D02*
X244394807Y-84337619D01*
X244394807Y-84337619D02*
X244470998Y-84299523D01*
X233435760Y-48970475D02*
X233473855Y-49084761D01*
X233473855Y-49084761D02*
X233473855Y-49275237D01*
X233473855Y-49275237D02*
X233435760Y-49351428D01*
X233435760Y-49351428D02*
X233397664Y-49389523D01*
X233397664Y-49389523D02*
X233321474Y-49427618D01*
X233321474Y-49427618D02*
X233245283Y-49427618D01*
X233245283Y-49427618D02*
X233169093Y-49389523D01*
X233169093Y-49389523D02*
X233130998Y-49351428D01*
X233130998Y-49351428D02*
X233092902Y-49275237D01*
X233092902Y-49275237D02*
X233054807Y-49122856D01*
X233054807Y-49122856D02*
X233016712Y-49046666D01*
X233016712Y-49046666D02*
X232978617Y-49008571D01*
X232978617Y-49008571D02*
X232902426Y-48970475D01*
X232902426Y-48970475D02*
X232826236Y-48970475D01*
X232826236Y-48970475D02*
X232750045Y-49008571D01*
X232750045Y-49008571D02*
X232711950Y-49046666D01*
X232711950Y-49046666D02*
X232673855Y-49122856D01*
X232673855Y-49122856D02*
X232673855Y-49313333D01*
X232673855Y-49313333D02*
X232711950Y-49427618D01*
X233473855Y-50189523D02*
X233473855Y-49732380D01*
X233473855Y-49960952D02*
X232673855Y-49960952D01*
X232673855Y-49960952D02*
X232788140Y-49884761D01*
X232788140Y-49884761D02*
X232864331Y-49808571D01*
X232864331Y-49808571D02*
X232902426Y-49732380D01*
X225725760Y-63573332D02*
X225763855Y-63687618D01*
X225763855Y-63687618D02*
X225763855Y-63878094D01*
X225763855Y-63878094D02*
X225725760Y-63954285D01*
X225725760Y-63954285D02*
X225687664Y-63992380D01*
X225687664Y-63992380D02*
X225611474Y-64030475D01*
X225611474Y-64030475D02*
X225535283Y-64030475D01*
X225535283Y-64030475D02*
X225459093Y-63992380D01*
X225459093Y-63992380D02*
X225420998Y-63954285D01*
X225420998Y-63954285D02*
X225382902Y-63878094D01*
X225382902Y-63878094D02*
X225344807Y-63725713D01*
X225344807Y-63725713D02*
X225306712Y-63649523D01*
X225306712Y-63649523D02*
X225268617Y-63611428D01*
X225268617Y-63611428D02*
X225192426Y-63573332D01*
X225192426Y-63573332D02*
X225116236Y-63573332D01*
X225116236Y-63573332D02*
X225040045Y-63611428D01*
X225040045Y-63611428D02*
X225001950Y-63649523D01*
X225001950Y-63649523D02*
X224963855Y-63725713D01*
X224963855Y-63725713D02*
X224963855Y-63916190D01*
X224963855Y-63916190D02*
X225001950Y-64030475D01*
X224963855Y-64297142D02*
X225763855Y-64487618D01*
X225763855Y-64487618D02*
X225192426Y-64639999D01*
X225192426Y-64639999D02*
X225763855Y-64792380D01*
X225763855Y-64792380D02*
X224963855Y-64982857D01*
X225763855Y-65325714D02*
X225763855Y-65478095D01*
X225763855Y-65478095D02*
X225725760Y-65554285D01*
X225725760Y-65554285D02*
X225687664Y-65592381D01*
X225687664Y-65592381D02*
X225573379Y-65668571D01*
X225573379Y-65668571D02*
X225420998Y-65706666D01*
X225420998Y-65706666D02*
X225116236Y-65706666D01*
X225116236Y-65706666D02*
X225040045Y-65668571D01*
X225040045Y-65668571D02*
X225001950Y-65630476D01*
X225001950Y-65630476D02*
X224963855Y-65554285D01*
X224963855Y-65554285D02*
X224963855Y-65401904D01*
X224963855Y-65401904D02*
X225001950Y-65325714D01*
X225001950Y-65325714D02*
X225040045Y-65287619D01*
X225040045Y-65287619D02*
X225116236Y-65249523D01*
X225116236Y-65249523D02*
X225306712Y-65249523D01*
X225306712Y-65249523D02*
X225382902Y-65287619D01*
X225382902Y-65287619D02*
X225420998Y-65325714D01*
X225420998Y-65325714D02*
X225459093Y-65401904D01*
X225459093Y-65401904D02*
X225459093Y-65554285D01*
X225459093Y-65554285D02*
X225420998Y-65630476D01*
X225420998Y-65630476D02*
X225382902Y-65668571D01*
X225382902Y-65668571D02*
X225306712Y-65706666D01*
X244775760Y-63573332D02*
X244813855Y-63687618D01*
X244813855Y-63687618D02*
X244813855Y-63878094D01*
X244813855Y-63878094D02*
X244775760Y-63954285D01*
X244775760Y-63954285D02*
X244737664Y-63992380D01*
X244737664Y-63992380D02*
X244661474Y-64030475D01*
X244661474Y-64030475D02*
X244585283Y-64030475D01*
X244585283Y-64030475D02*
X244509093Y-63992380D01*
X244509093Y-63992380D02*
X244470998Y-63954285D01*
X244470998Y-63954285D02*
X244432902Y-63878094D01*
X244432902Y-63878094D02*
X244394807Y-63725713D01*
X244394807Y-63725713D02*
X244356712Y-63649523D01*
X244356712Y-63649523D02*
X244318617Y-63611428D01*
X244318617Y-63611428D02*
X244242426Y-63573332D01*
X244242426Y-63573332D02*
X244166236Y-63573332D01*
X244166236Y-63573332D02*
X244090045Y-63611428D01*
X244090045Y-63611428D02*
X244051950Y-63649523D01*
X244051950Y-63649523D02*
X244013855Y-63725713D01*
X244013855Y-63725713D02*
X244013855Y-63916190D01*
X244013855Y-63916190D02*
X244051950Y-64030475D01*
X244013855Y-64297142D02*
X244813855Y-64487618D01*
X244813855Y-64487618D02*
X244242426Y-64639999D01*
X244242426Y-64639999D02*
X244813855Y-64792380D01*
X244813855Y-64792380D02*
X244013855Y-64982857D01*
X244013855Y-65211428D02*
X244013855Y-65744762D01*
X244013855Y-65744762D02*
X244813855Y-65401904D01*
X225725760Y-82623332D02*
X225763855Y-82737618D01*
X225763855Y-82737618D02*
X225763855Y-82928094D01*
X225763855Y-82928094D02*
X225725760Y-83004285D01*
X225725760Y-83004285D02*
X225687664Y-83042380D01*
X225687664Y-83042380D02*
X225611474Y-83080475D01*
X225611474Y-83080475D02*
X225535283Y-83080475D01*
X225535283Y-83080475D02*
X225459093Y-83042380D01*
X225459093Y-83042380D02*
X225420998Y-83004285D01*
X225420998Y-83004285D02*
X225382902Y-82928094D01*
X225382902Y-82928094D02*
X225344807Y-82775713D01*
X225344807Y-82775713D02*
X225306712Y-82699523D01*
X225306712Y-82699523D02*
X225268617Y-82661428D01*
X225268617Y-82661428D02*
X225192426Y-82623332D01*
X225192426Y-82623332D02*
X225116236Y-82623332D01*
X225116236Y-82623332D02*
X225040045Y-82661428D01*
X225040045Y-82661428D02*
X225001950Y-82699523D01*
X225001950Y-82699523D02*
X224963855Y-82775713D01*
X224963855Y-82775713D02*
X224963855Y-82966190D01*
X224963855Y-82966190D02*
X225001950Y-83080475D01*
X224963855Y-83347142D02*
X225763855Y-83537618D01*
X225763855Y-83537618D02*
X225192426Y-83689999D01*
X225192426Y-83689999D02*
X225763855Y-83842380D01*
X225763855Y-83842380D02*
X224963855Y-84032857D01*
X225306712Y-84451904D02*
X225268617Y-84375714D01*
X225268617Y-84375714D02*
X225230521Y-84337619D01*
X225230521Y-84337619D02*
X225154331Y-84299523D01*
X225154331Y-84299523D02*
X225116236Y-84299523D01*
X225116236Y-84299523D02*
X225040045Y-84337619D01*
X225040045Y-84337619D02*
X225001950Y-84375714D01*
X225001950Y-84375714D02*
X224963855Y-84451904D01*
X224963855Y-84451904D02*
X224963855Y-84604285D01*
X224963855Y-84604285D02*
X225001950Y-84680476D01*
X225001950Y-84680476D02*
X225040045Y-84718571D01*
X225040045Y-84718571D02*
X225116236Y-84756666D01*
X225116236Y-84756666D02*
X225154331Y-84756666D01*
X225154331Y-84756666D02*
X225230521Y-84718571D01*
X225230521Y-84718571D02*
X225268617Y-84680476D01*
X225268617Y-84680476D02*
X225306712Y-84604285D01*
X225306712Y-84604285D02*
X225306712Y-84451904D01*
X225306712Y-84451904D02*
X225344807Y-84375714D01*
X225344807Y-84375714D02*
X225382902Y-84337619D01*
X225382902Y-84337619D02*
X225459093Y-84299523D01*
X225459093Y-84299523D02*
X225611474Y-84299523D01*
X225611474Y-84299523D02*
X225687664Y-84337619D01*
X225687664Y-84337619D02*
X225725760Y-84375714D01*
X225725760Y-84375714D02*
X225763855Y-84451904D01*
X225763855Y-84451904D02*
X225763855Y-84604285D01*
X225763855Y-84604285D02*
X225725760Y-84680476D01*
X225725760Y-84680476D02*
X225687664Y-84718571D01*
X225687664Y-84718571D02*
X225611474Y-84756666D01*
X225611474Y-84756666D02*
X225459093Y-84756666D01*
X225459093Y-84756666D02*
X225382902Y-84718571D01*
X225382902Y-84718571D02*
X225344807Y-84680476D01*
X225344807Y-84680476D02*
X225306712Y-84604285D01*
X244775760Y-44523332D02*
X244813855Y-44637618D01*
X244813855Y-44637618D02*
X244813855Y-44828094D01*
X244813855Y-44828094D02*
X244775760Y-44904285D01*
X244775760Y-44904285D02*
X244737664Y-44942380D01*
X244737664Y-44942380D02*
X244661474Y-44980475D01*
X244661474Y-44980475D02*
X244585283Y-44980475D01*
X244585283Y-44980475D02*
X244509093Y-44942380D01*
X244509093Y-44942380D02*
X244470998Y-44904285D01*
X244470998Y-44904285D02*
X244432902Y-44828094D01*
X244432902Y-44828094D02*
X244394807Y-44675713D01*
X244394807Y-44675713D02*
X244356712Y-44599523D01*
X244356712Y-44599523D02*
X244318617Y-44561428D01*
X244318617Y-44561428D02*
X244242426Y-44523332D01*
X244242426Y-44523332D02*
X244166236Y-44523332D01*
X244166236Y-44523332D02*
X244090045Y-44561428D01*
X244090045Y-44561428D02*
X244051950Y-44599523D01*
X244051950Y-44599523D02*
X244013855Y-44675713D01*
X244013855Y-44675713D02*
X244013855Y-44866190D01*
X244013855Y-44866190D02*
X244051950Y-44980475D01*
X244013855Y-45247142D02*
X244813855Y-45437618D01*
X244813855Y-45437618D02*
X244242426Y-45589999D01*
X244242426Y-45589999D02*
X244813855Y-45742380D01*
X244813855Y-45742380D02*
X244013855Y-45932857D01*
X244813855Y-46656666D02*
X244813855Y-46199523D01*
X244813855Y-46428095D02*
X244013855Y-46428095D01*
X244013855Y-46428095D02*
X244128140Y-46351904D01*
X244128140Y-46351904D02*
X244204331Y-46275714D01*
X244204331Y-46275714D02*
X244242426Y-46199523D01*
X252302139Y-77808102D02*
X251502139Y-77808102D01*
X251502139Y-77808102D02*
X251502139Y-77998578D01*
X251502139Y-77998578D02*
X251540234Y-78112864D01*
X251540234Y-78112864D02*
X251616424Y-78189054D01*
X251616424Y-78189054D02*
X251692615Y-78227149D01*
X251692615Y-78227149D02*
X251844996Y-78265245D01*
X251844996Y-78265245D02*
X251959282Y-78265245D01*
X251959282Y-78265245D02*
X252111663Y-78227149D01*
X252111663Y-78227149D02*
X252187853Y-78189054D01*
X252187853Y-78189054D02*
X252264044Y-78112864D01*
X252264044Y-78112864D02*
X252302139Y-77998578D01*
X252302139Y-77998578D02*
X252302139Y-77808102D01*
X251768805Y-78950959D02*
X252302139Y-78950959D01*
X251464044Y-78760483D02*
X252035472Y-78570006D01*
X252035472Y-78570006D02*
X252035472Y-79065245D01*
X233883855Y-76889524D02*
X233083855Y-76889524D01*
X233083855Y-76889524D02*
X233083855Y-77080000D01*
X233083855Y-77080000D02*
X233121950Y-77194286D01*
X233121950Y-77194286D02*
X233198140Y-77270476D01*
X233198140Y-77270476D02*
X233274331Y-77308571D01*
X233274331Y-77308571D02*
X233426712Y-77346667D01*
X233426712Y-77346667D02*
X233540998Y-77346667D01*
X233540998Y-77346667D02*
X233693379Y-77308571D01*
X233693379Y-77308571D02*
X233769569Y-77270476D01*
X233769569Y-77270476D02*
X233845760Y-77194286D01*
X233845760Y-77194286D02*
X233883855Y-77080000D01*
X233883855Y-77080000D02*
X233883855Y-76889524D01*
X233083855Y-78032381D02*
X233083855Y-77880000D01*
X233083855Y-77880000D02*
X233121950Y-77803809D01*
X233121950Y-77803809D02*
X233160045Y-77765714D01*
X233160045Y-77765714D02*
X233274331Y-77689524D01*
X233274331Y-77689524D02*
X233426712Y-77651428D01*
X233426712Y-77651428D02*
X233731474Y-77651428D01*
X233731474Y-77651428D02*
X233807664Y-77689524D01*
X233807664Y-77689524D02*
X233845760Y-77727619D01*
X233845760Y-77727619D02*
X233883855Y-77803809D01*
X233883855Y-77803809D02*
X233883855Y-77956190D01*
X233883855Y-77956190D02*
X233845760Y-78032381D01*
X233845760Y-78032381D02*
X233807664Y-78070476D01*
X233807664Y-78070476D02*
X233731474Y-78108571D01*
X233731474Y-78108571D02*
X233540998Y-78108571D01*
X233540998Y-78108571D02*
X233464807Y-78070476D01*
X233464807Y-78070476D02*
X233426712Y-78032381D01*
X233426712Y-78032381D02*
X233388617Y-77956190D01*
X233388617Y-77956190D02*
X233388617Y-77803809D01*
X233388617Y-77803809D02*
X233426712Y-77727619D01*
X233426712Y-77727619D02*
X233464807Y-77689524D01*
X233464807Y-77689524D02*
X233540998Y-77651428D01*
D13*
X199784819Y-58870952D02*
X199784819Y-58394762D01*
X199784819Y-58394762D02*
X198784819Y-58394762D01*
X199261009Y-59204286D02*
X199261009Y-59537619D01*
X199784819Y-59680476D02*
X199784819Y-59204286D01*
X199784819Y-59204286D02*
X198784819Y-59204286D01*
X198784819Y-59204286D02*
X198784819Y-59680476D01*
X199784819Y-60109048D02*
X198784819Y-60109048D01*
X198784819Y-60109048D02*
X198784819Y-60347143D01*
X198784819Y-60347143D02*
X198832438Y-60490000D01*
X198832438Y-60490000D02*
X198927676Y-60585238D01*
X198927676Y-60585238D02*
X199022914Y-60632857D01*
X199022914Y-60632857D02*
X199213390Y-60680476D01*
X199213390Y-60680476D02*
X199356247Y-60680476D01*
X199356247Y-60680476D02*
X199546723Y-60632857D01*
X199546723Y-60632857D02*
X199641961Y-60585238D01*
X199641961Y-60585238D02*
X199737200Y-60490000D01*
X199737200Y-60490000D02*
X199784819Y-60347143D01*
X199784819Y-60347143D02*
X199784819Y-60109048D01*
X199784819Y-61632857D02*
X199784819Y-61061429D01*
X199784819Y-61347143D02*
X198784819Y-61347143D01*
X198784819Y-61347143D02*
X198927676Y-61251905D01*
X198927676Y-61251905D02*
X199022914Y-61156667D01*
X199022914Y-61156667D02*
X199070533Y-61061429D01*
D12*
X214535855Y-56710476D02*
X214535855Y-57167619D01*
X215335855Y-56939047D02*
X214535855Y-56939047D01*
X215335855Y-57434286D02*
X214535855Y-57434286D01*
X214535855Y-57434286D02*
X214535855Y-57739048D01*
X214535855Y-57739048D02*
X214573950Y-57815238D01*
X214573950Y-57815238D02*
X214612045Y-57853333D01*
X214612045Y-57853333D02*
X214688236Y-57891429D01*
X214688236Y-57891429D02*
X214802521Y-57891429D01*
X214802521Y-57891429D02*
X214878712Y-57853333D01*
X214878712Y-57853333D02*
X214916807Y-57815238D01*
X214916807Y-57815238D02*
X214954902Y-57739048D01*
X214954902Y-57739048D02*
X214954902Y-57434286D01*
X214802521Y-58577143D02*
X215335855Y-58577143D01*
X214497760Y-58386667D02*
X215069188Y-58196190D01*
X215069188Y-58196190D02*
X215069188Y-58691429D01*
X212153855Y-74213333D02*
X212725283Y-74213333D01*
X212725283Y-74213333D02*
X212839569Y-74175238D01*
X212839569Y-74175238D02*
X212915760Y-74099047D01*
X212915760Y-74099047D02*
X212953855Y-73984762D01*
X212953855Y-73984762D02*
X212953855Y-73908571D01*
X212153855Y-74518095D02*
X212153855Y-75013333D01*
X212153855Y-75013333D02*
X212458617Y-74746667D01*
X212458617Y-74746667D02*
X212458617Y-74860952D01*
X212458617Y-74860952D02*
X212496712Y-74937143D01*
X212496712Y-74937143D02*
X212534807Y-74975238D01*
X212534807Y-74975238D02*
X212610998Y-75013333D01*
X212610998Y-75013333D02*
X212801474Y-75013333D01*
X212801474Y-75013333D02*
X212877664Y-74975238D01*
X212877664Y-74975238D02*
X212915760Y-74937143D01*
X212915760Y-74937143D02*
X212953855Y-74860952D01*
X212953855Y-74860952D02*
X212953855Y-74632381D01*
X212953855Y-74632381D02*
X212915760Y-74556190D01*
X212915760Y-74556190D02*
X212877664Y-74518095D01*
X214523855Y-60110476D02*
X214523855Y-60567619D01*
X215323855Y-60339047D02*
X214523855Y-60339047D01*
X215323855Y-60834286D02*
X214523855Y-60834286D01*
X214523855Y-60834286D02*
X214523855Y-61139048D01*
X214523855Y-61139048D02*
X214561950Y-61215238D01*
X214561950Y-61215238D02*
X214600045Y-61253333D01*
X214600045Y-61253333D02*
X214676236Y-61291429D01*
X214676236Y-61291429D02*
X214790521Y-61291429D01*
X214790521Y-61291429D02*
X214866712Y-61253333D01*
X214866712Y-61253333D02*
X214904807Y-61215238D01*
X214904807Y-61215238D02*
X214942902Y-61139048D01*
X214942902Y-61139048D02*
X214942902Y-60834286D01*
X214523855Y-62015238D02*
X214523855Y-61634286D01*
X214523855Y-61634286D02*
X214904807Y-61596190D01*
X214904807Y-61596190D02*
X214866712Y-61634286D01*
X214866712Y-61634286D02*
X214828617Y-61710476D01*
X214828617Y-61710476D02*
X214828617Y-61900952D01*
X214828617Y-61900952D02*
X214866712Y-61977143D01*
X214866712Y-61977143D02*
X214904807Y-62015238D01*
X214904807Y-62015238D02*
X214980998Y-62053333D01*
X214980998Y-62053333D02*
X215171474Y-62053333D01*
X215171474Y-62053333D02*
X215247664Y-62015238D01*
X215247664Y-62015238D02*
X215285760Y-61977143D01*
X215285760Y-61977143D02*
X215323855Y-61900952D01*
X215323855Y-61900952D02*
X215323855Y-61710476D01*
X215323855Y-61710476D02*
X215285760Y-61634286D01*
X215285760Y-61634286D02*
X215247664Y-61596190D01*
X252303855Y-86862024D02*
X251503855Y-86862024D01*
X251503855Y-86862024D02*
X251503855Y-87052500D01*
X251503855Y-87052500D02*
X251541950Y-87166786D01*
X251541950Y-87166786D02*
X251618140Y-87242976D01*
X251618140Y-87242976D02*
X251694331Y-87281071D01*
X251694331Y-87281071D02*
X251846712Y-87319167D01*
X251846712Y-87319167D02*
X251960998Y-87319167D01*
X251960998Y-87319167D02*
X252113379Y-87281071D01*
X252113379Y-87281071D02*
X252189569Y-87242976D01*
X252189569Y-87242976D02*
X252265760Y-87166786D01*
X252265760Y-87166786D02*
X252303855Y-87052500D01*
X252303855Y-87052500D02*
X252303855Y-86862024D01*
X251503855Y-87585833D02*
X251503855Y-88081071D01*
X251503855Y-88081071D02*
X251808617Y-87814405D01*
X251808617Y-87814405D02*
X251808617Y-87928690D01*
X251808617Y-87928690D02*
X251846712Y-88004881D01*
X251846712Y-88004881D02*
X251884807Y-88042976D01*
X251884807Y-88042976D02*
X251960998Y-88081071D01*
X251960998Y-88081071D02*
X252151474Y-88081071D01*
X252151474Y-88081071D02*
X252227664Y-88042976D01*
X252227664Y-88042976D02*
X252265760Y-88004881D01*
X252265760Y-88004881D02*
X252303855Y-87928690D01*
X252303855Y-87928690D02*
X252303855Y-87700119D01*
X252303855Y-87700119D02*
X252265760Y-87623928D01*
X252265760Y-87623928D02*
X252227664Y-87585833D01*
X201813855Y-88530476D02*
X201813855Y-88987619D01*
X202613855Y-88759047D02*
X201813855Y-88759047D01*
X202613855Y-89254286D02*
X201813855Y-89254286D01*
X201813855Y-89254286D02*
X201813855Y-89559048D01*
X201813855Y-89559048D02*
X201851950Y-89635238D01*
X201851950Y-89635238D02*
X201890045Y-89673333D01*
X201890045Y-89673333D02*
X201966236Y-89711429D01*
X201966236Y-89711429D02*
X202080521Y-89711429D01*
X202080521Y-89711429D02*
X202156712Y-89673333D01*
X202156712Y-89673333D02*
X202194807Y-89635238D01*
X202194807Y-89635238D02*
X202232902Y-89559048D01*
X202232902Y-89559048D02*
X202232902Y-89254286D01*
X201813855Y-90397143D02*
X201813855Y-90244762D01*
X201813855Y-90244762D02*
X201851950Y-90168571D01*
X201851950Y-90168571D02*
X201890045Y-90130476D01*
X201890045Y-90130476D02*
X202004331Y-90054286D01*
X202004331Y-90054286D02*
X202156712Y-90016190D01*
X202156712Y-90016190D02*
X202461474Y-90016190D01*
X202461474Y-90016190D02*
X202537664Y-90054286D01*
X202537664Y-90054286D02*
X202575760Y-90092381D01*
X202575760Y-90092381D02*
X202613855Y-90168571D01*
X202613855Y-90168571D02*
X202613855Y-90320952D01*
X202613855Y-90320952D02*
X202575760Y-90397143D01*
X202575760Y-90397143D02*
X202537664Y-90435238D01*
X202537664Y-90435238D02*
X202461474Y-90473333D01*
X202461474Y-90473333D02*
X202270998Y-90473333D01*
X202270998Y-90473333D02*
X202194807Y-90435238D01*
X202194807Y-90435238D02*
X202156712Y-90397143D01*
X202156712Y-90397143D02*
X202118617Y-90320952D01*
X202118617Y-90320952D02*
X202118617Y-90168571D01*
X202118617Y-90168571D02*
X202156712Y-90092381D01*
X202156712Y-90092381D02*
X202194807Y-90054286D01*
X202194807Y-90054286D02*
X202270998Y-90016190D01*
X214953855Y-48500476D02*
X214953855Y-48957619D01*
X215753855Y-48729047D02*
X214953855Y-48729047D01*
X215753855Y-49224286D02*
X214953855Y-49224286D01*
X214953855Y-49224286D02*
X214953855Y-49529048D01*
X214953855Y-49529048D02*
X214991950Y-49605238D01*
X214991950Y-49605238D02*
X215030045Y-49643333D01*
X215030045Y-49643333D02*
X215106236Y-49681429D01*
X215106236Y-49681429D02*
X215220521Y-49681429D01*
X215220521Y-49681429D02*
X215296712Y-49643333D01*
X215296712Y-49643333D02*
X215334807Y-49605238D01*
X215334807Y-49605238D02*
X215372902Y-49529048D01*
X215372902Y-49529048D02*
X215372902Y-49224286D01*
X215030045Y-49986190D02*
X214991950Y-50024286D01*
X214991950Y-50024286D02*
X214953855Y-50100476D01*
X214953855Y-50100476D02*
X214953855Y-50290952D01*
X214953855Y-50290952D02*
X214991950Y-50367143D01*
X214991950Y-50367143D02*
X215030045Y-50405238D01*
X215030045Y-50405238D02*
X215106236Y-50443333D01*
X215106236Y-50443333D02*
X215182426Y-50443333D01*
X215182426Y-50443333D02*
X215296712Y-50405238D01*
X215296712Y-50405238D02*
X215753855Y-49948095D01*
X215753855Y-49948095D02*
X215753855Y-50443333D01*
X194433855Y-91710476D02*
X194433855Y-92167619D01*
X195233855Y-91939047D02*
X194433855Y-91939047D01*
X195233855Y-92434286D02*
X194433855Y-92434286D01*
X194433855Y-92434286D02*
X194433855Y-92739048D01*
X194433855Y-92739048D02*
X194471950Y-92815238D01*
X194471950Y-92815238D02*
X194510045Y-92853333D01*
X194510045Y-92853333D02*
X194586236Y-92891429D01*
X194586236Y-92891429D02*
X194700521Y-92891429D01*
X194700521Y-92891429D02*
X194776712Y-92853333D01*
X194776712Y-92853333D02*
X194814807Y-92815238D01*
X194814807Y-92815238D02*
X194852902Y-92739048D01*
X194852902Y-92739048D02*
X194852902Y-92434286D01*
X194433855Y-93158095D02*
X194433855Y-93653333D01*
X194433855Y-93653333D02*
X194738617Y-93386667D01*
X194738617Y-93386667D02*
X194738617Y-93500952D01*
X194738617Y-93500952D02*
X194776712Y-93577143D01*
X194776712Y-93577143D02*
X194814807Y-93615238D01*
X194814807Y-93615238D02*
X194890998Y-93653333D01*
X194890998Y-93653333D02*
X195081474Y-93653333D01*
X195081474Y-93653333D02*
X195157664Y-93615238D01*
X195157664Y-93615238D02*
X195195760Y-93577143D01*
X195195760Y-93577143D02*
X195233855Y-93500952D01*
X195233855Y-93500952D02*
X195233855Y-93272381D01*
X195233855Y-93272381D02*
X195195760Y-93196190D01*
X195195760Y-93196190D02*
X195157664Y-93158095D01*
X235953855Y-45129524D02*
X235153855Y-45129524D01*
X235153855Y-45129524D02*
X235153855Y-45320000D01*
X235153855Y-45320000D02*
X235191950Y-45434286D01*
X235191950Y-45434286D02*
X235268140Y-45510476D01*
X235268140Y-45510476D02*
X235344331Y-45548571D01*
X235344331Y-45548571D02*
X235496712Y-45586667D01*
X235496712Y-45586667D02*
X235610998Y-45586667D01*
X235610998Y-45586667D02*
X235763379Y-45548571D01*
X235763379Y-45548571D02*
X235839569Y-45510476D01*
X235839569Y-45510476D02*
X235915760Y-45434286D01*
X235915760Y-45434286D02*
X235953855Y-45320000D01*
X235953855Y-45320000D02*
X235953855Y-45129524D01*
X235153855Y-45853333D02*
X235153855Y-46386667D01*
X235153855Y-46386667D02*
X235953855Y-46043809D01*
D13*
X197174819Y-58860952D02*
X197174819Y-58384762D01*
X197174819Y-58384762D02*
X196174819Y-58384762D01*
X196651009Y-59194286D02*
X196651009Y-59527619D01*
X197174819Y-59670476D02*
X197174819Y-59194286D01*
X197174819Y-59194286D02*
X196174819Y-59194286D01*
X196174819Y-59194286D02*
X196174819Y-59670476D01*
X197174819Y-60099048D02*
X196174819Y-60099048D01*
X196174819Y-60099048D02*
X196174819Y-60337143D01*
X196174819Y-60337143D02*
X196222438Y-60480000D01*
X196222438Y-60480000D02*
X196317676Y-60575238D01*
X196317676Y-60575238D02*
X196412914Y-60622857D01*
X196412914Y-60622857D02*
X196603390Y-60670476D01*
X196603390Y-60670476D02*
X196746247Y-60670476D01*
X196746247Y-60670476D02*
X196936723Y-60622857D01*
X196936723Y-60622857D02*
X197031961Y-60575238D01*
X197031961Y-60575238D02*
X197127200Y-60480000D01*
X197127200Y-60480000D02*
X197174819Y-60337143D01*
X197174819Y-60337143D02*
X197174819Y-60099048D01*
X196174819Y-61289524D02*
X196174819Y-61384762D01*
X196174819Y-61384762D02*
X196222438Y-61480000D01*
X196222438Y-61480000D02*
X196270057Y-61527619D01*
X196270057Y-61527619D02*
X196365295Y-61575238D01*
X196365295Y-61575238D02*
X196555771Y-61622857D01*
X196555771Y-61622857D02*
X196793866Y-61622857D01*
X196793866Y-61622857D02*
X196984342Y-61575238D01*
X196984342Y-61575238D02*
X197079580Y-61527619D01*
X197079580Y-61527619D02*
X197127200Y-61480000D01*
X197127200Y-61480000D02*
X197174819Y-61384762D01*
X197174819Y-61384762D02*
X197174819Y-61289524D01*
X197174819Y-61289524D02*
X197127200Y-61194286D01*
X197127200Y-61194286D02*
X197079580Y-61146667D01*
X197079580Y-61146667D02*
X196984342Y-61099048D01*
X196984342Y-61099048D02*
X196793866Y-61051429D01*
X196793866Y-61051429D02*
X196555771Y-61051429D01*
X196555771Y-61051429D02*
X196365295Y-61099048D01*
X196365295Y-61099048D02*
X196270057Y-61146667D01*
X196270057Y-61146667D02*
X196222438Y-61194286D01*
X196222438Y-61194286D02*
X196174819Y-61289524D01*
D12*
X252313855Y-54232024D02*
X251513855Y-54232024D01*
X251513855Y-54232024D02*
X251513855Y-54422500D01*
X251513855Y-54422500D02*
X251551950Y-54536786D01*
X251551950Y-54536786D02*
X251628140Y-54612976D01*
X251628140Y-54612976D02*
X251704331Y-54651071D01*
X251704331Y-54651071D02*
X251856712Y-54689167D01*
X251856712Y-54689167D02*
X251970998Y-54689167D01*
X251970998Y-54689167D02*
X252123379Y-54651071D01*
X252123379Y-54651071D02*
X252199569Y-54612976D01*
X252199569Y-54612976D02*
X252275760Y-54536786D01*
X252275760Y-54536786D02*
X252313855Y-54422500D01*
X252313855Y-54422500D02*
X252313855Y-54232024D01*
X251590045Y-54993928D02*
X251551950Y-55032024D01*
X251551950Y-55032024D02*
X251513855Y-55108214D01*
X251513855Y-55108214D02*
X251513855Y-55298690D01*
X251513855Y-55298690D02*
X251551950Y-55374881D01*
X251551950Y-55374881D02*
X251590045Y-55412976D01*
X251590045Y-55412976D02*
X251666236Y-55451071D01*
X251666236Y-55451071D02*
X251742426Y-55451071D01*
X251742426Y-55451071D02*
X251856712Y-55412976D01*
X251856712Y-55412976D02*
X252313855Y-54955833D01*
X252313855Y-54955833D02*
X252313855Y-55451071D01*
X217733855Y-84593333D02*
X218305283Y-84593333D01*
X218305283Y-84593333D02*
X218419569Y-84555238D01*
X218419569Y-84555238D02*
X218495760Y-84479047D01*
X218495760Y-84479047D02*
X218533855Y-84364762D01*
X218533855Y-84364762D02*
X218533855Y-84288571D01*
X218000521Y-85317143D02*
X218533855Y-85317143D01*
X217695760Y-85126667D02*
X218267188Y-84936190D01*
X218267188Y-84936190D02*
X218267188Y-85431429D01*
X233933855Y-86829524D02*
X233133855Y-86829524D01*
X233133855Y-86829524D02*
X233133855Y-87020000D01*
X233133855Y-87020000D02*
X233171950Y-87134286D01*
X233171950Y-87134286D02*
X233248140Y-87210476D01*
X233248140Y-87210476D02*
X233324331Y-87248571D01*
X233324331Y-87248571D02*
X233476712Y-87286667D01*
X233476712Y-87286667D02*
X233590998Y-87286667D01*
X233590998Y-87286667D02*
X233743379Y-87248571D01*
X233743379Y-87248571D02*
X233819569Y-87210476D01*
X233819569Y-87210476D02*
X233895760Y-87134286D01*
X233895760Y-87134286D02*
X233933855Y-87020000D01*
X233933855Y-87020000D02*
X233933855Y-86829524D01*
X233133855Y-88010476D02*
X233133855Y-87629524D01*
X233133855Y-87629524D02*
X233514807Y-87591428D01*
X233514807Y-87591428D02*
X233476712Y-87629524D01*
X233476712Y-87629524D02*
X233438617Y-87705714D01*
X233438617Y-87705714D02*
X233438617Y-87896190D01*
X233438617Y-87896190D02*
X233476712Y-87972381D01*
X233476712Y-87972381D02*
X233514807Y-88010476D01*
X233514807Y-88010476D02*
X233590998Y-88048571D01*
X233590998Y-88048571D02*
X233781474Y-88048571D01*
X233781474Y-88048571D02*
X233857664Y-88010476D01*
X233857664Y-88010476D02*
X233895760Y-87972381D01*
X233895760Y-87972381D02*
X233933855Y-87896190D01*
X233933855Y-87896190D02*
X233933855Y-87705714D01*
X233933855Y-87705714D02*
X233895760Y-87629524D01*
X233895760Y-87629524D02*
X233857664Y-87591428D01*
X213153855Y-89850476D02*
X213153855Y-90307619D01*
X213953855Y-90079047D02*
X213153855Y-90079047D01*
X213953855Y-90574286D02*
X213153855Y-90574286D01*
X213153855Y-90574286D02*
X213153855Y-90879048D01*
X213153855Y-90879048D02*
X213191950Y-90955238D01*
X213191950Y-90955238D02*
X213230045Y-90993333D01*
X213230045Y-90993333D02*
X213306236Y-91031429D01*
X213306236Y-91031429D02*
X213420521Y-91031429D01*
X213420521Y-91031429D02*
X213496712Y-90993333D01*
X213496712Y-90993333D02*
X213534807Y-90955238D01*
X213534807Y-90955238D02*
X213572902Y-90879048D01*
X213572902Y-90879048D02*
X213572902Y-90574286D01*
X213953855Y-91793333D02*
X213953855Y-91336190D01*
X213953855Y-91564762D02*
X213153855Y-91564762D01*
X213153855Y-91564762D02*
X213268140Y-91488571D01*
X213268140Y-91488571D02*
X213344331Y-91412381D01*
X213344331Y-91412381D02*
X213382426Y-91336190D01*
D13*
%TO.C,SW6*%
X240010000Y-90160000D02*
X240010000Y-91176000D01*
X240010000Y-94224000D02*
X240010000Y-94605000D01*
X240010000Y-94605000D02*
X248900000Y-94605000D01*
X245090000Y-90160000D02*
X240010000Y-90160000D01*
X249281000Y-88255000D02*
X247630000Y-88255000D01*
X251440000Y-88255000D02*
X251059000Y-88255000D01*
X251440000Y-88636000D02*
X251440000Y-88255000D01*
X251440000Y-92065000D02*
X251440000Y-91684000D01*
X247554162Y-88236040D02*
G75*
G02*
X245090000Y-90160000I-2464162J616040D01*
G01*
X251440000Y-92065000D02*
G75*
G02*
X248900000Y-94605000I-2540000J0D01*
G01*
%TO.C,SW9*%
X220960000Y-71110000D02*
X220960000Y-72126000D01*
X220960000Y-75174000D02*
X220960000Y-75555000D01*
X220960000Y-75555000D02*
X229850000Y-75555000D01*
X226040000Y-71110000D02*
X220960000Y-71110000D01*
X230231000Y-69205000D02*
X228580000Y-69205000D01*
X232390000Y-69205000D02*
X232009000Y-69205000D01*
X232390000Y-69586000D02*
X232390000Y-69205000D01*
X232390000Y-73015000D02*
X232390000Y-72634000D01*
X228504162Y-69186040D02*
G75*
G02*
X226040000Y-71110000I-2464162J616040D01*
G01*
X232390000Y-73015000D02*
G75*
G02*
X229850000Y-75555000I-2540000J0D01*
G01*
%TO.C,SW7*%
X240010000Y-71110000D02*
X240010000Y-72126000D01*
X240010000Y-75174000D02*
X240010000Y-75555000D01*
X240010000Y-75555000D02*
X248900000Y-75555000D01*
X245090000Y-71110000D02*
X240010000Y-71110000D01*
X249281000Y-69205000D02*
X247630000Y-69205000D01*
X251440000Y-69205000D02*
X251059000Y-69205000D01*
X251440000Y-69586000D02*
X251440000Y-69205000D01*
X251440000Y-73015000D02*
X251440000Y-72634000D01*
X247554162Y-69186040D02*
G75*
G02*
X245090000Y-71110000I-2464162J616040D01*
G01*
X251440000Y-73015000D02*
G75*
G02*
X248900000Y-75555000I-2540000J0D01*
G01*
%TO.C,SW8*%
X220960000Y-90160000D02*
X220960000Y-91176000D01*
X220960000Y-94224000D02*
X220960000Y-94605000D01*
X220960000Y-94605000D02*
X229850000Y-94605000D01*
X226040000Y-90160000D02*
X220960000Y-90160000D01*
X230231000Y-88255000D02*
X228580000Y-88255000D01*
X232390000Y-88255000D02*
X232009000Y-88255000D01*
X232390000Y-88636000D02*
X232390000Y-88255000D01*
X232390000Y-92065000D02*
X232390000Y-91684000D01*
X228504162Y-88236040D02*
G75*
G02*
X226040000Y-90160000I-2464162J616040D01*
G01*
X232390000Y-92065000D02*
G75*
G02*
X229850000Y-94605000I-2540000J0D01*
G01*
%TO.C,SW1*%
X240010000Y-52060000D02*
X240010000Y-53076000D01*
X240010000Y-56124000D02*
X240010000Y-56505000D01*
X240010000Y-56505000D02*
X248900000Y-56505000D01*
X245090000Y-52060000D02*
X240010000Y-52060000D01*
X249281000Y-50155000D02*
X247630000Y-50155000D01*
X251440000Y-50155000D02*
X251059000Y-50155000D01*
X251440000Y-50536000D02*
X251440000Y-50155000D01*
X251440000Y-53965000D02*
X251440000Y-53584000D01*
X247554162Y-50136040D02*
G75*
G02*
X245090000Y-52060000I-2464162J616040D01*
G01*
X251440000Y-53965000D02*
G75*
G02*
X248900000Y-56505000I-2540000J0D01*
G01*
D12*
%TO.C,D4*%
X251100000Y-77487500D02*
X251100000Y-74827500D01*
X252800000Y-77487500D02*
X251100000Y-77487500D01*
X252800000Y-77487500D02*
X252800000Y-74827500D01*
%TO.C,D6*%
X232710000Y-76609999D02*
X232710000Y-73949999D01*
X234410000Y-76609999D02*
X232710000Y-76609999D01*
X234410000Y-76609999D02*
X234410000Y-73949999D01*
%TO.C,LED1*%
X198310000Y-55110000D02*
X198310000Y-56510000D01*
X199010000Y-57210000D02*
X199610000Y-57210000D01*
X199610000Y-54410000D02*
X199010000Y-54410000D01*
X200310000Y-56510000D02*
X200310000Y-55110000D01*
X198310000Y-55110000D02*
G75*
G02*
X199010000Y-54410000I699999J1D01*
G01*
X199010000Y-57210000D02*
G75*
G02*
X198310000Y-56510000I0J700000D01*
G01*
X199610000Y-54410000D02*
G75*
G02*
X200310000Y-55110000I1J-699999D01*
G01*
X200310000Y-56510000D02*
G75*
G02*
X199610000Y-57210000I-700000J0D01*
G01*
%TO.C,TP4*%
X218170000Y-57720000D02*
G75*
G02*
X215770000Y-57720000I-1200000J0D01*
G01*
X215770000Y-57720000D02*
G75*
G02*
X218170000Y-57720000I1200000J0D01*
G01*
%TO.C,TP5*%
X218200000Y-61120000D02*
G75*
G02*
X215800000Y-61120000I-1200000J0D01*
G01*
X215800000Y-61120000D02*
G75*
G02*
X218200000Y-61120000I1200000J0D01*
G01*
%TO.C,D3*%
X251090000Y-83542500D02*
X251090000Y-86202500D01*
X251090000Y-83542500D02*
X252790000Y-83542500D01*
X252790000Y-83542500D02*
X252790000Y-86202500D01*
%TO.C,TP6*%
X201440000Y-89550000D02*
G75*
G02*
X199040000Y-89550000I-1200000J0D01*
G01*
X199040000Y-89550000D02*
G75*
G02*
X201440000Y-89550000I1200000J0D01*
G01*
D14*
%TO.C,G\u002A\u002A\u002A*%
G36*
X199926922Y-87818581D02*
G01*
X199926922Y-88017733D01*
X199301871Y-88015104D01*
X198676821Y-88012474D01*
X198676821Y-87818581D01*
X198676821Y-87624688D01*
X199301871Y-87622058D01*
X199926922Y-87619429D01*
X199926922Y-87818581D01*
G37*
G36*
X196954964Y-88244636D02*
G01*
X196952193Y-88441080D01*
X196778709Y-88443990D01*
X196735761Y-88444528D01*
X196680509Y-88444657D01*
X196633895Y-88444116D01*
X196599839Y-88442960D01*
X196582265Y-88441245D01*
X196578042Y-88440133D01*
X196571146Y-88436846D01*
X196566192Y-88429855D01*
X196562857Y-88416375D01*
X196560822Y-88393624D01*
X196559765Y-88358815D01*
X196559366Y-88309165D01*
X196559304Y-88241890D01*
X196559304Y-88048191D01*
X196758520Y-88048191D01*
X196957736Y-88048191D01*
X196954964Y-88244636D01*
G37*
G36*
X196549099Y-87619585D02*
G01*
X196549099Y-88037986D01*
X196356298Y-88037986D01*
X196326960Y-88037959D01*
X196266009Y-88037572D01*
X196221712Y-88036556D01*
X196191381Y-88034693D01*
X196172328Y-88031766D01*
X196161864Y-88027556D01*
X196157302Y-88021844D01*
X196156114Y-88012849D01*
X196154751Y-87985117D01*
X196153611Y-87941851D01*
X196152694Y-87885813D01*
X196152000Y-87819771D01*
X196151528Y-87746488D01*
X196151279Y-87668729D01*
X196151252Y-87589260D01*
X196151448Y-87510844D01*
X196151867Y-87436248D01*
X196152509Y-87368236D01*
X196153373Y-87309573D01*
X196154460Y-87263024D01*
X196155770Y-87231353D01*
X196157302Y-87217326D01*
X196158575Y-87214871D01*
X196165153Y-87209780D01*
X196178697Y-87206104D01*
X196201895Y-87203625D01*
X196237436Y-87202124D01*
X196288007Y-87201383D01*
X196356298Y-87201184D01*
X196549099Y-87201184D01*
X196549099Y-87619585D01*
G37*
G36*
X198328873Y-87198907D02*
G01*
X198661514Y-87201731D01*
X198661514Y-87405283D01*
X198661514Y-87608834D01*
X198332406Y-87611659D01*
X198297869Y-87611924D01*
X198213926Y-87612317D01*
X198133873Y-87612360D01*
X198061015Y-87612069D01*
X197998655Y-87611464D01*
X197950095Y-87610561D01*
X197918641Y-87609381D01*
X197833984Y-87604278D01*
X197833634Y-87435897D01*
X197833765Y-87402095D01*
X197834962Y-87344658D01*
X197837215Y-87295770D01*
X197840315Y-87259385D01*
X197844052Y-87239453D01*
X197845145Y-87236648D01*
X197852490Y-87222615D01*
X197863922Y-87215053D01*
X197884880Y-87211974D01*
X197920804Y-87211389D01*
X197953246Y-87210432D01*
X197979632Y-87207670D01*
X197991509Y-87203736D01*
X197996110Y-87202603D01*
X198018574Y-87201032D01*
X198057487Y-87199797D01*
X198110412Y-87198932D01*
X198174910Y-87198472D01*
X198248543Y-87198452D01*
X198328873Y-87198907D01*
G37*
G36*
X197067751Y-86788709D02*
G01*
X197198232Y-86789058D01*
X197306752Y-86789421D01*
X197410202Y-86789797D01*
X197505636Y-86790176D01*
X197591284Y-86790547D01*
X197665376Y-86790903D01*
X197726141Y-86791235D01*
X197771808Y-86791534D01*
X197800607Y-86791792D01*
X197810766Y-86792001D01*
X197810807Y-86792124D01*
X197811026Y-86803907D01*
X197810898Y-86832664D01*
X197810454Y-86875260D01*
X197809726Y-86928561D01*
X197808745Y-86989433D01*
X197805363Y-87185877D01*
X197205294Y-87188316D01*
X197109644Y-87188638D01*
X197005078Y-87188830D01*
X196907805Y-87188841D01*
X196819700Y-87188680D01*
X196742636Y-87188354D01*
X196678487Y-87187872D01*
X196629126Y-87187241D01*
X196596428Y-87186472D01*
X196582265Y-87185570D01*
X196579856Y-87185011D01*
X196572304Y-87182237D01*
X196566874Y-87176237D01*
X196563216Y-87164149D01*
X196560980Y-87143107D01*
X196559815Y-87110248D01*
X196559374Y-87062707D01*
X196559304Y-86997621D01*
X196559333Y-86975654D01*
X196559935Y-86911096D01*
X196561449Y-86863794D01*
X196564046Y-86831303D01*
X196567899Y-86811179D01*
X196573182Y-86800979D01*
X196577167Y-86798700D01*
X196587965Y-86796097D01*
X196606373Y-86793930D01*
X196633813Y-86792173D01*
X196671706Y-86790799D01*
X196721475Y-86789779D01*
X196784541Y-86789087D01*
X196862328Y-86788696D01*
X196956257Y-86788579D01*
X197067751Y-86788709D01*
G37*
G36*
X196317096Y-82563057D02*
G01*
X196564407Y-82563057D01*
X197401208Y-82563057D01*
X197402986Y-82675311D01*
X197403523Y-82710362D01*
X197404412Y-82779836D01*
X197404741Y-82832216D01*
X197404479Y-82869829D01*
X197403596Y-82895001D01*
X197402062Y-82910059D01*
X197399847Y-82917329D01*
X197398087Y-82932003D01*
X197401263Y-82956194D01*
X197407933Y-82986560D01*
X197605515Y-82986560D01*
X197611710Y-82986564D01*
X197672571Y-82987074D01*
X197725897Y-82988338D01*
X197768469Y-82990217D01*
X197797070Y-82992573D01*
X197808480Y-82995269D01*
X197808591Y-82995487D01*
X197810650Y-83009143D01*
X197813110Y-83039686D01*
X197815770Y-83083810D01*
X197818428Y-83138208D01*
X197820885Y-83199573D01*
X197821854Y-83227331D01*
X197824190Y-83291362D01*
X197827100Y-83338393D01*
X197831962Y-83370895D01*
X197840158Y-83391344D01*
X197853069Y-83402213D01*
X197872074Y-83405977D01*
X197898555Y-83405109D01*
X197933891Y-83402082D01*
X197939744Y-83401797D01*
X197966398Y-83401207D01*
X198011623Y-83400623D01*
X198074181Y-83400051D01*
X198152833Y-83399495D01*
X198246338Y-83398960D01*
X198353459Y-83398452D01*
X198472954Y-83397976D01*
X198603585Y-83397537D01*
X198744113Y-83397140D01*
X198893298Y-83396790D01*
X199049900Y-83396493D01*
X199212681Y-83396253D01*
X199380401Y-83396076D01*
X199455254Y-83396017D01*
X199652174Y-83395911D01*
X199829840Y-83395900D01*
X199837037Y-83395904D01*
X199989108Y-83395990D01*
X200130830Y-83396190D01*
X200252012Y-83396495D01*
X200255861Y-83396505D01*
X200365053Y-83396944D01*
X200459260Y-83397512D01*
X200539336Y-83398218D01*
X200606134Y-83399067D01*
X200660508Y-83400068D01*
X200703312Y-83401226D01*
X200735398Y-83402550D01*
X200757620Y-83404046D01*
X200770832Y-83405722D01*
X200775888Y-83407583D01*
X200775963Y-83407709D01*
X200778386Y-83422033D01*
X200780249Y-83453252D01*
X200781459Y-83497955D01*
X200781924Y-83552729D01*
X200781549Y-83614162D01*
X200779031Y-83808055D01*
X200567069Y-83810814D01*
X200355106Y-83813573D01*
X200357868Y-84020014D01*
X200360630Y-84226456D01*
X200559626Y-84234565D01*
X200565777Y-84234818D01*
X200627529Y-84237558D01*
X200682329Y-84240345D01*
X200726818Y-84242982D01*
X200757632Y-84245271D01*
X200771412Y-84247014D01*
X200773204Y-84251160D01*
X200774840Y-84263094D01*
X200776297Y-84283652D01*
X200777580Y-84313673D01*
X200778697Y-84354001D01*
X200779653Y-84405477D01*
X200780452Y-84468943D01*
X200781103Y-84545241D01*
X200781609Y-84635213D01*
X200781977Y-84739702D01*
X200782214Y-84859548D01*
X200782324Y-84995594D01*
X200782313Y-85148682D01*
X200782188Y-85319653D01*
X200781954Y-85509351D01*
X200781617Y-85718616D01*
X200779031Y-87185877D01*
X200570298Y-87188646D01*
X200553622Y-87188882D01*
X200479947Y-87190414D01*
X200424733Y-87192572D01*
X200386354Y-87195472D01*
X200363185Y-87199227D01*
X200353600Y-87203954D01*
X200353440Y-87204244D01*
X200350966Y-87219118D01*
X200348801Y-87250809D01*
X200347077Y-87295932D01*
X200345926Y-87351102D01*
X200345479Y-87412936D01*
X200345323Y-87609381D01*
X200146789Y-87609381D01*
X199948256Y-87609381D01*
X199941219Y-87571871D01*
X199940259Y-87564882D01*
X199938442Y-87534725D01*
X199937606Y-87490779D01*
X199937802Y-87437797D01*
X199939084Y-87380529D01*
X199939835Y-87354925D01*
X199940960Y-87302102D01*
X199941344Y-87257441D01*
X199940971Y-87225020D01*
X199939823Y-87208916D01*
X199938776Y-87206334D01*
X199935088Y-87203046D01*
X199927485Y-87200246D01*
X199914467Y-87197886D01*
X199894536Y-87195919D01*
X199866191Y-87194296D01*
X199827934Y-87192968D01*
X199778263Y-87191888D01*
X199715681Y-87191006D01*
X199638687Y-87190276D01*
X199545782Y-87189648D01*
X199435466Y-87189074D01*
X199306241Y-87188506D01*
X198676821Y-87185877D01*
X198674064Y-86974332D01*
X198671306Y-86762787D01*
X198459761Y-86760029D01*
X198248215Y-86757271D01*
X198243113Y-86553173D01*
X198238010Y-86349075D01*
X198110449Y-86340775D01*
X198063118Y-86337834D01*
X198002178Y-86334374D01*
X197945772Y-86331492D01*
X197901813Y-86329611D01*
X197820738Y-86326747D01*
X197819075Y-86142843D01*
X197818284Y-86088972D01*
X197816816Y-86035183D01*
X197814884Y-85991322D01*
X197812644Y-85960882D01*
X197810255Y-85947358D01*
X197804687Y-85944258D01*
X197782118Y-85940473D01*
X197741796Y-85937831D01*
X197682844Y-85936282D01*
X197604384Y-85935777D01*
X197575280Y-85935804D01*
X197512740Y-85936194D01*
X197466991Y-85937203D01*
X197435420Y-85939031D01*
X197415417Y-85941877D01*
X197404369Y-85945941D01*
X197399666Y-85951423D01*
X197398073Y-85961419D01*
X197396119Y-85989664D01*
X197394416Y-86031766D01*
X197393107Y-86084031D01*
X197392333Y-86142765D01*
X197391701Y-86189704D01*
X197390267Y-86241910D01*
X197388275Y-86284019D01*
X197385897Y-86312593D01*
X197383302Y-86324195D01*
X197373967Y-86325283D01*
X197345814Y-86326419D01*
X197300770Y-86327457D01*
X197240700Y-86328394D01*
X197167468Y-86329230D01*
X197082938Y-86329961D01*
X196988974Y-86330587D01*
X196887439Y-86331105D01*
X196780200Y-86331513D01*
X196669119Y-86331809D01*
X196556060Y-86331992D01*
X196442889Y-86332058D01*
X196331469Y-86332008D01*
X196223664Y-86331838D01*
X196121338Y-86331546D01*
X196026356Y-86331131D01*
X195940582Y-86330590D01*
X195865880Y-86329922D01*
X195804115Y-86329125D01*
X195757149Y-86328197D01*
X195726848Y-86327135D01*
X195715076Y-86325938D01*
X195710227Y-86315863D01*
X195706376Y-86291708D01*
X195703428Y-86251902D01*
X195701265Y-86194862D01*
X195699769Y-86119003D01*
X195696990Y-85920469D01*
X195081934Y-85917838D01*
X194466877Y-85915207D01*
X194469639Y-85708638D01*
X194472402Y-85502068D01*
X194671397Y-85496966D01*
X194870393Y-85491863D01*
X194875495Y-85287765D01*
X194880598Y-85083667D01*
X195074033Y-85080883D01*
X195143991Y-85079493D01*
X195201265Y-85077336D01*
X195241202Y-85074378D01*
X195265391Y-85070498D01*
X195275423Y-85065576D01*
X195277172Y-85053033D01*
X195278730Y-85022753D01*
X195280080Y-84977458D01*
X195281214Y-84919856D01*
X195282126Y-84852650D01*
X195282808Y-84778548D01*
X195283254Y-84700254D01*
X195283457Y-84620474D01*
X195283410Y-84541915D01*
X195283107Y-84467282D01*
X195282539Y-84399279D01*
X195281702Y-84340615D01*
X195280587Y-84293993D01*
X195279187Y-84262119D01*
X195277497Y-84247700D01*
X195277026Y-84246865D01*
X196156210Y-84246865D01*
X196156210Y-84660164D01*
X196156210Y-85073463D01*
X196559304Y-85073463D01*
X196962398Y-85073463D01*
X196965164Y-84872137D01*
X196967930Y-84670811D01*
X196771271Y-84668039D01*
X196574611Y-84665266D01*
X199534033Y-84665266D01*
X199534033Y-85078565D01*
X199534033Y-85491863D01*
X199721495Y-85494650D01*
X199759311Y-85495095D01*
X199827550Y-85495017D01*
X199876908Y-85493463D01*
X199908400Y-85490388D01*
X199923042Y-85485746D01*
X199923948Y-85484442D01*
X199927533Y-85467208D01*
X199930621Y-85433087D01*
X199933208Y-85384743D01*
X199935292Y-85324838D01*
X199936868Y-85256038D01*
X199937935Y-85181004D01*
X199938488Y-85102401D01*
X199938525Y-85022892D01*
X199938041Y-84945141D01*
X199937035Y-84871812D01*
X199935502Y-84805567D01*
X199933440Y-84749071D01*
X199930844Y-84704986D01*
X199927713Y-84675977D01*
X199924042Y-84664707D01*
X199911080Y-84663312D01*
X199880861Y-84662307D01*
X199837037Y-84661808D01*
X199783089Y-84661851D01*
X199722495Y-84662476D01*
X199534033Y-84665266D01*
X196574611Y-84665266D01*
X196569509Y-84464202D01*
X196567862Y-84410636D01*
X196564973Y-84347563D01*
X196561507Y-84298774D01*
X196557617Y-84266312D01*
X196553460Y-84252218D01*
X196551123Y-84250813D01*
X196530099Y-84246930D01*
X196489208Y-84244504D01*
X196428835Y-84243550D01*
X196349362Y-84244082D01*
X196156210Y-84246865D01*
X195277026Y-84246865D01*
X195276322Y-84245615D01*
X195271022Y-84241860D01*
X195260315Y-84238829D01*
X195243942Y-84236661D01*
X199942229Y-84236661D01*
X199942229Y-84445861D01*
X199942229Y-84655062D01*
X200134800Y-84657842D01*
X200179335Y-84658330D01*
X200246980Y-84658167D01*
X200295856Y-84656578D01*
X200327000Y-84653517D01*
X200341449Y-84648939D01*
X200344603Y-84642785D01*
X200349097Y-84618779D01*
X200352569Y-84580930D01*
X200355010Y-84533041D01*
X200356412Y-84478915D01*
X200356763Y-84422353D01*
X200356057Y-84367159D01*
X200354282Y-84317135D01*
X200351430Y-84276083D01*
X200347491Y-84247806D01*
X200342457Y-84236107D01*
X200342353Y-84236069D01*
X200328001Y-84234646D01*
X200296745Y-84233679D01*
X200252012Y-84233203D01*
X200197225Y-84233257D01*
X200135808Y-84233876D01*
X199942229Y-84236661D01*
X195243942Y-84236661D01*
X195242326Y-84236447D01*
X195215179Y-84234639D01*
X195176999Y-84233328D01*
X195125911Y-84232441D01*
X195060040Y-84231900D01*
X194977509Y-84231631D01*
X194876445Y-84231558D01*
X194824830Y-84231522D01*
X194725521Y-84231178D01*
X194644647Y-84230435D01*
X194580851Y-84229253D01*
X194532779Y-84227590D01*
X194499073Y-84225406D01*
X194478379Y-84222661D01*
X194469340Y-84219312D01*
X194468883Y-84218779D01*
X194464097Y-84202368D01*
X194460448Y-84170116D01*
X194457923Y-84126049D01*
X194456508Y-84074192D01*
X194456191Y-84018568D01*
X194456959Y-83963205D01*
X194458798Y-83912125D01*
X194461697Y-83869355D01*
X194465640Y-83838920D01*
X194470617Y-83824843D01*
X194475684Y-83822638D01*
X194500561Y-83818514D01*
X194543504Y-83815101D01*
X194602931Y-83812507D01*
X194677266Y-83810838D01*
X194870393Y-83808055D01*
X194873152Y-83602460D01*
X194875911Y-83396864D01*
X194902305Y-83390240D01*
X194904790Y-83389726D01*
X194928108Y-83387432D01*
X194966198Y-83385705D01*
X195014368Y-83384705D01*
X195067927Y-83384591D01*
X195075740Y-83384645D01*
X195131144Y-83384957D01*
X195182343Y-83385140D01*
X195223938Y-83385178D01*
X195250525Y-83385059D01*
X195258465Y-83384966D01*
X196140903Y-83384966D01*
X196140905Y-83394777D01*
X196141099Y-83481487D01*
X196141583Y-83561875D01*
X196142322Y-83633594D01*
X196143279Y-83694294D01*
X196144418Y-83741629D01*
X196145703Y-83773251D01*
X196147097Y-83786810D01*
X196147296Y-83787286D01*
X196151146Y-83791476D01*
X196159814Y-83794856D01*
X196175248Y-83797512D01*
X196199398Y-83799526D01*
X196234213Y-83800985D01*
X196281641Y-83801973D01*
X196343632Y-83802573D01*
X196422134Y-83802872D01*
X196428835Y-83802878D01*
X196519096Y-83802952D01*
X196625036Y-83803219D01*
X196721384Y-83804124D01*
X196797792Y-83805676D01*
X196854501Y-83807883D01*
X196891749Y-83810751D01*
X196909779Y-83814288D01*
X196925516Y-83819478D01*
X196952567Y-83815601D01*
X196956092Y-83813171D01*
X196961631Y-83805560D01*
X196965712Y-83791741D01*
X196968634Y-83768872D01*
X196970695Y-83734115D01*
X196972197Y-83684628D01*
X196973437Y-83617572D01*
X196973917Y-83560109D01*
X196973500Y-83505584D01*
X196972232Y-83460925D01*
X196970216Y-83429644D01*
X196967554Y-83415253D01*
X196963487Y-83411434D01*
X196951222Y-83407261D01*
X196929050Y-83404520D01*
X196894347Y-83403047D01*
X196844493Y-83402676D01*
X196776865Y-83403242D01*
X196736163Y-83403544D01*
X196676368Y-83403074D01*
X196628474Y-83401492D01*
X196595312Y-83398910D01*
X196579714Y-83395440D01*
X196579402Y-83395226D01*
X196573963Y-83387827D01*
X196569684Y-83372629D01*
X196566321Y-83347109D01*
X196563632Y-83308744D01*
X196561374Y-83255014D01*
X196559304Y-83183396D01*
X196554202Y-82981458D01*
X196361631Y-82978677D01*
X196317096Y-82978189D01*
X196249451Y-82978352D01*
X196200574Y-82979941D01*
X196169431Y-82983002D01*
X196154982Y-82987580D01*
X196153207Y-82989685D01*
X196149805Y-82998992D01*
X196147063Y-83016177D01*
X196144917Y-83043029D01*
X196143303Y-83081340D01*
X196142158Y-83132899D01*
X196141418Y-83199496D01*
X196141021Y-83282922D01*
X196140903Y-83384966D01*
X195258465Y-83384966D01*
X195293896Y-83384551D01*
X195293896Y-83191493D01*
X195293896Y-83191075D01*
X195294217Y-83129505D01*
X195295100Y-83074340D01*
X195296442Y-83029083D01*
X195298141Y-82997233D01*
X195300091Y-82982292D01*
X195301535Y-82979598D01*
X195308338Y-82974594D01*
X195322201Y-82970973D01*
X195345792Y-82968518D01*
X195381783Y-82967014D01*
X195432841Y-82966244D01*
X195501637Y-82965994D01*
X195504658Y-82965991D01*
X195566078Y-82965505D01*
X195620668Y-82964320D01*
X195665034Y-82962565D01*
X195695781Y-82960375D01*
X195709513Y-82957882D01*
X195714112Y-82949043D01*
X195718064Y-82925942D01*
X195721086Y-82887210D01*
X195723297Y-82831257D01*
X195724821Y-82756492D01*
X195727605Y-82563057D01*
X196317096Y-82563057D01*
G37*
D12*
%TO.C,TP2*%
X214430000Y-49520000D02*
G75*
G02*
X212030000Y-49520000I-1200000J0D01*
G01*
X212030000Y-49520000D02*
G75*
G02*
X214430000Y-49520000I1200000J0D01*
G01*
%TO.C,TP3*%
X194060000Y-92720000D02*
G75*
G02*
X191660000Y-92720000I-1200000J0D01*
G01*
X191660000Y-92720000D02*
G75*
G02*
X194060000Y-92720000I1200000J0D01*
G01*
%TO.C,D7*%
X234740000Y-49700000D02*
X234740000Y-47040000D01*
X236440000Y-49700000D02*
X234740000Y-49700000D01*
X236440000Y-49700000D02*
X236440000Y-47040000D01*
%TO.C,LED0*%
X195720000Y-55110000D02*
X195720000Y-56510000D01*
X196420000Y-57210000D02*
X197020000Y-57210000D01*
X197020000Y-54410000D02*
X196420000Y-54410000D01*
X197720000Y-56510000D02*
X197720000Y-55110000D01*
X195720000Y-55110000D02*
G75*
G02*
X196420000Y-54410000I699999J1D01*
G01*
X196420000Y-57210000D02*
G75*
G02*
X195720000Y-56510000I0J700000D01*
G01*
X197020000Y-54410000D02*
G75*
G02*
X197720000Y-55110000I1J-699999D01*
G01*
X197720000Y-56510000D02*
G75*
G02*
X197020000Y-57210000I-700000J0D01*
G01*
%TO.C,D2*%
X251100000Y-58802499D02*
X251100000Y-56142499D01*
X252800000Y-58802499D02*
X251100000Y-58802499D01*
X252800000Y-58802499D02*
X252800000Y-56142499D01*
%TO.C,J4*%
X209730000Y-82750000D02*
X210650000Y-82750000D01*
X209730000Y-83585000D02*
X209730000Y-82750000D01*
X209730000Y-88870000D02*
X209730000Y-87950000D01*
X210565000Y-88870000D02*
X209730000Y-88870000D01*
X216715000Y-83670000D02*
X217550000Y-83670000D01*
X216715000Y-87950000D02*
X217550000Y-87950000D01*
X217550000Y-82750000D02*
X217550000Y-83670000D01*
X217550000Y-87950000D02*
X217550000Y-88870000D01*
%TO.C,D5*%
X232730000Y-83522500D02*
X232730000Y-86182500D01*
X232730000Y-83522500D02*
X234430000Y-83522500D01*
X234430000Y-83522500D02*
X234430000Y-86182500D01*
%TO.C,TP1*%
X216640000Y-90870000D02*
G75*
G02*
X214240000Y-90870000I-1200000J0D01*
G01*
X214240000Y-90870000D02*
G75*
G02*
X216640000Y-90870000I1200000J0D01*
G01*
%TD*%
M02*
