%TF.GenerationSoftware,KiCad,Pcbnew,9.0.2*%
%TF.CreationDate,2025-07-23T19:01:54-06:00*%
%TF.ProjectId,macro devboard ESP32,6d616372-6f20-4646-9576-626f61726420,rev?*%
%TF.SameCoordinates,Original*%
%TF.FileFunction,Copper,L2,Inr*%
%TF.FilePolarity,Positive*%
%FSLAX46Y46*%
G04 Gerber Fmt 4.6, Leading zero omitted, Abs format (unit mm)*
G04 Created by KiCad (PCBNEW 9.0.2) date 2025-07-23 19:01:54*
%MOMM*%
%LPD*%
G01*
G04 APERTURE LIST*
G04 Aperture macros list*
%AMRoundRect*
0 Rectangle with rounded corners*
0 $1 Rounding radius*
0 $2 $3 $4 $5 $6 $7 $8 $9 X,Y pos of 4 corners*
0 Add a 4 corners polygon primitive as box body*
4,1,4,$2,$3,$4,$5,$6,$7,$8,$9,$2,$3,0*
0 Add four circle primitives for the rounded corners*
1,1,$1+$1,$2,$3*
1,1,$1+$1,$4,$5*
1,1,$1+$1,$6,$7*
1,1,$1+$1,$8,$9*
0 Add four rect primitives between the rounded corners*
20,1,$1+$1,$2,$3,$4,$5,0*
20,1,$1+$1,$4,$5,$6,$7,0*
20,1,$1+$1,$6,$7,$8,$9,0*
20,1,$1+$1,$8,$9,$2,$3,0*%
G04 Aperture macros list end*
%TA.AperFunction,ComponentPad*%
%ADD10R,1.800000X1.800000*%
%TD*%
%TA.AperFunction,ComponentPad*%
%ADD11C,1.800000*%
%TD*%
%TA.AperFunction,ComponentPad*%
%ADD12O,6.000000X3.000000*%
%TD*%
%TA.AperFunction,HeatsinkPad*%
%ADD13C,0.600000*%
%TD*%
%TA.AperFunction,ComponentPad*%
%ADD14O,2.100000X1.050000*%
%TD*%
%TA.AperFunction,ComponentPad*%
%ADD15O,1.800000X0.900000*%
%TD*%
%TA.AperFunction,ComponentPad*%
%ADD16RoundRect,0.250000X0.750000X-0.600000X0.750000X0.600000X-0.750000X0.600000X-0.750000X-0.600000X0*%
%TD*%
%TA.AperFunction,ComponentPad*%
%ADD17O,2.000000X1.700000*%
%TD*%
%TA.AperFunction,ComponentPad*%
%ADD18R,1.700000X1.700000*%
%TD*%
%TA.AperFunction,ComponentPad*%
%ADD19C,1.700000*%
%TD*%
%TA.AperFunction,ViaPad*%
%ADD20C,0.600000*%
%TD*%
%TA.AperFunction,Conductor*%
%ADD21C,0.500000*%
%TD*%
G04 APERTURE END LIST*
D10*
%TO.N,Net-(D7-A)*%
%TO.C,S1*%
X233040000Y-47020000D03*
D11*
%TO.N,col2*%
X233040000Y-52020000D03*
%TO.N,ROT1*%
X218540000Y-47020000D03*
%TO.N,ROT2*%
X218540000Y-52020000D03*
%TO.N,GND*%
X218540000Y-49520000D03*
D12*
X226040000Y-43920000D03*
X226040000Y-55120000D03*
%TD*%
D13*
%TO.N,GND*%
%TO.C,U1*%
X201970000Y-68540000D03*
X203070000Y-68540000D03*
X201420000Y-67990000D03*
X202520000Y-67990000D03*
X203620000Y-67990000D03*
X201970000Y-67440000D03*
X203070000Y-67440000D03*
X201420000Y-66890000D03*
X202520000Y-66890000D03*
X203620000Y-66890000D03*
X201970000Y-66340000D03*
X203070000Y-66340000D03*
%TD*%
D14*
%TO.N,GND*%
%TO.C,J1*%
X195140000Y-41990000D03*
X195140000Y-50630000D03*
D15*
X190960000Y-41990000D03*
X190960000Y-50630000D03*
%TD*%
D16*
%TO.N,VBAT*%
%TO.C,J2*%
X214260000Y-75240000D03*
D17*
%TO.N,GND*%
X214260000Y-72740000D03*
%TD*%
D18*
%TO.N,IO20{slash}RXD*%
%TO.C,J3*%
X212440000Y-60390000D03*
D19*
%TO.N,IO21{slash}TXD*%
X214980000Y-60390000D03*
%TO.N,IO3*%
X212440000Y-62930000D03*
%TO.N,IO2*%
X214980000Y-62930000D03*
%TO.N,IO1*%
X212440000Y-65470000D03*
%TO.N,IO0*%
X214980000Y-65470000D03*
%TO.N,GND*%
X212440000Y-68010000D03*
%TO.N,VDD*%
X214980000Y-68010000D03*
%TD*%
D20*
%TO.N,row0*%
X202327500Y-78610000D03*
X252620000Y-57540000D03*
X252650000Y-76450000D03*
%TO.N,row1*%
X200827500Y-78610000D03*
X235580000Y-50440000D03*
X231210000Y-82620000D03*
X231190000Y-77330000D03*
%TO.N,GND*%
X223720000Y-47560000D03*
X208720000Y-73560000D03*
X245720000Y-81560000D03*
X249720000Y-59560000D03*
X223420000Y-66170000D03*
X208720000Y-75560000D03*
X247720000Y-55560000D03*
X198720000Y-65560000D03*
X245720000Y-61560000D03*
X198720000Y-75560000D03*
X208450000Y-52210000D03*
X200570000Y-44580000D03*
X196720000Y-91560000D03*
X247720000Y-61560000D03*
X210660000Y-84220000D03*
X251720000Y-43560000D03*
X241720000Y-45560000D03*
X231720000Y-65560000D03*
X249720000Y-43560000D03*
X237720000Y-65560000D03*
X239720000Y-77560000D03*
X235720000Y-41560000D03*
X229720000Y-95560000D03*
X204720000Y-75560000D03*
X247720000Y-81560000D03*
X200720000Y-73560000D03*
X251720000Y-41560000D03*
X231720000Y-43560000D03*
X233720000Y-67560000D03*
X247720000Y-79560000D03*
X233720000Y-41560000D03*
X245720000Y-55560000D03*
X223720000Y-83560000D03*
X231720000Y-93560000D03*
X190720000Y-45560000D03*
X233720000Y-93560000D03*
X208450000Y-50360000D03*
X245720000Y-63560000D03*
X237720000Y-63560000D03*
X194720000Y-95560000D03*
X206720000Y-73560000D03*
X243720000Y-79560000D03*
X249720000Y-45560000D03*
X202720000Y-75560000D03*
X245720000Y-91560000D03*
X198720000Y-71560000D03*
X196720000Y-71560000D03*
X241720000Y-63560000D03*
X249720000Y-81560000D03*
X241720000Y-47560000D03*
X243720000Y-81560000D03*
X239720000Y-43560000D03*
X239720000Y-47560000D03*
X227720000Y-75560000D03*
X208770000Y-91490000D03*
X201610000Y-49082500D03*
X225720000Y-93560000D03*
X192720000Y-43560000D03*
X243720000Y-77560000D03*
X245720000Y-41560000D03*
X227720000Y-47560000D03*
X239720000Y-95560000D03*
X229720000Y-45560000D03*
X196720000Y-73560000D03*
X227720000Y-95560000D03*
X227720000Y-49560000D03*
X235720000Y-79560000D03*
X208720000Y-71560000D03*
X232530000Y-78010000D03*
X237720000Y-71560000D03*
X196720000Y-93560000D03*
X227720000Y-91560000D03*
X239720000Y-51560000D03*
X235720000Y-85560000D03*
X237720000Y-95560000D03*
X235720000Y-93560000D03*
X239720000Y-71560000D03*
X229720000Y-41560000D03*
X233720000Y-61560000D03*
X229720000Y-49560000D03*
X247720000Y-95560000D03*
X237720000Y-47560000D03*
X239720000Y-89560000D03*
X249720000Y-57560000D03*
X196720000Y-69560000D03*
X235720000Y-81560000D03*
X206720000Y-71560000D03*
X190170000Y-92690000D03*
X208720000Y-66540000D03*
X216190000Y-47380000D03*
X243720000Y-43560000D03*
X249720000Y-63560000D03*
X231720000Y-59560000D03*
X239720000Y-59560000D03*
X221720000Y-47560000D03*
X249720000Y-95560000D03*
X253000000Y-79550000D03*
X245720000Y-57560000D03*
X239720000Y-41560000D03*
X204720000Y-71560000D03*
X245720000Y-59560000D03*
X251720000Y-45560000D03*
X245720000Y-65560000D03*
X235720000Y-43560000D03*
X237720000Y-81560000D03*
X192720000Y-41560000D03*
X222310000Y-53580000D03*
X229720000Y-75560000D03*
X225720000Y-83560000D03*
X208480000Y-54030000D03*
X227720000Y-93560000D03*
X229720000Y-65560000D03*
X237720000Y-85560000D03*
X221720000Y-89560000D03*
X247720000Y-59560000D03*
X233720000Y-63560000D03*
X247720000Y-43560000D03*
X241720000Y-43560000D03*
X229720000Y-47560000D03*
X205580000Y-56690000D03*
X241720000Y-95560000D03*
X249720000Y-61560000D03*
X247720000Y-41560000D03*
X233720000Y-65560000D03*
X235720000Y-91560000D03*
X229720000Y-83560000D03*
X208210000Y-88180000D03*
X229720000Y-51560000D03*
X231720000Y-53560000D03*
X241720000Y-49560000D03*
X245720000Y-71560000D03*
X227720000Y-63560000D03*
X191890000Y-90840000D03*
X208790000Y-55310000D03*
X229720000Y-73560000D03*
X237720000Y-45560000D03*
X221720000Y-95560000D03*
X225720000Y-49560000D03*
X223720000Y-41560000D03*
X202720000Y-73560000D03*
X219720000Y-41560000D03*
X190720000Y-47560000D03*
X249720000Y-75560000D03*
X245720000Y-73560000D03*
X241720000Y-77560000D03*
X196720000Y-95560000D03*
X198720000Y-69560000D03*
X245720000Y-43560000D03*
X202720000Y-71560000D03*
X225720000Y-71560000D03*
X221720000Y-41560000D03*
X241720000Y-57560000D03*
X202970000Y-55530000D03*
X196720000Y-67560000D03*
X210390000Y-55310000D03*
X225720000Y-47560000D03*
X249720000Y-93560000D03*
X239720000Y-65560000D03*
X241720000Y-87560000D03*
X249720000Y-77560000D03*
X200720000Y-95560000D03*
X235720000Y-95560000D03*
X227720000Y-41560000D03*
X237720000Y-79560000D03*
X204720000Y-73560000D03*
X196720000Y-65560000D03*
X229720000Y-63560000D03*
X198720000Y-63560000D03*
X239720000Y-61560000D03*
X243720000Y-61560000D03*
X204530000Y-53920000D03*
X206980000Y-55330000D03*
X237720000Y-61560000D03*
X241720000Y-41560000D03*
X225720000Y-95560000D03*
X205760000Y-52190000D03*
X239720000Y-81560000D03*
X253000000Y-81550000D03*
X237720000Y-67560000D03*
X225720000Y-41560000D03*
X233720000Y-43560000D03*
X241720000Y-59560000D03*
X208720000Y-69560000D03*
X243720000Y-45560000D03*
X227720000Y-57560000D03*
X243720000Y-59560000D03*
X223440000Y-76800000D03*
X247720000Y-73560000D03*
X229720000Y-53560000D03*
X231720000Y-41560000D03*
X239720000Y-63560000D03*
X200720000Y-71560000D03*
X245720000Y-79560000D03*
X241720000Y-89560000D03*
X247720000Y-77560000D03*
X247720000Y-65560000D03*
X229720000Y-93560000D03*
X223720000Y-95560000D03*
X225720000Y-57560000D03*
X241720000Y-61560000D03*
X221720000Y-83560000D03*
X241720000Y-85560000D03*
X200720000Y-63570000D03*
X237720000Y-49560000D03*
X208450000Y-48630000D03*
X231720000Y-63560000D03*
X247720000Y-63560000D03*
X249720000Y-41560000D03*
X237720000Y-89560000D03*
X247720000Y-75560000D03*
X237720000Y-77560000D03*
X243720000Y-57560000D03*
X241720000Y-69560000D03*
X225720000Y-77560000D03*
X204720000Y-61560000D03*
X227720000Y-77560000D03*
X233720000Y-49560000D03*
X237720000Y-69560000D03*
X210633474Y-59090000D03*
X247720000Y-47560000D03*
X233720000Y-57560000D03*
X190720000Y-43560000D03*
X245720000Y-93560000D03*
X231720000Y-73560000D03*
X227720000Y-73560000D03*
X249720000Y-47560000D03*
X198720000Y-67560000D03*
X206720000Y-69560000D03*
X249720000Y-65560000D03*
X235720000Y-45560000D03*
X196720000Y-61560000D03*
X245720000Y-75560000D03*
X223720000Y-89560000D03*
X231720000Y-95560000D03*
X192720000Y-95560000D03*
X206720000Y-75560000D03*
X235720000Y-74850000D03*
X221720000Y-45560000D03*
X199700000Y-91270000D03*
X196720000Y-63560000D03*
X241720000Y-51560000D03*
X251720000Y-47560000D03*
X227720000Y-83560000D03*
X225720000Y-75560000D03*
X200790000Y-84565000D03*
X198720000Y-73560000D03*
X231720000Y-49560000D03*
X204220000Y-58040000D03*
X192720000Y-49560000D03*
X241720000Y-65560000D03*
X223720000Y-61560000D03*
X245720000Y-53560000D03*
X233720000Y-59560000D03*
X231720000Y-61560000D03*
X233720000Y-95560000D03*
X249720000Y-79560000D03*
X225720000Y-51560000D03*
X211000000Y-70440000D03*
X200720000Y-75560000D03*
X237720000Y-87560000D03*
X239720000Y-57560000D03*
X219720000Y-43560000D03*
X205760000Y-48640000D03*
X237720000Y-59560000D03*
X206720000Y-61560000D03*
X223720000Y-51560000D03*
X208720000Y-61560000D03*
X243720000Y-41560000D03*
X251720000Y-93560000D03*
X249720000Y-55560000D03*
X205760000Y-50350000D03*
X243720000Y-65560000D03*
X241720000Y-67560000D03*
X229720000Y-85560000D03*
X201710000Y-57380000D03*
X194720000Y-89560000D03*
X235720000Y-87560000D03*
X221720000Y-43560000D03*
X239720000Y-45560000D03*
X198720000Y-95560000D03*
X241720000Y-81560000D03*
X225720000Y-59560000D03*
X229720000Y-61560000D03*
X227720000Y-51560000D03*
X241720000Y-79560000D03*
X235720000Y-89560000D03*
X223720000Y-49560000D03*
X194780000Y-87202500D03*
X210720000Y-61560000D03*
X245720000Y-95560000D03*
X223720000Y-57560000D03*
X196720000Y-75560000D03*
X207380000Y-84230000D03*
X243720000Y-95560000D03*
X199440000Y-52370000D03*
X245720000Y-77560000D03*
X190520000Y-89560000D03*
X223720000Y-59560000D03*
X249720000Y-73560000D03*
X225720000Y-65560000D03*
X229720000Y-77560000D03*
X227720000Y-65560000D03*
X237720000Y-43560000D03*
X245720000Y-45560000D03*
X237720000Y-57560000D03*
X212720000Y-41560000D03*
X251720000Y-95560000D03*
X194720000Y-93560000D03*
X198710000Y-61550000D03*
X237720000Y-41560000D03*
X247720000Y-57560000D03*
X209030000Y-84230000D03*
X237720000Y-51560000D03*
X243720000Y-63560000D03*
X239720000Y-79560000D03*
X247720000Y-93560000D03*
X247720000Y-45560000D03*
X194720000Y-91560000D03*
X206720000Y-67560000D03*
%TO.N,/Din-*%
X194340000Y-45260000D03*
X194344670Y-46559999D03*
%TO.N,IO1*%
X197830000Y-58310000D03*
%TO.N,IO20{slash}RXD*%
X206820000Y-58300000D03*
%TO.N,IO3*%
X200822500Y-58325000D03*
%TO.N,IO21{slash}TXD*%
X205320000Y-58300000D03*
%TO.N,IO2*%
X199320000Y-58320000D03*
%TO.N,IO0*%
X196312500Y-58300000D03*
%TO.N,ROT1*%
X206817500Y-78620000D03*
%TO.N,ROT2*%
X208320000Y-58300000D03*
%TO.N,Net-(JP10-A)*%
X199220000Y-53860000D03*
%TO.N,Net-(JP11-A)*%
X196640000Y-53860000D03*
%TO.N,VBAT*%
X207320000Y-93470000D03*
X211460000Y-93470000D03*
X208710000Y-93470000D03*
X203010000Y-94760000D03*
X204420000Y-93470000D03*
X210120000Y-93460000D03*
X210120000Y-94740000D03*
X203010000Y-96060000D03*
X208710000Y-94750000D03*
X204420000Y-96050000D03*
X203010000Y-93480000D03*
X205910000Y-94760000D03*
X208710000Y-96050000D03*
X210120000Y-96040000D03*
X211460000Y-94750000D03*
X205910000Y-96060000D03*
X204420000Y-94750000D03*
X211460000Y-96050000D03*
X207320000Y-94750000D03*
X205910000Y-93480000D03*
X207320000Y-96050000D03*
%TO.N,EN*%
X190550000Y-85850000D03*
X197830000Y-78620000D03*
%TO.N,col2*%
X205317500Y-78620000D03*
%TO.N,col0*%
X199327500Y-78610000D03*
%TO.N,col1*%
X203827500Y-78610000D03*
%TD*%
D21*
%TO.N,GND*%
X213390000Y-73610000D02*
X212930000Y-73610000D01*
X214260000Y-72740000D02*
X213390000Y-73610000D01*
X214260000Y-72740000D02*
X215070000Y-73550000D01*
X215070000Y-73550000D02*
X215390000Y-73550000D01*
%TO.N,VBAT*%
X214260000Y-75240000D02*
X214930000Y-74570000D01*
X213230000Y-76270000D02*
X213230000Y-76940000D01*
X214260000Y-75240000D02*
X213230000Y-76270000D01*
X214930000Y-74570000D02*
X215920000Y-74570000D01*
X214260000Y-75240000D02*
X214910000Y-74590000D01*
%TD*%
%TA.AperFunction,Conductor*%
%TO.N,GND*%
G36*
X213781444Y-66123999D02*
G01*
X213820486Y-66169056D01*
X213824951Y-66177820D01*
X213949890Y-66349786D01*
X214100213Y-66500109D01*
X214272182Y-66625050D01*
X214280946Y-66629516D01*
X214331742Y-66677491D01*
X214348536Y-66745312D01*
X214325998Y-66811447D01*
X214280946Y-66850484D01*
X214272182Y-66854949D01*
X214100213Y-66979890D01*
X213949890Y-67130213D01*
X213824949Y-67302182D01*
X213820202Y-67311499D01*
X213772227Y-67362293D01*
X213704405Y-67379087D01*
X213638271Y-67356548D01*
X213599234Y-67311495D01*
X213594626Y-67302452D01*
X213555270Y-67248282D01*
X213555269Y-67248282D01*
X212922962Y-67880590D01*
X212905925Y-67817007D01*
X212840099Y-67702993D01*
X212747007Y-67609901D01*
X212632993Y-67544075D01*
X212569409Y-67527037D01*
X213201716Y-66894728D01*
X213147547Y-66855373D01*
X213147547Y-66855372D01*
X213138500Y-66850763D01*
X213087706Y-66802788D01*
X213070912Y-66734966D01*
X213093451Y-66668832D01*
X213138508Y-66629793D01*
X213147816Y-66625051D01*
X213227007Y-66567515D01*
X213319786Y-66500109D01*
X213319788Y-66500106D01*
X213319792Y-66500104D01*
X213470104Y-66349792D01*
X213470106Y-66349788D01*
X213470109Y-66349786D01*
X213595048Y-66177820D01*
X213595047Y-66177820D01*
X213595051Y-66177816D01*
X213599514Y-66169054D01*
X213647488Y-66118259D01*
X213715308Y-66101463D01*
X213781444Y-66123999D01*
G37*
%TD.AperFunction*%
%TA.AperFunction,Conductor*%
G36*
X252594418Y-40495816D02*
G01*
X252794561Y-40510130D01*
X252812063Y-40512647D01*
X253003797Y-40554355D01*
X253020755Y-40559334D01*
X253204609Y-40627909D01*
X253220701Y-40635259D01*
X253392904Y-40729288D01*
X253407784Y-40738849D01*
X253564867Y-40856441D01*
X253578237Y-40868027D01*
X253716972Y-41006762D01*
X253728558Y-41020132D01*
X253827822Y-41152733D01*
X253846146Y-41177210D01*
X253855711Y-41192095D01*
X253949740Y-41364298D01*
X253957090Y-41380390D01*
X254025662Y-41564236D01*
X254030646Y-41581212D01*
X254072351Y-41772931D01*
X254074869Y-41790442D01*
X254089184Y-41990580D01*
X254089500Y-41999427D01*
X254089500Y-95140572D01*
X254089184Y-95149418D01*
X254089184Y-95149419D01*
X254074869Y-95349557D01*
X254072351Y-95367068D01*
X254030646Y-95558787D01*
X254025662Y-95575763D01*
X253957090Y-95759609D01*
X253949740Y-95775701D01*
X253855711Y-95947904D01*
X253846146Y-95962789D01*
X253728558Y-96119867D01*
X253716972Y-96133237D01*
X253578237Y-96271972D01*
X253564867Y-96283558D01*
X253407789Y-96401146D01*
X253392904Y-96410711D01*
X253220701Y-96504740D01*
X253204609Y-96512090D01*
X253020763Y-96580662D01*
X253003787Y-96585646D01*
X252812068Y-96627351D01*
X252794557Y-96629869D01*
X252613779Y-96642799D01*
X252594417Y-96644184D01*
X252585572Y-96644500D01*
X220649500Y-96644500D01*
X220582461Y-96624815D01*
X220536706Y-96572011D01*
X220525500Y-96520500D01*
X220525500Y-91950258D01*
X221749500Y-91950258D01*
X221749500Y-92179741D01*
X221774446Y-92369215D01*
X221779452Y-92407238D01*
X221835100Y-92614923D01*
X221838842Y-92628887D01*
X221926650Y-92840876D01*
X221926657Y-92840890D01*
X222041392Y-93039617D01*
X222181081Y-93221661D01*
X222181089Y-93221670D01*
X222343330Y-93383911D01*
X222343338Y-93383918D01*
X222525382Y-93523607D01*
X222525385Y-93523608D01*
X222525388Y-93523611D01*
X222724112Y-93638344D01*
X222724117Y-93638346D01*
X222724123Y-93638349D01*
X222815480Y-93676190D01*
X222936113Y-93726158D01*
X223157762Y-93785548D01*
X223385266Y-93815500D01*
X223385273Y-93815500D01*
X223614727Y-93815500D01*
X223614734Y-93815500D01*
X223842238Y-93785548D01*
X224063887Y-93726158D01*
X224275888Y-93638344D01*
X224474612Y-93523611D01*
X224656661Y-93383919D01*
X224656665Y-93383914D01*
X224656670Y-93383911D01*
X224818911Y-93221670D01*
X224818914Y-93221665D01*
X224818919Y-93221661D01*
X224958611Y-93039612D01*
X225073344Y-92840888D01*
X225161158Y-92628887D01*
X225220548Y-92407238D01*
X225250500Y-92179734D01*
X225250500Y-91950266D01*
X225250499Y-91950258D01*
X240799500Y-91950258D01*
X240799500Y-92179741D01*
X240824446Y-92369215D01*
X240829452Y-92407238D01*
X240885100Y-92614923D01*
X240888842Y-92628887D01*
X240976650Y-92840876D01*
X240976657Y-92840890D01*
X241091392Y-93039617D01*
X241231081Y-93221661D01*
X241231089Y-93221670D01*
X241393330Y-93383911D01*
X241393338Y-93383918D01*
X241575382Y-93523607D01*
X241575385Y-93523608D01*
X241575388Y-93523611D01*
X241774112Y-93638344D01*
X241774117Y-93638346D01*
X241774123Y-93638349D01*
X241865480Y-93676190D01*
X241986113Y-93726158D01*
X242207762Y-93785548D01*
X242435266Y-93815500D01*
X242435273Y-93815500D01*
X242664727Y-93815500D01*
X242664734Y-93815500D01*
X242892238Y-93785548D01*
X243113887Y-93726158D01*
X243325888Y-93638344D01*
X243524612Y-93523611D01*
X243706661Y-93383919D01*
X243706665Y-93383914D01*
X243706670Y-93383911D01*
X243868911Y-93221670D01*
X243868914Y-93221665D01*
X243868919Y-93221661D01*
X244008611Y-93039612D01*
X244123344Y-92840888D01*
X244211158Y-92628887D01*
X244270548Y-92407238D01*
X244300500Y-92179734D01*
X244300500Y-91950266D01*
X244270548Y-91722762D01*
X244211158Y-91501113D01*
X244123344Y-91289112D01*
X244008611Y-91090388D01*
X244008608Y-91090385D01*
X244008607Y-91090382D01*
X243868918Y-90908338D01*
X243868911Y-90908330D01*
X243706670Y-90746089D01*
X243706661Y-90746081D01*
X243524617Y-90606392D01*
X243325890Y-90491657D01*
X243325876Y-90491650D01*
X243113887Y-90403842D01*
X242892238Y-90344452D01*
X242854215Y-90339446D01*
X242664741Y-90314500D01*
X242664734Y-90314500D01*
X242435266Y-90314500D01*
X242435258Y-90314500D01*
X242218715Y-90343009D01*
X242207762Y-90344452D01*
X242114076Y-90369554D01*
X241986112Y-90403842D01*
X241774123Y-90491650D01*
X241774109Y-90491657D01*
X241575382Y-90606392D01*
X241393338Y-90746081D01*
X241231081Y-90908338D01*
X241091392Y-91090382D01*
X240976657Y-91289109D01*
X240976650Y-91289123D01*
X240888842Y-91501112D01*
X240829453Y-91722759D01*
X240829451Y-91722770D01*
X240799500Y-91950258D01*
X225250499Y-91950258D01*
X225220548Y-91722762D01*
X225161158Y-91501113D01*
X225073344Y-91289112D01*
X224958611Y-91090388D01*
X224958608Y-91090385D01*
X224958607Y-91090382D01*
X224818918Y-90908338D01*
X224818911Y-90908330D01*
X224656670Y-90746089D01*
X224656661Y-90746081D01*
X224474617Y-90606392D01*
X224275890Y-90491657D01*
X224275876Y-90491650D01*
X224063887Y-90403842D01*
X223842238Y-90344452D01*
X223804215Y-90339446D01*
X223614741Y-90314500D01*
X223614734Y-90314500D01*
X223385266Y-90314500D01*
X223385258Y-90314500D01*
X223168715Y-90343009D01*
X223157762Y-90344452D01*
X223064076Y-90369554D01*
X222936112Y-90403842D01*
X222724123Y-90491650D01*
X222724109Y-90491657D01*
X222525382Y-90606392D01*
X222343338Y-90746081D01*
X222181081Y-90908338D01*
X222041392Y-91090382D01*
X221926657Y-91289109D01*
X221926650Y-91289123D01*
X221838842Y-91501112D01*
X221779453Y-91722759D01*
X221779451Y-91722770D01*
X221749500Y-91950258D01*
X220525500Y-91950258D01*
X220525500Y-89410258D01*
X228099500Y-89410258D01*
X228099500Y-89639741D01*
X228110980Y-89726935D01*
X228129452Y-89867238D01*
X228129453Y-89867240D01*
X228188842Y-90088887D01*
X228276650Y-90300876D01*
X228276657Y-90300890D01*
X228391392Y-90499617D01*
X228531081Y-90681661D01*
X228531089Y-90681670D01*
X228693330Y-90843911D01*
X228693338Y-90843918D01*
X228875382Y-90983607D01*
X228875385Y-90983608D01*
X228875388Y-90983611D01*
X229074112Y-91098344D01*
X229074117Y-91098346D01*
X229074123Y-91098349D01*
X229165480Y-91136190D01*
X229286113Y-91186158D01*
X229507762Y-91245548D01*
X229735266Y-91275500D01*
X229735273Y-91275500D01*
X229964727Y-91275500D01*
X229964734Y-91275500D01*
X230192238Y-91245548D01*
X230413887Y-91186158D01*
X230625888Y-91098344D01*
X230824612Y-90983611D01*
X231006661Y-90843919D01*
X231006665Y-90843914D01*
X231006670Y-90843911D01*
X231168911Y-90681670D01*
X231168914Y-90681665D01*
X231168919Y-90681661D01*
X231308611Y-90499612D01*
X231423344Y-90300888D01*
X231511158Y-90088887D01*
X231570548Y-89867238D01*
X231600500Y-89639734D01*
X231600500Y-89410266D01*
X231600499Y-89410258D01*
X247149500Y-89410258D01*
X247149500Y-89639741D01*
X247160980Y-89726935D01*
X247179452Y-89867238D01*
X247179453Y-89867240D01*
X247238842Y-90088887D01*
X247326650Y-90300876D01*
X247326657Y-90300890D01*
X247441392Y-90499617D01*
X247581081Y-90681661D01*
X247581089Y-90681670D01*
X247743330Y-90843911D01*
X247743338Y-90843918D01*
X247925382Y-90983607D01*
X247925385Y-90983608D01*
X247925388Y-90983611D01*
X248124112Y-91098344D01*
X248124117Y-91098346D01*
X248124123Y-91098349D01*
X248215480Y-91136190D01*
X248336113Y-91186158D01*
X248557762Y-91245548D01*
X248785266Y-91275500D01*
X248785273Y-91275500D01*
X249014727Y-91275500D01*
X249014734Y-91275500D01*
X249242238Y-91245548D01*
X249463887Y-91186158D01*
X249675888Y-91098344D01*
X249874612Y-90983611D01*
X250056661Y-90843919D01*
X250056665Y-90843914D01*
X250056670Y-90843911D01*
X250218911Y-90681670D01*
X250218914Y-90681665D01*
X250218919Y-90681661D01*
X250358611Y-90499612D01*
X250473344Y-90300888D01*
X250561158Y-90088887D01*
X250620548Y-89867238D01*
X250650500Y-89639734D01*
X250650500Y-89410266D01*
X250620548Y-89182762D01*
X250561158Y-88961113D01*
X250473344Y-88749112D01*
X250358611Y-88550388D01*
X250358608Y-88550385D01*
X250358607Y-88550382D01*
X250218918Y-88368338D01*
X250218911Y-88368330D01*
X250148662Y-88298081D01*
X250115177Y-88236758D01*
X250120161Y-88167066D01*
X250162033Y-88111133D01*
X250227497Y-88086716D01*
X250236343Y-88086400D01*
X250256687Y-88086400D01*
X250339695Y-88073252D01*
X250427912Y-88059280D01*
X250592791Y-88005708D01*
X250747260Y-87927002D01*
X250887514Y-87825101D01*
X251010101Y-87702514D01*
X251112002Y-87562260D01*
X251190708Y-87407791D01*
X251244280Y-87242912D01*
X251261831Y-87132099D01*
X251271400Y-87071687D01*
X251271400Y-86898312D01*
X251255622Y-86798702D01*
X251244280Y-86727088D01*
X251190708Y-86562209D01*
X251190708Y-86562208D01*
X251112001Y-86407739D01*
X251010101Y-86267486D01*
X250887514Y-86144899D01*
X250747260Y-86042998D01*
X250592791Y-85964291D01*
X250592788Y-85964290D01*
X250427913Y-85910720D01*
X250256687Y-85883600D01*
X250256682Y-85883600D01*
X250083318Y-85883600D01*
X250083313Y-85883600D01*
X249912086Y-85910720D01*
X249747211Y-85964290D01*
X249747208Y-85964291D01*
X249592739Y-86042998D01*
X249512719Y-86101136D01*
X249452486Y-86144899D01*
X249452484Y-86144901D01*
X249452483Y-86144901D01*
X249329901Y-86267483D01*
X249329901Y-86267484D01*
X249329899Y-86267486D01*
X249286136Y-86327719D01*
X249227998Y-86407739D01*
X249149291Y-86562208D01*
X249149290Y-86562211D01*
X249095720Y-86727086D01*
X249068600Y-86898312D01*
X249068600Y-87071687D01*
X249095720Y-87242913D01*
X249149290Y-87407788D01*
X249149291Y-87407791D01*
X249227998Y-87562260D01*
X249251420Y-87594497D01*
X249274900Y-87660303D01*
X249259075Y-87728357D01*
X249208970Y-87777052D01*
X249140492Y-87790928D01*
X249134917Y-87790322D01*
X249014744Y-87774501D01*
X249014739Y-87774500D01*
X249014734Y-87774500D01*
X248785266Y-87774500D01*
X248785258Y-87774500D01*
X248568715Y-87803009D01*
X248557762Y-87804452D01*
X248480709Y-87825098D01*
X248336112Y-87863842D01*
X248124123Y-87951650D01*
X248124109Y-87951657D01*
X247925382Y-88066392D01*
X247743338Y-88206081D01*
X247581081Y-88368338D01*
X247441392Y-88550382D01*
X247326657Y-88749109D01*
X247326650Y-88749123D01*
X247238842Y-88961112D01*
X247179453Y-89182759D01*
X247179451Y-89182770D01*
X247149500Y-89410258D01*
X231600499Y-89410258D01*
X231570548Y-89182762D01*
X231511158Y-88961113D01*
X231423344Y-88749112D01*
X231308611Y-88550388D01*
X231308608Y-88550385D01*
X231308607Y-88550382D01*
X231168918Y-88368338D01*
X231168911Y-88368330D01*
X231098662Y-88298081D01*
X231065177Y-88236758D01*
X231070161Y-88167066D01*
X231112033Y-88111133D01*
X231177497Y-88086716D01*
X231186343Y-88086400D01*
X231206687Y-88086400D01*
X231289695Y-88073252D01*
X231377912Y-88059280D01*
X231542791Y-88005708D01*
X231697260Y-87927002D01*
X231837514Y-87825101D01*
X231960101Y-87702514D01*
X232062002Y-87562260D01*
X232140708Y-87407791D01*
X232194280Y-87242912D01*
X232211831Y-87132099D01*
X232221400Y-87071687D01*
X232221400Y-86898312D01*
X238908600Y-86898312D01*
X238908600Y-87071687D01*
X238935720Y-87242913D01*
X238989290Y-87407788D01*
X238989291Y-87407791D01*
X239067998Y-87562260D01*
X239169899Y-87702514D01*
X239292486Y-87825101D01*
X239432740Y-87927002D01*
X239481126Y-87951656D01*
X239587208Y-88005708D01*
X239587211Y-88005709D01*
X239669648Y-88032494D01*
X239752088Y-88059280D01*
X239831391Y-88071840D01*
X239923313Y-88086400D01*
X239923318Y-88086400D01*
X240096687Y-88086400D01*
X240179695Y-88073252D01*
X240267912Y-88059280D01*
X240432791Y-88005708D01*
X240587260Y-87927002D01*
X240727514Y-87825101D01*
X240850101Y-87702514D01*
X240952002Y-87562260D01*
X241030708Y-87407791D01*
X241084280Y-87242912D01*
X241101831Y-87132099D01*
X241111400Y-87071687D01*
X241111400Y-86898312D01*
X241104260Y-86853233D01*
X241101831Y-86837900D01*
X242845600Y-86837900D01*
X242845600Y-87132099D01*
X242845601Y-87132116D01*
X242884001Y-87423796D01*
X242960152Y-87707994D01*
X243072734Y-87979794D01*
X243072742Y-87979810D01*
X243219840Y-88234589D01*
X243219851Y-88234605D01*
X243398948Y-88468009D01*
X243398954Y-88468016D01*
X243606983Y-88676045D01*
X243606990Y-88676051D01*
X243773205Y-88803592D01*
X243840403Y-88855155D01*
X243840410Y-88855159D01*
X244095189Y-89002257D01*
X244095205Y-89002265D01*
X244367005Y-89114847D01*
X244367007Y-89114847D01*
X244367013Y-89114850D01*
X244651200Y-89190998D01*
X244942894Y-89229400D01*
X244942901Y-89229400D01*
X245237099Y-89229400D01*
X245237106Y-89229400D01*
X245528800Y-89190998D01*
X245812987Y-89114850D01*
X245886318Y-89084475D01*
X246084794Y-89002265D01*
X246084797Y-89002263D01*
X246084803Y-89002261D01*
X246339597Y-88855155D01*
X246573011Y-88676050D01*
X246781050Y-88468011D01*
X246960155Y-88234597D01*
X247107261Y-87979803D01*
X247118920Y-87951657D01*
X247192300Y-87774500D01*
X247219850Y-87707987D01*
X247295998Y-87423800D01*
X247334400Y-87132106D01*
X247334400Y-86837894D01*
X247295998Y-86546200D01*
X247219850Y-86262013D01*
X247219847Y-86262005D01*
X247107265Y-85990205D01*
X247107257Y-85990189D01*
X246960159Y-85735410D01*
X246960155Y-85735403D01*
X246781050Y-85501989D01*
X246781045Y-85501983D01*
X246573016Y-85293954D01*
X246573009Y-85293948D01*
X246339605Y-85114851D01*
X246339603Y-85114849D01*
X246339597Y-85114845D01*
X246339592Y-85114842D01*
X246339589Y-85114840D01*
X246084810Y-84967742D01*
X246084794Y-84967734D01*
X245812994Y-84855152D01*
X245528796Y-84779001D01*
X245237116Y-84740601D01*
X245237111Y-84740600D01*
X245237106Y-84740600D01*
X244942894Y-84740600D01*
X244942888Y-84740600D01*
X244942883Y-84740601D01*
X244651203Y-84779001D01*
X244367005Y-84855152D01*
X244095205Y-84967734D01*
X244095189Y-84967742D01*
X243840410Y-85114840D01*
X243840394Y-85114851D01*
X243606990Y-85293948D01*
X243606983Y-85293954D01*
X243398954Y-85501983D01*
X243398948Y-85501990D01*
X243219851Y-85735394D01*
X243219840Y-85735410D01*
X243072742Y-85990189D01*
X243072734Y-85990205D01*
X242960152Y-86262005D01*
X242884001Y-86546203D01*
X242845601Y-86837883D01*
X242845600Y-86837900D01*
X241101831Y-86837900D01*
X241094019Y-86788579D01*
X241084280Y-86727088D01*
X241030708Y-86562209D01*
X241030708Y-86562208D01*
X240952001Y-86407739D01*
X240850101Y-86267486D01*
X240727514Y-86144899D01*
X240587260Y-86042998D01*
X240432791Y-85964291D01*
X240432788Y-85964290D01*
X240267913Y-85910720D01*
X240096687Y-85883600D01*
X240096682Y-85883600D01*
X239923318Y-85883600D01*
X239923313Y-85883600D01*
X239752086Y-85910720D01*
X239587211Y-85964290D01*
X239587208Y-85964291D01*
X239432739Y-86042998D01*
X239352719Y-86101136D01*
X239292486Y-86144899D01*
X239292484Y-86144901D01*
X239292483Y-86144901D01*
X239169901Y-86267483D01*
X239169901Y-86267484D01*
X239169899Y-86267486D01*
X239126136Y-86327719D01*
X239067998Y-86407739D01*
X238989291Y-86562208D01*
X238989290Y-86562211D01*
X238935720Y-86727086D01*
X238908600Y-86898312D01*
X232221400Y-86898312D01*
X232205622Y-86798702D01*
X232194280Y-86727088D01*
X232140708Y-86562209D01*
X232140708Y-86562208D01*
X232062001Y-86407739D01*
X231960101Y-86267486D01*
X231837514Y-86144899D01*
X231697260Y-86042998D01*
X231542791Y-85964291D01*
X231542788Y-85964290D01*
X231377913Y-85910720D01*
X231206687Y-85883600D01*
X231206682Y-85883600D01*
X231033318Y-85883600D01*
X231033313Y-85883600D01*
X230862086Y-85910720D01*
X230697211Y-85964290D01*
X230697208Y-85964291D01*
X230542739Y-86042998D01*
X230462719Y-86101136D01*
X230402486Y-86144899D01*
X230402484Y-86144901D01*
X230402483Y-86144901D01*
X230279901Y-86267483D01*
X230279901Y-86267484D01*
X230279899Y-86267486D01*
X230236136Y-86327719D01*
X230177998Y-86407739D01*
X230099291Y-86562208D01*
X230099290Y-86562211D01*
X230045720Y-86727086D01*
X230018600Y-86898312D01*
X230018600Y-87071687D01*
X230045720Y-87242913D01*
X230099290Y-87407788D01*
X230099291Y-87407791D01*
X230177998Y-87562260D01*
X230201420Y-87594497D01*
X230224900Y-87660303D01*
X230209075Y-87728357D01*
X230158970Y-87777052D01*
X230090492Y-87790928D01*
X230084917Y-87790322D01*
X229964744Y-87774501D01*
X229964739Y-87774500D01*
X229964734Y-87774500D01*
X229735266Y-87774500D01*
X229735258Y-87774500D01*
X229518715Y-87803009D01*
X229507762Y-87804452D01*
X229430709Y-87825098D01*
X229286112Y-87863842D01*
X229074123Y-87951650D01*
X229074109Y-87951657D01*
X228875382Y-88066392D01*
X228693338Y-88206081D01*
X228531081Y-88368338D01*
X228391392Y-88550382D01*
X228276657Y-88749109D01*
X228276650Y-88749123D01*
X228188842Y-88961112D01*
X228129453Y-89182759D01*
X228129451Y-89182770D01*
X228099500Y-89410258D01*
X220525500Y-89410258D01*
X220525500Y-88172574D01*
X220545185Y-88105535D01*
X220597989Y-88059780D01*
X220667147Y-88049836D01*
X220687814Y-88054642D01*
X220702088Y-88059280D01*
X220730626Y-88063800D01*
X220873313Y-88086400D01*
X220873318Y-88086400D01*
X221046687Y-88086400D01*
X221129695Y-88073252D01*
X221217912Y-88059280D01*
X221382791Y-88005708D01*
X221537260Y-87927002D01*
X221677514Y-87825101D01*
X221800101Y-87702514D01*
X221902002Y-87562260D01*
X221980708Y-87407791D01*
X222034280Y-87242912D01*
X222051831Y-87132099D01*
X222061400Y-87071687D01*
X222061400Y-86898312D01*
X222054260Y-86853233D01*
X222051831Y-86837900D01*
X223795600Y-86837900D01*
X223795600Y-87132099D01*
X223795601Y-87132116D01*
X223834001Y-87423796D01*
X223910152Y-87707994D01*
X224022734Y-87979794D01*
X224022742Y-87979810D01*
X224169840Y-88234589D01*
X224169851Y-88234605D01*
X224348948Y-88468009D01*
X224348954Y-88468016D01*
X224556983Y-88676045D01*
X224556990Y-88676051D01*
X224723205Y-88803592D01*
X224790403Y-88855155D01*
X224790410Y-88855159D01*
X225045189Y-89002257D01*
X225045205Y-89002265D01*
X225317005Y-89114847D01*
X225317007Y-89114847D01*
X225317013Y-89114850D01*
X225601200Y-89190998D01*
X225892894Y-89229400D01*
X225892901Y-89229400D01*
X226187099Y-89229400D01*
X226187106Y-89229400D01*
X226478800Y-89190998D01*
X226762987Y-89114850D01*
X226836318Y-89084475D01*
X227034794Y-89002265D01*
X227034797Y-89002263D01*
X227034803Y-89002261D01*
X227289597Y-88855155D01*
X227523011Y-88676050D01*
X227731050Y-88468011D01*
X227910155Y-88234597D01*
X228057261Y-87979803D01*
X228068920Y-87951657D01*
X228142300Y-87774500D01*
X228169850Y-87707987D01*
X228245998Y-87423800D01*
X228284400Y-87132106D01*
X228284400Y-86837894D01*
X228245998Y-86546200D01*
X228169850Y-86262013D01*
X228169847Y-86262005D01*
X228057265Y-85990205D01*
X228057257Y-85990189D01*
X227910159Y-85735410D01*
X227910155Y-85735403D01*
X227731050Y-85501989D01*
X227731045Y-85501983D01*
X227523016Y-85293954D01*
X227523009Y-85293948D01*
X227289605Y-85114851D01*
X227289603Y-85114849D01*
X227289597Y-85114845D01*
X227289592Y-85114842D01*
X227289589Y-85114840D01*
X227034810Y-84967742D01*
X227034794Y-84967734D01*
X226762994Y-84855152D01*
X226478796Y-84779001D01*
X226187116Y-84740601D01*
X226187111Y-84740600D01*
X226187106Y-84740600D01*
X225892894Y-84740600D01*
X225892888Y-84740600D01*
X225892883Y-84740601D01*
X225601203Y-84779001D01*
X225317005Y-84855152D01*
X225045205Y-84967734D01*
X225045189Y-84967742D01*
X224790410Y-85114840D01*
X224790394Y-85114851D01*
X224556990Y-85293948D01*
X224556983Y-85293954D01*
X224348954Y-85501983D01*
X224348948Y-85501990D01*
X224169851Y-85735394D01*
X224169840Y-85735410D01*
X224022742Y-85990189D01*
X224022734Y-85990205D01*
X223910152Y-86262005D01*
X223834001Y-86546203D01*
X223795601Y-86837883D01*
X223795600Y-86837900D01*
X222051831Y-86837900D01*
X222044019Y-86788579D01*
X222034280Y-86727088D01*
X221980708Y-86562209D01*
X221980708Y-86562208D01*
X221902001Y-86407739D01*
X221800101Y-86267486D01*
X221677514Y-86144899D01*
X221537260Y-86042998D01*
X221382791Y-85964291D01*
X221382788Y-85964290D01*
X221217913Y-85910720D01*
X221046687Y-85883600D01*
X221046682Y-85883600D01*
X220873318Y-85883600D01*
X220873313Y-85883600D01*
X220702090Y-85910719D01*
X220687817Y-85915357D01*
X220617975Y-85917351D01*
X220558143Y-85881269D01*
X220527316Y-85818568D01*
X220525500Y-85797425D01*
X220525500Y-82541153D01*
X230409500Y-82541153D01*
X230409500Y-82698846D01*
X230440261Y-82853489D01*
X230440264Y-82853501D01*
X230500602Y-82999172D01*
X230500609Y-82999185D01*
X230588210Y-83130288D01*
X230588213Y-83130292D01*
X230699707Y-83241786D01*
X230699711Y-83241789D01*
X230830814Y-83329390D01*
X230830827Y-83329397D01*
X230976498Y-83389735D01*
X230976503Y-83389737D01*
X231131153Y-83420499D01*
X231131156Y-83420500D01*
X231131158Y-83420500D01*
X231288844Y-83420500D01*
X231288845Y-83420499D01*
X231443497Y-83389737D01*
X231589179Y-83329394D01*
X231720289Y-83241789D01*
X231831789Y-83130289D01*
X231919394Y-82999179D01*
X231979737Y-82853497D01*
X232010500Y-82698842D01*
X232010500Y-82541158D01*
X232010500Y-82541155D01*
X232010499Y-82541153D01*
X231993752Y-82456961D01*
X231979737Y-82386503D01*
X231979735Y-82386498D01*
X231919397Y-82240827D01*
X231919390Y-82240814D01*
X231831789Y-82109711D01*
X231831786Y-82109707D01*
X231720292Y-81998213D01*
X231720288Y-81998210D01*
X231589185Y-81910609D01*
X231589172Y-81910602D01*
X231443501Y-81850264D01*
X231443489Y-81850261D01*
X231288845Y-81819500D01*
X231288842Y-81819500D01*
X231131158Y-81819500D01*
X231131155Y-81819500D01*
X230976510Y-81850261D01*
X230976498Y-81850264D01*
X230830827Y-81910602D01*
X230830814Y-81910609D01*
X230699711Y-81998210D01*
X230699707Y-81998213D01*
X230588213Y-82109707D01*
X230588210Y-82109711D01*
X230500609Y-82240814D01*
X230500602Y-82240827D01*
X230440264Y-82386498D01*
X230440261Y-82386510D01*
X230409500Y-82541153D01*
X220525500Y-82541153D01*
X220525500Y-77251153D01*
X230389500Y-77251153D01*
X230389500Y-77408846D01*
X230420261Y-77563489D01*
X230420264Y-77563501D01*
X230480602Y-77709172D01*
X230480609Y-77709185D01*
X230568210Y-77840288D01*
X230568213Y-77840292D01*
X230679707Y-77951786D01*
X230679711Y-77951789D01*
X230810814Y-78039390D01*
X230810827Y-78039397D01*
X230956433Y-78099708D01*
X230956503Y-78099737D01*
X231111153Y-78130499D01*
X231111156Y-78130500D01*
X231111158Y-78130500D01*
X231268844Y-78130500D01*
X231268845Y-78130499D01*
X231423497Y-78099737D01*
X231569179Y-78039394D01*
X231700289Y-77951789D01*
X231811789Y-77840289D01*
X231899394Y-77709179D01*
X231959737Y-77563497D01*
X231990500Y-77408842D01*
X231990500Y-77251158D01*
X231990500Y-77251155D01*
X231990499Y-77251153D01*
X231984250Y-77219737D01*
X231959737Y-77096503D01*
X231903316Y-76960289D01*
X231899397Y-76950827D01*
X231899390Y-76950814D01*
X231811789Y-76819711D01*
X231811786Y-76819707D01*
X231700292Y-76708213D01*
X231700288Y-76708210D01*
X231569185Y-76620609D01*
X231569172Y-76620602D01*
X231423501Y-76560264D01*
X231423489Y-76560261D01*
X231268845Y-76529500D01*
X231268842Y-76529500D01*
X231111158Y-76529500D01*
X231111155Y-76529500D01*
X230956510Y-76560261D01*
X230956498Y-76560264D01*
X230810827Y-76620602D01*
X230810814Y-76620609D01*
X230679711Y-76708210D01*
X230679707Y-76708213D01*
X230568213Y-76819707D01*
X230568210Y-76819711D01*
X230480609Y-76950814D01*
X230480602Y-76950827D01*
X230420264Y-77096498D01*
X230420261Y-77096510D01*
X230389500Y-77251153D01*
X220525500Y-77251153D01*
X220525500Y-76371153D01*
X251849500Y-76371153D01*
X251849500Y-76528846D01*
X251880261Y-76683489D01*
X251880264Y-76683501D01*
X251940602Y-76829172D01*
X251940609Y-76829185D01*
X252028210Y-76960288D01*
X252028213Y-76960292D01*
X252139707Y-77071786D01*
X252139711Y-77071789D01*
X252270814Y-77159390D01*
X252270827Y-77159397D01*
X252416498Y-77219735D01*
X252416503Y-77219737D01*
X252571153Y-77250499D01*
X252571156Y-77250500D01*
X252571158Y-77250500D01*
X252728844Y-77250500D01*
X252728845Y-77250499D01*
X252883497Y-77219737D01*
X253029179Y-77159394D01*
X253160289Y-77071789D01*
X253271789Y-76960289D01*
X253359394Y-76829179D01*
X253419737Y-76683497D01*
X253450500Y-76528842D01*
X253450500Y-76371158D01*
X253450500Y-76371155D01*
X253450499Y-76371153D01*
X253419738Y-76216510D01*
X253419737Y-76216503D01*
X253419735Y-76216498D01*
X253359397Y-76070827D01*
X253359390Y-76070814D01*
X253271789Y-75939711D01*
X253271786Y-75939707D01*
X253160292Y-75828213D01*
X253160288Y-75828210D01*
X253029185Y-75740609D01*
X253029172Y-75740602D01*
X252883501Y-75680264D01*
X252883489Y-75680261D01*
X252728845Y-75649500D01*
X252728842Y-75649500D01*
X252571158Y-75649500D01*
X252571155Y-75649500D01*
X252416510Y-75680261D01*
X252416498Y-75680264D01*
X252270827Y-75740602D01*
X252270814Y-75740609D01*
X252139711Y-75828210D01*
X252139707Y-75828213D01*
X252028213Y-75939707D01*
X252028210Y-75939711D01*
X251940609Y-76070814D01*
X251940602Y-76070827D01*
X251880264Y-76216498D01*
X251880261Y-76216510D01*
X251849500Y-76371153D01*
X220525500Y-76371153D01*
X220525500Y-74454010D01*
X220525500Y-74454000D01*
X220513947Y-74346544D01*
X220502741Y-74295033D01*
X220475733Y-74213887D01*
X220468616Y-74192502D01*
X220468613Y-74192496D01*
X220437554Y-74144168D01*
X220390825Y-74071457D01*
X220390820Y-74071451D01*
X220345076Y-74018659D01*
X220345072Y-74018656D01*
X220345070Y-74018653D01*
X220236336Y-73924433D01*
X220236333Y-73924431D01*
X220236331Y-73924430D01*
X220105465Y-73864664D01*
X220105460Y-73864662D01*
X220105459Y-73864662D01*
X220038420Y-73844977D01*
X220038422Y-73844977D01*
X220038417Y-73844976D01*
X219980138Y-73836597D01*
X219896000Y-73824500D01*
X219895998Y-73824500D01*
X216031267Y-73824500D01*
X216007075Y-73822117D01*
X215993918Y-73819500D01*
X215537753Y-73819500D01*
X215525672Y-73815952D01*
X215513128Y-73817030D01*
X215492782Y-73806295D01*
X215470714Y-73799815D01*
X215462470Y-73790301D01*
X215451333Y-73784425D01*
X215440020Y-73764392D01*
X215424959Y-73747011D01*
X215423167Y-73734549D01*
X215416976Y-73723586D01*
X215418288Y-73700621D01*
X215415015Y-73677853D01*
X215420340Y-73664731D01*
X215420964Y-73653830D01*
X215437435Y-73622615D01*
X215500903Y-73535258D01*
X221749500Y-73535258D01*
X221749500Y-73764741D01*
X221762905Y-73866553D01*
X221779452Y-73992238D01*
X221800680Y-74071462D01*
X221838842Y-74213887D01*
X221926650Y-74425876D01*
X221926657Y-74425890D01*
X222041392Y-74624617D01*
X222181081Y-74806661D01*
X222181089Y-74806670D01*
X222343330Y-74968911D01*
X222343338Y-74968918D01*
X222525382Y-75108607D01*
X222525385Y-75108608D01*
X222525388Y-75108611D01*
X222724112Y-75223344D01*
X222724117Y-75223346D01*
X222724123Y-75223349D01*
X222815480Y-75261190D01*
X222936113Y-75311158D01*
X223157762Y-75370548D01*
X223385266Y-75400500D01*
X223385273Y-75400500D01*
X223614727Y-75400500D01*
X223614734Y-75400500D01*
X223842238Y-75370548D01*
X224063887Y-75311158D01*
X224275888Y-75223344D01*
X224474612Y-75108611D01*
X224656661Y-74968919D01*
X224656665Y-74968914D01*
X224656670Y-74968911D01*
X224818911Y-74806670D01*
X224818914Y-74806665D01*
X224818919Y-74806661D01*
X224958611Y-74624612D01*
X225073344Y-74425888D01*
X225161158Y-74213887D01*
X225220548Y-73992238D01*
X225250500Y-73764734D01*
X225250500Y-73535266D01*
X225250499Y-73535258D01*
X240799500Y-73535258D01*
X240799500Y-73764741D01*
X240812905Y-73866553D01*
X240829452Y-73992238D01*
X240850680Y-74071462D01*
X240888842Y-74213887D01*
X240976650Y-74425876D01*
X240976657Y-74425890D01*
X241091392Y-74624617D01*
X241231081Y-74806661D01*
X241231089Y-74806670D01*
X241393330Y-74968911D01*
X241393338Y-74968918D01*
X241575382Y-75108607D01*
X241575385Y-75108608D01*
X241575388Y-75108611D01*
X241774112Y-75223344D01*
X241774117Y-75223346D01*
X241774123Y-75223349D01*
X241865480Y-75261190D01*
X241986113Y-75311158D01*
X242207762Y-75370548D01*
X242435266Y-75400500D01*
X242435273Y-75400500D01*
X242664727Y-75400500D01*
X242664734Y-75400500D01*
X242892238Y-75370548D01*
X243113887Y-75311158D01*
X243325888Y-75223344D01*
X243524612Y-75108611D01*
X243706661Y-74968919D01*
X243706665Y-74968914D01*
X243706670Y-74968911D01*
X243868911Y-74806670D01*
X243868914Y-74806665D01*
X243868919Y-74806661D01*
X244008611Y-74624612D01*
X244123344Y-74425888D01*
X244211158Y-74213887D01*
X244270548Y-73992238D01*
X244300500Y-73764734D01*
X244300500Y-73535266D01*
X244270548Y-73307762D01*
X244211158Y-73086113D01*
X244161190Y-72965480D01*
X244123349Y-72874123D01*
X244123346Y-72874117D01*
X244123344Y-72874112D01*
X244008611Y-72675388D01*
X244008608Y-72675385D01*
X244008607Y-72675382D01*
X243868918Y-72493338D01*
X243868911Y-72493330D01*
X243706670Y-72331089D01*
X243706661Y-72331081D01*
X243524617Y-72191392D01*
X243325890Y-72076657D01*
X243325876Y-72076650D01*
X243113887Y-71988842D01*
X242892238Y-71929452D01*
X242854215Y-71924446D01*
X242664741Y-71899500D01*
X242664734Y-71899500D01*
X242435266Y-71899500D01*
X242435258Y-71899500D01*
X242218715Y-71928009D01*
X242207762Y-71929452D01*
X242114076Y-71954554D01*
X241986112Y-71988842D01*
X241774123Y-72076650D01*
X241774109Y-72076657D01*
X241575382Y-72191392D01*
X241393338Y-72331081D01*
X241231081Y-72493338D01*
X241091392Y-72675382D01*
X240976657Y-72874109D01*
X240976650Y-72874123D01*
X240888842Y-73086112D01*
X240829453Y-73307759D01*
X240829451Y-73307770D01*
X240799500Y-73535258D01*
X225250499Y-73535258D01*
X225220548Y-73307762D01*
X225161158Y-73086113D01*
X225111190Y-72965480D01*
X225073349Y-72874123D01*
X225073346Y-72874117D01*
X225073344Y-72874112D01*
X224958611Y-72675388D01*
X224958608Y-72675385D01*
X224958607Y-72675382D01*
X224818918Y-72493338D01*
X224818911Y-72493330D01*
X224656670Y-72331089D01*
X224656661Y-72331081D01*
X224474617Y-72191392D01*
X224275890Y-72076657D01*
X224275876Y-72076650D01*
X224063887Y-71988842D01*
X223842238Y-71929452D01*
X223804215Y-71924446D01*
X223614741Y-71899500D01*
X223614734Y-71899500D01*
X223385266Y-71899500D01*
X223385258Y-71899500D01*
X223168715Y-71928009D01*
X223157762Y-71929452D01*
X223064076Y-71954554D01*
X222936112Y-71988842D01*
X222724123Y-72076650D01*
X222724109Y-72076657D01*
X222525382Y-72191392D01*
X222343338Y-72331081D01*
X222181081Y-72493338D01*
X222041392Y-72675382D01*
X221926657Y-72874109D01*
X221926650Y-72874123D01*
X221838842Y-73086112D01*
X221779453Y-73307759D01*
X221779451Y-73307770D01*
X221749500Y-73535258D01*
X215500903Y-73535258D01*
X215556800Y-73458322D01*
X215556800Y-73458321D01*
X215556801Y-73458320D01*
X215564622Y-73447555D01*
X215661095Y-73258217D01*
X215726757Y-73056129D01*
X215726757Y-73056126D01*
X215737231Y-72990000D01*
X214693012Y-72990000D01*
X214725925Y-72932993D01*
X214760000Y-72805826D01*
X214760000Y-72674174D01*
X214725925Y-72547007D01*
X214693012Y-72490000D01*
X215737231Y-72490000D01*
X215726757Y-72423873D01*
X215726757Y-72423870D01*
X215661095Y-72221782D01*
X215564620Y-72032442D01*
X215439727Y-71860540D01*
X215439723Y-71860535D01*
X215289464Y-71710276D01*
X215289459Y-71710272D01*
X215117557Y-71585379D01*
X214928217Y-71488904D01*
X214726129Y-71423242D01*
X214516246Y-71390000D01*
X214510000Y-71390000D01*
X214510000Y-72306988D01*
X214452993Y-72274075D01*
X214325826Y-72240000D01*
X214194174Y-72240000D01*
X214067007Y-72274075D01*
X214010000Y-72306988D01*
X214010000Y-71390000D01*
X214003754Y-71390000D01*
X213793872Y-71423242D01*
X213793869Y-71423242D01*
X213591782Y-71488904D01*
X213402442Y-71585379D01*
X213230540Y-71710272D01*
X213230535Y-71710276D01*
X213080276Y-71860535D01*
X213080272Y-71860540D01*
X212955379Y-72032442D01*
X212858904Y-72221782D01*
X212793242Y-72423870D01*
X212793242Y-72423873D01*
X212782769Y-72490000D01*
X213826988Y-72490000D01*
X213794075Y-72547007D01*
X213760000Y-72674174D01*
X213760000Y-72805826D01*
X213794075Y-72932993D01*
X213826988Y-72990000D01*
X212782769Y-72990000D01*
X212793242Y-73056126D01*
X212793242Y-73056129D01*
X212858904Y-73258217D01*
X212955379Y-73447557D01*
X213080272Y-73619459D01*
X213080276Y-73619464D01*
X213111985Y-73651173D01*
X213145470Y-73712496D01*
X213140486Y-73782188D01*
X213098614Y-73838121D01*
X213037560Y-73862143D01*
X212996548Y-73866552D01*
X212996537Y-73866554D01*
X212945027Y-73877760D01*
X212842502Y-73911883D01*
X212842496Y-73911886D01*
X212721462Y-73989671D01*
X212721451Y-73989679D01*
X212668659Y-74035423D01*
X212574433Y-74144164D01*
X212574430Y-74144168D01*
X212514664Y-74275034D01*
X212494976Y-74342082D01*
X212474500Y-74484501D01*
X212474500Y-78008640D01*
X212477397Y-78062688D01*
X212477397Y-78062689D01*
X212480228Y-78089013D01*
X212480234Y-78089059D01*
X212488885Y-78142444D01*
X212490368Y-78148042D01*
X212494500Y-78179786D01*
X212494500Y-89639254D01*
X212474815Y-89706293D01*
X212458181Y-89726935D01*
X209786935Y-92398181D01*
X209725612Y-92431666D01*
X209699254Y-92434500D01*
X202024000Y-92434500D01*
X202023991Y-92434500D01*
X202023990Y-92434501D01*
X201916549Y-92446052D01*
X201916537Y-92446054D01*
X201865027Y-92457260D01*
X201762502Y-92491383D01*
X201762496Y-92491386D01*
X201641462Y-92569171D01*
X201641451Y-92569179D01*
X201588659Y-92614923D01*
X201494433Y-92723664D01*
X201494430Y-92723668D01*
X201434664Y-92854534D01*
X201414976Y-92921582D01*
X201394500Y-93064001D01*
X201394500Y-96520500D01*
X201374815Y-96587539D01*
X201322011Y-96633294D01*
X201270500Y-96644500D01*
X190999428Y-96644500D01*
X190990582Y-96644184D01*
X190968622Y-96642613D01*
X190790442Y-96629869D01*
X190772931Y-96627351D01*
X190581212Y-96585646D01*
X190564236Y-96580662D01*
X190380390Y-96512090D01*
X190364298Y-96504740D01*
X190192095Y-96410711D01*
X190177210Y-96401146D01*
X190020132Y-96283558D01*
X190006762Y-96271972D01*
X189868027Y-96133237D01*
X189856441Y-96119867D01*
X189738849Y-95962784D01*
X189729288Y-95947904D01*
X189635259Y-95775701D01*
X189627909Y-95759609D01*
X189567091Y-95596551D01*
X189559334Y-95575755D01*
X189554355Y-95558797D01*
X189512647Y-95367063D01*
X189510130Y-95349556D01*
X189495816Y-95149418D01*
X189495500Y-95140572D01*
X189495500Y-85771153D01*
X189749500Y-85771153D01*
X189749500Y-85928846D01*
X189780261Y-86083489D01*
X189780264Y-86083501D01*
X189840602Y-86229172D01*
X189840609Y-86229185D01*
X189928210Y-86360288D01*
X189928213Y-86360292D01*
X190039707Y-86471786D01*
X190039711Y-86471789D01*
X190170814Y-86559390D01*
X190170827Y-86559397D01*
X190316498Y-86619735D01*
X190316503Y-86619737D01*
X190471153Y-86650499D01*
X190471156Y-86650500D01*
X190471158Y-86650500D01*
X190628844Y-86650500D01*
X190628845Y-86650499D01*
X190783497Y-86619737D01*
X190922383Y-86562209D01*
X190929172Y-86559397D01*
X190929172Y-86559396D01*
X190929179Y-86559394D01*
X191060289Y-86471789D01*
X191171789Y-86360289D01*
X191259394Y-86229179D01*
X191319737Y-86083497D01*
X191350500Y-85928842D01*
X191350500Y-85771158D01*
X191350500Y-85771155D01*
X191350499Y-85771153D01*
X191319738Y-85616510D01*
X191319737Y-85616503D01*
X191272305Y-85501990D01*
X191259397Y-85470827D01*
X191259390Y-85470814D01*
X191171789Y-85339711D01*
X191171786Y-85339707D01*
X191060292Y-85228213D01*
X191060288Y-85228210D01*
X190929185Y-85140609D01*
X190929172Y-85140602D01*
X190783501Y-85080264D01*
X190783489Y-85080261D01*
X190628845Y-85049500D01*
X190628842Y-85049500D01*
X190471158Y-85049500D01*
X190471155Y-85049500D01*
X190316510Y-85080261D01*
X190316498Y-85080264D01*
X190170827Y-85140602D01*
X190170814Y-85140609D01*
X190039711Y-85228210D01*
X190039707Y-85228213D01*
X189928213Y-85339707D01*
X189928210Y-85339711D01*
X189840609Y-85470814D01*
X189840602Y-85470827D01*
X189780264Y-85616498D01*
X189780261Y-85616510D01*
X189749500Y-85771153D01*
X189495500Y-85771153D01*
X189495500Y-82524000D01*
X189515185Y-82456961D01*
X189567989Y-82411206D01*
X189619500Y-82400000D01*
X195220000Y-82400000D01*
X195220000Y-78541153D01*
X197029500Y-78541153D01*
X197029500Y-78698846D01*
X197060261Y-78853489D01*
X197060264Y-78853501D01*
X197120602Y-78999172D01*
X197120609Y-78999185D01*
X197208210Y-79130288D01*
X197208213Y-79130292D01*
X197319707Y-79241786D01*
X197319711Y-79241789D01*
X197450814Y-79329390D01*
X197450827Y-79329397D01*
X197572363Y-79379738D01*
X197596503Y-79389737D01*
X197751153Y-79420499D01*
X197751156Y-79420500D01*
X197751158Y-79420500D01*
X197908844Y-79420500D01*
X197908845Y-79420499D01*
X198063497Y-79389737D01*
X198209179Y-79329394D01*
X198340289Y-79241789D01*
X198451789Y-79130289D01*
X198478987Y-79089583D01*
X198532599Y-79044778D01*
X198601923Y-79036069D01*
X198664951Y-79066223D01*
X198685191Y-79089580D01*
X198705711Y-79120290D01*
X198817207Y-79231786D01*
X198817211Y-79231789D01*
X198948314Y-79319390D01*
X198948327Y-79319397D01*
X199093998Y-79379735D01*
X199094003Y-79379737D01*
X199248653Y-79410499D01*
X199248656Y-79410500D01*
X199248658Y-79410500D01*
X199406344Y-79410500D01*
X199406345Y-79410499D01*
X199560997Y-79379737D01*
X199673666Y-79333067D01*
X199706672Y-79319397D01*
X199706672Y-79319396D01*
X199706679Y-79319394D01*
X199837789Y-79231789D01*
X199949289Y-79120289D01*
X199956645Y-79109279D01*
X199974398Y-79082712D01*
X200028010Y-79037906D01*
X200097335Y-79029199D01*
X200160362Y-79059353D01*
X200180602Y-79082712D01*
X200205707Y-79120284D01*
X200205713Y-79120292D01*
X200317207Y-79231786D01*
X200317211Y-79231789D01*
X200448314Y-79319390D01*
X200448327Y-79319397D01*
X200593998Y-79379735D01*
X200594003Y-79379737D01*
X200748653Y-79410499D01*
X200748656Y-79410500D01*
X200748658Y-79410500D01*
X200906344Y-79410500D01*
X200906345Y-79410499D01*
X201060997Y-79379737D01*
X201173666Y-79333067D01*
X201206672Y-79319397D01*
X201206672Y-79319396D01*
X201206679Y-79319394D01*
X201337789Y-79231789D01*
X201449289Y-79120289D01*
X201456645Y-79109279D01*
X201474398Y-79082712D01*
X201528010Y-79037906D01*
X201597335Y-79029199D01*
X201660362Y-79059353D01*
X201680602Y-79082712D01*
X201705707Y-79120284D01*
X201705713Y-79120292D01*
X201817207Y-79231786D01*
X201817211Y-79231789D01*
X201948314Y-79319390D01*
X201948327Y-79319397D01*
X202093998Y-79379735D01*
X202094003Y-79379737D01*
X202248653Y-79410499D01*
X202248656Y-79410500D01*
X202248658Y-79410500D01*
X202406344Y-79410500D01*
X202406345Y-79410499D01*
X202560997Y-79379737D01*
X202673666Y-79333067D01*
X202706672Y-79319397D01*
X202706672Y-79319396D01*
X202706679Y-79319394D01*
X202837789Y-79231789D01*
X202949289Y-79120289D01*
X202956645Y-79109279D01*
X202974398Y-79082712D01*
X203028010Y-79037906D01*
X203097335Y-79029199D01*
X203160362Y-79059353D01*
X203180602Y-79082712D01*
X203205707Y-79120284D01*
X203205713Y-79120292D01*
X203317207Y-79231786D01*
X203317211Y-79231789D01*
X203448314Y-79319390D01*
X203448327Y-79319397D01*
X203593998Y-79379735D01*
X203594003Y-79379737D01*
X203748653Y-79410499D01*
X203748656Y-79410500D01*
X203748658Y-79410500D01*
X203906344Y-79410500D01*
X203906345Y-79410499D01*
X204060997Y-79379737D01*
X204173666Y-79333067D01*
X204206672Y-79319397D01*
X204206672Y-79319396D01*
X204206679Y-79319394D01*
X204337789Y-79231789D01*
X204449289Y-79120289D01*
X204466056Y-79095194D01*
X204519668Y-79050389D01*
X204588993Y-79041682D01*
X204652021Y-79071836D01*
X204672261Y-79095194D01*
X204695710Y-79130289D01*
X204807207Y-79241786D01*
X204807211Y-79241789D01*
X204938314Y-79329390D01*
X204938327Y-79329397D01*
X205059863Y-79379738D01*
X205084003Y-79389737D01*
X205238653Y-79420499D01*
X205238656Y-79420500D01*
X205238658Y-79420500D01*
X205396344Y-79420500D01*
X205396345Y-79420499D01*
X205550997Y-79389737D01*
X205696679Y-79329394D01*
X205827789Y-79241789D01*
X205939289Y-79130289D01*
X205946645Y-79119279D01*
X205964398Y-79092712D01*
X206018010Y-79047906D01*
X206087335Y-79039199D01*
X206150362Y-79069353D01*
X206170602Y-79092712D01*
X206195707Y-79130284D01*
X206195713Y-79130292D01*
X206307207Y-79241786D01*
X206307211Y-79241789D01*
X206438314Y-79329390D01*
X206438327Y-79329397D01*
X206559863Y-79379738D01*
X206584003Y-79389737D01*
X206738653Y-79420499D01*
X206738656Y-79420500D01*
X206738658Y-79420500D01*
X206896344Y-79420500D01*
X206896345Y-79420499D01*
X207050997Y-79389737D01*
X207196679Y-79329394D01*
X207327789Y-79241789D01*
X207439289Y-79130289D01*
X207526894Y-78999179D01*
X207587237Y-78853497D01*
X207618000Y-78698842D01*
X207618000Y-78541158D01*
X207618000Y-78541155D01*
X207617999Y-78541153D01*
X207587238Y-78386510D01*
X207587237Y-78386503D01*
X207560429Y-78321782D01*
X207526897Y-78240827D01*
X207526890Y-78240814D01*
X207439289Y-78109711D01*
X207439286Y-78109707D01*
X207327792Y-77998213D01*
X207327788Y-77998210D01*
X207196685Y-77910609D01*
X207196672Y-77910602D01*
X207051001Y-77850264D01*
X207050989Y-77850261D01*
X206896345Y-77819500D01*
X206896342Y-77819500D01*
X206738658Y-77819500D01*
X206738655Y-77819500D01*
X206584010Y-77850261D01*
X206583998Y-77850264D01*
X206438327Y-77910602D01*
X206438314Y-77910609D01*
X206307211Y-77998210D01*
X206307207Y-77998213D01*
X206195713Y-78109707D01*
X206170602Y-78147289D01*
X206116989Y-78192093D01*
X206047664Y-78200800D01*
X205984637Y-78170645D01*
X205964398Y-78147289D01*
X205953179Y-78130499D01*
X205939289Y-78109711D01*
X205939288Y-78109710D01*
X205939286Y-78109707D01*
X205827792Y-77998213D01*
X205827788Y-77998210D01*
X205696685Y-77910609D01*
X205696672Y-77910602D01*
X205551001Y-77850264D01*
X205550989Y-77850261D01*
X205396345Y-77819500D01*
X205396342Y-77819500D01*
X205238658Y-77819500D01*
X205238655Y-77819500D01*
X205084010Y-77850261D01*
X205083998Y-77850264D01*
X204938327Y-77910602D01*
X204938314Y-77910609D01*
X204807211Y-77998210D01*
X204807207Y-77998213D01*
X204695713Y-78109707D01*
X204695709Y-78109712D01*
X204678940Y-78134808D01*
X204625326Y-78179611D01*
X204556001Y-78188317D01*
X204492975Y-78158160D01*
X204472737Y-78134804D01*
X204469861Y-78130500D01*
X204449289Y-78099711D01*
X204449287Y-78099708D01*
X204337792Y-77988213D01*
X204337788Y-77988210D01*
X204206685Y-77900609D01*
X204206672Y-77900602D01*
X204061001Y-77840264D01*
X204060989Y-77840261D01*
X203906345Y-77809500D01*
X203906342Y-77809500D01*
X203748658Y-77809500D01*
X203748655Y-77809500D01*
X203594010Y-77840261D01*
X203593998Y-77840264D01*
X203448327Y-77900602D01*
X203448314Y-77900609D01*
X203317211Y-77988210D01*
X203317207Y-77988213D01*
X203205713Y-78099707D01*
X203180602Y-78137289D01*
X203126989Y-78182093D01*
X203057664Y-78190800D01*
X202994637Y-78160645D01*
X202974398Y-78137289D01*
X202949286Y-78099707D01*
X202837792Y-77988213D01*
X202837788Y-77988210D01*
X202706685Y-77900609D01*
X202706672Y-77900602D01*
X202561001Y-77840264D01*
X202560989Y-77840261D01*
X202406345Y-77809500D01*
X202406342Y-77809500D01*
X202248658Y-77809500D01*
X202248655Y-77809500D01*
X202094010Y-77840261D01*
X202093998Y-77840264D01*
X201948327Y-77900602D01*
X201948314Y-77900609D01*
X201817211Y-77988210D01*
X201817207Y-77988213D01*
X201705713Y-78099707D01*
X201680602Y-78137289D01*
X201626989Y-78182093D01*
X201557664Y-78190800D01*
X201494637Y-78160645D01*
X201474398Y-78137289D01*
X201449286Y-78099707D01*
X201337792Y-77988213D01*
X201337788Y-77988210D01*
X201206685Y-77900609D01*
X201206672Y-77900602D01*
X201061001Y-77840264D01*
X201060989Y-77840261D01*
X200906345Y-77809500D01*
X200906342Y-77809500D01*
X200748658Y-77809500D01*
X200748655Y-77809500D01*
X200594010Y-77840261D01*
X200593998Y-77840264D01*
X200448327Y-77900602D01*
X200448314Y-77900609D01*
X200317211Y-77988210D01*
X200317207Y-77988213D01*
X200205713Y-78099707D01*
X200180602Y-78137289D01*
X200126989Y-78182093D01*
X200057664Y-78190800D01*
X199994637Y-78160645D01*
X199974398Y-78137289D01*
X199949286Y-78099707D01*
X199837792Y-77988213D01*
X199837788Y-77988210D01*
X199706685Y-77900609D01*
X199706672Y-77900602D01*
X199561001Y-77840264D01*
X199560989Y-77840261D01*
X199406345Y-77809500D01*
X199406342Y-77809500D01*
X199248658Y-77809500D01*
X199248655Y-77809500D01*
X199094010Y-77840261D01*
X199093998Y-77840264D01*
X198948327Y-77900602D01*
X198948314Y-77900609D01*
X198817211Y-77988210D01*
X198817207Y-77988213D01*
X198705713Y-78099707D01*
X198705710Y-78099711D01*
X198678511Y-78140418D01*
X198624899Y-78185223D01*
X198555574Y-78193930D01*
X198492546Y-78163775D01*
X198472307Y-78140418D01*
X198451789Y-78109710D01*
X198340292Y-77998213D01*
X198340288Y-77998210D01*
X198209185Y-77910609D01*
X198209172Y-77910602D01*
X198063501Y-77850264D01*
X198063489Y-77850261D01*
X197908845Y-77819500D01*
X197908842Y-77819500D01*
X197751158Y-77819500D01*
X197751155Y-77819500D01*
X197596510Y-77850261D01*
X197596498Y-77850264D01*
X197450827Y-77910602D01*
X197450814Y-77910609D01*
X197319711Y-77998210D01*
X197319707Y-77998213D01*
X197208213Y-78109707D01*
X197208210Y-78109711D01*
X197120609Y-78240814D01*
X197120602Y-78240827D01*
X197060264Y-78386498D01*
X197060261Y-78386510D01*
X197029500Y-78541153D01*
X195220000Y-78541153D01*
X195220000Y-70995258D01*
X228099500Y-70995258D01*
X228099500Y-71224741D01*
X228121258Y-71390000D01*
X228129452Y-71452238D01*
X228129453Y-71452240D01*
X228188842Y-71673887D01*
X228276650Y-71885876D01*
X228276657Y-71885890D01*
X228391392Y-72084617D01*
X228531081Y-72266661D01*
X228531089Y-72266670D01*
X228693330Y-72428911D01*
X228693338Y-72428918D01*
X228693339Y-72428919D01*
X228743962Y-72467764D01*
X228875382Y-72568607D01*
X228875385Y-72568608D01*
X228875388Y-72568611D01*
X229074112Y-72683344D01*
X229074117Y-72683346D01*
X229074123Y-72683349D01*
X229165480Y-72721190D01*
X229286113Y-72771158D01*
X229507762Y-72830548D01*
X229735266Y-72860500D01*
X229735273Y-72860500D01*
X229964727Y-72860500D01*
X229964734Y-72860500D01*
X230192238Y-72830548D01*
X230413887Y-72771158D01*
X230625888Y-72683344D01*
X230824612Y-72568611D01*
X231006661Y-72428919D01*
X231006665Y-72428914D01*
X231006670Y-72428911D01*
X231168911Y-72266670D01*
X231168914Y-72266665D01*
X231168919Y-72266661D01*
X231308611Y-72084612D01*
X231423344Y-71885888D01*
X231511158Y-71673887D01*
X231570548Y-71452238D01*
X231600500Y-71224734D01*
X231600500Y-70995266D01*
X231600499Y-70995258D01*
X247149500Y-70995258D01*
X247149500Y-71224741D01*
X247171258Y-71390000D01*
X247179452Y-71452238D01*
X247179453Y-71452240D01*
X247238842Y-71673887D01*
X247326650Y-71885876D01*
X247326657Y-71885890D01*
X247441392Y-72084617D01*
X247581081Y-72266661D01*
X247581089Y-72266670D01*
X247743330Y-72428911D01*
X247743338Y-72428918D01*
X247743339Y-72428919D01*
X247793962Y-72467764D01*
X247925382Y-72568607D01*
X247925385Y-72568608D01*
X247925388Y-72568611D01*
X248124112Y-72683344D01*
X248124117Y-72683346D01*
X248124123Y-72683349D01*
X248215480Y-72721190D01*
X248336113Y-72771158D01*
X248557762Y-72830548D01*
X248785266Y-72860500D01*
X248785273Y-72860500D01*
X249014727Y-72860500D01*
X249014734Y-72860500D01*
X249242238Y-72830548D01*
X249463887Y-72771158D01*
X249675888Y-72683344D01*
X249874612Y-72568611D01*
X250056661Y-72428919D01*
X250056665Y-72428914D01*
X250056670Y-72428911D01*
X250218911Y-72266670D01*
X250218914Y-72266665D01*
X250218919Y-72266661D01*
X250358611Y-72084612D01*
X250473344Y-71885888D01*
X250561158Y-71673887D01*
X250620548Y-71452238D01*
X250650500Y-71224734D01*
X250650500Y-70995266D01*
X250620548Y-70767762D01*
X250561158Y-70546113D01*
X250473344Y-70334112D01*
X250358611Y-70135388D01*
X250358608Y-70135385D01*
X250358607Y-70135382D01*
X250218918Y-69953338D01*
X250218911Y-69953330D01*
X250148662Y-69883081D01*
X250115177Y-69821758D01*
X250120161Y-69752066D01*
X250162033Y-69696133D01*
X250227497Y-69671716D01*
X250236343Y-69671400D01*
X250256687Y-69671400D01*
X250339695Y-69658252D01*
X250427912Y-69644280D01*
X250592791Y-69590708D01*
X250747260Y-69512002D01*
X250887514Y-69410101D01*
X251010101Y-69287514D01*
X251112002Y-69147260D01*
X251190708Y-68992791D01*
X251244280Y-68827912D01*
X251261717Y-68717817D01*
X251271400Y-68656687D01*
X251271400Y-68483312D01*
X251252431Y-68363554D01*
X251244280Y-68312088D01*
X251190708Y-68147209D01*
X251190708Y-68147208D01*
X251112001Y-67992739D01*
X251010101Y-67852486D01*
X250887514Y-67729899D01*
X250747260Y-67627998D01*
X250711743Y-67609901D01*
X250592791Y-67549291D01*
X250592788Y-67549290D01*
X250427913Y-67495720D01*
X250256687Y-67468600D01*
X250256682Y-67468600D01*
X250083318Y-67468600D01*
X250083313Y-67468600D01*
X249912086Y-67495720D01*
X249747211Y-67549290D01*
X249747208Y-67549291D01*
X249592739Y-67627998D01*
X249512719Y-67686136D01*
X249452486Y-67729899D01*
X249452484Y-67729901D01*
X249452483Y-67729901D01*
X249329901Y-67852483D01*
X249329901Y-67852484D01*
X249329899Y-67852486D01*
X249292680Y-67903713D01*
X249227998Y-67992739D01*
X249149291Y-68147208D01*
X249149290Y-68147211D01*
X249095720Y-68312086D01*
X249068600Y-68483312D01*
X249068600Y-68656687D01*
X249095720Y-68827913D01*
X249149290Y-68992788D01*
X249149291Y-68992791D01*
X249227998Y-69147260D01*
X249251420Y-69179497D01*
X249274900Y-69245303D01*
X249259075Y-69313357D01*
X249208970Y-69362052D01*
X249140492Y-69375928D01*
X249134917Y-69375322D01*
X249014744Y-69359501D01*
X249014739Y-69359500D01*
X249014734Y-69359500D01*
X248785266Y-69359500D01*
X248785258Y-69359500D01*
X248568715Y-69388009D01*
X248557762Y-69389452D01*
X248480709Y-69410098D01*
X248336112Y-69448842D01*
X248124123Y-69536650D01*
X248124109Y-69536657D01*
X247925382Y-69651392D01*
X247743338Y-69791081D01*
X247581081Y-69953338D01*
X247441392Y-70135382D01*
X247326657Y-70334109D01*
X247326650Y-70334123D01*
X247238842Y-70546112D01*
X247179453Y-70767759D01*
X247179451Y-70767770D01*
X247149500Y-70995258D01*
X231600499Y-70995258D01*
X231570548Y-70767762D01*
X231511158Y-70546113D01*
X231423344Y-70334112D01*
X231308611Y-70135388D01*
X231308608Y-70135385D01*
X231308607Y-70135382D01*
X231168918Y-69953338D01*
X231168911Y-69953330D01*
X231098662Y-69883081D01*
X231065177Y-69821758D01*
X231070161Y-69752066D01*
X231112033Y-69696133D01*
X231177497Y-69671716D01*
X231186343Y-69671400D01*
X231206687Y-69671400D01*
X231289695Y-69658252D01*
X231377912Y-69644280D01*
X231542791Y-69590708D01*
X231697260Y-69512002D01*
X231837514Y-69410101D01*
X231960101Y-69287514D01*
X232062002Y-69147260D01*
X232140708Y-68992791D01*
X232194280Y-68827912D01*
X232211717Y-68717817D01*
X232221400Y-68656687D01*
X232221400Y-68483312D01*
X238908600Y-68483312D01*
X238908600Y-68656687D01*
X238935720Y-68827913D01*
X238989290Y-68992788D01*
X238989291Y-68992791D01*
X239067998Y-69147260D01*
X239169899Y-69287514D01*
X239292486Y-69410101D01*
X239432740Y-69512002D01*
X239481126Y-69536656D01*
X239587208Y-69590708D01*
X239587211Y-69590709D01*
X239669648Y-69617494D01*
X239752088Y-69644280D01*
X239831391Y-69656840D01*
X239923313Y-69671400D01*
X239923318Y-69671400D01*
X240096687Y-69671400D01*
X240179695Y-69658252D01*
X240267912Y-69644280D01*
X240432791Y-69590708D01*
X240587260Y-69512002D01*
X240727514Y-69410101D01*
X240850101Y-69287514D01*
X240952002Y-69147260D01*
X241030708Y-68992791D01*
X241084280Y-68827912D01*
X241101717Y-68717817D01*
X241111400Y-68656687D01*
X241111400Y-68483312D01*
X241104260Y-68438233D01*
X241101831Y-68422900D01*
X242845600Y-68422900D01*
X242845600Y-68717099D01*
X242845601Y-68717116D01*
X242884001Y-69008796D01*
X242960152Y-69292994D01*
X243072734Y-69564794D01*
X243072742Y-69564810D01*
X243219840Y-69819589D01*
X243219851Y-69819605D01*
X243398948Y-70053009D01*
X243398954Y-70053016D01*
X243606983Y-70261045D01*
X243606990Y-70261051D01*
X243773205Y-70388592D01*
X243840403Y-70440155D01*
X243840410Y-70440159D01*
X244095189Y-70587257D01*
X244095205Y-70587265D01*
X244367005Y-70699847D01*
X244367007Y-70699847D01*
X244367013Y-70699850D01*
X244651200Y-70775998D01*
X244942894Y-70814400D01*
X244942901Y-70814400D01*
X245237099Y-70814400D01*
X245237106Y-70814400D01*
X245528800Y-70775998D01*
X245812987Y-70699850D01*
X245886318Y-70669475D01*
X246084794Y-70587265D01*
X246084797Y-70587263D01*
X246084803Y-70587261D01*
X246339597Y-70440155D01*
X246573011Y-70261050D01*
X246781050Y-70053011D01*
X246960155Y-69819597D01*
X247107261Y-69564803D01*
X247118920Y-69536657D01*
X247205862Y-69326757D01*
X247219850Y-69292987D01*
X247295998Y-69008800D01*
X247334400Y-68717106D01*
X247334400Y-68422894D01*
X247295998Y-68131200D01*
X247219850Y-67847013D01*
X247219847Y-67847005D01*
X247107265Y-67575205D01*
X247107257Y-67575189D01*
X246960159Y-67320410D01*
X246960155Y-67320403D01*
X246781050Y-67086989D01*
X246781045Y-67086983D01*
X246573016Y-66878954D01*
X246573009Y-66878948D01*
X246339605Y-66699851D01*
X246339603Y-66699849D01*
X246339597Y-66699845D01*
X246339592Y-66699842D01*
X246339589Y-66699840D01*
X246084810Y-66552742D01*
X246084794Y-66552734D01*
X245812994Y-66440152D01*
X245528796Y-66364001D01*
X245237116Y-66325601D01*
X245237111Y-66325600D01*
X245237106Y-66325600D01*
X244942894Y-66325600D01*
X244942888Y-66325600D01*
X244942883Y-66325601D01*
X244651203Y-66364001D01*
X244367005Y-66440152D01*
X244095205Y-66552734D01*
X244095189Y-66552742D01*
X243840410Y-66699840D01*
X243840394Y-66699851D01*
X243606990Y-66878948D01*
X243606983Y-66878954D01*
X243398954Y-67086983D01*
X243398948Y-67086990D01*
X243219851Y-67320394D01*
X243219840Y-67320410D01*
X243072742Y-67575189D01*
X243072734Y-67575205D01*
X242960152Y-67847005D01*
X242884001Y-68131203D01*
X242845601Y-68422883D01*
X242845600Y-68422900D01*
X241101831Y-68422900D01*
X241092431Y-68363554D01*
X241084280Y-68312088D01*
X241030708Y-68147209D01*
X241030708Y-68147208D01*
X240952001Y-67992739D01*
X240850101Y-67852486D01*
X240727514Y-67729899D01*
X240587260Y-67627998D01*
X240551743Y-67609901D01*
X240432791Y-67549291D01*
X240432788Y-67549290D01*
X240267913Y-67495720D01*
X240096687Y-67468600D01*
X240096682Y-67468600D01*
X239923318Y-67468600D01*
X239923313Y-67468600D01*
X239752086Y-67495720D01*
X239587211Y-67549290D01*
X239587208Y-67549291D01*
X239432739Y-67627998D01*
X239352719Y-67686136D01*
X239292486Y-67729899D01*
X239292484Y-67729901D01*
X239292483Y-67729901D01*
X239169901Y-67852483D01*
X239169901Y-67852484D01*
X239169899Y-67852486D01*
X239132680Y-67903713D01*
X239067998Y-67992739D01*
X238989291Y-68147208D01*
X238989290Y-68147211D01*
X238935720Y-68312086D01*
X238908600Y-68483312D01*
X232221400Y-68483312D01*
X232202431Y-68363554D01*
X232194280Y-68312088D01*
X232140708Y-68147209D01*
X232140708Y-68147208D01*
X232062001Y-67992739D01*
X231960101Y-67852486D01*
X231837514Y-67729899D01*
X231697260Y-67627998D01*
X231661743Y-67609901D01*
X231542791Y-67549291D01*
X231542788Y-67549290D01*
X231377913Y-67495720D01*
X231206687Y-67468600D01*
X231206682Y-67468600D01*
X231033318Y-67468600D01*
X231033313Y-67468600D01*
X230862086Y-67495720D01*
X230697211Y-67549290D01*
X230697208Y-67549291D01*
X230542739Y-67627998D01*
X230462719Y-67686136D01*
X230402486Y-67729899D01*
X230402484Y-67729901D01*
X230402483Y-67729901D01*
X230279901Y-67852483D01*
X230279901Y-67852484D01*
X230279899Y-67852486D01*
X230242680Y-67903713D01*
X230177998Y-67992739D01*
X230099291Y-68147208D01*
X230099290Y-68147211D01*
X230045720Y-68312086D01*
X230018600Y-68483312D01*
X230018600Y-68656687D01*
X230045720Y-68827913D01*
X230099290Y-68992788D01*
X230099291Y-68992791D01*
X230177998Y-69147260D01*
X230201420Y-69179497D01*
X230224900Y-69245303D01*
X230209075Y-69313357D01*
X230158970Y-69362052D01*
X230090492Y-69375928D01*
X230084917Y-69375322D01*
X229964744Y-69359501D01*
X229964739Y-69359500D01*
X229964734Y-69359500D01*
X229735266Y-69359500D01*
X229735258Y-69359500D01*
X229518715Y-69388009D01*
X229507762Y-69389452D01*
X229430709Y-69410098D01*
X229286112Y-69448842D01*
X229074123Y-69536650D01*
X229074109Y-69536657D01*
X228875382Y-69651392D01*
X228693338Y-69791081D01*
X228531081Y-69953338D01*
X228391392Y-70135382D01*
X228276657Y-70334109D01*
X228276650Y-70334123D01*
X228188842Y-70546112D01*
X228129453Y-70767759D01*
X228129451Y-70767770D01*
X228099500Y-70995258D01*
X195220000Y-70995258D01*
X195220000Y-59492135D01*
X211089500Y-59492135D01*
X211089500Y-61287870D01*
X211089501Y-61287876D01*
X211095908Y-61347483D01*
X211146202Y-61482328D01*
X211146206Y-61482335D01*
X211232452Y-61597544D01*
X211232455Y-61597547D01*
X211347664Y-61683793D01*
X211347671Y-61683797D01*
X211479082Y-61732810D01*
X211535016Y-61774681D01*
X211559433Y-61840145D01*
X211544582Y-61908418D01*
X211523431Y-61936673D01*
X211409889Y-62050215D01*
X211284951Y-62222179D01*
X211188444Y-62411585D01*
X211122753Y-62613760D01*
X211089500Y-62823713D01*
X211089500Y-63036286D01*
X211122753Y-63246239D01*
X211188444Y-63448414D01*
X211284951Y-63637820D01*
X211409890Y-63809786D01*
X211560213Y-63960109D01*
X211732182Y-64085050D01*
X211740946Y-64089516D01*
X211791742Y-64137491D01*
X211808536Y-64205312D01*
X211785998Y-64271447D01*
X211740946Y-64310484D01*
X211732182Y-64314949D01*
X211560213Y-64439890D01*
X211409890Y-64590213D01*
X211284951Y-64762179D01*
X211188444Y-64951585D01*
X211122753Y-65153760D01*
X211089500Y-65363713D01*
X211089500Y-65576286D01*
X211122753Y-65786239D01*
X211188444Y-65988414D01*
X211284951Y-66177820D01*
X211409890Y-66349786D01*
X211560213Y-66500109D01*
X211732179Y-66625048D01*
X211732181Y-66625049D01*
X211732184Y-66625051D01*
X211741493Y-66629794D01*
X211792290Y-66677766D01*
X211809087Y-66745587D01*
X211786552Y-66811722D01*
X211741505Y-66850760D01*
X211732446Y-66855376D01*
X211732440Y-66855380D01*
X211678282Y-66894727D01*
X211678282Y-66894728D01*
X212310591Y-67527037D01*
X212247007Y-67544075D01*
X212132993Y-67609901D01*
X212039901Y-67702993D01*
X211974075Y-67817007D01*
X211957037Y-67880591D01*
X211324728Y-67248282D01*
X211324727Y-67248282D01*
X211285380Y-67302439D01*
X211188904Y-67491782D01*
X211123242Y-67693869D01*
X211123242Y-67693872D01*
X211090000Y-67903753D01*
X211090000Y-68116246D01*
X211123242Y-68326127D01*
X211123242Y-68326130D01*
X211188904Y-68528217D01*
X211285375Y-68717550D01*
X211324728Y-68771716D01*
X211957036Y-68139407D01*
X211974075Y-68202993D01*
X212039901Y-68317007D01*
X212132993Y-68410099D01*
X212247007Y-68475925D01*
X212310590Y-68492962D01*
X211678282Y-69125269D01*
X211678282Y-69125270D01*
X211732449Y-69164624D01*
X211921782Y-69261095D01*
X212123870Y-69326757D01*
X212333754Y-69360000D01*
X212546246Y-69360000D01*
X212756127Y-69326757D01*
X212756130Y-69326757D01*
X212958217Y-69261095D01*
X213147554Y-69164622D01*
X213201716Y-69125270D01*
X213201717Y-69125270D01*
X212569408Y-68492962D01*
X212632993Y-68475925D01*
X212747007Y-68410099D01*
X212840099Y-68317007D01*
X212905925Y-68202993D01*
X212922962Y-68139409D01*
X213555270Y-68771717D01*
X213555270Y-68771716D01*
X213594622Y-68717555D01*
X213599232Y-68708507D01*
X213647205Y-68657709D01*
X213715025Y-68640912D01*
X213781161Y-68663447D01*
X213820204Y-68708504D01*
X213824949Y-68717817D01*
X213949890Y-68889786D01*
X214100213Y-69040109D01*
X214272179Y-69165048D01*
X214272181Y-69165049D01*
X214272184Y-69165051D01*
X214461588Y-69261557D01*
X214663757Y-69327246D01*
X214873713Y-69360500D01*
X214873714Y-69360500D01*
X215086286Y-69360500D01*
X215086287Y-69360500D01*
X215296243Y-69327246D01*
X215498412Y-69261557D01*
X215687816Y-69165051D01*
X215742572Y-69125269D01*
X215859786Y-69040109D01*
X215859788Y-69040106D01*
X215859792Y-69040104D01*
X216010104Y-68889792D01*
X216010106Y-68889788D01*
X216010109Y-68889786D01*
X216135048Y-68717820D01*
X216135050Y-68717817D01*
X216135051Y-68717816D01*
X216231557Y-68528412D01*
X216246211Y-68483312D01*
X219858600Y-68483312D01*
X219858600Y-68656687D01*
X219885720Y-68827913D01*
X219939290Y-68992788D01*
X219939291Y-68992791D01*
X220017998Y-69147260D01*
X220119899Y-69287514D01*
X220242486Y-69410101D01*
X220382740Y-69512002D01*
X220431126Y-69536656D01*
X220537208Y-69590708D01*
X220537211Y-69590709D01*
X220619648Y-69617494D01*
X220702088Y-69644280D01*
X220781391Y-69656840D01*
X220873313Y-69671400D01*
X220873318Y-69671400D01*
X221046687Y-69671400D01*
X221129695Y-69658252D01*
X221217912Y-69644280D01*
X221382791Y-69590708D01*
X221537260Y-69512002D01*
X221677514Y-69410101D01*
X221800101Y-69287514D01*
X221902002Y-69147260D01*
X221980708Y-68992791D01*
X222034280Y-68827912D01*
X222051717Y-68717817D01*
X222061400Y-68656687D01*
X222061400Y-68483312D01*
X222054260Y-68438233D01*
X222051831Y-68422900D01*
X223795600Y-68422900D01*
X223795600Y-68717099D01*
X223795601Y-68717116D01*
X223834001Y-69008796D01*
X223910152Y-69292994D01*
X224022734Y-69564794D01*
X224022742Y-69564810D01*
X224169840Y-69819589D01*
X224169851Y-69819605D01*
X224348948Y-70053009D01*
X224348954Y-70053016D01*
X224556983Y-70261045D01*
X224556990Y-70261051D01*
X224723205Y-70388592D01*
X224790403Y-70440155D01*
X224790410Y-70440159D01*
X225045189Y-70587257D01*
X225045205Y-70587265D01*
X225317005Y-70699847D01*
X225317007Y-70699847D01*
X225317013Y-70699850D01*
X225601200Y-70775998D01*
X225892894Y-70814400D01*
X225892901Y-70814400D01*
X226187099Y-70814400D01*
X226187106Y-70814400D01*
X226478800Y-70775998D01*
X226762987Y-70699850D01*
X226836318Y-70669475D01*
X227034794Y-70587265D01*
X227034797Y-70587263D01*
X227034803Y-70587261D01*
X227289597Y-70440155D01*
X227523011Y-70261050D01*
X227731050Y-70053011D01*
X227910155Y-69819597D01*
X228057261Y-69564803D01*
X228068920Y-69536657D01*
X228155862Y-69326757D01*
X228169850Y-69292987D01*
X228245998Y-69008800D01*
X228284400Y-68717106D01*
X228284400Y-68422894D01*
X228245998Y-68131200D01*
X228169850Y-67847013D01*
X228169847Y-67847005D01*
X228057265Y-67575205D01*
X228057257Y-67575189D01*
X227910159Y-67320410D01*
X227910155Y-67320403D01*
X227731050Y-67086989D01*
X227731045Y-67086983D01*
X227523016Y-66878954D01*
X227523009Y-66878948D01*
X227289605Y-66699851D01*
X227289603Y-66699849D01*
X227289597Y-66699845D01*
X227289592Y-66699842D01*
X227289589Y-66699840D01*
X227034810Y-66552742D01*
X227034794Y-66552734D01*
X226762994Y-66440152D01*
X226478796Y-66364001D01*
X226187116Y-66325601D01*
X226187111Y-66325600D01*
X226187106Y-66325600D01*
X225892894Y-66325600D01*
X225892888Y-66325600D01*
X225892883Y-66325601D01*
X225601203Y-66364001D01*
X225317005Y-66440152D01*
X225045205Y-66552734D01*
X225045189Y-66552742D01*
X224790410Y-66699840D01*
X224790394Y-66699851D01*
X224556990Y-66878948D01*
X224556983Y-66878954D01*
X224348954Y-67086983D01*
X224348948Y-67086990D01*
X224169851Y-67320394D01*
X224169840Y-67320410D01*
X224022742Y-67575189D01*
X224022734Y-67575205D01*
X223910152Y-67847005D01*
X223834001Y-68131203D01*
X223795601Y-68422883D01*
X223795600Y-68422900D01*
X222051831Y-68422900D01*
X222042431Y-68363554D01*
X222034280Y-68312088D01*
X221980708Y-68147209D01*
X221980708Y-68147208D01*
X221902001Y-67992739D01*
X221800101Y-67852486D01*
X221677514Y-67729899D01*
X221537260Y-67627998D01*
X221501743Y-67609901D01*
X221382791Y-67549291D01*
X221382788Y-67549290D01*
X221217913Y-67495720D01*
X221046687Y-67468600D01*
X221046682Y-67468600D01*
X220873318Y-67468600D01*
X220873313Y-67468600D01*
X220702086Y-67495720D01*
X220537211Y-67549290D01*
X220537208Y-67549291D01*
X220382739Y-67627998D01*
X220302719Y-67686136D01*
X220242486Y-67729899D01*
X220242484Y-67729901D01*
X220242483Y-67729901D01*
X220119901Y-67852483D01*
X220119901Y-67852484D01*
X220119899Y-67852486D01*
X220082680Y-67903713D01*
X220017998Y-67992739D01*
X219939291Y-68147208D01*
X219939290Y-68147211D01*
X219885720Y-68312086D01*
X219858600Y-68483312D01*
X216246211Y-68483312D01*
X216297246Y-68326243D01*
X216330500Y-68116287D01*
X216330500Y-67903713D01*
X216297246Y-67693757D01*
X216231557Y-67491588D01*
X216135051Y-67302184D01*
X216135049Y-67302181D01*
X216135048Y-67302179D01*
X216010109Y-67130213D01*
X215859786Y-66979890D01*
X215687820Y-66854951D01*
X215679600Y-66850763D01*
X215679054Y-66850485D01*
X215628259Y-66802512D01*
X215611463Y-66734692D01*
X215633999Y-66668556D01*
X215679054Y-66629515D01*
X215687816Y-66625051D01*
X215709789Y-66609086D01*
X215859786Y-66500109D01*
X215859788Y-66500106D01*
X215859792Y-66500104D01*
X216010104Y-66349792D01*
X216010106Y-66349788D01*
X216010109Y-66349786D01*
X216135048Y-66177820D01*
X216135047Y-66177820D01*
X216135051Y-66177816D01*
X216231557Y-65988412D01*
X216297246Y-65786243D01*
X216330500Y-65576287D01*
X216330500Y-65363713D01*
X216297246Y-65153757D01*
X216231557Y-64951588D01*
X216135051Y-64762184D01*
X216135049Y-64762181D01*
X216135048Y-64762179D01*
X216010109Y-64590213D01*
X215859786Y-64439890D01*
X215687820Y-64314951D01*
X215687115Y-64314591D01*
X215679054Y-64310485D01*
X215628259Y-64262512D01*
X215611463Y-64194692D01*
X215633999Y-64128556D01*
X215679054Y-64089515D01*
X215687816Y-64085051D01*
X215709789Y-64069086D01*
X215859786Y-63960109D01*
X215859788Y-63960106D01*
X215859792Y-63960104D01*
X216010104Y-63809792D01*
X216010106Y-63809788D01*
X216010109Y-63809786D01*
X216135048Y-63637820D01*
X216135047Y-63637820D01*
X216135051Y-63637816D01*
X216231557Y-63448412D01*
X216297246Y-63246243D01*
X216330500Y-63036287D01*
X216330500Y-62823713D01*
X216297246Y-62613757D01*
X216231557Y-62411588D01*
X216135051Y-62222184D01*
X216135049Y-62222181D01*
X216135048Y-62222179D01*
X216010109Y-62050213D01*
X215859786Y-61899890D01*
X215687820Y-61774951D01*
X215687115Y-61774591D01*
X215679054Y-61770485D01*
X215628259Y-61722512D01*
X215611463Y-61654692D01*
X215633999Y-61588556D01*
X215679054Y-61549515D01*
X215687816Y-61545051D01*
X215774138Y-61482335D01*
X215859786Y-61420109D01*
X215859788Y-61420106D01*
X215859792Y-61420104D01*
X216010104Y-61269792D01*
X216010106Y-61269788D01*
X216010109Y-61269786D01*
X216135048Y-61097820D01*
X216135047Y-61097820D01*
X216135051Y-61097816D01*
X216231557Y-60908412D01*
X216297246Y-60706243D01*
X216330500Y-60496287D01*
X216330500Y-60283713D01*
X216297246Y-60073757D01*
X216231557Y-59871588D01*
X216135051Y-59682184D01*
X216135049Y-59682181D01*
X216135048Y-59682179D01*
X216010109Y-59510213D01*
X215859786Y-59359890D01*
X215687820Y-59234951D01*
X215498414Y-59138444D01*
X215498413Y-59138443D01*
X215498412Y-59138443D01*
X215296243Y-59072754D01*
X215296241Y-59072753D01*
X215296240Y-59072753D01*
X215134957Y-59047208D01*
X215086287Y-59039500D01*
X214873713Y-59039500D01*
X214825042Y-59047208D01*
X214663760Y-59072753D01*
X214461585Y-59138444D01*
X214272179Y-59234951D01*
X214100215Y-59359889D01*
X213986673Y-59473431D01*
X213925350Y-59506915D01*
X213855658Y-59501931D01*
X213799725Y-59460059D01*
X213782810Y-59429082D01*
X213733797Y-59297671D01*
X213733793Y-59297664D01*
X213647547Y-59182455D01*
X213647544Y-59182452D01*
X213532335Y-59096206D01*
X213532328Y-59096202D01*
X213397482Y-59045908D01*
X213397483Y-59045908D01*
X213337883Y-59039501D01*
X213337881Y-59039500D01*
X213337873Y-59039500D01*
X213337864Y-59039500D01*
X211542129Y-59039500D01*
X211542123Y-59039501D01*
X211482516Y-59045908D01*
X211347671Y-59096202D01*
X211347664Y-59096206D01*
X211232455Y-59182452D01*
X211232452Y-59182455D01*
X211146206Y-59297664D01*
X211146202Y-59297671D01*
X211095908Y-59432517D01*
X211089501Y-59492116D01*
X211089500Y-59492135D01*
X195220000Y-59492135D01*
X195220000Y-58221153D01*
X195512000Y-58221153D01*
X195512000Y-58378846D01*
X195542761Y-58533489D01*
X195542764Y-58533501D01*
X195603102Y-58679172D01*
X195603109Y-58679185D01*
X195690710Y-58810288D01*
X195690713Y-58810292D01*
X195802207Y-58921786D01*
X195802211Y-58921789D01*
X195933314Y-59009390D01*
X195933327Y-59009397D01*
X196078998Y-59069735D01*
X196079003Y-59069737D01*
X196204676Y-59094735D01*
X196233653Y-59100499D01*
X196233656Y-59100500D01*
X196233658Y-59100500D01*
X196391344Y-59100500D01*
X196391345Y-59100499D01*
X196545997Y-59069737D01*
X196658666Y-59023067D01*
X196691672Y-59009397D01*
X196691672Y-59009396D01*
X196691679Y-59009394D01*
X196822789Y-58921789D01*
X196934289Y-58810289D01*
X196964807Y-58764615D01*
X197018415Y-58719811D01*
X197087740Y-58711102D01*
X197150768Y-58741255D01*
X197171010Y-58764615D01*
X197208210Y-58820288D01*
X197208213Y-58820292D01*
X197319707Y-58931786D01*
X197319711Y-58931789D01*
X197450814Y-59019390D01*
X197450827Y-59019397D01*
X197572363Y-59069738D01*
X197596503Y-59079737D01*
X197751153Y-59110499D01*
X197751156Y-59110500D01*
X197751158Y-59110500D01*
X197908844Y-59110500D01*
X197908845Y-59110499D01*
X198063497Y-59079737D01*
X198176166Y-59033067D01*
X198209172Y-59019397D01*
X198209172Y-59019396D01*
X198209179Y-59019394D01*
X198340289Y-58931789D01*
X198451789Y-58820289D01*
X198468556Y-58795194D01*
X198522168Y-58750389D01*
X198591493Y-58741682D01*
X198654521Y-58771836D01*
X198674761Y-58795194D01*
X198698210Y-58830289D01*
X198809707Y-58941786D01*
X198809711Y-58941789D01*
X198940814Y-59029390D01*
X198940827Y-59029397D01*
X199062363Y-59079738D01*
X199086503Y-59089737D01*
X199241153Y-59120499D01*
X199241156Y-59120500D01*
X199241158Y-59120500D01*
X199398844Y-59120500D01*
X199398845Y-59120499D01*
X199553497Y-59089737D01*
X199687108Y-59034394D01*
X199699172Y-59029397D01*
X199699172Y-59029396D01*
X199699179Y-59029394D01*
X199830289Y-58941789D01*
X199941789Y-58830289D01*
X199966478Y-58793340D01*
X200020087Y-58748536D01*
X200089412Y-58739827D01*
X200152440Y-58769981D01*
X200172681Y-58793340D01*
X200200710Y-58835288D01*
X200200713Y-58835292D01*
X200312207Y-58946786D01*
X200312211Y-58946789D01*
X200443314Y-59034390D01*
X200443327Y-59034397D01*
X200576927Y-59089735D01*
X200589003Y-59094737D01*
X200743653Y-59125499D01*
X200743656Y-59125500D01*
X200743658Y-59125500D01*
X200901344Y-59125500D01*
X200901345Y-59125499D01*
X201055997Y-59094737D01*
X201201679Y-59034394D01*
X201332789Y-58946789D01*
X201444289Y-58835289D01*
X201531894Y-58704179D01*
X201592237Y-58558497D01*
X201623000Y-58403842D01*
X201623000Y-58246158D01*
X201623000Y-58246155D01*
X201622999Y-58246153D01*
X201621628Y-58239257D01*
X201618027Y-58221153D01*
X204519500Y-58221153D01*
X204519500Y-58378846D01*
X204550261Y-58533489D01*
X204550264Y-58533501D01*
X204610602Y-58679172D01*
X204610609Y-58679185D01*
X204698210Y-58810288D01*
X204698213Y-58810292D01*
X204809707Y-58921786D01*
X204809711Y-58921789D01*
X204940814Y-59009390D01*
X204940827Y-59009397D01*
X205086498Y-59069735D01*
X205086503Y-59069737D01*
X205212176Y-59094735D01*
X205241153Y-59100499D01*
X205241156Y-59100500D01*
X205241158Y-59100500D01*
X205398844Y-59100500D01*
X205398845Y-59100499D01*
X205553497Y-59069737D01*
X205666166Y-59023067D01*
X205699172Y-59009397D01*
X205699172Y-59009396D01*
X205699179Y-59009394D01*
X205830289Y-58921789D01*
X205941789Y-58810289D01*
X205949145Y-58799279D01*
X205966898Y-58772712D01*
X206020510Y-58727906D01*
X206089835Y-58719199D01*
X206152862Y-58749353D01*
X206173102Y-58772712D01*
X206198207Y-58810284D01*
X206198213Y-58810292D01*
X206309707Y-58921786D01*
X206309711Y-58921789D01*
X206440814Y-59009390D01*
X206440827Y-59009397D01*
X206586498Y-59069735D01*
X206586503Y-59069737D01*
X206712176Y-59094735D01*
X206741153Y-59100499D01*
X206741156Y-59100500D01*
X206741158Y-59100500D01*
X206898844Y-59100500D01*
X206898845Y-59100499D01*
X207053497Y-59069737D01*
X207166166Y-59023067D01*
X207199172Y-59009397D01*
X207199172Y-59009396D01*
X207199179Y-59009394D01*
X207330289Y-58921789D01*
X207441789Y-58810289D01*
X207449145Y-58799279D01*
X207466898Y-58772712D01*
X207520510Y-58727906D01*
X207589835Y-58719199D01*
X207652862Y-58749353D01*
X207673102Y-58772712D01*
X207698207Y-58810284D01*
X207698213Y-58810292D01*
X207809707Y-58921786D01*
X207809711Y-58921789D01*
X207940814Y-59009390D01*
X207940827Y-59009397D01*
X208086498Y-59069735D01*
X208086503Y-59069737D01*
X208212176Y-59094735D01*
X208241153Y-59100499D01*
X208241156Y-59100500D01*
X208241158Y-59100500D01*
X208398844Y-59100500D01*
X208398845Y-59100499D01*
X208553497Y-59069737D01*
X208666166Y-59023067D01*
X208699172Y-59009397D01*
X208699172Y-59009396D01*
X208699179Y-59009394D01*
X208830289Y-58921789D01*
X208941789Y-58810289D01*
X209029394Y-58679179D01*
X209089737Y-58533497D01*
X209120500Y-58378842D01*
X209120500Y-58221158D01*
X209120500Y-58221155D01*
X209120499Y-58221153D01*
X209089738Y-58066510D01*
X209089737Y-58066503D01*
X209039752Y-57945827D01*
X209029397Y-57920827D01*
X209029390Y-57920814D01*
X208941789Y-57789711D01*
X208941786Y-57789707D01*
X208830292Y-57678213D01*
X208830288Y-57678210D01*
X208699185Y-57590609D01*
X208699172Y-57590602D01*
X208648532Y-57569627D01*
X208553501Y-57530264D01*
X208553489Y-57530261D01*
X208398845Y-57499500D01*
X208398842Y-57499500D01*
X208241158Y-57499500D01*
X208241155Y-57499500D01*
X208086510Y-57530261D01*
X208086498Y-57530264D01*
X207940827Y-57590602D01*
X207940814Y-57590609D01*
X207809711Y-57678210D01*
X207809707Y-57678213D01*
X207698213Y-57789707D01*
X207673102Y-57827289D01*
X207619489Y-57872093D01*
X207550164Y-57880800D01*
X207487137Y-57850645D01*
X207466898Y-57827289D01*
X207441786Y-57789707D01*
X207330292Y-57678213D01*
X207330288Y-57678210D01*
X207199185Y-57590609D01*
X207199172Y-57590602D01*
X207053501Y-57530264D01*
X207053489Y-57530261D01*
X206898845Y-57499500D01*
X206898842Y-57499500D01*
X206741158Y-57499500D01*
X206741155Y-57499500D01*
X206586510Y-57530261D01*
X206586498Y-57530264D01*
X206440827Y-57590602D01*
X206440814Y-57590609D01*
X206309711Y-57678210D01*
X206309707Y-57678213D01*
X206198213Y-57789707D01*
X206173102Y-57827289D01*
X206119489Y-57872093D01*
X206050164Y-57880800D01*
X205987137Y-57850645D01*
X205966898Y-57827289D01*
X205941786Y-57789707D01*
X205830292Y-57678213D01*
X205830288Y-57678210D01*
X205699185Y-57590609D01*
X205699172Y-57590602D01*
X205553501Y-57530264D01*
X205553489Y-57530261D01*
X205398845Y-57499500D01*
X205398842Y-57499500D01*
X205241158Y-57499500D01*
X205241155Y-57499500D01*
X205086510Y-57530261D01*
X205086498Y-57530264D01*
X204940827Y-57590602D01*
X204940814Y-57590609D01*
X204809711Y-57678210D01*
X204809707Y-57678213D01*
X204698213Y-57789707D01*
X204698210Y-57789711D01*
X204610609Y-57920814D01*
X204610602Y-57920827D01*
X204550264Y-58066498D01*
X204550261Y-58066510D01*
X204519500Y-58221153D01*
X201618027Y-58221153D01*
X201592238Y-58091508D01*
X201592237Y-58091507D01*
X201592237Y-58091503D01*
X201575166Y-58050289D01*
X201531897Y-57945827D01*
X201531890Y-57945814D01*
X201444289Y-57814711D01*
X201444286Y-57814707D01*
X201332792Y-57703213D01*
X201332788Y-57703210D01*
X201201685Y-57615609D01*
X201201672Y-57615602D01*
X201056001Y-57555264D01*
X201055989Y-57555261D01*
X200901345Y-57524500D01*
X200901342Y-57524500D01*
X200743658Y-57524500D01*
X200743655Y-57524500D01*
X200589010Y-57555261D01*
X200588998Y-57555264D01*
X200443327Y-57615602D01*
X200443314Y-57615609D01*
X200312211Y-57703210D01*
X200312207Y-57703213D01*
X200200713Y-57814707D01*
X200200708Y-57814713D01*
X200176021Y-57851660D01*
X200122408Y-57896464D01*
X200053083Y-57905171D01*
X199990056Y-57875016D01*
X199969818Y-57851659D01*
X199941789Y-57809710D01*
X199830292Y-57698213D01*
X199830288Y-57698210D01*
X199699185Y-57610609D01*
X199699172Y-57610602D01*
X199553501Y-57550264D01*
X199553489Y-57550261D01*
X199398845Y-57519500D01*
X199398842Y-57519500D01*
X199241158Y-57519500D01*
X199241155Y-57519500D01*
X199086510Y-57550261D01*
X199086498Y-57550264D01*
X198940827Y-57610602D01*
X198940814Y-57610609D01*
X198809711Y-57698210D01*
X198809707Y-57698213D01*
X198698213Y-57809707D01*
X198698209Y-57809712D01*
X198681440Y-57834808D01*
X198627826Y-57879611D01*
X198558501Y-57888317D01*
X198495475Y-57858160D01*
X198475237Y-57834804D01*
X198451787Y-57799708D01*
X198340292Y-57688213D01*
X198340288Y-57688210D01*
X198209185Y-57600609D01*
X198209172Y-57600602D01*
X198063501Y-57540264D01*
X198063489Y-57540261D01*
X197908845Y-57509500D01*
X197908842Y-57509500D01*
X197751158Y-57509500D01*
X197751155Y-57509500D01*
X197596510Y-57540261D01*
X197596498Y-57540264D01*
X197450827Y-57600602D01*
X197450814Y-57600609D01*
X197319711Y-57688210D01*
X197319707Y-57688213D01*
X197208211Y-57799709D01*
X197177691Y-57845385D01*
X197124077Y-57890189D01*
X197054752Y-57898895D01*
X196991725Y-57868739D01*
X196971488Y-57845383D01*
X196934289Y-57789710D01*
X196822792Y-57678213D01*
X196822788Y-57678210D01*
X196691685Y-57590609D01*
X196691672Y-57590602D01*
X196546001Y-57530264D01*
X196545989Y-57530261D01*
X196391345Y-57499500D01*
X196391342Y-57499500D01*
X196233658Y-57499500D01*
X196233655Y-57499500D01*
X196079010Y-57530261D01*
X196078998Y-57530264D01*
X195933327Y-57590602D01*
X195933314Y-57590609D01*
X195802211Y-57678210D01*
X195802207Y-57678213D01*
X195690713Y-57789707D01*
X195690710Y-57789711D01*
X195603109Y-57920814D01*
X195603102Y-57920827D01*
X195542764Y-58066498D01*
X195542761Y-58066510D01*
X195512000Y-58221153D01*
X195220000Y-58221153D01*
X195220000Y-57461153D01*
X251819500Y-57461153D01*
X251819500Y-57618846D01*
X251850261Y-57773489D01*
X251850264Y-57773501D01*
X251910602Y-57919172D01*
X251910609Y-57919185D01*
X251998210Y-58050288D01*
X251998213Y-58050292D01*
X252109707Y-58161786D01*
X252109711Y-58161789D01*
X252240814Y-58249390D01*
X252240827Y-58249397D01*
X252386498Y-58309735D01*
X252386503Y-58309737D01*
X252541153Y-58340499D01*
X252541156Y-58340500D01*
X252541158Y-58340500D01*
X252698844Y-58340500D01*
X252698845Y-58340499D01*
X252853497Y-58309737D01*
X252999179Y-58249394D01*
X253130289Y-58161789D01*
X253241789Y-58050289D01*
X253329394Y-57919179D01*
X253389737Y-57773497D01*
X253420500Y-57618842D01*
X253420500Y-57461158D01*
X253420500Y-57461155D01*
X253420499Y-57461153D01*
X253389738Y-57306510D01*
X253389737Y-57306503D01*
X253389735Y-57306498D01*
X253329397Y-57160827D01*
X253329390Y-57160814D01*
X253241789Y-57029711D01*
X253241786Y-57029707D01*
X253130292Y-56918213D01*
X253130288Y-56918210D01*
X252999185Y-56830609D01*
X252999172Y-56830602D01*
X252853501Y-56770264D01*
X252853489Y-56770261D01*
X252698845Y-56739500D01*
X252698842Y-56739500D01*
X252541158Y-56739500D01*
X252541155Y-56739500D01*
X252386510Y-56770261D01*
X252386498Y-56770264D01*
X252240827Y-56830602D01*
X252240814Y-56830609D01*
X252109711Y-56918210D01*
X252109707Y-56918213D01*
X251998213Y-57029707D01*
X251998210Y-57029711D01*
X251910609Y-57160814D01*
X251910602Y-57160827D01*
X251850264Y-57306498D01*
X251850261Y-57306510D01*
X251819500Y-57461153D01*
X195220000Y-57461153D01*
X195220000Y-54869999D01*
X222555654Y-54869999D01*
X222555655Y-54870000D01*
X224920137Y-54870000D01*
X224890000Y-55021509D01*
X224890000Y-55218491D01*
X224920137Y-55370000D01*
X222555655Y-55370000D01*
X222574221Y-55511016D01*
X222642075Y-55764255D01*
X222742404Y-56006471D01*
X222742409Y-56006482D01*
X222873496Y-56233528D01*
X223033092Y-56441519D01*
X223033098Y-56441526D01*
X223218473Y-56626901D01*
X223218480Y-56626907D01*
X223426471Y-56786503D01*
X223653517Y-56917590D01*
X223653528Y-56917595D01*
X223895744Y-57017924D01*
X224148979Y-57085777D01*
X224148990Y-57085779D01*
X224408905Y-57119999D01*
X224408920Y-57120000D01*
X225790000Y-57120000D01*
X225790000Y-56119699D01*
X225791509Y-56120000D01*
X226288491Y-56120000D01*
X226290000Y-56119699D01*
X226290000Y-57120000D01*
X227671080Y-57120000D01*
X227671094Y-57119999D01*
X227931009Y-57085779D01*
X227931020Y-57085777D01*
X228184255Y-57017924D01*
X228426471Y-56917595D01*
X228426482Y-56917590D01*
X228653528Y-56786503D01*
X228861519Y-56626907D01*
X228861526Y-56626901D01*
X229046901Y-56441526D01*
X229046907Y-56441519D01*
X229206503Y-56233528D01*
X229337590Y-56006482D01*
X229337595Y-56006471D01*
X229437924Y-55764255D01*
X229505778Y-55511016D01*
X229524345Y-55370000D01*
X227159863Y-55370000D01*
X227190000Y-55218491D01*
X227190000Y-55021509D01*
X227159863Y-54870000D01*
X229524345Y-54870000D01*
X229524345Y-54869999D01*
X229505778Y-54728983D01*
X229447987Y-54513300D01*
X229440473Y-54485258D01*
X240799500Y-54485258D01*
X240799500Y-54714741D01*
X240824446Y-54904215D01*
X240829452Y-54942238D01*
X240888842Y-55163887D01*
X240976650Y-55375876D01*
X240976657Y-55375890D01*
X241091392Y-55574617D01*
X241231081Y-55756661D01*
X241231089Y-55756670D01*
X241393330Y-55918911D01*
X241393338Y-55918918D01*
X241575382Y-56058607D01*
X241575385Y-56058608D01*
X241575388Y-56058611D01*
X241774112Y-56173344D01*
X241774117Y-56173346D01*
X241774123Y-56173349D01*
X241865480Y-56211190D01*
X241986113Y-56261158D01*
X242207762Y-56320548D01*
X242435266Y-56350500D01*
X242435273Y-56350500D01*
X242664727Y-56350500D01*
X242664734Y-56350500D01*
X242892238Y-56320548D01*
X243113887Y-56261158D01*
X243325888Y-56173344D01*
X243524612Y-56058611D01*
X243706661Y-55918919D01*
X243706665Y-55918914D01*
X243706670Y-55918911D01*
X243868911Y-55756670D01*
X243868914Y-55756665D01*
X243868919Y-55756661D01*
X244008611Y-55574612D01*
X244123344Y-55375888D01*
X244211158Y-55163887D01*
X244270548Y-54942238D01*
X244300500Y-54714734D01*
X244300500Y-54485266D01*
X244270548Y-54257762D01*
X244211158Y-54036113D01*
X244123344Y-53824112D01*
X244008611Y-53625388D01*
X244008608Y-53625385D01*
X244008607Y-53625382D01*
X243868918Y-53443338D01*
X243868911Y-53443330D01*
X243706670Y-53281089D01*
X243706661Y-53281081D01*
X243524617Y-53141392D01*
X243325890Y-53026657D01*
X243325876Y-53026650D01*
X243113887Y-52938842D01*
X243089688Y-52932358D01*
X242892238Y-52879452D01*
X242854215Y-52874446D01*
X242664741Y-52849500D01*
X242664734Y-52849500D01*
X242435266Y-52849500D01*
X242435258Y-52849500D01*
X242218715Y-52878009D01*
X242207762Y-52879452D01*
X242114076Y-52904554D01*
X241986112Y-52938842D01*
X241774123Y-53026650D01*
X241774109Y-53026657D01*
X241575382Y-53141392D01*
X241393338Y-53281081D01*
X241231081Y-53443338D01*
X241091392Y-53625382D01*
X240976657Y-53824109D01*
X240976650Y-53824123D01*
X240929131Y-53938846D01*
X240888842Y-54036113D01*
X240835946Y-54233528D01*
X240829453Y-54257759D01*
X240829451Y-54257770D01*
X240799500Y-54485258D01*
X229440473Y-54485258D01*
X229437924Y-54475744D01*
X229337595Y-54233528D01*
X229337590Y-54233517D01*
X229206503Y-54006471D01*
X229046907Y-53798480D01*
X229046901Y-53798473D01*
X228861526Y-53613098D01*
X228861519Y-53613092D01*
X228653528Y-53453496D01*
X228426482Y-53322409D01*
X228426471Y-53322404D01*
X228184255Y-53222075D01*
X227931020Y-53154222D01*
X227931009Y-53154220D01*
X227671094Y-53120000D01*
X226290000Y-53120000D01*
X226290000Y-54120300D01*
X226288491Y-54120000D01*
X225791509Y-54120000D01*
X225790000Y-54120300D01*
X225790000Y-53120000D01*
X224408905Y-53120000D01*
X224148990Y-53154220D01*
X224148979Y-53154222D01*
X223895744Y-53222075D01*
X223653528Y-53322404D01*
X223653517Y-53322409D01*
X223426471Y-53453496D01*
X223218480Y-53613092D01*
X223218473Y-53613098D01*
X223033098Y-53798473D01*
X223033092Y-53798480D01*
X222873496Y-54006471D01*
X222742409Y-54233517D01*
X222742404Y-54233528D01*
X222642075Y-54475744D01*
X222574221Y-54728983D01*
X222555654Y-54869999D01*
X195220000Y-54869999D01*
X195220000Y-54400000D01*
X189619500Y-54400000D01*
X189552461Y-54380315D01*
X189506706Y-54327511D01*
X189495500Y-54276000D01*
X189495500Y-53781153D01*
X195839500Y-53781153D01*
X195839500Y-53938846D01*
X195870261Y-54093489D01*
X195870264Y-54093501D01*
X195930602Y-54239172D01*
X195930609Y-54239185D01*
X196018210Y-54370288D01*
X196018213Y-54370292D01*
X196129707Y-54481786D01*
X196129711Y-54481789D01*
X196260814Y-54569390D01*
X196260827Y-54569397D01*
X196406498Y-54629735D01*
X196406503Y-54629737D01*
X196561153Y-54660499D01*
X196561156Y-54660500D01*
X196561158Y-54660500D01*
X196718844Y-54660500D01*
X196718845Y-54660499D01*
X196873497Y-54629737D01*
X197019179Y-54569394D01*
X197150289Y-54481789D01*
X197261789Y-54370289D01*
X197349394Y-54239179D01*
X197351618Y-54233811D01*
X197409735Y-54093501D01*
X197409737Y-54093497D01*
X197440500Y-53938842D01*
X197440500Y-53781158D01*
X197440500Y-53781155D01*
X197440499Y-53781153D01*
X198419500Y-53781153D01*
X198419500Y-53938846D01*
X198450261Y-54093489D01*
X198450264Y-54093501D01*
X198510602Y-54239172D01*
X198510609Y-54239185D01*
X198598210Y-54370288D01*
X198598213Y-54370292D01*
X198709707Y-54481786D01*
X198709711Y-54481789D01*
X198840814Y-54569390D01*
X198840827Y-54569397D01*
X198986498Y-54629735D01*
X198986503Y-54629737D01*
X199141153Y-54660499D01*
X199141156Y-54660500D01*
X199141158Y-54660500D01*
X199298844Y-54660500D01*
X199298845Y-54660499D01*
X199453497Y-54629737D01*
X199599179Y-54569394D01*
X199730289Y-54481789D01*
X199841789Y-54370289D01*
X199929394Y-54239179D01*
X199931618Y-54233811D01*
X199989735Y-54093501D01*
X199989737Y-54093497D01*
X200020500Y-53938842D01*
X200020500Y-53781158D01*
X200020500Y-53781155D01*
X200020499Y-53781153D01*
X200008565Y-53721157D01*
X199989737Y-53626503D01*
X199945047Y-53518611D01*
X199929397Y-53480827D01*
X199929390Y-53480814D01*
X199841789Y-53349711D01*
X199841786Y-53349707D01*
X199730292Y-53238213D01*
X199730288Y-53238210D01*
X199599185Y-53150609D01*
X199599172Y-53150602D01*
X199453501Y-53090264D01*
X199453489Y-53090261D01*
X199298845Y-53059500D01*
X199298842Y-53059500D01*
X199141158Y-53059500D01*
X199141155Y-53059500D01*
X198986510Y-53090261D01*
X198986498Y-53090264D01*
X198840827Y-53150602D01*
X198840814Y-53150609D01*
X198709711Y-53238210D01*
X198709707Y-53238213D01*
X198598213Y-53349707D01*
X198598210Y-53349711D01*
X198510609Y-53480814D01*
X198510602Y-53480827D01*
X198450264Y-53626498D01*
X198450261Y-53626510D01*
X198419500Y-53781153D01*
X197440499Y-53781153D01*
X197428565Y-53721157D01*
X197409737Y-53626503D01*
X197365047Y-53518611D01*
X197349397Y-53480827D01*
X197349390Y-53480814D01*
X197261789Y-53349711D01*
X197261786Y-53349707D01*
X197150292Y-53238213D01*
X197150288Y-53238210D01*
X197019185Y-53150609D01*
X197019172Y-53150602D01*
X196873501Y-53090264D01*
X196873489Y-53090261D01*
X196718845Y-53059500D01*
X196718842Y-53059500D01*
X196561158Y-53059500D01*
X196561155Y-53059500D01*
X196406510Y-53090261D01*
X196406498Y-53090264D01*
X196260827Y-53150602D01*
X196260814Y-53150609D01*
X196129711Y-53238210D01*
X196129707Y-53238213D01*
X196018213Y-53349707D01*
X196018210Y-53349711D01*
X195930609Y-53480814D01*
X195930602Y-53480827D01*
X195870264Y-53626498D01*
X195870261Y-53626510D01*
X195839500Y-53781153D01*
X189495500Y-53781153D01*
X189495500Y-51230422D01*
X189515185Y-51163383D01*
X189567989Y-51117628D01*
X189637147Y-51107684D01*
X189700703Y-51136709D01*
X189722602Y-51161531D01*
X189772086Y-51235589D01*
X189772089Y-51235593D01*
X189904406Y-51367910D01*
X189904410Y-51367913D01*
X190059999Y-51471875D01*
X190060008Y-51471880D01*
X190232894Y-51543491D01*
X190232902Y-51543493D01*
X190416428Y-51579999D01*
X190416431Y-51580000D01*
X190710000Y-51580000D01*
X190710000Y-50930000D01*
X191210000Y-50930000D01*
X191210000Y-51580000D01*
X191503569Y-51580000D01*
X191503571Y-51579999D01*
X191687097Y-51543493D01*
X191687105Y-51543491D01*
X191859991Y-51471880D01*
X191860000Y-51471875D01*
X192015589Y-51367913D01*
X192015593Y-51367910D01*
X192147910Y-51235593D01*
X192147913Y-51235589D01*
X192251875Y-51080000D01*
X192251880Y-51079991D01*
X192323492Y-50907103D01*
X192323493Y-50907100D01*
X192328884Y-50880000D01*
X191526988Y-50880000D01*
X191544205Y-50870060D01*
X191600060Y-50814205D01*
X191639556Y-50745796D01*
X191660000Y-50669496D01*
X191660000Y-50590504D01*
X191639556Y-50514204D01*
X191600060Y-50445795D01*
X191544205Y-50389940D01*
X191526988Y-50380000D01*
X192328884Y-50380000D01*
X193619647Y-50380000D01*
X194423012Y-50380000D01*
X194405795Y-50389940D01*
X194349940Y-50445795D01*
X194310444Y-50514204D01*
X194290000Y-50590504D01*
X194290000Y-50669496D01*
X194310444Y-50745796D01*
X194349940Y-50814205D01*
X194405795Y-50870060D01*
X194423012Y-50880000D01*
X193619647Y-50880000D01*
X193629387Y-50928974D01*
X193629390Y-50928983D01*
X193706652Y-51115513D01*
X193706659Y-51115526D01*
X193818829Y-51283399D01*
X193818832Y-51283403D01*
X193961596Y-51426167D01*
X193961600Y-51426170D01*
X194129473Y-51538340D01*
X194129486Y-51538347D01*
X194316016Y-51615609D01*
X194316025Y-51615612D01*
X194514041Y-51654999D01*
X194514045Y-51655000D01*
X194890000Y-51655000D01*
X194890000Y-50930000D01*
X195390000Y-50930000D01*
X195390000Y-51655000D01*
X195765955Y-51655000D01*
X195765958Y-51654999D01*
X195963974Y-51615612D01*
X195963983Y-51615609D01*
X196150513Y-51538347D01*
X196150526Y-51538340D01*
X196318399Y-51426170D01*
X196318403Y-51426167D01*
X196461167Y-51283403D01*
X196461170Y-51283399D01*
X196573340Y-51115526D01*
X196573347Y-51115513D01*
X196650609Y-50928983D01*
X196650612Y-50928974D01*
X196660353Y-50880000D01*
X195856988Y-50880000D01*
X195874205Y-50870060D01*
X195930060Y-50814205D01*
X195969556Y-50745796D01*
X195990000Y-50669496D01*
X195990000Y-50590504D01*
X195969556Y-50514204D01*
X195930060Y-50445795D01*
X195874205Y-50389940D01*
X195856988Y-50380000D01*
X196660353Y-50380000D01*
X196650612Y-50331025D01*
X196650609Y-50331016D01*
X196573347Y-50144486D01*
X196573340Y-50144473D01*
X196461170Y-49976600D01*
X196461167Y-49976596D01*
X196318403Y-49833832D01*
X196318399Y-49833829D01*
X196150526Y-49721659D01*
X196150513Y-49721652D01*
X195963983Y-49644390D01*
X195963974Y-49644387D01*
X195765958Y-49605000D01*
X195285479Y-49605000D01*
X195218440Y-49585315D01*
X195172685Y-49532511D01*
X195162741Y-49463353D01*
X195167130Y-49443992D01*
X195171227Y-49430888D01*
X195176281Y-49422135D01*
X195215500Y-49275766D01*
X195215500Y-49124234D01*
X195176281Y-48977865D01*
X195100515Y-48846635D01*
X194993365Y-48739485D01*
X194890163Y-48679901D01*
X194862136Y-48663719D01*
X194788950Y-48644109D01*
X194715766Y-48624500D01*
X194564234Y-48624500D01*
X194417863Y-48663719D01*
X194286635Y-48739485D01*
X194286632Y-48739487D01*
X194179487Y-48846632D01*
X194179485Y-48846635D01*
X194103719Y-48977863D01*
X194071741Y-49097209D01*
X194064500Y-49124234D01*
X194064500Y-49275766D01*
X194094635Y-49388233D01*
X194103720Y-49422137D01*
X194103720Y-49422138D01*
X194177878Y-49550583D01*
X194194351Y-49618483D01*
X194171498Y-49684510D01*
X194134017Y-49717481D01*
X194134545Y-49718271D01*
X193961600Y-49833829D01*
X193961596Y-49833832D01*
X193818832Y-49976596D01*
X193818829Y-49976600D01*
X193706659Y-50144473D01*
X193706652Y-50144486D01*
X193629390Y-50331016D01*
X193629387Y-50331025D01*
X193619647Y-50380000D01*
X192328884Y-50380000D01*
X192328884Y-50379999D01*
X192323493Y-50352899D01*
X192323492Y-50352896D01*
X192251880Y-50180008D01*
X192251875Y-50179999D01*
X192147913Y-50024410D01*
X192147910Y-50024406D01*
X192015593Y-49892089D01*
X192015589Y-49892086D01*
X191860000Y-49788124D01*
X191859991Y-49788119D01*
X191687105Y-49716508D01*
X191687097Y-49716506D01*
X191503570Y-49680000D01*
X191210000Y-49680000D01*
X191210000Y-50330000D01*
X190710000Y-50330000D01*
X190710000Y-49680000D01*
X190416430Y-49680000D01*
X190232902Y-49716506D01*
X190232894Y-49716508D01*
X190060008Y-49788119D01*
X190059999Y-49788124D01*
X189904410Y-49892086D01*
X189904406Y-49892089D01*
X189772089Y-50024406D01*
X189772086Y-50024410D01*
X189722602Y-50098468D01*
X189668989Y-50143273D01*
X189599664Y-50151980D01*
X189536637Y-50121825D01*
X189499918Y-50062382D01*
X189495500Y-50029577D01*
X189495500Y-45181153D01*
X193539500Y-45181153D01*
X193539500Y-45338846D01*
X193570261Y-45493489D01*
X193570264Y-45493501D01*
X193630602Y-45639172D01*
X193630609Y-45639185D01*
X193718210Y-45770288D01*
X193718213Y-45770292D01*
X193772574Y-45824653D01*
X193806059Y-45885976D01*
X193801075Y-45955668D01*
X193772575Y-46000014D01*
X193722884Y-46049705D01*
X193722880Y-46049710D01*
X193635279Y-46180813D01*
X193635272Y-46180826D01*
X193574934Y-46326497D01*
X193574931Y-46326509D01*
X193544170Y-46481152D01*
X193544170Y-46638845D01*
X193574931Y-46793488D01*
X193574934Y-46793500D01*
X193635272Y-46939171D01*
X193635279Y-46939184D01*
X193722880Y-47070287D01*
X193722883Y-47070291D01*
X193834377Y-47181785D01*
X193834381Y-47181788D01*
X193965484Y-47269389D01*
X193965497Y-47269396D01*
X194073185Y-47314001D01*
X194111173Y-47329736D01*
X194265823Y-47360498D01*
X194265826Y-47360499D01*
X194265828Y-47360499D01*
X194423514Y-47360499D01*
X194423515Y-47360498D01*
X194578167Y-47329736D01*
X194690836Y-47283066D01*
X194723842Y-47269396D01*
X194723842Y-47269395D01*
X194723849Y-47269393D01*
X194854959Y-47181788D01*
X194966459Y-47070288D01*
X195054064Y-46939178D01*
X195054065Y-46939175D01*
X195054067Y-46939172D01*
X195066242Y-46909778D01*
X217139500Y-46909778D01*
X217139500Y-47130221D01*
X217173985Y-47347952D01*
X217242103Y-47557603D01*
X217242104Y-47557606D01*
X217342187Y-47754025D01*
X217471752Y-47932358D01*
X217471756Y-47932363D01*
X217627636Y-48088243D01*
X217627641Y-48088247D01*
X217740151Y-48169990D01*
X217782817Y-48225319D01*
X217788796Y-48294933D01*
X217756191Y-48356728D01*
X217742513Y-48368579D01*
X217742485Y-48368932D01*
X218328940Y-48955387D01*
X218308409Y-48960889D01*
X218171592Y-49039881D01*
X218059881Y-49151592D01*
X217980889Y-49288409D01*
X217975387Y-49308940D01*
X217388932Y-48722485D01*
X217388931Y-48722485D01*
X217342616Y-48786233D01*
X217242567Y-48982589D01*
X217174473Y-49192164D01*
X217140000Y-49409818D01*
X217140000Y-49630181D01*
X217174473Y-49847835D01*
X217242567Y-50057410D01*
X217342611Y-50253756D01*
X217388932Y-50317513D01*
X217975387Y-49731058D01*
X217980889Y-49751591D01*
X218059881Y-49888408D01*
X218171592Y-50000119D01*
X218308409Y-50079111D01*
X218328939Y-50084612D01*
X217742485Y-50671065D01*
X217742602Y-50672548D01*
X217782818Y-50724701D01*
X217788797Y-50794315D01*
X217756192Y-50856110D01*
X217740153Y-50870008D01*
X217627636Y-50951756D01*
X217471756Y-51107636D01*
X217471752Y-51107641D01*
X217342187Y-51285974D01*
X217242104Y-51482393D01*
X217242103Y-51482396D01*
X217173985Y-51692047D01*
X217139500Y-51909778D01*
X217139500Y-52130221D01*
X217173985Y-52347952D01*
X217242103Y-52557603D01*
X217242104Y-52557606D01*
X217342187Y-52754025D01*
X217471752Y-52932358D01*
X217471756Y-52932363D01*
X217627636Y-53088243D01*
X217627641Y-53088247D01*
X217713472Y-53150606D01*
X217805978Y-53217815D01*
X217930143Y-53281081D01*
X218002393Y-53317895D01*
X218002396Y-53317896D01*
X218100303Y-53349707D01*
X218212049Y-53386015D01*
X218429778Y-53420500D01*
X218429779Y-53420500D01*
X218650221Y-53420500D01*
X218650222Y-53420500D01*
X218867951Y-53386015D01*
X219077606Y-53317895D01*
X219274022Y-53217815D01*
X219452365Y-53088242D01*
X219608242Y-52932365D01*
X219737815Y-52754022D01*
X219837895Y-52557606D01*
X219906015Y-52347951D01*
X219940500Y-52130222D01*
X219940500Y-51909778D01*
X231639500Y-51909778D01*
X231639500Y-52130221D01*
X231673985Y-52347952D01*
X231742103Y-52557603D01*
X231742104Y-52557606D01*
X231842187Y-52754025D01*
X231971752Y-52932358D01*
X231971756Y-52932363D01*
X232127636Y-53088243D01*
X232127641Y-53088247D01*
X232213472Y-53150606D01*
X232305978Y-53217815D01*
X232430143Y-53281081D01*
X232502393Y-53317895D01*
X232502396Y-53317896D01*
X232600303Y-53349707D01*
X232712049Y-53386015D01*
X232929778Y-53420500D01*
X232929779Y-53420500D01*
X233150221Y-53420500D01*
X233150222Y-53420500D01*
X233367951Y-53386015D01*
X233577606Y-53317895D01*
X233774022Y-53217815D01*
X233952365Y-53088242D01*
X234108242Y-52932365D01*
X234237815Y-52754022D01*
X234337895Y-52557606D01*
X234406015Y-52347951D01*
X234440500Y-52130222D01*
X234440500Y-51945258D01*
X247149500Y-51945258D01*
X247149500Y-52174741D01*
X247172305Y-52347951D01*
X247179452Y-52402238D01*
X247221082Y-52557606D01*
X247238842Y-52623887D01*
X247326650Y-52835876D01*
X247326657Y-52835890D01*
X247441392Y-53034617D01*
X247581081Y-53216661D01*
X247581089Y-53216670D01*
X247743330Y-53378911D01*
X247743338Y-53378918D01*
X247743339Y-53378919D01*
X247752587Y-53386015D01*
X247925382Y-53518607D01*
X247925385Y-53518608D01*
X247925388Y-53518611D01*
X248124112Y-53633344D01*
X248124117Y-53633346D01*
X248124123Y-53633349D01*
X248215480Y-53671190D01*
X248336113Y-53721158D01*
X248557762Y-53780548D01*
X248785266Y-53810500D01*
X248785273Y-53810500D01*
X249014727Y-53810500D01*
X249014734Y-53810500D01*
X249242238Y-53780548D01*
X249463887Y-53721158D01*
X249675888Y-53633344D01*
X249874612Y-53518611D01*
X250056661Y-53378919D01*
X250056665Y-53378914D01*
X250056670Y-53378911D01*
X250218911Y-53216670D01*
X250218914Y-53216665D01*
X250218919Y-53216661D01*
X250358611Y-53034612D01*
X250473344Y-52835888D01*
X250561158Y-52623887D01*
X250620548Y-52402238D01*
X250650500Y-52174734D01*
X250650500Y-51945266D01*
X250620548Y-51717762D01*
X250561158Y-51496113D01*
X250474117Y-51285978D01*
X250473349Y-51284123D01*
X250473346Y-51284117D01*
X250473344Y-51284112D01*
X250358611Y-51085388D01*
X250358608Y-51085385D01*
X250358607Y-51085382D01*
X250238596Y-50928983D01*
X250218919Y-50903339D01*
X250218918Y-50903338D01*
X250218911Y-50903330D01*
X250148662Y-50833081D01*
X250115177Y-50771758D01*
X250120161Y-50702066D01*
X250162033Y-50646133D01*
X250227497Y-50621716D01*
X250236343Y-50621400D01*
X250256687Y-50621400D01*
X250339695Y-50608252D01*
X250427912Y-50594280D01*
X250592791Y-50540708D01*
X250747260Y-50462002D01*
X250887514Y-50360101D01*
X251010101Y-50237514D01*
X251112002Y-50097260D01*
X251190708Y-49942791D01*
X251244280Y-49777912D01*
X251265428Y-49644390D01*
X251271400Y-49606687D01*
X251271400Y-49433312D01*
X251255622Y-49333702D01*
X251244280Y-49262088D01*
X251190708Y-49097209D01*
X251190708Y-49097208D01*
X251112001Y-48942739D01*
X251095480Y-48920000D01*
X251010101Y-48802486D01*
X250887514Y-48679899D01*
X250747260Y-48577998D01*
X250592791Y-48499291D01*
X250592788Y-48499290D01*
X250427913Y-48445720D01*
X250256687Y-48418600D01*
X250256682Y-48418600D01*
X250083318Y-48418600D01*
X250083313Y-48418600D01*
X249912086Y-48445720D01*
X249747211Y-48499290D01*
X249747208Y-48499291D01*
X249592739Y-48577998D01*
X249528736Y-48624500D01*
X249452486Y-48679899D01*
X249452484Y-48679901D01*
X249452483Y-48679901D01*
X249329901Y-48802483D01*
X249329901Y-48802484D01*
X249329899Y-48802486D01*
X249297825Y-48846632D01*
X249227998Y-48942739D01*
X249149291Y-49097208D01*
X249149290Y-49097211D01*
X249095720Y-49262086D01*
X249068600Y-49433312D01*
X249068600Y-49606687D01*
X249095720Y-49777913D01*
X249149290Y-49942788D01*
X249149291Y-49942791D01*
X249227998Y-50097260D01*
X249251420Y-50129497D01*
X249274900Y-50195303D01*
X249259075Y-50263357D01*
X249208970Y-50312052D01*
X249140492Y-50325928D01*
X249134917Y-50325322D01*
X249014744Y-50309501D01*
X249014739Y-50309500D01*
X249014734Y-50309500D01*
X248785266Y-50309500D01*
X248785258Y-50309500D01*
X248568715Y-50338009D01*
X248557762Y-50339452D01*
X248516739Y-50350444D01*
X248336112Y-50398842D01*
X248124123Y-50486650D01*
X248124109Y-50486657D01*
X247925382Y-50601392D01*
X247743338Y-50741081D01*
X247581081Y-50903338D01*
X247441392Y-51085382D01*
X247326657Y-51284109D01*
X247326650Y-51284123D01*
X247238842Y-51496112D01*
X247179453Y-51717759D01*
X247179451Y-51717770D01*
X247149500Y-51945258D01*
X234440500Y-51945258D01*
X234440500Y-51909778D01*
X234406015Y-51692049D01*
X234356073Y-51538340D01*
X234337896Y-51482396D01*
X234337895Y-51482393D01*
X234279562Y-51367910D01*
X234237815Y-51285978D01*
X234221260Y-51263192D01*
X234108247Y-51107641D01*
X234108243Y-51107636D01*
X233952363Y-50951756D01*
X233952358Y-50951752D01*
X233774025Y-50822187D01*
X233774024Y-50822186D01*
X233774022Y-50822185D01*
X233711096Y-50790122D01*
X233577606Y-50722104D01*
X233577603Y-50722103D01*
X233367952Y-50653985D01*
X233259086Y-50636742D01*
X233150222Y-50619500D01*
X232929778Y-50619500D01*
X232857201Y-50630995D01*
X232712047Y-50653985D01*
X232502396Y-50722103D01*
X232502393Y-50722104D01*
X232305974Y-50822187D01*
X232127641Y-50951752D01*
X232127636Y-50951756D01*
X231971756Y-51107636D01*
X231971752Y-51107641D01*
X231842187Y-51285974D01*
X231742104Y-51482393D01*
X231742103Y-51482396D01*
X231673985Y-51692047D01*
X231639500Y-51909778D01*
X219940500Y-51909778D01*
X219906015Y-51692049D01*
X219856073Y-51538340D01*
X219837896Y-51482396D01*
X219837895Y-51482393D01*
X219779562Y-51367910D01*
X219737815Y-51285978D01*
X219721260Y-51263192D01*
X219608247Y-51107641D01*
X219608243Y-51107636D01*
X219452359Y-50951752D01*
X219339846Y-50870008D01*
X219297180Y-50814679D01*
X219291201Y-50745065D01*
X219323806Y-50683270D01*
X219337486Y-50671416D01*
X219337514Y-50671066D01*
X219027600Y-50361153D01*
X234779500Y-50361153D01*
X234779500Y-50518846D01*
X234810261Y-50673489D01*
X234810264Y-50673501D01*
X234870602Y-50819172D01*
X234870609Y-50819185D01*
X234958210Y-50950288D01*
X234958213Y-50950292D01*
X235069707Y-51061786D01*
X235069711Y-51061789D01*
X235200814Y-51149390D01*
X235200827Y-51149397D01*
X235346498Y-51209735D01*
X235346503Y-51209737D01*
X235450493Y-51230422D01*
X235501153Y-51240499D01*
X235501156Y-51240500D01*
X235501158Y-51240500D01*
X235658844Y-51240500D01*
X235658845Y-51240499D01*
X235813497Y-51209737D01*
X235959179Y-51149394D01*
X236090289Y-51061789D01*
X236201789Y-50950289D01*
X236289394Y-50819179D01*
X236349737Y-50673497D01*
X236380500Y-50518842D01*
X236380500Y-50361158D01*
X236380500Y-50361155D01*
X236380499Y-50361153D01*
X236373372Y-50325322D01*
X236349737Y-50206503D01*
X236345098Y-50195303D01*
X236289397Y-50060827D01*
X236289390Y-50060814D01*
X236201789Y-49929711D01*
X236201786Y-49929707D01*
X236090292Y-49818213D01*
X236090288Y-49818210D01*
X235959185Y-49730609D01*
X235959172Y-49730602D01*
X235813501Y-49670264D01*
X235813489Y-49670261D01*
X235658845Y-49639500D01*
X235658842Y-49639500D01*
X235501158Y-49639500D01*
X235501155Y-49639500D01*
X235346510Y-49670261D01*
X235346498Y-49670264D01*
X235200827Y-49730602D01*
X235200814Y-49730609D01*
X235069711Y-49818210D01*
X235069707Y-49818213D01*
X234958213Y-49929707D01*
X234958210Y-49929711D01*
X234870609Y-50060814D01*
X234870602Y-50060827D01*
X234810264Y-50206498D01*
X234810261Y-50206510D01*
X234779500Y-50361153D01*
X219027600Y-50361153D01*
X218751059Y-50084612D01*
X218771591Y-50079111D01*
X218908408Y-50000119D01*
X219020119Y-49888408D01*
X219099111Y-49751591D01*
X219104612Y-49731059D01*
X219691066Y-50317514D01*
X219691067Y-50317513D01*
X219716738Y-50282181D01*
X219716738Y-50282180D01*
X219716739Y-50282179D01*
X219737386Y-50253761D01*
X219837432Y-50057410D01*
X219905526Y-49847835D01*
X219940000Y-49630181D01*
X219940000Y-49433312D01*
X238908600Y-49433312D01*
X238908600Y-49606687D01*
X238935720Y-49777913D01*
X238989290Y-49942788D01*
X238989291Y-49942791D01*
X239067998Y-50097260D01*
X239169899Y-50237514D01*
X239292486Y-50360101D01*
X239432740Y-50462002D01*
X239481126Y-50486656D01*
X239587208Y-50540708D01*
X239587211Y-50540709D01*
X239669648Y-50567494D01*
X239752088Y-50594280D01*
X239831391Y-50606840D01*
X239923313Y-50621400D01*
X239923318Y-50621400D01*
X240096687Y-50621400D01*
X240179695Y-50608252D01*
X240267912Y-50594280D01*
X240432791Y-50540708D01*
X240587260Y-50462002D01*
X240727514Y-50360101D01*
X240850101Y-50237514D01*
X240952002Y-50097260D01*
X241030708Y-49942791D01*
X241084280Y-49777912D01*
X241105428Y-49644390D01*
X241111400Y-49606687D01*
X241111400Y-49433312D01*
X241104260Y-49388233D01*
X241101831Y-49372900D01*
X242845600Y-49372900D01*
X242845600Y-49667099D01*
X242845601Y-49667116D01*
X242880171Y-49929707D01*
X242884002Y-49958800D01*
X242895073Y-50000119D01*
X242960152Y-50242994D01*
X243072734Y-50514794D01*
X243072742Y-50514810D01*
X243219840Y-50769589D01*
X243219851Y-50769605D01*
X243398948Y-51003009D01*
X243398954Y-51003016D01*
X243606983Y-51211045D01*
X243606990Y-51211051D01*
X243704632Y-51285974D01*
X243840403Y-51390155D01*
X243840410Y-51390159D01*
X244095189Y-51537257D01*
X244095205Y-51537265D01*
X244367005Y-51649847D01*
X244367007Y-51649847D01*
X244367013Y-51649850D01*
X244651200Y-51725998D01*
X244942894Y-51764400D01*
X244942901Y-51764400D01*
X245237099Y-51764400D01*
X245237106Y-51764400D01*
X245528800Y-51725998D01*
X245812987Y-51649850D01*
X245886318Y-51619475D01*
X246084794Y-51537265D01*
X246084797Y-51537263D01*
X246084803Y-51537261D01*
X246339597Y-51390155D01*
X246573011Y-51211050D01*
X246781050Y-51003011D01*
X246960155Y-50769597D01*
X247107261Y-50514803D01*
X247118920Y-50486657D01*
X247203616Y-50282179D01*
X247219850Y-50242987D01*
X247295998Y-49958800D01*
X247334400Y-49667106D01*
X247334400Y-49372894D01*
X247295998Y-49081200D01*
X247219850Y-48797013D01*
X247215385Y-48786233D01*
X247107265Y-48525205D01*
X247107257Y-48525189D01*
X246960159Y-48270410D01*
X246960155Y-48270403D01*
X246883105Y-48169990D01*
X246781051Y-48036990D01*
X246781045Y-48036983D01*
X246573016Y-47828954D01*
X246573009Y-47828948D01*
X246339605Y-47649851D01*
X246339603Y-47649849D01*
X246339597Y-47649845D01*
X246339592Y-47649842D01*
X246339589Y-47649840D01*
X246084810Y-47502742D01*
X246084794Y-47502734D01*
X245812994Y-47390152D01*
X245702324Y-47360498D01*
X245528800Y-47314002D01*
X245528799Y-47314001D01*
X245528796Y-47314001D01*
X245237116Y-47275601D01*
X245237111Y-47275600D01*
X245237106Y-47275600D01*
X244942894Y-47275600D01*
X244942888Y-47275600D01*
X244942883Y-47275601D01*
X244651203Y-47314001D01*
X244367005Y-47390152D01*
X244095205Y-47502734D01*
X244095189Y-47502742D01*
X243840410Y-47649840D01*
X243840394Y-47649851D01*
X243606990Y-47828948D01*
X243606983Y-47828954D01*
X243398954Y-48036983D01*
X243398948Y-48036990D01*
X243219851Y-48270394D01*
X243219840Y-48270410D01*
X243072742Y-48525189D01*
X243072734Y-48525205D01*
X242960152Y-48797005D01*
X242884001Y-49081203D01*
X242845601Y-49372883D01*
X242845600Y-49372900D01*
X241101831Y-49372900D01*
X241094019Y-49323579D01*
X241084280Y-49262088D01*
X241030708Y-49097209D01*
X241030708Y-49097208D01*
X240952001Y-48942739D01*
X240935480Y-48920000D01*
X240850101Y-48802486D01*
X240727514Y-48679899D01*
X240587260Y-48577998D01*
X240432791Y-48499291D01*
X240432788Y-48499290D01*
X240267913Y-48445720D01*
X240096687Y-48418600D01*
X240096682Y-48418600D01*
X239923318Y-48418600D01*
X239923313Y-48418600D01*
X239752086Y-48445720D01*
X239587211Y-48499290D01*
X239587208Y-48499291D01*
X239432739Y-48577998D01*
X239368736Y-48624500D01*
X239292486Y-48679899D01*
X239292484Y-48679901D01*
X239292483Y-48679901D01*
X239169901Y-48802483D01*
X239169901Y-48802484D01*
X239169899Y-48802486D01*
X239137825Y-48846632D01*
X239067998Y-48942739D01*
X238989291Y-49097208D01*
X238989290Y-49097211D01*
X238935720Y-49262086D01*
X238908600Y-49433312D01*
X219940000Y-49433312D01*
X219940000Y-49409818D01*
X219905526Y-49192164D01*
X219837432Y-48982589D01*
X219737388Y-48786243D01*
X219691066Y-48722485D01*
X219691065Y-48722485D01*
X219104612Y-49308939D01*
X219099111Y-49288409D01*
X219020119Y-49151592D01*
X218908408Y-49039881D01*
X218771591Y-48960889D01*
X218751057Y-48955387D01*
X219337513Y-48368932D01*
X219337396Y-48367450D01*
X219297181Y-48315299D01*
X219291200Y-48245686D01*
X219323805Y-48183890D01*
X219339842Y-48169993D01*
X219452365Y-48088242D01*
X219608242Y-47932365D01*
X219737815Y-47754022D01*
X219837895Y-47557606D01*
X219906015Y-47347951D01*
X219940500Y-47130222D01*
X219940500Y-46909778D01*
X219906015Y-46692049D01*
X219837895Y-46482394D01*
X219837895Y-46482393D01*
X219803237Y-46414375D01*
X219737815Y-46285978D01*
X219728943Y-46273767D01*
X219632986Y-46141691D01*
X219608247Y-46107641D01*
X219608243Y-46107636D01*
X219572742Y-46072135D01*
X231639500Y-46072135D01*
X231639500Y-47967870D01*
X231639501Y-47967876D01*
X231645908Y-48027483D01*
X231696202Y-48162328D01*
X231696206Y-48162335D01*
X231782452Y-48277544D01*
X231782455Y-48277547D01*
X231897664Y-48363793D01*
X231897671Y-48363797D01*
X232032517Y-48414091D01*
X232032516Y-48414091D01*
X232039444Y-48414835D01*
X232092127Y-48420500D01*
X233987872Y-48420499D01*
X234047483Y-48414091D01*
X234182331Y-48363796D01*
X234297546Y-48277546D01*
X234383796Y-48162331D01*
X234434091Y-48027483D01*
X234440500Y-47967873D01*
X234440499Y-46072128D01*
X234434091Y-46012517D01*
X234427686Y-45995345D01*
X234383797Y-45877671D01*
X234383793Y-45877664D01*
X234297547Y-45762455D01*
X234297544Y-45762452D01*
X234182335Y-45676206D01*
X234182328Y-45676202D01*
X234047482Y-45625908D01*
X234047483Y-45625908D01*
X233987883Y-45619501D01*
X233987881Y-45619500D01*
X233987873Y-45619500D01*
X233987864Y-45619500D01*
X232092129Y-45619500D01*
X232092123Y-45619501D01*
X232032516Y-45625908D01*
X231897671Y-45676202D01*
X231897664Y-45676206D01*
X231782455Y-45762452D01*
X231782452Y-45762455D01*
X231696206Y-45877664D01*
X231696202Y-45877671D01*
X231645908Y-46012517D01*
X231641910Y-46049710D01*
X231639501Y-46072123D01*
X231639500Y-46072135D01*
X219572742Y-46072135D01*
X219452363Y-45951756D01*
X219452358Y-45951752D01*
X219274025Y-45822187D01*
X219274024Y-45822186D01*
X219274022Y-45822185D01*
X219211096Y-45790122D01*
X219077606Y-45722104D01*
X219077603Y-45722103D01*
X218867952Y-45653985D01*
X218759086Y-45636742D01*
X218650222Y-45619500D01*
X218429778Y-45619500D01*
X218357201Y-45630995D01*
X218212047Y-45653985D01*
X218002396Y-45722103D01*
X218002393Y-45722104D01*
X217805974Y-45822187D01*
X217627641Y-45951752D01*
X217627636Y-45951756D01*
X217471756Y-46107636D01*
X217471752Y-46107641D01*
X217342187Y-46285974D01*
X217242104Y-46482393D01*
X217242103Y-46482396D01*
X217173985Y-46692047D01*
X217139500Y-46909778D01*
X195066242Y-46909778D01*
X195087915Y-46857454D01*
X195087915Y-46857453D01*
X195114407Y-46793496D01*
X195145170Y-46638841D01*
X195145170Y-46481157D01*
X195145170Y-46481154D01*
X195145169Y-46481152D01*
X195114408Y-46326509D01*
X195114407Y-46326502D01*
X195097620Y-46285974D01*
X195054067Y-46180826D01*
X195054060Y-46180813D01*
X194966459Y-46049710D01*
X194966456Y-46049706D01*
X194912095Y-45995345D01*
X194878610Y-45934022D01*
X194883594Y-45864330D01*
X194912096Y-45819982D01*
X194961786Y-45770292D01*
X194961789Y-45770289D01*
X195049394Y-45639179D01*
X195109737Y-45493497D01*
X195140500Y-45338842D01*
X195140500Y-45181158D01*
X195140500Y-45181155D01*
X195140499Y-45181153D01*
X195122467Y-45090500D01*
X195109737Y-45026503D01*
X195109735Y-45026498D01*
X195049397Y-44880827D01*
X195049390Y-44880814D01*
X194961789Y-44749711D01*
X194961786Y-44749707D01*
X194850292Y-44638213D01*
X194850288Y-44638210D01*
X194719185Y-44550609D01*
X194719172Y-44550602D01*
X194573501Y-44490264D01*
X194573489Y-44490261D01*
X194418845Y-44459500D01*
X194418842Y-44459500D01*
X194261158Y-44459500D01*
X194261155Y-44459500D01*
X194106510Y-44490261D01*
X194106498Y-44490264D01*
X193960827Y-44550602D01*
X193960814Y-44550609D01*
X193829711Y-44638210D01*
X193829707Y-44638213D01*
X193718213Y-44749707D01*
X193718210Y-44749711D01*
X193630609Y-44880814D01*
X193630602Y-44880827D01*
X193570264Y-45026498D01*
X193570261Y-45026510D01*
X193539500Y-45181153D01*
X189495500Y-45181153D01*
X189495500Y-42590422D01*
X189515185Y-42523383D01*
X189567989Y-42477628D01*
X189637147Y-42467684D01*
X189700703Y-42496709D01*
X189722602Y-42521531D01*
X189772086Y-42595589D01*
X189772089Y-42595593D01*
X189904406Y-42727910D01*
X189904410Y-42727913D01*
X190059999Y-42831875D01*
X190060008Y-42831880D01*
X190232894Y-42903491D01*
X190232902Y-42903493D01*
X190416428Y-42939999D01*
X190416431Y-42940000D01*
X190710000Y-42940000D01*
X190710000Y-42290000D01*
X191210000Y-42290000D01*
X191210000Y-42940000D01*
X191503569Y-42940000D01*
X191503571Y-42939999D01*
X191687097Y-42903493D01*
X191687105Y-42903491D01*
X191859991Y-42831880D01*
X191860000Y-42831875D01*
X192015589Y-42727913D01*
X192015593Y-42727910D01*
X192147910Y-42595593D01*
X192147913Y-42595589D01*
X192251875Y-42440000D01*
X192251880Y-42439991D01*
X192323492Y-42267103D01*
X192323493Y-42267100D01*
X192328884Y-42240000D01*
X191526988Y-42240000D01*
X191544205Y-42230060D01*
X191600060Y-42174205D01*
X191639556Y-42105796D01*
X191660000Y-42029496D01*
X191660000Y-41950504D01*
X191639556Y-41874204D01*
X191600060Y-41805795D01*
X191544205Y-41749940D01*
X191526988Y-41740000D01*
X192328884Y-41740000D01*
X193619647Y-41740000D01*
X194423012Y-41740000D01*
X194405795Y-41749940D01*
X194349940Y-41805795D01*
X194310444Y-41874204D01*
X194290000Y-41950504D01*
X194290000Y-42029496D01*
X194310444Y-42105796D01*
X194349940Y-42174205D01*
X194405795Y-42230060D01*
X194423012Y-42240000D01*
X193619647Y-42240000D01*
X193629387Y-42288974D01*
X193629390Y-42288983D01*
X193706652Y-42475513D01*
X193706659Y-42475526D01*
X193818829Y-42643399D01*
X193818832Y-42643403D01*
X193961596Y-42786167D01*
X193961600Y-42786170D01*
X194134545Y-42901729D01*
X194133805Y-42902835D01*
X194178784Y-42947013D01*
X194194250Y-43015149D01*
X194177878Y-43069416D01*
X194103720Y-43197861D01*
X194103720Y-43197862D01*
X194103719Y-43197864D01*
X194103719Y-43197865D01*
X194064500Y-43344234D01*
X194064500Y-43495766D01*
X194084109Y-43568950D01*
X194103719Y-43642136D01*
X194119806Y-43669999D01*
X194179485Y-43773365D01*
X194286635Y-43880515D01*
X194417865Y-43956281D01*
X194564234Y-43995500D01*
X194564236Y-43995500D01*
X194715764Y-43995500D01*
X194715766Y-43995500D01*
X194862135Y-43956281D01*
X194993365Y-43880515D01*
X195100515Y-43773365D01*
X195176281Y-43642135D01*
X195215500Y-43495766D01*
X195215500Y-43364038D01*
X213839500Y-43364038D01*
X213839500Y-43615962D01*
X213864430Y-43773364D01*
X213878910Y-43864785D01*
X213956760Y-44104383D01*
X214071132Y-44328848D01*
X214219201Y-44532649D01*
X214219205Y-44532654D01*
X214397345Y-44710794D01*
X214397350Y-44710798D01*
X214529034Y-44806471D01*
X214601155Y-44858870D01*
X214721130Y-44920000D01*
X214825616Y-44973239D01*
X214825618Y-44973239D01*
X214825621Y-44973241D01*
X215065215Y-45051090D01*
X215314038Y-45090500D01*
X215314039Y-45090500D01*
X215565961Y-45090500D01*
X215565962Y-45090500D01*
X215814785Y-45051090D01*
X216054379Y-44973241D01*
X216278845Y-44858870D01*
X216482656Y-44710793D01*
X216660793Y-44532656D01*
X216808870Y-44328845D01*
X216923241Y-44104379D01*
X217001090Y-43864785D01*
X217007944Y-43821509D01*
X217028755Y-43690119D01*
X217028755Y-43690118D01*
X217031941Y-43669999D01*
X222555654Y-43669999D01*
X222555655Y-43670000D01*
X224920137Y-43670000D01*
X224890000Y-43821509D01*
X224890000Y-44018491D01*
X224920137Y-44170000D01*
X222555655Y-44170000D01*
X222574221Y-44311016D01*
X222642075Y-44564255D01*
X222742404Y-44806471D01*
X222742409Y-44806482D01*
X222873496Y-45033528D01*
X223033092Y-45241519D01*
X223033098Y-45241526D01*
X223218473Y-45426901D01*
X223218480Y-45426907D01*
X223426471Y-45586503D01*
X223653517Y-45717590D01*
X223653528Y-45717595D01*
X223895744Y-45817924D01*
X224148979Y-45885777D01*
X224148990Y-45885779D01*
X224408905Y-45919999D01*
X224408920Y-45920000D01*
X225790000Y-45920000D01*
X225790000Y-44919699D01*
X225791509Y-44920000D01*
X226288491Y-44920000D01*
X226290000Y-44919699D01*
X226290000Y-45920000D01*
X227671080Y-45920000D01*
X227671094Y-45919999D01*
X227931009Y-45885779D01*
X227931020Y-45885777D01*
X228184255Y-45817924D01*
X228426471Y-45717595D01*
X228426482Y-45717590D01*
X228653528Y-45586503D01*
X228861519Y-45426907D01*
X228861526Y-45426901D01*
X229046901Y-45241526D01*
X229046907Y-45241519D01*
X229206503Y-45033528D01*
X229337590Y-44806482D01*
X229337595Y-44806471D01*
X229437924Y-44564255D01*
X229505778Y-44311016D01*
X229524345Y-44170000D01*
X227159863Y-44170000D01*
X227190000Y-44018491D01*
X227190000Y-43821509D01*
X227159863Y-43670000D01*
X229524345Y-43670000D01*
X229524345Y-43669999D01*
X229505778Y-43528983D01*
X229437924Y-43275744D01*
X229337595Y-43033528D01*
X229337590Y-43033517D01*
X229206503Y-42806471D01*
X229046907Y-42598480D01*
X229046901Y-42598473D01*
X228861526Y-42413098D01*
X228861519Y-42413092D01*
X228653528Y-42253496D01*
X228426482Y-42122409D01*
X228426471Y-42122404D01*
X228184255Y-42022075D01*
X227931020Y-41954222D01*
X227931009Y-41954220D01*
X227671094Y-41920000D01*
X226290000Y-41920000D01*
X226290000Y-42920300D01*
X226288491Y-42920000D01*
X225791509Y-42920000D01*
X225790000Y-42920300D01*
X225790000Y-41920000D01*
X224408905Y-41920000D01*
X224148990Y-41954220D01*
X224148979Y-41954222D01*
X223895744Y-42022075D01*
X223653528Y-42122404D01*
X223653517Y-42122409D01*
X223426471Y-42253496D01*
X223218480Y-42413092D01*
X223218473Y-42413098D01*
X223033098Y-42598473D01*
X223033092Y-42598480D01*
X222873496Y-42806471D01*
X222742409Y-43033517D01*
X222742404Y-43033528D01*
X222642075Y-43275744D01*
X222574221Y-43528983D01*
X222555654Y-43669999D01*
X217031941Y-43669999D01*
X217040500Y-43615962D01*
X217040500Y-43364038D01*
X217026515Y-43275744D01*
X217001090Y-43115215D01*
X216923241Y-42875621D01*
X216923239Y-42875618D01*
X216923239Y-42875616D01*
X216847980Y-42727913D01*
X216808870Y-42651155D01*
X216789952Y-42625117D01*
X216660798Y-42447350D01*
X216660794Y-42447345D01*
X216482654Y-42269205D01*
X216482649Y-42269201D01*
X216278848Y-42121132D01*
X216278847Y-42121131D01*
X216278845Y-42121130D01*
X216208747Y-42085413D01*
X216054383Y-42006760D01*
X215814785Y-41928910D01*
X215758530Y-41920000D01*
X215565962Y-41889500D01*
X215314038Y-41889500D01*
X215189626Y-41909205D01*
X215065214Y-41928910D01*
X214825616Y-42006760D01*
X214601151Y-42121132D01*
X214397350Y-42269201D01*
X214397345Y-42269205D01*
X214219205Y-42447345D01*
X214219201Y-42447350D01*
X214071132Y-42651151D01*
X213956760Y-42875616D01*
X213878910Y-43115214D01*
X213852409Y-43282537D01*
X213839500Y-43364038D01*
X195215500Y-43364038D01*
X195215500Y-43344234D01*
X195176281Y-43197865D01*
X195169260Y-43185705D01*
X195165051Y-43168549D01*
X195165860Y-43150574D01*
X195161620Y-43133090D01*
X195167398Y-43116397D01*
X195168193Y-43098750D01*
X195178591Y-43084066D01*
X195184477Y-43067065D01*
X195198363Y-43056146D01*
X195208573Y-43041730D01*
X195225258Y-43034999D01*
X195239402Y-43023879D01*
X195265108Y-43018925D01*
X195273370Y-43015593D01*
X195277917Y-43016457D01*
X195285479Y-43015000D01*
X195765955Y-43015000D01*
X195765958Y-43014999D01*
X195963974Y-42975612D01*
X195963983Y-42975609D01*
X196150513Y-42898347D01*
X196150526Y-42898340D01*
X196318399Y-42786170D01*
X196318403Y-42786167D01*
X196461167Y-42643403D01*
X196461170Y-42643399D01*
X196573340Y-42475526D01*
X196573347Y-42475513D01*
X196650609Y-42288983D01*
X196650612Y-42288974D01*
X196660353Y-42240000D01*
X195856988Y-42240000D01*
X195874205Y-42230060D01*
X195930060Y-42174205D01*
X195969556Y-42105796D01*
X195990000Y-42029496D01*
X195990000Y-41950504D01*
X195969556Y-41874204D01*
X195930060Y-41805795D01*
X195874205Y-41749940D01*
X195856988Y-41740000D01*
X196660353Y-41740000D01*
X196650612Y-41691025D01*
X196650609Y-41691016D01*
X196573347Y-41504486D01*
X196573340Y-41504473D01*
X196461170Y-41336600D01*
X196461167Y-41336596D01*
X196318403Y-41193832D01*
X196318399Y-41193829D01*
X196150526Y-41081659D01*
X196150513Y-41081652D01*
X195963983Y-41004390D01*
X195963974Y-41004387D01*
X195765958Y-40965000D01*
X195390000Y-40965000D01*
X195390000Y-41690000D01*
X194890000Y-41690000D01*
X194890000Y-40965000D01*
X194514041Y-40965000D01*
X194316025Y-41004387D01*
X194316016Y-41004390D01*
X194129486Y-41081652D01*
X194129473Y-41081659D01*
X193961600Y-41193829D01*
X193961596Y-41193832D01*
X193818832Y-41336596D01*
X193818829Y-41336600D01*
X193706659Y-41504473D01*
X193706652Y-41504486D01*
X193629390Y-41691016D01*
X193629387Y-41691025D01*
X193619647Y-41740000D01*
X192328884Y-41740000D01*
X192328884Y-41739999D01*
X192323493Y-41712899D01*
X192323492Y-41712896D01*
X192251880Y-41540008D01*
X192251875Y-41539999D01*
X192147913Y-41384410D01*
X192147910Y-41384406D01*
X192015593Y-41252089D01*
X192015589Y-41252086D01*
X191860000Y-41148124D01*
X191859991Y-41148119D01*
X191687105Y-41076508D01*
X191687097Y-41076506D01*
X191503570Y-41040000D01*
X191210000Y-41040000D01*
X191210000Y-41690000D01*
X190710000Y-41690000D01*
X190710000Y-41040000D01*
X190416430Y-41040000D01*
X190232902Y-41076506D01*
X190232890Y-41076509D01*
X190066900Y-41145264D01*
X190055696Y-41146468D01*
X190045806Y-41151869D01*
X190021580Y-41150136D01*
X189997431Y-41152733D01*
X189987354Y-41147688D01*
X189976114Y-41146885D01*
X189956668Y-41132328D01*
X189934952Y-41121457D01*
X189929202Y-41111766D01*
X189920181Y-41105013D01*
X189911692Y-41082254D01*
X189899300Y-41061368D01*
X189899702Y-41050107D01*
X189895764Y-41039549D01*
X189900927Y-41015815D01*
X189901794Y-40991543D01*
X189908606Y-40980515D01*
X189910616Y-40971276D01*
X189931764Y-40943025D01*
X190006769Y-40868020D01*
X190020123Y-40856448D01*
X190177221Y-40738845D01*
X190192089Y-40729291D01*
X190364298Y-40635258D01*
X190380385Y-40627911D01*
X190564248Y-40559333D01*
X190581199Y-40554356D01*
X190772938Y-40512646D01*
X190790436Y-40510130D01*
X190990582Y-40495816D01*
X190999428Y-40495500D01*
X191060892Y-40495500D01*
X252524108Y-40495500D01*
X252585572Y-40495500D01*
X252594418Y-40495816D01*
G37*
%TD.AperFunction*%
%TD*%
%TA.AperFunction,Conductor*%
%TO.N,VBAT*%
G36*
X219963039Y-74349685D02*
G01*
X220008794Y-74402489D01*
X220020000Y-74454000D01*
X220020000Y-86374040D01*
X220006485Y-86430335D01*
X219939292Y-86562208D01*
X219939290Y-86562211D01*
X219885720Y-86727086D01*
X219858600Y-86898312D01*
X219858600Y-87071687D01*
X219885720Y-87242913D01*
X219939290Y-87407788D01*
X219939291Y-87407791D01*
X220006485Y-87539664D01*
X220020000Y-87595959D01*
X220020000Y-96520500D01*
X220000315Y-96587539D01*
X219947511Y-96633294D01*
X219896000Y-96644500D01*
X202024000Y-96644500D01*
X201956961Y-96624815D01*
X201911206Y-96572011D01*
X201900000Y-96520500D01*
X201900000Y-93524038D01*
X213839500Y-93524038D01*
X213839500Y-93775961D01*
X213878910Y-94024785D01*
X213956760Y-94264383D01*
X214071132Y-94488848D01*
X214219201Y-94692649D01*
X214219205Y-94692654D01*
X214397345Y-94870794D01*
X214397350Y-94870798D01*
X214575117Y-94999952D01*
X214601155Y-95018870D01*
X214744184Y-95091747D01*
X214825616Y-95133239D01*
X214825618Y-95133239D01*
X214825621Y-95133241D01*
X215065215Y-95211090D01*
X215314038Y-95250500D01*
X215314039Y-95250500D01*
X215565961Y-95250500D01*
X215565962Y-95250500D01*
X215814785Y-95211090D01*
X216054379Y-95133241D01*
X216278845Y-95018870D01*
X216482656Y-94870793D01*
X216660793Y-94692656D01*
X216808870Y-94488845D01*
X216923241Y-94264379D01*
X217001090Y-94024785D01*
X217040500Y-93775962D01*
X217040500Y-93524038D01*
X217001090Y-93275215D01*
X216923241Y-93035621D01*
X216923239Y-93035618D01*
X216923239Y-93035616D01*
X216874520Y-92940000D01*
X216808870Y-92811155D01*
X216789952Y-92785117D01*
X216660798Y-92607350D01*
X216660794Y-92607345D01*
X216482654Y-92429205D01*
X216482649Y-92429201D01*
X216278848Y-92281132D01*
X216278847Y-92281131D01*
X216278845Y-92281130D01*
X216208747Y-92245413D01*
X216054383Y-92166760D01*
X215814785Y-92088910D01*
X215565962Y-92049500D01*
X215314038Y-92049500D01*
X215189626Y-92069205D01*
X215065214Y-92088910D01*
X214825616Y-92166760D01*
X214601151Y-92281132D01*
X214397350Y-92429201D01*
X214397345Y-92429205D01*
X214219205Y-92607345D01*
X214219201Y-92607350D01*
X214071132Y-92811151D01*
X213956760Y-93035616D01*
X213878910Y-93275214D01*
X213839500Y-93524038D01*
X201900000Y-93524038D01*
X201900000Y-93064000D01*
X201919685Y-92996961D01*
X201972489Y-92951206D01*
X202024000Y-92940000D01*
X209960000Y-92940000D01*
X213000000Y-89900000D01*
X213000000Y-78080000D01*
X213000000Y-78066433D01*
X212982834Y-78034996D01*
X212980000Y-78008638D01*
X212980000Y-74484500D01*
X212999685Y-74417461D01*
X213052489Y-74371706D01*
X213104000Y-74360500D01*
X213463920Y-74360500D01*
X213605270Y-74332383D01*
X213629462Y-74330000D01*
X219896000Y-74330000D01*
X219963039Y-74349685D01*
G37*
%TD.AperFunction*%
%TD*%
M02*
