M48
; DRILL file {KiCad 9.0.2} date 2025-07-23T19:01:50-0600
; FORMAT={-:-/ absolute / metric / decimal}
; #@! TF.CreationDate,2025-07-23T19:01:50-06:00
; #@! TF.GenerationSoftware,Kicad,Pcbnew,9.0.2
; #@! TF.FileFunction,Plated,1,4,PTH
FMAT,2
METRIC
; #@! TA.AperFunction,Plated,PTH,ComponentDrill
T1C0.200
; #@! TA.AperFunction,Plated,PTH,ViaDrill
T2C0.300
; #@! TA.AperFunction,Plated,PTH,ComponentDrill
T3C0.600
; #@! TA.AperFunction,Plated,PTH,ComponentDrill
T4C1.000
; #@! TA.AperFunction,Plated,PTH,ComponentDrill
T5C1.200
; #@! TA.AperFunction,Plated,PTH,ComponentDrill
T6C2.000
%
G90
G05
T1
X201.42Y-66.89
X201.42Y-67.99
X201.97Y-66.34
X201.97Y-67.44
X201.97Y-68.54
X202.52Y-66.89
X202.52Y-67.99
X203.07Y-66.34
X203.07Y-67.44
X203.07Y-68.54
X203.62Y-66.89
X203.62Y-67.99
T2
X190.17Y-92.69
X190.52Y-89.56
X190.55Y-85.85
X190.72Y-43.56
X190.72Y-45.56
X190.72Y-47.56
X191.89Y-90.84
X192.72Y-41.56
X192.72Y-43.56
X192.72Y-49.56
X192.72Y-95.56
X194.34Y-45.26
X194.345Y-46.56
X194.72Y-89.56
X194.72Y-91.56
X194.72Y-93.56
X194.72Y-95.56
X194.78Y-87.203
X196.312Y-58.3
X196.64Y-53.86
X196.72Y-61.56
X196.72Y-63.56
X196.72Y-65.56
X196.72Y-67.56
X196.72Y-69.56
X196.72Y-71.56
X196.72Y-73.56
X196.72Y-75.56
X196.72Y-91.56
X196.72Y-93.56
X196.72Y-95.56
X197.83Y-58.31
X197.83Y-78.62
X198.71Y-61.55
X198.72Y-63.56
X198.72Y-65.56
X198.72Y-67.56
X198.72Y-69.56
X198.72Y-71.56
X198.72Y-73.56
X198.72Y-75.56
X198.72Y-95.56
X199.22Y-53.86
X199.32Y-58.32
X199.327Y-78.61
X199.44Y-52.37
X199.7Y-91.27
X200.57Y-44.58
X200.72Y-63.57
X200.72Y-71.56
X200.72Y-73.56
X200.72Y-75.56
X200.72Y-95.56
X200.79Y-84.565
X200.822Y-58.325
X200.827Y-78.61
X201.61Y-49.082
X201.71Y-57.38
X202.327Y-78.61
X202.72Y-71.56
X202.72Y-73.56
X202.72Y-75.56
X202.97Y-55.53
X203.01Y-93.48
X203.01Y-94.76
X203.01Y-96.06
X203.827Y-78.61
X204.22Y-58.04
X204.42Y-93.47
X204.42Y-94.75
X204.42Y-96.05
X204.53Y-53.92
X204.72Y-61.56
X204.72Y-71.56
X204.72Y-73.56
X204.72Y-75.56
X205.317Y-78.62
X205.32Y-58.3
X205.58Y-56.69
X205.76Y-48.64
X205.76Y-50.35
X205.76Y-52.19
X205.91Y-93.48
X205.91Y-94.76
X205.91Y-96.06
X206.72Y-61.56
X206.72Y-67.56
X206.72Y-69.56
X206.72Y-71.56
X206.72Y-73.56
X206.72Y-75.56
X206.817Y-78.62
X206.82Y-58.3
X206.98Y-55.33
X207.32Y-93.47
X207.32Y-94.75
X207.32Y-96.05
X207.38Y-84.23
X208.21Y-88.18
X208.32Y-58.3
X208.45Y-48.63
X208.45Y-50.36
X208.45Y-52.21
X208.48Y-54.03
X208.71Y-93.47
X208.71Y-94.75
X208.71Y-96.05
X208.72Y-61.56
X208.72Y-66.54
X208.72Y-69.56
X208.72Y-71.56
X208.72Y-73.56
X208.72Y-75.56
X208.77Y-91.49
X208.79Y-55.31
X209.03Y-84.23
X210.12Y-93.46
X210.12Y-94.74
X210.12Y-96.04
X210.39Y-55.31
X210.633Y-59.09
X210.66Y-84.22
X210.72Y-61.56
X211.0Y-70.44
X211.46Y-93.47
X211.46Y-94.75
X211.46Y-96.05
X212.72Y-41.56
X216.19Y-47.38
X219.72Y-41.56
X219.72Y-43.56
X221.72Y-41.56
X221.72Y-43.56
X221.72Y-45.56
X221.72Y-47.56
X221.72Y-83.56
X221.72Y-89.56
X221.72Y-95.56
X222.31Y-53.58
X223.42Y-66.17
X223.44Y-76.8
X223.72Y-41.56
X223.72Y-47.56
X223.72Y-49.56
X223.72Y-51.56
X223.72Y-57.56
X223.72Y-59.56
X223.72Y-61.56
X223.72Y-83.56
X223.72Y-89.56
X223.72Y-95.56
X225.72Y-41.56
X225.72Y-47.56
X225.72Y-49.56
X225.72Y-51.56
X225.72Y-57.56
X225.72Y-59.56
X225.72Y-65.56
X225.72Y-71.56
X225.72Y-75.56
X225.72Y-77.56
X225.72Y-83.56
X225.72Y-93.56
X225.72Y-95.56
X227.72Y-41.56
X227.72Y-47.56
X227.72Y-49.56
X227.72Y-51.56
X227.72Y-57.56
X227.72Y-63.56
X227.72Y-65.56
X227.72Y-73.56
X227.72Y-75.56
X227.72Y-77.56
X227.72Y-83.56
X227.72Y-91.56
X227.72Y-93.56
X227.72Y-95.56
X229.72Y-41.56
X229.72Y-45.56
X229.72Y-47.56
X229.72Y-49.56
X229.72Y-51.56
X229.72Y-53.56
X229.72Y-61.56
X229.72Y-63.56
X229.72Y-65.56
X229.72Y-73.56
X229.72Y-75.56
X229.72Y-77.56
X229.72Y-83.56
X229.72Y-85.56
X229.72Y-93.56
X229.72Y-95.56
X231.19Y-77.33
X231.21Y-82.62
X231.72Y-41.56
X231.72Y-43.56
X231.72Y-49.56
X231.72Y-53.56
X231.72Y-59.56
X231.72Y-61.56
X231.72Y-63.56
X231.72Y-65.56
X231.72Y-73.56
X231.72Y-93.56
X231.72Y-95.56
X232.53Y-78.01
X233.72Y-41.56
X233.72Y-43.56
X233.72Y-49.56
X233.72Y-57.56
X233.72Y-59.56
X233.72Y-61.56
X233.72Y-63.56
X233.72Y-65.56
X233.72Y-67.56
X233.72Y-93.56
X233.72Y-95.56
X235.58Y-50.44
X235.72Y-41.56
X235.72Y-43.56
X235.72Y-45.56
X235.72Y-74.85
X235.72Y-79.56
X235.72Y-81.56
X235.72Y-85.56
X235.72Y-87.56
X235.72Y-89.56
X235.72Y-91.56
X235.72Y-93.56
X235.72Y-95.56
X237.72Y-41.56
X237.72Y-43.56
X237.72Y-45.56
X237.72Y-47.56
X237.72Y-49.56
X237.72Y-51.56
X237.72Y-57.56
X237.72Y-59.56
X237.72Y-61.56
X237.72Y-63.56
X237.72Y-65.56
X237.72Y-67.56
X237.72Y-69.56
X237.72Y-71.56
X237.72Y-77.56
X237.72Y-79.56
X237.72Y-81.56
X237.72Y-85.56
X237.72Y-87.56
X237.72Y-89.56
X237.72Y-95.56
X239.72Y-41.56
X239.72Y-43.56
X239.72Y-45.56
X239.72Y-47.56
X239.72Y-51.56
X239.72Y-57.56
X239.72Y-59.56
X239.72Y-61.56
X239.72Y-63.56
X239.72Y-65.56
X239.72Y-71.56
X239.72Y-77.56
X239.72Y-79.56
X239.72Y-81.56
X239.72Y-89.56
X239.72Y-95.56
X241.72Y-41.56
X241.72Y-43.56
X241.72Y-45.56
X241.72Y-47.56
X241.72Y-49.56
X241.72Y-51.56
X241.72Y-57.56
X241.72Y-59.56
X241.72Y-61.56
X241.72Y-63.56
X241.72Y-65.56
X241.72Y-67.56
X241.72Y-69.56
X241.72Y-77.56
X241.72Y-79.56
X241.72Y-81.56
X241.72Y-85.56
X241.72Y-87.56
X241.72Y-89.56
X241.72Y-95.56
X243.72Y-41.56
X243.72Y-43.56
X243.72Y-45.56
X243.72Y-57.56
X243.72Y-59.56
X243.72Y-61.56
X243.72Y-63.56
X243.72Y-65.56
X243.72Y-77.56
X243.72Y-79.56
X243.72Y-81.56
X243.72Y-95.56
X245.72Y-41.56
X245.72Y-43.56
X245.72Y-45.56
X245.72Y-53.56
X245.72Y-55.56
X245.72Y-57.56
X245.72Y-59.56
X245.72Y-61.56
X245.72Y-63.56
X245.72Y-65.56
X245.72Y-71.56
X245.72Y-73.56
X245.72Y-75.56
X245.72Y-77.56
X245.72Y-79.56
X245.72Y-81.56
X245.72Y-91.56
X245.72Y-93.56
X245.72Y-95.56
X247.72Y-41.56
X247.72Y-43.56
X247.72Y-45.56
X247.72Y-47.56
X247.72Y-55.56
X247.72Y-57.56
X247.72Y-59.56
X247.72Y-61.56
X247.72Y-63.56
X247.72Y-65.56
X247.72Y-73.56
X247.72Y-75.56
X247.72Y-77.56
X247.72Y-79.56
X247.72Y-81.56
X247.72Y-93.56
X247.72Y-95.56
X249.72Y-41.56
X249.72Y-43.56
X249.72Y-45.56
X249.72Y-47.56
X249.72Y-55.56
X249.72Y-57.56
X249.72Y-59.56
X249.72Y-61.56
X249.72Y-63.56
X249.72Y-65.56
X249.72Y-73.56
X249.72Y-75.56
X249.72Y-77.56
X249.72Y-79.56
X249.72Y-81.56
X249.72Y-93.56
X249.72Y-95.56
X251.72Y-41.56
X251.72Y-43.56
X251.72Y-45.56
X251.72Y-47.56
X251.72Y-93.56
X251.72Y-95.56
X252.62Y-57.54
X252.65Y-76.45
X253.0Y-79.55
X253.0Y-81.55
T4
X212.44Y-60.39
X212.44Y-62.93
X212.44Y-65.47
X212.44Y-68.01
X214.26Y-72.74
X214.26Y-75.24
X214.98Y-60.39
X214.98Y-62.93
X214.98Y-65.47
X214.98Y-68.01
T5
X218.54Y-47.02
X218.54Y-49.52
X218.54Y-52.02
X233.04Y-47.02
X233.04Y-52.02
T3
X191.36Y-41.99G85X190.56Y-41.99
G05
X191.36Y-50.63G85X190.56Y-50.63
G05
X195.69Y-41.99G85X194.59Y-41.99
G05
X195.69Y-50.63G85X194.59Y-50.63
G05
T6
X226.19Y-43.92G85X225.89Y-43.92
G05
X226.19Y-55.12G85X225.89Y-55.12
G05
M30
